<?xml version="1.0" encoding="utf-8"?>
<!-- Generator: Adobe Illustrator 16.0.3, SVG Export Plug-In . SVG Version: 6.00 Build 0)  -->
<!DOCTYPE svg PUBLIC "-//W3C//DTD SVG 1.1//EN" "http://www.w3.org/Graphics/SVG/1.1/DTD/svg11.dtd">
<svg version="1.1" id="Layer_1" xmlns="http://www.w3.org/2000/svg" xmlns:xlink="http://www.w3.org/1999/xlink" x="0px" y="0px"
	 width="184.224px" height="32.425px" viewBox="0 0 184.224 32.425" enable-background="new 0 0 184.224 32.425"
	 xml:space="preserve">
<path fill-rule="evenodd" clip-rule="evenodd" fill="#4D4D4D" d="M1.99,16.399c0-8.138,6.449-14.74,14.586-14.893
	c8.137,0,14.893,6.602,14.893,14.739h-0.154c-0.154-7.37-6.141-13.357-13.511-13.357S4.6,9.029,4.6,16.399H1.99"/>
<path fill-rule="evenodd" clip-rule="evenodd" fill="#4D4D4D" d="M31.162,16.399c0-5.988-4.759-10.748-10.747-10.748
	c-5.988,0-10.287,4.76-10.287,10.748H7.21c0-6.756,5.527-12.129,12.283-12.283c6.601,0,11.975,6.141,12.129,12.129L31.162,16.399z"
	/>
<path fill-rule="evenodd" clip-rule="evenodd" fill="#4D4D4D" d="M31.315,16.245c0-4.299-3.685-7.83-8.137-7.83
	c-4.453,0-7.677,3.531-7.677,7.984h-2.763c0-5.221,3.991-9.52,9.211-9.52c5.221,0,9.366,4.299,9.52,9.366H31.315z"/>
<path fill-rule="evenodd" clip-rule="evenodd" fill="#4D4D4D" d="M1.99,16.399h0.307c0,7.369,5.988,13.357,13.358,13.357
	c7.523,0,13.357-6.141,13.357-13.511h2.61c0,8.138-6.602,14.893-14.739,14.893C8.746,31.138,2.144,24.536,1.99,16.399"/>
<path fill-rule="evenodd" clip-rule="evenodd" fill="#4D4D4D" d="M1.99,16.399l0.307-0.154c0,5.988,4.76,10.747,10.747,10.747
	c5.988,0,10.441-4.759,10.287-10.747h2.918c0,6.755-5.528,12.283-12.13,12.283C7.364,28.528,1.99,22.387,1.99,16.399"/>
<path fill-rule="evenodd" clip-rule="evenodd" fill="#4D4D4D" d="M2.144,16.399c0.153,4.299,3.839,7.83,8.137,7.83
	c4.453,0,7.677-3.531,7.677-7.984h2.764c0,5.221-3.992,9.52-9.212,9.52C6.289,25.765,2.144,21.619,2.144,16.399"/>
<path fill-rule="evenodd" clip-rule="evenodd" fill="#4D4D4D" d="M54.499,19.776h-4.913l3.992-8.598L54.499,19.776z M45.901,27.76
	l1.382-3.071h7.676l0.461,3.071h7.677L58.798,3.962h-7.83L38.224,27.76H45.901z"/>
<polygon fill-rule="evenodd" clip-rule="evenodd" fill="#4D4D4D" points="66.628,27.76 70.773,3.962 78.604,3.962 74.458,27.76 "/>
<path fill-rule="evenodd" clip-rule="evenodd" fill="#4D4D4D" d="M89.812,9.797h3.838c1.228,0,1.996,0.153,2.457,0.614
	c0.307,0.307,0.46,0.921,0.307,1.535c-0.154,0.768-0.461,1.382-1.075,1.689c-0.461,0.46-1.382,0.614-2.61,0.614h-3.685L89.812,9.797
	z M86.741,27.76l1.382-8.291h3.07c0.922,0,1.689,0.154,2.15,0.307c0.461,0.307,0.767,0.614,0.921,1.075
	c0.154,0.46,0.154,1.075,0,1.842l-0.154,1.843c-0.306,1.535-0.306,2.61-0.306,3.224h7.983v-0.768c-0.153,0-0.46,0-0.46-0.153
	c-0.154-0.154-0.154-0.461,0-1.075l0.614-3.685c0.153-1.689,0.153-2.917-0.307-3.531c-0.461-0.768-1.382-1.382-2.764-1.996
	c0.768-0.153,1.382-0.461,1.996-0.768c0.768-0.614,1.382-1.228,1.842-1.995c0.615-0.922,0.922-1.843,1.229-3.071
	c0.153-0.921,0.153-1.689,0-2.303c-0.154-0.768-0.461-1.382-0.768-1.843c-0.461-0.614-0.921-1.074-1.535-1.535
	c-0.768-0.307-1.536-0.614-2.61-0.768c-1.075-0.153-2.457-0.307-4.146-0.307H83.363L79.218,27.76H86.741z"/>
<path fill-rule="evenodd" clip-rule="evenodd" fill="#4D4D4D" d="M118.676,9.336c1.074,0,1.842,0.153,2.149,0.153
	c0.461,0.154,0.768,0.461,0.922,0.768c0.306,0.307,0.306,0.767,0.306,1.228c-0.153,0.614-0.46,1.075-1.074,1.536
	c-0.461,0.307-1.382,0.614-2.61,0.614h-2.918l0.768-4.299H118.676z M117.448,27.761c1.842,0,3.07-0.154,3.838-0.307
	c0.767-0.154,1.689-0.461,2.456-0.768c0.922-0.461,1.536-0.768,1.997-1.228c0.767-0.461,1.228-1.228,1.688-1.996
	c0.614-0.921,0.922-1.843,1.075-2.764c0.154-1.382,0-2.61-0.461-3.531c-0.614-1.075-1.381-1.689-2.61-1.996
	c2.303-1.382,3.685-3.071,3.992-5.067c0.461-2.149-0.153-3.684-1.842-4.759c-1.229-0.922-3.224-1.382-6.295-1.382h-11.669
	l-4.145,23.798H117.448z M117.909,17.781c1.535,0,2.457,0.307,2.917,0.614c0.461,0.461,0.614,0.921,0.461,1.689
	c-0.154,0.614-0.461,1.228-1.075,1.689c-0.614,0.307-1.535,0.614-3.071,0.614h-3.224l0.768-4.606H117.909z"/>
<path fill-rule="evenodd" clip-rule="evenodd" fill="#4D4D4D" d="M135.872,3.962h7.677l-2.61,14.739
	c-0.154,0.921-0.154,1.689,0,2.15c0.153,0.46,0.46,0.921,1.075,1.228c0.613,0.307,1.228,0.461,1.995,0.461
	c1.075,0,2.15-0.308,2.764-0.922c0.768-0.614,1.228-1.688,1.535-2.917l2.61-14.739h7.677l-2.456,13.971
	c-0.307,1.689-0.614,3.071-1.075,4.146c-0.461,0.921-1.075,1.842-1.842,2.61c-0.768,0.768-1.689,1.535-2.611,1.996
	c-1.074,0.614-2.149,1.075-3.377,1.382c-1.382,0.154-2.764,0.307-4.146,0.307c-1.689,0-3.071-0.153-4.299-0.307
	c-1.228-0.307-2.149-0.768-2.917-1.382c-0.921-0.614-1.535-1.228-1.996-1.996c-0.46-0.768-0.768-1.842-0.768-3.071
	c-0.153-0.767,0-2.149,0.308-3.838L135.872,3.962z"/>
<path fill-rule="evenodd" clip-rule="evenodd" fill="#4D4D4D" d="M182.239,10.872h-7.523c0-0.614-0.307-1.228-0.614-1.535
	c-0.461-0.307-1.075-0.461-1.996-0.461s-1.689,0.154-2.15,0.461c-0.46,0.307-0.614,0.614-0.767,1.075c0,0.46,0,0.613,0.307,0.921
	c0.307,0.307,1.074,0.614,2.456,0.921l2.917,0.768c2.61,0.767,4.453,1.688,5.374,2.917c0.921,1.228,1.228,2.61,0.921,4.299
	c-0.307,1.381-0.767,2.456-1.535,3.531c-0.768,1.075-1.689,1.996-2.61,2.61c-0.921,0.614-2.15,1.075-3.531,1.535
	c-1.382,0.308-2.918,0.461-4.453,0.461c-1.535,0-3.071-0.153-4.453-0.614c-1.381-0.461-2.456-1.075-3.224-1.843
	c-0.767-0.767-1.381-1.688-1.689-2.763c-0.153-0.768-0.153-1.689-0.153-2.764h7.523c0,0.768,0.307,1.382,0.768,1.689
	c0.461,0.461,1.382,0.614,2.61,0.614c1.075,0,1.842-0.153,2.303-0.461c0.46-0.307,0.614-0.614,0.768-1.074
	c0-0.461,0-0.921-0.308-1.228c-0.307-0.308-1.074-0.615-2.456-0.922l-2.61-0.614c-1.228-0.307-2.61-0.768-3.685-1.382
	c-1.075-0.614-1.996-1.381-2.457-2.456c-0.46-0.921-0.46-1.996-0.307-3.378c0.307-1.382,0.768-2.456,1.536-3.531
	c0.767-1.075,1.689-1.843,2.763-2.457c0.922-0.768,2.15-1.075,3.378-1.382s2.457-0.46,3.685-0.46c1.535,0,2.763,0.153,3.992,0.46
	c1.228,0.307,1.996,0.768,2.763,1.229c0.615,0.46,1.075,1.074,1.382,1.689c0.461,0.614,0.614,1.228,0.768,1.842
	C182.086,9.183,182.239,9.951,182.239,10.872"/>
</svg>
