<?xml version="1.0" encoding="utf-8"?>
<!-- Generator: Adobe Illustrator 16.0.3, SVG Export Plug-In . SVG Version: 6.00 Build 0)  -->
<!DOCTYPE svg PUBLIC "-//W3C//DTD SVG 1.1//EN" "http://www.w3.org/Graphics/SVG/1.1/DTD/svg11.dtd">
<svg version="1.1" id="Layer_1" xmlns="http://www.w3.org/2000/svg" xmlns:xlink="http://www.w3.org/1999/xlink" x="0px" y="0px"
	 width="61.89px" height="61.759px" viewBox="0 0 61.89 61.759" enable-background="new 0 0 61.89 61.759" xml:space="preserve">
<rect fill="#4D4D4D" width="61.298" height="61.294"/>
<path fill="#FFFFFF" d="M55.194,39.855c0.224-6.092-2.941-9.483-8.67-9.483c-5.31,0-8.394,3.855-8.394,9.601
	c0,6.06,3.084,9.642,8.394,9.642h8.975v-3.499h-2.641C54.162,44.832,55.092,42.604,55.194,39.855 M44.374,39.974
	c0-3.214,0.683-4.757,2.15-4.757c1.469,0,2.153,1.543,2.153,4.757s-0.685,4.756-2.153,4.756
	C45.057,44.729,44.374,43.188,44.374,39.974"/>
<path fill="#FFFFFF" d="M18.301,39.813c2.118-1.109,2.716-2.443,2.688-4.535c-0.034-2.69-1.954-4.631-5.871-4.631H6.235v18.987
	h9.044c3.291,0,6.169-1.803,6.169-5.323C21.448,41.979,20.318,40.451,18.301,39.813 M12.34,34.949h0.786
	c1.089,0,1.672,0.49,1.672,1.475c0,0.984-0.583,1.553-1.672,1.553H12.34V34.949z M13.382,45.331H12.34v-3.383h1.042
	c1.104,0,1.768,0.548,1.768,1.651C15.149,44.702,14.485,45.331,13.382,45.331"/>
<path fill="#FFFFFF" d="M37.643,49.652c-0.166-1.132-0.744-2.44-1.65-3.866c0.36-0.363,0.73-0.753,1.11-1.177l-2.318-2.686
	c-0.338,0.3-0.671,0.608-1.003,0.912c-0.476-0.565-0.99-1.14-1.541-1.722c1.606-1.087,2.693-2.486,2.693-4.269
	c0-1.975-1.749-3.968-4.947-3.968c-3.35,0-5.262,1.932-5.262,4.164c0,1.265,0.769,2.507,1.576,3.486
	c-1.577,1.086-2.946,2.577-3.062,4.427c-0.206,3.286,2.32,5.042,5.412,4.91c1.235-0.05,2.585-0.436,4.14-1.423
	c0.249,0.457,0.423,0.874,0.485,1.212H37.643z M29.946,35.9c0.591,0,0.991,0.572,0.991,1.14c0,0.393-0.245,0.954-1.147,1.563
	c-0.551-0.607-0.876-1.105-0.876-1.602C28.914,36.477,29.327,35.9,29.946,35.9 M28.192,45.775c-0.507-0.417-0.881-1.692,0.543-2.638
	c0.604,0.668,1.302,1.475,1.972,2.31C29.726,46.093,28.865,46.333,28.192,45.775"/>
</svg>
