<?xml version="1.0" encoding="utf-8"?>
<!-- Generator: Adobe Illustrator 16.0.3, SVG Export Plug-In . SVG Version: 6.00 Build 0)  -->
<!DOCTYPE svg PUBLIC "-//W3C//DTD SVG 1.1//EN" "http://www.w3.org/Graphics/SVG/1.1/DTD/svg11.dtd">
<svg version="1.1" id="Layer_1" xmlns="http://www.w3.org/2000/svg" xmlns:xlink="http://www.w3.org/1999/xlink" x="0px" y="0px"
	 width="68.7px" height="68.701px" viewBox="0 0 68.7 68.701" enable-background="new 0 0 68.7 68.701" xml:space="preserve">
<g>
	<path fill="#4D4D4D" d="M34.35,68.701c9.175,0,17.801-3.573,24.289-10.061C65.127,52.152,68.7,43.526,68.7,34.351
		c0-9.175-3.573-17.801-10.061-24.289C52.151,3.574,43.525,0,34.35,0C15.409,0,0,15.41,0,34.351c0,9.175,3.573,17.801,10.061,24.289
		C16.549,65.128,25.175,68.701,34.35,68.701"/>
	<path fill="#FFFFFF" d="M1.188,34.351c0-8.858,3.449-17.185,9.713-23.449c6.263-6.263,14.591-9.713,23.449-9.713
		c8.857,0,17.185,3.45,23.449,9.713c6.263,6.264,9.712,14.591,9.712,23.449c0,18.285-14.876,33.162-33.161,33.162
		c-8.858,0-17.186-3.45-23.449-9.713C4.637,51.536,1.188,43.208,1.188,34.351"/>
	<path fill="#4D4D4D" d="M34.35,2.556c-17.56,0-31.795,14.235-31.795,31.795S16.79,66.146,34.35,66.146
		c17.56,0,31.795-14.235,31.795-31.795S51.91,2.556,34.35,2.556"/>
	<path fill="#FFFFFF" d="M34.35,54.66c-11.217,0-20.31-9.093-20.31-20.31c0-11.216,9.093-20.309,20.31-20.309
		c11.217,0,20.31,9.093,20.31,20.309C54.66,45.567,45.567,54.66,34.35,54.66"/>
	<path fill="#4D4D4D" d="M15.347,34.351H34.35V15.348C23.855,15.348,15.347,23.855,15.347,34.351"/>
	<path fill="#4D4D4D" d="M34.35,34.351v19.003c10.495,0,19.003-8.508,19.003-19.003H34.35z"/>
	<path fill="#FFFFFF" d="M19.425,14.973c-0.673-0.654-1.714-0.852-2.691-0.246c0.187-0.483,0.111-0.977,0.011-1.249
		c-0.42-0.768-0.567-0.864-0.914-1.155c-1.123-0.942-2.305-0.138-3.15,0.87l-4.084,4.866l6.42,5.387l4.306-5.132
		C20.307,17.141,20.46,15.979,19.425,14.973"/>
	<polygon fill="#FFFFFF" points="35.414,12.66 37.619,6.816 37.619,12.66 39.293,12.66 39.293,4.292 36.776,4.292 34.487,10.283 
		34.511,10.283 32.221,4.292 29.704,4.292 29.704,12.66 31.378,12.66 31.378,6.816 33.583,12.66 	"/>
	<polygon fill="#FFFFFF" points="57.94,16.142 54.787,20.608 59.677,18.286 60.972,19.885 53.273,23.617 51.754,21.725 
		54.782,17.298 54.764,17.276 49.805,19.317 48.27,17.437 53.52,10.684 54.814,12.283 51.526,16.583 56.552,14.426 	"/>
	<path fill="#4D4D4D" d="M13.573,14.397c0.284-0.339,0.926-0.325,1.339,0.022c0.455,0.381,0.456,0.921,0.151,1.284l-2.425,2.89
		L11.12,17.32L13.573,14.397z"/>
	<path fill="#4D4D4D" d="M17.888,17.806l-2.557,3.047l-1.603-1.345l2.577-3.072c0.292-0.347,0.94-0.448,1.378-0.081
		C18.179,16.771,18.228,17.401,17.888,17.806"/>
</g>
</svg>
