<?xml version="1.0" encoding="utf-8"?>
<!-- Generator: Adobe Illustrator 16.0.3, SVG Export Plug-In . SVG Version: 6.00 Build 0)  -->
<!DOCTYPE svg PUBLIC "-//W3C//DTD SVG 1.1//EN" "http://www.w3.org/Graphics/SVG/1.1/DTD/svg11.dtd">
<svg version="1.1" id="Layer_1" xmlns="http://www.w3.org/2000/svg" xmlns:xlink="http://www.w3.org/1999/xlink" x="0px" y="0px"
	 width="197.224px" height="44.759px" viewBox="0 0 197.224 44.759" enable-background="new 0 0 197.224 44.759"
	 xml:space="preserve">
<path fill="#4D4D4D" d="M85.505,22.636c-0.288-1.127-0.754-2.115-1.396-2.965c-0.641-0.85-1.454-1.501-2.437-1.955
	c-0.983-0.454-2.272-0.682-3.869-0.682h-8.099v18.495h8.099c0.971,0,2.054-0.169,3.249-0.505c0.875-0.244,1.693-0.734,2.456-1.471
	c0.761-0.735,1.357-1.647,1.787-2.736c0.429-1.089,0.644-2.622,0.644-4.6C85.939,24.957,85.794,23.762,85.505,22.636 M80.416,29.961
	c-0.33,0.746-0.79,1.268-1.375,1.565c-0.587,0.3-1.572,0.449-2.957,0.449h-1.625v-11.4h1.654c1.718,0,2.946,0.408,3.689,1.224
	c0.742,0.817,1.112,2.329,1.112,4.54C80.914,28.009,80.748,29.217,80.416,29.961"/>
<polygon fill="#4D4D4D" points="88.277,17.034 100.158,17.034 100.158,21.009 93.173,21.009 93.173,24.238 98.935,24.238 
	98.935,27.972 93.173,27.972 93.173,35.529 88.277,35.529 "/>
<path fill="#4D4D4D" d="M27.865,9.646c0,0-0.535,1.035-0.736,2.506c-0.2,1.47-0.167,4.31-3.106,4.877c0,0-2.472,0.434-2.94-0.501
	c-0.468-0.935-1.32-1.052-1.971-2.071c-0.652-1.019-2.372-2.771-2.172-3.406c0.201-0.636-0.167-0.368-0.167-1.537
	c0-1.17,0.836-4.679,5.245-6.95c0,0,0.301-0.201,1.103,0.234c0.802,0.435,2.639-0.099,3.241-0.366
	c0.601-0.268,2.889-1.085,3.44-0.534c0.551,0.551-1.218,0.952-1.77,1.503c-0.552,0.551-1.403,1.337-1.403,4.644
	C26.629,8.043,28.151,8.962,27.865,9.646"/>
<path fill="#4D4D4D" d="M29.419,22.386c0,0-1.369-1.897-0.155-3.111c1.213-1.213,6.41-4.513,14.127-2.458
	c0,0,4.605,1.432,4.605,5.912c0,0-0.342,0.56-0.342,0.995s-0.373,0.996-2.022,0.996c0,0,0.185,0.934-1.557,1.12
	c-1.742,0.188-2.443-0.575-3.205,0.188c0,0,0.186-3.05-4.699-3.579C31.286,21.919,29.596,22.672,29.419,22.386"/>
<path fill="#4D4D4D" d="M41.96,35.89c-4.419-6.193-11.576-7.001-12.198-7.001c-0.623,0-0.653,0.311-0.653,0.311
	c-1.089,0.435-1.245,1.183-1.245,1.183c0.155,0.841,1.991,1.991,1.991,1.991c1.207,0.913,1.027,1.214,2.178,2.365
	c0.052,0.052,0.089,0.098,0.134,0.146c0.059,0.497,0.207,1.071,0.582,1.191v2.769c-0.575,0.576-0.373,0.747-0.373,0.747
	c0.31,0.811,1.555,0.841,1.555,0.841c2.178,1.026,4.046,3.268,4.046,3.268h0.685c1.026,0,1.369-0.373,1.369-0.373
	c1.026-1.027,1.712-1.152,2.49-1.152c0.777,0,0.995-1.462,0.995-1.462C43.671,38.13,41.96,35.89,41.96,35.89"/>
<path fill="#4D4D4D" d="M6.859,34.956c0,0,2.645,2.363,6.97,0.591c4.326-1.773,3.859-4.449,5.539-4.916c0,0,0.28-0.404,1.276-0.404
	c0.996,0,1.93,0.435,2.085,4.355c0.155,3.921-0.747,4.824-3.19,7.267c0,0-0.575,0.077-1.291,0.514
	c-0.716,0.436-2.458,1.463-3.205,0.716c0,0-1.743,0.497-2.396-0.156c0,0-0.467-0.25-1.245,0c-0.778,0.249-0.933-0.622-0.933-0.622
	h-1.09c0,0-0.498-1.463-0.933-1.463c-0.436,0-0.747-0.342-0.591-1.276C8.01,38.628,6.859,34.956,6.859,34.956"/>
<path fill="#4D4D4D" d="M6.92,13.641c0,0,1.586,5.57,5.445,6.503c0,0,1.867,0.219,3.361-0.218c1.494-0.435,3.019,0.001,3.174,1.868
	c0.156,1.866,0.062,2.551-2.396,4.138c0,0-2.365,1.09-4.979,1.245c-2.613,0.155-8.93-1.463-10.113-6.628c0,0,0.436-0.56,0.685-1.369
	s1.4-2.146,1.96-1.587s0.934-0.467,0.934-1.275h0.777C5.768,16.317,5.77,12.147,6.92,13.641"/>
<path fill="#4D4D4D" d="M66.922,27.54c0,0,1.862-10.83-8.101-10.83c0,0-8.405-0.476-8.405,9.4c0,9.877,6.802,9.877,8.491,9.877
	s5.415-0.303,8.014-2.469l-1.819-3.336c0,0-1.56,1.82-5.718,1.82c-4.159,0-3.595-4.463-3.595-4.463H66.922z M59.037,20.479
	c3.249,0,2.859,3.942,2.859,3.942h-6.107C55.789,23.858,55.788,20.479,59.037,20.479"/>
<polygon fill="#4D4D4D" points="115.238,19.209 115.238,17.16 103.832,17.16 103.832,35.055 115.238,35.055 115.238,33.005 
	105.813,33.005 105.813,26.995 114.554,26.995 114.554,24.947 105.813,24.947 105.813,19.209 "/>
<polygon fill="#4D4D4D" points="146.587,19.209 146.587,17.16 135.181,17.16 135.181,35.055 146.587,35.055 146.587,33.005 
	137.162,33.005 137.162,26.995 145.903,26.995 145.903,24.947 137.162,24.947 137.162,19.209 "/>
<polygon fill="#4D4D4D" points="130.538,17.228 130.538,32.664 120.838,17.228 117.355,17.228 117.355,35.122 119.677,35.122 
	119.677,18.71 129.512,35.122 132.86,35.122 132.86,17.228 "/>
<path fill="#4D4D4D" d="M162.705,24.126v-3.345c0-3.755-4.645-3.689-4.645-3.689h-9.083V35.19h2.117v-7.137h6.933
	c2.425,0,2.288,2.287,2.288,2.287v4.85h2.322v-4.985c0-3.074-2.46-3.074-2.46-3.074C162.636,27.131,162.705,24.126,162.705,24.126
	 M160.792,21.395v1.707c0,2.936-2.8,2.8-2.8,2.8h-6.898v-6.863h7.342C160.998,19.038,160.792,21.395,160.792,21.395"/>
<path fill="#4D4D4D" d="M177.184,22.624h2.391v-2.187c0,0-0.068-3.413-3.757-3.413h-6.694c0,0-4.302-0.341-4.302,4.576v9.083
	c0,0-0.068,4.609,4.61,4.609h5.977c0,0,4.08,0.409,4.08-4.081v-5.104h-7.701v1.775h5.6v3.277c0,0,0.202,2.084-2.084,2.084h-5.769
	c0,0-2.715,0.068-2.715-2.715v-8.997c0,0,0.206-2.587,2.587-2.587h5.728c0,0,2.079-0.272,2.079,2.079L177.184,22.624z"/>
<polygon fill="#4D4D4D" points="179.777,17.228 182.373,17.228 187.632,25.287 192.754,17.16 195.281,17.16 188.656,27.609 
	188.656,35.054 186.606,35.054 186.606,27.541 "/>
</svg>
