<?xml version="1.0" encoding="utf-8"?>
<!-- Generator: Adobe Illustrator 16.0.3, SVG Export Plug-In . SVG Version: 6.00 Build 0)  -->
<!DOCTYPE svg PUBLIC "-//W3C//DTD SVG 1.1//EN" "http://www.w3.org/Graphics/SVG/1.1/DTD/svg11.dtd">
<svg version="1.1" id="Layer_1" xmlns="http://www.w3.org/2000/svg" xmlns:xlink="http://www.w3.org/1999/xlink" x="0px" y="0px"
	 width="144.557px" height="44.759px" viewBox="0 0 144.557 44.759" enable-background="new 0 0 144.557 44.759"
	 xml:space="preserve">
<polygon fill="#666666" points="106.838,42.952 118.652,29.679 106.838,16.401 119.303,16.401 125.154,22.851 130.789,16.401 
	142.819,16.401 131.061,29.624 142.979,42.952 130.464,42.952 124.666,36.45 118.922,42.952 "/>
<polygon fill="#666666" points="106.838,10.451 93.457,10.451 93.457,16.402 106.838,16.402 106.838,25.372 93.457,25.372 
	93.457,33.605 106.838,33.605 106.838,42.953 83.623,42.953 83.623,1.128 106.838,1.128 "/>
<path fill="#4D4D4D" d="M73.83,1.129v17.115h-0.108c-2.168-2.491-4.877-3.357-8.02-3.357c-6.438,0-11.288,4.377-12.99,10.164
	c-1.94-6.376-6.948-10.284-14.373-10.284c-6.029,0-10.79,2.707-13.274,7.117v-5.482H12.603V10.45h13.6V1.129H1.492v41.824h11.11
	V25.372h11.072c-0.33,1.292-0.506,2.674-0.506,4.134c0,8.724,6.665,14.846,15.17,14.846c7.153,0,11.867-3.359,14.36-9.479h-9.521
	c-1.288,1.839-2.265,2.385-4.84,2.385c-2.984,0-5.559-2.605-5.559-5.692h19.386c0.84,6.929,6.238,12.906,13.646,12.906
	c3.194,0,6.12-1.572,7.909-4.227h0.108v2.707h9.793V1.129H73.83z M33.089,25.497c0.618-2.656,2.678-4.394,5.25-4.394
	c2.832,0,4.787,1.684,5.302,4.394H33.089z M67.887,36.585c-3.609,0-5.853-3.364-5.853-6.876c0-3.754,1.951-7.364,5.853-7.364
	c4.046,0,5.658,3.61,5.658,7.364C73.544,33.27,71.836,36.585,67.887,36.585"/>
</svg>
