<?xml version="1.0" encoding="utf-8"?>
<!-- Generator: Adobe Illustrator 16.0.3, SVG Export Plug-In . SVG Version: 6.00 Build 0)  -->
<!DOCTYPE svg PUBLIC "-//W3C//DTD SVG 1.1//EN" "http://www.w3.org/Graphics/SVG/1.1/DTD/svg11.dtd">
<svg version="1.1" id="Layer_1" xmlns="http://www.w3.org/2000/svg" xmlns:xlink="http://www.w3.org/1999/xlink" x="0px" y="0px"
	 width="173.557px" height="41.759px" viewBox="0 0 173.557 41.759" enable-background="new 0 0 173.557 41.759"
	 xml:space="preserve">
<path fill="#4D4D4D" d="M1.595,37.149h1.351c4.183,0,4.563-2.074,4.563-6.515V1.118l4.269,4.243V31.82
	c0,4.691-1.603,8.412-5.957,9.299L1.595,37.149"/>
<path fill="#4D4D4D" d="M25.155,15.797c3.635,0,6.257,2.58,6.257,6.135c0,3.969-2.407,6.424-6.257,6.424
	c-3.507,0-5.915-2.578-5.915-6.468C19.24,18.377,21.733,15.797,25.155,15.797 M25.198,31.948c6.086,0,10.273-4.06,10.273-10.061
	c0-5.625-4.311-9.684-10.273-9.684c-5.664,0-10.017,4.23-10.017,9.684C15.181,27.723,19.364,31.948,25.198,31.948"/>
<path fill="#4D4D4D" d="M50.895,19.771c0-2.703-1.357-4.434-3.512-4.434c-1.561,0-2.831,0.717-4.521,2.659v13.571h-3.974V3.454
	h3.974v11.373c1.394-1.689,3.465-2.708,5.497-2.708c3.759,0,6.509,2.578,6.509,7.78v11.668h-3.973V19.771"/>
<path fill="#4D4D4D" d="M71.471,19.856c0-2.745-1.351-4.439-3.512-4.439c-1.561,0-2.831,0.719-4.521,2.621v13.53h-3.972v-19.04
	h3.972v2.384c1.395-1.694,3.465-2.708,5.497-2.708c3.636,0,6.51,2.494,6.51,7.696v11.668h-3.974V19.856"/>
<polygon fill="#4D4D4D" points="87.246,1.117 91.067,5.024 91.067,27.637 99.632,27.637 103.35,31.568 87.246,31.568 "/>
<path fill="#4D4D4D" d="M110.344,15.674c2.493,0,4.059,1.689,4.226,4.079h-9.127C105.99,17.234,107.637,15.674,110.344,15.674
	 M118.144,29.602c-0.633-0.552-2.475-2.388-2.475-2.388c-1.437,0.633-2.789,0.927-4.183,0.927c-3.469,0-5.539-1.816-6.128-5.13
	h13.148c0-7.337-3.218-10.806-8.247-10.806c-5.24,0-8.875,3.888-8.875,9.641c0,5.239,3.297,10.102,9.212,10.102
	C113.771,31.947,115.831,31.233,118.144,29.602"/>
<polygon fill="#4D4D4D" points="140.177,31.948 134.551,18.382 128.966,31.948 127.785,31.948 119.253,12.509 123.492,12.509 
	128.385,23.907 133.072,12.509 136.031,12.509 140.739,23.907 145.607,12.499 149.823,12.499 141.361,31.948 "/>
<path fill="#4D4D4D" d="M151.758,5.604c0-1.271,1.014-2.326,2.242-2.326c1.223,0,2.242,1.056,2.242,2.326
	c0,1.309-1.02,2.366-2.242,2.366C152.771,7.97,151.758,6.912,151.758,5.604 M152.097,12.499h3.978v19.069h-3.978V12.499z"/>
<path fill="#4D4D4D" d="M159.459,30.173v-4.315c2.579,1.816,4.863,2.589,6.306,2.589c1.379,0,2.454-0.538,2.502-1.78
	c0.029-0.657-0.479-1.355-1.284-1.903c-0.801-0.595-1.903-1.143-2.998-1.817c-2.16-1.271-4.397-2.917-4.397-5.539
	c0-3.255,2.304-5.202,6.253-5.202c1.775,0,3.555,0.509,5.582,1.61v3.972c-2.242-1.523-4.339-2.122-5.692-2.122
	c-1.479,0-2.174,0.652-2.127,1.613c0.043,0.966,1.161,1.718,4.569,3.649c3.202,1.819,4.14,3.412,4.14,5.396
	c0,3.383-2.665,5.625-6.258,5.625C163.728,31.948,161.953,31.481,159.459,30.173"/>
</svg>
