<?xml version="1.0" encoding="utf-8"?>
<!-- Generator: Adobe Illustrator 16.0.3, SVG Export Plug-In . SVG Version: 6.00 Build 0)  -->
<!DOCTYPE svg PUBLIC "-//W3C//DTD SVG 1.1//EN" "http://www.w3.org/Graphics/SVG/1.1/DTD/svg11.dtd">
<svg version="1.1" id="Layer_1" xmlns="http://www.w3.org/2000/svg" xmlns:xlink="http://www.w3.org/1999/xlink" x="0px" y="0px"
	 width="245.557px" height="46.425px" viewBox="0 0 245.557 46.425" enable-background="new 0 0 245.557 46.425"
	 xml:space="preserve">
<path fill="#4D4D4D" d="M18.497,1.423c0,0,0.388,0.371,0.373,0.694c0,0-0.47-0.081-0.6-0.307v0.87c0,0,0.31-0.339,0.551-0.308
	c0,0,0.129,0.307-0.146,0.628c-0.274,0.322-0.437,0.628-0.355,0.87c0.08,0.241,0.241,0.473,0.646,0.453
	c0.364-0.003,0.515-0.223,0.592-0.453c0.081-0.242-0.082-0.548-0.355-0.87c-0.275-0.321-0.146-0.628-0.146-0.628
	c0.242-0.031,0.551,0.308,0.551,0.308v-0.87c-0.13,0.226-0.6,0.307-0.6,0.307c-0.015-0.323,0.373-0.694,0.373-0.694l-0.414,0.006
	L18.497,1.423z M16.283,3.509c-0.153,0-0.278,0.124-0.278,0.277c0,0.154,0.125,0.277,0.278,0.277s0.277-0.123,0.277-0.277
	C16.561,3.633,16.437,3.509,16.283,3.509 M21.593,3.509c-0.154,0-0.28,0.124-0.28,0.277c0,0.154,0.126,0.277,0.28,0.277
	c0.153,0,0.278-0.123,0.278-0.277C21.871,3.633,21.746,3.509,21.593,3.509 M14.768,3.762c-0.152,0-0.274,0.124-0.274,0.277
	c0,0.154,0.122,0.28,0.274,0.28c0.154,0,0.28-0.126,0.28-0.28C15.048,3.886,14.922,3.762,14.768,3.762 M23.105,3.762
	c-0.154,0-0.279,0.124-0.279,0.277c0,0.154,0.125,0.28,0.279,0.28c0.153,0,0.277-0.126,0.277-0.28
	C23.383,3.886,23.259,3.762,23.105,3.762 M17.662,4.016c-0.154,0-0.278,0.126-0.278,0.279c0,0.152,0.124,0.275,0.278,0.275
	c0.152,0,0.277-0.123,0.277-0.275C17.939,4.142,17.814,4.016,17.662,4.016 M20.212,4.016c-0.153,0-0.278,0.126-0.278,0.279
	c0,0.152,0.125,0.275,0.278,0.275c0.154,0,0.28-0.123,0.28-0.275C20.492,4.142,20.366,4.016,20.212,4.016 M15.76,4.228
	c-0.573,0.016-1.126,0.23-1.391,0.769c-0.18,0.366-0.125,0.897-0.03,1.279c0.056,0.223,0.178,0.442,0.259,0.658l0.31-0.285
	c-0.05-0.138-0.114-0.308-0.146-0.414c-0.062-0.204-0.096-0.421-0.085-0.636c0.03-0.641,0.4-0.853,0.886-0.932
	c0.504-0.079,1.034,0.131,1.477,0.347c0.791,0.388,1.145,0.392,1.145,0.392V4.975c-0.104-0.024-0.189-0.055-0.3-0.092
	c-0.33-0.117-0.604-0.278-0.976-0.439c-0.3-0.128-0.666-0.211-1.033-0.216C15.836,4.227,15.798,4.226,15.76,4.228 M22.002,4.228
	c-0.367,0.005-0.734,0.088-1.032,0.216c-0.374,0.161-0.646,0.322-0.977,0.439c-0.109,0.037-0.196,0.067-0.301,0.092L19.69,5.405
	c0,0,0.357-0.004,1.147-0.392c0.442-0.216,0.971-0.426,1.476-0.347c0.486,0.079,0.855,0.291,0.885,0.932
	c0.011,0.215-0.021,0.432-0.083,0.636c-0.032,0.106-0.102,0.276-0.148,0.414l0.313,0.285c0.081-0.216,0.202-0.436,0.258-0.658
	c0.095-0.382,0.148-0.913-0.029-1.279C23.225,4.422,22.614,4.218,22.002,4.228z M18.482,4.499v1.296h0.482h0.431V4.499h-0.431
	H18.482z M13.838,4.923c-0.153,0-0.278,0.123-0.278,0.275c0,0.154,0.125,0.281,0.278,0.281c0.154,0,0.28-0.127,0.28-0.281
	C14.118,5.046,13.992,4.923,13.838,4.923 M24.039,4.923c-0.155,0-0.281,0.123-0.281,0.275c0,0.154,0.126,0.281,0.281,0.281
	c0.152,0,0.274-0.127,0.274-0.281C24.313,5.046,24.191,4.923,24.039,4.923 M21.279,5.659c-0.131,0.046-0.289,0.127-0.373,0.236
	c-0.126,0.167-0.104,0.412-0.107,0.606C20.798,6.575,20.85,6.989,20.78,7.03c-0.035,0.021-0.009,0.056-0.105-0.104
	c-0.108-0.179-0.335-0.222-0.461-0.197c-0.239,0.05-0.313,0.377-0.292,0.577c0.013,0.113,0.081,0.443,0.253,0.272
	c0.065-0.063,0.116-0.103,0.212-0.085c0.147,0.028,0.286,0.317,0.095,0.638C20.377,8.31,20.201,8.38,20,8.375
	c-0.104-0.004-0.254-0.021-0.356-0.044c-0.163-0.036-0.368-0.259-0.428-0.409c-0.084-0.21-0.142-0.449-0.129-0.673
	c-0.002,0.007,0.126,0.04,0.136,0.044C19.417,7.357,19.48,7.56,19.48,7.56s0.06,0.016,0.06-0.037c0-0.188-0.005-0.127-0.008-0.31
	l0.008-0.171c0.004-0.182,0.007-0.193,0.007-0.38c0-0.054-0.056-0.039-0.056-0.039c-0.023,0.079-0.06,0.114-0.11,0.179
	c-0.045,0.058-0.218,0.225-0.297,0.132c-0.021-0.025,0-0.157,0-0.188c0,0,0.008-0.073,0.024-0.152
	c0.016-0.081,0.302-0.409,0.333-0.441c0.032-0.032-0.009-0.042-0.009-0.042l-0.521-0.005v3.133c0,0,2.239,0.148,3.047,0.711
	l1.216-2.716c-0.117-0.124-0.25-0.249-0.29-0.29c-0.049-0.048-0.066,0.015-0.066,0.015s0.082,0.511-0.108,0.753
	c-0.107,0.135-0.229,0.102-0.254-0.047c-0.011-0.068-0.011-0.046-0.022-0.113c-0.021-0.114-0.072-0.021-0.072-0.021
	c-0.073,0.188-0.175,0.364-0.259,0.546c0,0.001-0.016,0.077,0.06,0.041c0.117-0.056,0.169-0.075,0.232-0.043
	c0.089,0.043,0.136,0.097,0.081,0.209c-0.118,0.241-0.434,0.506-0.709,0.499c-0.323-0.007-0.71-0.152-0.76-0.531
	c-0.047-0.37,0.196-0.58,0.341-0.548c0.095,0.022,0.127,0.079,0.161,0.164c0.105,0.256,0.351-0.137,0.387-0.239
	c0.063-0.173,0.082-0.44-0.09-0.56c-0.104-0.072-0.331-0.121-0.499,0c-0.058,0.041-0.141,0.13-0.132,0.012
	c0.005-0.062,0.027-0.13,0.051-0.185c0.041-0.09,0.098-0.175,0.134-0.267c0.068-0.165,0.162-0.353,0.149-0.537
	C21.496,5.923,21.377,5.784,21.279,5.659 M14.008,6.37c-0.154,0-0.277,0.124-0.277,0.278s0.123,0.28,0.277,0.28
	c0.153,0,0.278-0.126,0.278-0.28S14.161,6.37,14.008,6.37 M23.868,6.37c-0.154,0-0.278,0.124-0.278,0.278s0.124,0.28,0.278,0.28
	c0.152,0,0.277-0.126,0.277-0.28S24.021,6.37,23.868,6.37 M57.53,6.94c-3.652,0-5.86,2.137-5.86,5.061
	c0,1.373,0.361,2.454,1.104,3.219c0.722,0.742,1.802,1.215,3.221,1.418l1.941,0.268c0.519,0.068,0.856,0.228,1.06,0.428
	c0.225,0.248,0.313,0.563,0.313,0.945c0,0.923-0.744,1.438-2.299,1.438c-1.285,0-2.749-0.29-3.583-1.122l-2.526,2.518
	c1.624,1.664,3.631,2.114,6.088,2.114c3.382,0,6.198-1.775,6.198-5.037c0-1.485-0.339-2.677-1.195-3.51
	c-0.677-0.675-1.712-1.125-3.154-1.327l-1.939-0.271c-0.563-0.067-0.901-0.268-1.103-0.47c-0.248-0.247-0.317-0.54-0.317-0.743
	c0-0.697,0.564-1.484,1.939-1.484c0.699,0,2.026-0.067,3.042,0.944l2.479-2.475C61.563,7.48,59.829,6.94,57.53,6.94 M85.049,6.94
	c-1.872,0-3.29,0.63-4.462,1.8c-1.692,1.688-1.625,3.936-1.625,6.343c0,2.406-0.067,4.656,1.625,6.343
	c1.172,1.17,2.59,1.8,4.462,1.8c3.042,0,5.498-1.687,6.084-5.217h-4.011c-0.248,0.898-0.744,1.707-2.051,1.707
	c-0.724,0-1.265-0.293-1.558-0.675c-0.359-0.472-0.605-1.033-0.605-3.958s0.246-3.484,0.605-3.958
	c0.293-0.383,0.834-0.675,1.558-0.675c1.307,0,1.803,0.81,2.051,1.71h4.011C90.547,8.629,88.091,6.94,85.049,6.94 M162.987,6.94
	c-3.336,0-5.363,1.911-5.363,4.701c0,1.304,0.382,2.316,1.172,3.059c0.697,0.652,1.735,1.104,3.042,1.284l1.892,0.27
	c0.948,0.136,1.354,0.293,1.76,0.676c0.428,0.382,0.631,0.967,0.631,1.664c0,1.552-1.217,2.451-3.313,2.451
	c-1.645,0-2.931-0.361-4.102-1.531l-1.622,1.598c1.532,1.552,3.267,2.114,5.678,2.114c3.358,0,5.773-1.754,5.773-4.701
	c0-1.372-0.433-2.517-1.312-3.283c-0.676-0.606-1.509-0.969-2.996-1.194l-1.827-0.267c-0.741-0.113-1.396-0.384-1.802-0.743
	c-0.429-0.383-0.608-0.9-0.608-1.485c0-1.416,1.036-2.497,2.93-2.497c1.352,0,2.501,0.293,3.493,1.237l1.557-1.529
	C166.593,7.479,165.106,6.94,162.987,6.94 M224.227,6.94c-1.669,0-3.11,0.607-4.217,1.71c-1.577,1.575-1.554,3.35-1.554,6.433
	c0,3.081-0.023,4.859,1.554,6.433c1.106,1.102,2.548,1.71,4.217,1.71c2.907,0,5.184-1.73,5.725-4.925h-2.456
	c-0.383,1.619-1.488,2.744-3.269,2.744c-0.947,0-1.802-0.361-2.364-0.969c-0.79-0.855-0.973-1.778-0.973-4.993
	c0-3.217,0.183-4.139,0.973-4.994c0.563-0.607,1.417-0.967,2.364-0.967c1.78,0,2.861,1.125,3.244,2.745h2.48
	C229.388,8.675,227.179,6.94,224.227,6.94 M65.78,7.076v16.016h10.906v-3.511h-6.964v-2.81h5.951v-3.51h-5.951v-2.676h6.964v-3.51
	H65.78z M92.938,7.076v10.392c0,3.508,2.728,5.758,6.063,5.758c3.335,0,6.105-2.25,6.105-5.758V7.076h-3.942v10.301
	c0,1.485-0.856,2.339-2.163,2.339s-2.119-0.854-2.119-2.339V7.076H92.938z M108.084,7.076v16.016h3.945v-5.961h1.327l2.841,5.961
	h4.576l-3.471-6.682c1.262-0.63,2.613-2,2.613-4.182c0-2.632-1.914-5.152-5.476-5.152H108.084z M122.778,23.092h3.945V7.076h-3.945
	V23.092z M128.797,7.076v3.51h3.943v12.506h3.943V10.586h3.946v-3.51H128.797z M141.643,7.076l4.846,9.492v6.523h3.945v-6.523
	l4.845-9.492h-4.305l-2.501,5.758l-2.525-5.758H141.643z M171.349,7.076v16.016h10.255v-2.183h-7.818v-4.813h6.672v-2.158h-6.672
	V9.26h7.818V7.076H171.349z M184.94,7.076v16.016h2.434v-6.747h3.045l3.378,6.747h2.843l-3.698-7.086
	c1.803-0.494,3.201-1.958,3.201-4.253c0-2.721-1.938-4.677-4.98-4.677H184.94z M197.719,7.076l5.275,16.016h1.893l5.32-16.016h-2.57
	l-3.698,11.653l-3.694-11.653H197.719z M212.642,23.092h2.434V7.076h-2.434V23.092z M232.971,7.076v16.016h10.254v-2.183h-7.817
	v-4.813h6.671v-2.158h-6.671V9.26h7.817V7.076H232.971z M187.374,9.26h3.606c1.624,0,2.727,0.943,2.727,2.518
	c0,1.575-1.103,2.497-2.727,2.497h-3.606V9.26z M14.968,9.971c-0.352,0-0.638,0.288-0.638,0.641c0,0.089,0.044,0.321,0.106,0.389
	c0.044,0.048,0.111,0.065,0.176,0.086v-0.475c0-0.197,0.158-0.356,0.355-0.356s0.358,0.159,0.358,0.356v0.475
	c0.057-0.018,0.13-0.025,0.163-0.072c0.095-0.137,0.121-0.243,0.121-0.402C15.61,10.259,15.321,9.971,14.968,9.971 M22.86,9.971
	c-0.354,0-0.642,0.288-0.642,0.641c0,0.159,0.024,0.266,0.119,0.402c0.034,0.047,0.106,0.055,0.164,0.072v-0.475
	c0-0.197,0.161-0.356,0.358-0.356c0.195,0,0.354,0.159,0.354,0.356v0.475c0.065-0.021,0.132-0.038,0.176-0.086
	c0.063-0.067,0.107-0.3,0.107-0.389C23.498,10.259,23.212,9.971,22.86,9.971 M15.864,10.172v6.73l0.823-1.249l-0.215-0.225v-1.066
	h1.147v1.069l-0.289,0.226l0.574,1.262l0.005,0.003v0.003l0.008-0.003l0.009,0.003v-0.003l0.005-0.003l0.575-1.262l-0.29-0.226
	v-1.069h0.728h0.683v1.069l-0.289,0.226l0.574,1.262l0.005,0.003v0.003l0.008-0.003l0.009,0.003v-0.003l0.005-0.003l0.575-1.262
	l-0.29-0.226v-1.069h1.147v1.066l-0.214,0.225l0.822,1.249v-6.73h-3.035H15.864z M112.029,10.608h2.231
	c1.082,0,1.712,0.787,1.712,1.62c0,0.832-0.63,1.617-1.712,1.617h-2.231V10.608z M16.473,10.776h1.147v1.176h-1.147V10.776z
	 M18.217,10.776h0.68h0.048h0.683v1.177h-0.683h-0.728V10.776z M20.224,10.776h1.147v1.176h-1.147V10.776z M14.973,10.977
	c-0.097,0-0.173,0.066-0.173,0.152v0.644c0,0.086,0.076,0.154,0.173,0.154s0.175-0.068,0.175-0.154v-0.644
	C15.147,11.043,15.069,10.977,14.973,10.977 M22.854,10.977c-0.097,0-0.176,0.066-0.176,0.152v0.644
	c0,0.086,0.079,0.154,0.176,0.154s0.174-0.068,0.174-0.154v-0.644C23.028,11.043,22.951,10.977,22.854,10.977 M14.973,12.304
	c-0.097,0-0.173,0.068-0.173,0.153v0.644c0,0.086,0.076,0.152,0.173,0.152s0.175-0.066,0.175-0.152v-0.644
	C15.147,12.372,15.069,12.304,14.973,12.304 M22.854,12.304c-0.097,0-0.176,0.068-0.176,0.153v0.644
	c0,0.086,0.079,0.152,0.176,0.152s0.174-0.066,0.174-0.152v-0.644C23.028,12.372,22.951,12.304,22.854,12.304 M16.473,12.558h1.147
	v1.201h-1.147V12.558z M18.217,12.558h0.728h0.683v1.201h-0.683h-0.728V12.558z M20.224,12.558h1.147v1.201h-1.147V12.558z
	 M10.498,13.438c-0.438,0-0.852,0.103-1.218,0.288c-0.014-0.046-0.035-0.088-0.065-0.129c-0.14-0.19-0.602-0.09-0.602-0.09
	s-0.231,0.407-0.091,0.599c0.027,0.037,0.058,0.066,0.093,0.092c-0.511,0.492-0.828,1.182-0.828,1.944
	c0,0.139,0.012,0.275,0.032,0.409c-0.049-0.001-0.097,0.006-0.145,0.021c-0.225,0.075-0.271,0.543-0.271,0.543
	s0.317,0.347,0.543,0.271c0.043-0.015,0.082-0.036,0.116-0.062c0.379,0.774,1.117,1.343,1.997,1.486
	c-0.016,0.045-0.021,0.093-0.021,0.143c0.001,0.238,0.431,0.428,0.431,0.428s0.43-0.194,0.429-0.432c0-0.045-0.009-0.089-0.021-0.13
	c0.885-0.123,1.633-0.676,2.029-1.438c0.039,0.029,0.082,0.053,0.131,0.067c0.227,0.072,0.541-0.28,0.541-0.28
	s-0.055-0.466-0.28-0.537c-0.042-0.014-0.087-0.021-0.129-0.021c0.026-0.153,0.039-0.309,0.039-0.47c0-0.74-0.299-1.413-0.784-1.902
	c0.039-0.027,0.075-0.061,0.104-0.102c0.14-0.193-0.097-0.601-0.097-0.601s-0.463-0.093-0.602,0.101
	c-0.026,0.037-0.045,0.075-0.059,0.116C11.39,13.554,10.958,13.438,10.498,13.438 M27.626,13.438c-0.459,0-0.891,0.114-1.271,0.316
	c-0.013-0.041-0.031-0.079-0.058-0.116c-0.139-0.193-0.6-0.101-0.6-0.101s-0.237,0.407-0.101,0.601
	c0.03,0.041,0.066,0.074,0.105,0.102c-0.485,0.489-0.784,1.162-0.784,1.902c0,0.161,0.014,0.316,0.041,0.47
	c-0.043,0-0.086,0.006-0.129,0.021c-0.227,0.071-0.28,0.537-0.28,0.537s0.313,0.353,0.538,0.28c0.049-0.015,0.093-0.039,0.132-0.067
	c0.396,0.763,1.146,1.315,2.029,1.438c-0.014,0.041-0.02,0.085-0.021,0.13c-0.001,0.237,0.428,0.432,0.428,0.432
	s0.432-0.189,0.433-0.428c0-0.05-0.008-0.098-0.024-0.143c0.88-0.145,1.618-0.712,1.997-1.486c0.035,0.025,0.074,0.047,0.117,0.062
	c0.226,0.075,0.543-0.271,0.543-0.271s-0.045-0.468-0.27-0.543c-0.048-0.016-0.099-0.022-0.146-0.021
	c0.021-0.134,0.031-0.271,0.031-0.409c0-0.763-0.32-1.451-0.83-1.944c0.036-0.025,0.067-0.055,0.095-0.092
	c0.142-0.191-0.09-0.599-0.09-0.599s-0.461-0.101-0.602,0.09c-0.031,0.041-0.05,0.085-0.063,0.131
	C28.479,13.543,28.064,13.438,27.626,13.438 M14.973,13.628c-0.097,0-0.173,0.07-0.173,0.156v0.642c0,0.085,0.076,0.152,0.173,0.152
	s0.175-0.067,0.175-0.152v-0.642C15.147,13.698,15.069,13.628,14.973,13.628 M22.854,13.628c-0.097,0-0.176,0.07-0.176,0.156v0.642
	c0,0.085,0.079,0.152,0.176,0.152s0.174-0.067,0.174-0.152v-0.642C23.028,13.698,22.951,13.628,22.854,13.628 M10.498,13.727
	c0.487,0,0.938,0.145,1.317,0.392c0.029,0.045,0.066,0.084,0.112,0.117c0.042,0.03,0.087,0.05,0.134,0.063
	c0.525,0.444,0.857,1.106,0.857,1.845c0,0.217-0.031,0.428-0.085,0.629c-0.033,0.04-0.059,0.088-0.075,0.141
	c-0.016,0.048-0.023,0.097-0.021,0.145c-0.347,0.841-1.151,1.447-2.105,1.5c-0.051-0.021-0.108-0.032-0.168-0.032
	c-0.052,0.001-0.102,0.01-0.148,0.027c-0.949-0.07-1.749-0.69-2.077-1.542c0.004-0.055-0.001-0.108-0.021-0.163
	c-0.016-0.051-0.041-0.096-0.073-0.135c-0.044-0.183-0.067-0.374-0.067-0.569c0-0.758,0.351-1.436,0.898-1.878
	c0.053-0.014,0.102-0.035,0.146-0.068c0.041-0.03,0.076-0.067,0.102-0.107C9.595,13.86,10.032,13.727,10.498,13.727 M27.626,13.727
	c0.468,0,0.904,0.133,1.273,0.362c0.027,0.04,0.062,0.077,0.104,0.107c0.045,0.033,0.094,0.055,0.146,0.068
	c0.549,0.442,0.899,1.121,0.899,1.878c0,0.195-0.024,0.387-0.069,0.569c-0.03,0.039-0.056,0.084-0.072,0.135
	c-0.019,0.055-0.023,0.108-0.02,0.163c-0.329,0.852-1.128,1.471-2.078,1.542c-0.046-0.018-0.094-0.026-0.146-0.027
	c-0.06,0-0.115,0.011-0.166,0.032c-0.953-0.051-1.762-0.654-2.109-1.493c0.003-0.05-0.003-0.102-0.02-0.151
	c-0.019-0.057-0.046-0.105-0.082-0.148c-0.054-0.198-0.081-0.406-0.081-0.621c0-0.738,0.333-1.4,0.857-1.845
	c0.048-0.013,0.095-0.032,0.137-0.063c0.046-0.032,0.081-0.073,0.109-0.117C26.688,13.871,27.14,13.727,27.626,13.727 M9.765,14.224
	c-0.05,0.003-0.097,0.019-0.141,0.053c-0.192,0.148,0.029,0.339,0.152,0.453c0.15,0.138,0.275,0.333,0.066,0.544
	c-0.26,0.124-0.405-0.057-0.489-0.239c-0.069-0.154-0.184-0.421-0.383-0.285c-0.248,0.168-0.018,0.597-0.119,0.882
	C8.764,15.92,8.329,16.129,8.43,16.41c0.081,0.228,0.331,0.077,0.479-0.005c0.178-0.099,0.399-0.158,0.538,0.1
	c0.039,0.287-0.177,0.371-0.377,0.396C8.9,16.919,8.61,16.943,8.679,17.176c0.083,0.288,0.563,0.199,0.804,0.385
	c0.248,0.173,0.312,0.651,0.611,0.643c0.242-0.008,0.177-0.29,0.145-0.456c-0.04-0.197-0.027-0.428,0.26-0.479
	c0.288,0.052,0.3,0.282,0.261,0.479c-0.033,0.166-0.099,0.448,0.141,0.456c0.301,0.009,0.365-0.47,0.614-0.643
	c0.242-0.186,0.72-0.097,0.804-0.385c0.068-0.232-0.222-0.257-0.39-0.275c-0.201-0.024-0.417-0.108-0.377-0.396
	c0.136-0.258,0.361-0.199,0.538-0.1c0.148,0.082,0.395,0.232,0.477,0.005c0.103-0.281-0.335-0.489-0.424-0.779
	c-0.101-0.285,0.132-0.714-0.116-0.882c-0.199-0.136-0.313,0.131-0.383,0.285c-0.085,0.185-0.23,0.365-0.494,0.236
	c-0.204-0.21-0.077-0.404,0.07-0.541c0.125-0.114,0.345-0.305,0.154-0.453c-0.237-0.183-0.57,0.163-0.872,0.159
	C10.254,14.441,9.983,14.211,9.765,14.224 M26.896,14.224c-0.051,0.003-0.099,0.019-0.144,0.053
	c-0.192,0.148,0.029,0.339,0.153,0.453c0.148,0.137,0.275,0.331,0.07,0.541c-0.263,0.129-0.406-0.052-0.492-0.236
	c-0.068-0.154-0.186-0.421-0.385-0.285c-0.248,0.168-0.015,0.597-0.117,0.882c-0.087,0.29-0.523,0.498-0.424,0.779
	c0.083,0.228,0.334,0.077,0.48-0.005c0.176-0.099,0.397-0.157,0.536,0.098c0.041,0.289-0.174,0.373-0.375,0.397
	c-0.168,0.019-0.458,0.043-0.391,0.275c0.084,0.288,0.561,0.199,0.802,0.385c0.25,0.173,0.315,0.651,0.613,0.643
	c0.242-0.008,0.175-0.29,0.143-0.456c-0.04-0.199-0.027-0.428,0.263-0.479c0.287,0.052,0.3,0.282,0.26,0.479
	c-0.033,0.166-0.099,0.448,0.143,0.456c0.3,0.009,0.363-0.47,0.613-0.643c0.241-0.186,0.718-0.097,0.802-0.385
	c0.067-0.232-0.22-0.257-0.388-0.275c-0.202-0.024-0.419-0.108-0.378-0.397c0.139-0.255,0.363-0.195,0.538-0.098
	c0.147,0.082,0.396,0.232,0.479,0.005c0.101-0.281-0.337-0.489-0.425-0.779c-0.102-0.285,0.132-0.714-0.116-0.882
	c-0.2-0.136-0.315,0.131-0.386,0.285c-0.084,0.184-0.229,0.365-0.488,0.239c-0.208-0.211-0.081-0.406,0.067-0.544
	c0.124-0.114,0.345-0.305,0.153-0.453c-0.237-0.184-0.57,0.164-0.874,0.159C27.382,14.441,27.115,14.211,26.896,14.224
	 M14.973,14.956c-0.097,0-0.173,0.067-0.173,0.153v0.643c0,0.085,0.076,0.154,0.173,0.154s0.175-0.069,0.175-0.154v-0.643
	C15.147,15.023,15.069,14.956,14.973,14.956 M22.854,14.956c-0.097,0-0.176,0.067-0.176,0.153v0.643
	c0,0.085,0.079,0.154,0.176,0.154s0.174-0.069,0.174-0.154v-0.643C23.028,15.023,22.951,14.956,22.854,14.956 M10.498,15.409
	c0.405,0,0.732,0.329,0.732,0.733s-0.327,0.732-0.732,0.732c-0.406,0-0.733-0.328-0.733-0.732S10.092,15.409,10.498,15.409
	 M14.612,15.896c-0.064,0.021-0.132,0.039-0.176,0.088c-0.063,0.068-0.106,0.3-0.106,0.39c0,0.353,0.286,0.639,0.638,0.639
	c0.354,0,0.643-0.286,0.643-0.639c0-0.16-0.026-0.269-0.121-0.404c-0.033-0.048-0.106-0.056-0.163-0.073v0.478
	c0,0.196-0.161,0.354-0.358,0.354s-0.355-0.157-0.355-0.354V15.896z M22.502,15.896c-0.058,0.018-0.13,0.025-0.164,0.073
	c-0.095,0.136-0.119,0.244-0.119,0.404c0,0.353,0.287,0.639,0.642,0.639c0.352,0,0.638-0.286,0.638-0.639
	c0-0.09-0.044-0.321-0.107-0.39c-0.044-0.049-0.11-0.067-0.176-0.088v0.478c0,0.196-0.159,0.354-0.354,0.354
	c-0.197,0-0.358-0.157-0.358-0.354V15.896z M6.599,18.568c-0.099-0.002-0.334,0.029-0.401,0.078
	c-0.071,0.05-0.157,0.064-0.236,0.098c-0.053,0.021-0.104,0.042-0.154,0.068c-0.14,0.072-0.264,0.176-0.321,0.331
	c-0.109,0.291,0.117,0.606,0.285,0.82c0.303,0.39,0.133,0.605,0.021,0.692c-0.098,0.039-0.441,0.133-0.591-0.417
	c-0.071-0.262-0.187-0.632-0.485-0.721c-0.159-0.046-0.318-0.011-0.46,0.059c-0.051,0.024-0.1,0.05-0.149,0.08
	c-0.071,0.045-0.135,0.104-0.217,0.129c-0.081,0.024-0.247,0.193-0.304,0.273c-0.001,0,0,0.002,0,0.002
	c-0.001,0.001-0.002,0.002-0.003,0.003c-0.032,0.094-0.074,0.324-0.048,0.404c0.026,0.082,0.014,0.169,0.019,0.253
	c0.003,0.055,0.008,0.112,0.018,0.168c0.024,0.156,0.087,0.306,0.217,0.406c0.244,0.194,0.613,0.075,0.869-0.017
	c0.464-0.167,0.618,0.062,0.668,0.193c0.007,0.103-0.006,0.461-0.58,0.433c-0.272-0.014-0.66-0.018-0.838,0.239
	c-0.095,0.136-0.109,0.296-0.088,0.453c0.008,0.055,0.019,0.109,0.031,0.165c0.02,0.083,0.059,0.16,0.057,0.246
	c-0.001,0.085,0.106,0.295,0.166,0.376c0.075,0.057,0.29,0.173,0.375,0.173c0.086,0,0.164,0.039,0.246,0.06
	c0.055,0.013,0.108,0.028,0.166,0.037c0.154,0.023,0.315,0.011,0.454-0.08c0.261-0.174,0.262-0.562,0.253-0.833
	c-0.015-0.48,0.238-0.563,0.381-0.573c0.093,0.021,0.451,0.141,0.243,0.688c-0.096,0.254-0.222,0.622-0.031,0.87
	c0.101,0.13,0.249,0.193,0.404,0.221c0.056,0.011,0.111,0.017,0.168,0.022c0.083,0.007,0.172-0.006,0.253,0.021
	c0.08,0.028,0.317-0.013,0.409-0.044c0.08-0.055,0.254-0.219,0.28-0.299c0.027-0.082,0.089-0.146,0.134-0.217
	c0.031-0.046,0.058-0.095,0.083-0.145c0.071-0.141,0.111-0.299,0.066-0.458c-0.084-0.3-0.454-0.421-0.716-0.497
	c-0.475-0.137-0.462-0.413-0.425-0.548c0.056-0.089,0.279-0.368,0.727-0.009c0.212,0.169,0.523,0.403,0.818,0.299
	c0.155-0.055,0.262-0.178,0.336-0.315c0.025-0.052,0.05-0.101,0.07-0.151c0.033-0.079,0.048-0.166,0.101-0.234
	c0.05-0.067,0.086-0.297,0.087-0.396c0-0.001,0.001-0.002,0-0.003c0.001-0.002,0-0.005,0-0.007H8.954
	c-0.03-0.097-0.13-0.303-0.197-0.352c-0.07-0.051-0.111-0.129-0.166-0.195c-0.035-0.042-0.072-0.087-0.112-0.126
	c-0.112-0.111-0.251-0.194-0.416-0.202c-0.311-0.013-0.54,0.301-0.694,0.526c-0.274,0.403-0.529,0.312-0.647,0.233
	c-0.065-0.076-0.272-0.377,0.209-0.694c0.228-0.148,0.547-0.371,0.538-0.682c-0.004-0.165-0.086-0.306-0.197-0.419
	c-0.039-0.039-0.079-0.078-0.122-0.114c-0.063-0.055-0.142-0.098-0.191-0.168c-0.048-0.069-0.259-0.172-0.354-0.202v-0.003
	C6.602,18.568,6.6,18.568,6.599,18.568 M31.499,18.568v0.003c-0.094,0.03-0.303,0.134-0.351,0.202
	c-0.051,0.07-0.129,0.113-0.192,0.168c-0.044,0.036-0.086,0.075-0.124,0.114c-0.111,0.113-0.191,0.254-0.195,0.419
	c-0.009,0.311,0.308,0.533,0.536,0.682c0.483,0.317,0.277,0.618,0.212,0.694c-0.118,0.078-0.375,0.17-0.651-0.233
	c-0.152-0.226-0.381-0.539-0.693-0.526c-0.164,0.008-0.302,0.091-0.414,0.202c-0.04,0.039-0.08,0.084-0.114,0.126
	c-0.054,0.066-0.094,0.145-0.164,0.195c-0.065,0.049-0.167,0.255-0.197,0.352h-0.002c0,0.002,0,0.005,0,0.007
	c0,0.001,0,0.002,0,0.003c0,0.1,0.035,0.329,0.085,0.396c0.052,0.068,0.065,0.155,0.098,0.233c0.021,0.052,0.048,0.101,0.073,0.152
	c0.074,0.138,0.184,0.261,0.339,0.315c0.294,0.104,0.604-0.13,0.815-0.299c0.45-0.362,0.675-0.074,0.729,0.012
	c0.038,0.136,0.045,0.409-0.427,0.545c-0.262,0.076-0.63,0.197-0.714,0.497c-0.045,0.159-0.007,0.317,0.064,0.458
	c0.024,0.05,0.054,0.099,0.085,0.145c0.045,0.071,0.107,0.135,0.134,0.217c0.027,0.08,0.199,0.244,0.28,0.299
	c0.093,0.031,0.328,0.072,0.407,0.044c0.082-0.027,0.171-0.015,0.256-0.021c0.055-0.006,0.109-0.012,0.165-0.022
	c0.156-0.027,0.307-0.091,0.406-0.221c0.19-0.248,0.065-0.616-0.031-0.87c-0.207-0.543,0.144-0.665,0.238-0.688
	c0.143,0.009,0.397,0.088,0.383,0.573c-0.008,0.271-0.008,0.659,0.254,0.833c0.136,0.091,0.298,0.104,0.455,0.08
	c0.055-0.009,0.111-0.024,0.166-0.037c0.082-0.021,0.162-0.06,0.248-0.06c0.085,0,0.298-0.116,0.375-0.173l-0.002-0.004
	c0.059-0.08,0.166-0.288,0.166-0.372c-0.002-0.086,0.035-0.163,0.056-0.246c0.012-0.056,0.023-0.11,0.031-0.165
	c0.021-0.157,0.006-0.317-0.087-0.453c-0.179-0.257-0.566-0.253-0.839-0.239c-0.569,0.027-0.587-0.325-0.579-0.431
	c0.048-0.131,0.197-0.363,0.664-0.195c0.258,0.092,0.627,0.211,0.872,0.017c0.128-0.101,0.192-0.25,0.218-0.406
	c0.009-0.056,0.014-0.113,0.017-0.168c0.005-0.084-0.008-0.171,0.019-0.253c0.026-0.08-0.016-0.311-0.048-0.404
	c-0.056-0.079-0.226-0.254-0.307-0.278c-0.083-0.025-0.146-0.084-0.22-0.129c-0.047-0.03-0.095-0.056-0.146-0.08
	c-0.141-0.069-0.302-0.104-0.46-0.059c-0.3,0.089-0.413,0.459-0.485,0.721c-0.149,0.55-0.492,0.456-0.592,0.417
	c-0.109-0.087-0.28-0.303,0.022-0.692c0.167-0.214,0.395-0.529,0.285-0.82c-0.059-0.155-0.183-0.259-0.324-0.331
	c-0.049-0.026-0.103-0.048-0.153-0.068c-0.08-0.033-0.166-0.048-0.235-0.098S31.596,18.566,31.499,18.568z M25.519,19.85
	l-0.418,0.229c0,0-0.597,0.324-1.206,0.651c-0.305,0.163-0.613,0.329-0.85,0.45c-0.108,0.056-0.196,0.099-0.266,0.132
	c-0.039-0.026-0.076-0.042-0.103-0.046c-0.043-0.008-0.066-0.005-0.085-0.003c-0.037,0.004-0.055,0.009-0.071,0.015
	c-0.032,0.01-0.056,0.021-0.085,0.034c-0.059,0.025-0.131,0.062-0.214,0.106c-0.168,0.092-0.382,0.217-0.602,0.358
	c-0.221,0.142-0.445,0.297-0.629,0.451c-0.04,0.033-0.072,0.064-0.109,0.097c-0.017-0.036-0.02-0.07-0.049-0.106
	c-0.033-0.042-0.076-0.08-0.129-0.112c0.086-0.053,0.224-0.139,0.224-0.139l0.561-0.34l-0.634-0.159l-1.855-0.469l-0.018-0.002
	l-0.012-0.003c0,0-0.202-0.028-0.422-0.046c-0.109-0.008-0.224-0.011-0.328-0.007c-0.053,0.001-0.103,0.002-0.156,0.012
	c-0.053,0.01-0.115,0.008-0.205,0.095c-0.002-0.006-0.051,0.018-0.051,0.018h-0.056l-0.051,0.021c0,0-0.035,0.017-0.078,0.039
	c-0.033,0.018-0.07,0.033-0.115,0.068c0.005-0.002,0,0.005-0.005,0.007c-0.001,0.001-0.005,0.002-0.007,0.003
	c-0.001,0.001-0.003,0.001-0.005,0.002c-0.011,0.005-0.024,0.013-0.044,0.021c-0.051,0.019-0.121,0.046-0.194,0.073
	c-0.074,0.026-0.151,0.055-0.22,0.085c-0.068,0.028-0.115,0.027-0.212,0.124c-0.096,0.096-0.133,0.205-0.144,0.316
	c-0.011,0.11,0.003,0.236,0.095,0.351c0.001,0.002,0.001,0.002,0.002,0.003c0.018,0.021,0.041,0.03,0.062,0.046
	c0,0.003-0.002,0.012-0.002,0.015c0.002,0.031,0.007,0.053,0.012,0.073c0.01,0.041,0.021,0.078,0.034,0.117
	c0.026,0.071,0.058,0.152,0.092,0.23c-0.049-0.012-0.074-0.014-0.121-0.026c-0.243-0.063-0.425-0.113-0.453-0.121
	c-0.02-0.018-0.035-0.053-0.176-0.032c-0.078,0.011-0.206,0.112-0.23,0.202c-0.026,0.091-0.008,0.134,0.002,0.166
	c0.02,0.063,0.04,0.091,0.065,0.131c0.103,0.16,0.244,0.271,0.393,0.353l-1.301-0.06c0.136-0.098,0.227-0.207,0.248-0.352
	c0.007-0.043-0.007-0.076-0.015-0.114c0.033-0.309-0.131-0.554-0.275-0.733c-0.077-0.097-0.151-0.173-0.224-0.23
	c-0.036-0.029-0.059-0.055-0.134-0.083c-0.037-0.015-0.107-0.063-0.246,0.015c-0.069,0.039-0.125,0.123-0.139,0.182
	c-0.014,0.061-0.006,0.098,0,0.124c0,0-0.002,0.001-0.002,0c-0.001,0.018,0.003,0.092-0.006,0.151
	c-0.006,0.043-0.009,0.049-0.017,0.081c-0.054,0.013-0.106,0.021-0.188,0.065c-0.03-0.071-0.051-0.088-0.088-0.215
	c-0.028-0.097-0.026-0.136-0.021-0.209c0.002-0.037,0.008-0.084-0.003-0.153s-0.05-0.157-0.104-0.22
	c-0.133-0.148-0.222-0.127-0.314-0.141c-0.092-0.015-0.19-0.021-0.282-0.022c-0.185-0.005-0.351,0.002-0.351,0.002l-0.48,0.025
	l0.269,0.399c0,0,0.037,0.051,0.072,0.081c0.03,0.024,0.073,0.053,0.122,0.079c0.001,0.004,0.009,0.022,0.013,0.029
	c-0.021,0.024-0.045,0.04-0.059,0.071h-0.003v0.002c-0.057,0.13-0.069,0.262-0.073,0.402c-0.022-0.001-0.033-0.008-0.063-0.006
	c-0.101,0.01-0.14,0.036-0.184,0.062c-0.044,0.026-0.086,0.056-0.126,0.088c-0.082,0.063-0.163,0.138-0.238,0.217
	c-0.076,0.078-0.143,0.154-0.195,0.241c-0.004,0.006-0.008,0.011-0.012,0.017l-0.354-0.017c0,0-0.065,3.558,0.472,6.335
	c-0.043,0.065-0.097,0.149-0.147,0.249c-0.112,0.217-0.231,0.508-0.188,0.833l0.071,0.514l0.385-0.349c0,0,0.07-0.063,0.144-0.126
	c0.031,0.104,0.064,0.205,0.098,0.304l0.243,0.727c0.476,1.52,1.607,2.935,2.767,4.071c0.047,0.111,0.097,0.223,0.154,0.329
	c0.414,0.772,1.147,1.423,2.243,1.687c0.47,0.341,0.809,0.56,0.906,0.621v0.021c0,0,0.007-0.006,0.017-0.012
	c0.01,0.006,0.015,0.012,0.015,0.012v-0.021c0.103-0.065,0.476-0.304,0.989-0.681c0.171-0.051,0.354-0.115,0.543-0.198
	c0.667-0.294,1.407-0.833,1.771-1.755c0.039-0.037,0.078-0.077,0.117-0.116l0.014-0.011c0,0,0.141-0.089,0.253-0.182v-0.005
	c0.077-0.065,0.098-0.139,0.104-0.188c0.2-0.213,0.398-0.435,0.588-0.661c0.239,0.153,0.468,0.196,0.468,0.196l0.514,0.092
	l-0.21-0.467c0.001-0.006-0.011-0.046-0.014-0.098c-0.005-0.068-0.006-0.165-0.003-0.275c0.005-0.147,0.016-0.323,0.031-0.509
	c0.387-0.59,0.703-1.211,0.904-1.851l0.243-0.727c0.926-2.773,0.833-7.76,0.833-7.76l-0.053,0.002l0.009-0.021l-0.175,0.029
	l-0.731,0.034c0.182-0.104,0.357-0.224,0.509-0.373c0.287-0.28,0.504-0.656,0.526-1.107l0.021-0.444l-0.405,0.178
	c0,0-0.483,0.202-0.882,0.368c0.367-0.356,0.665-0.826,0.682-1.452L25.519,19.85z M25.231,20.317
	c-0.045,1.639-2.224,2.129-2.224,2.129s-0.216,0.09,0.034,0.204c0.255,0.116,2.771-0.991,2.771-0.991
	c-0.075,1.503-2.623,1.865-2.698,1.88c-0.077,0.016-0.177,0.167,0.107,0.242c0.629,0.166,2.294-0.446,2.294-0.446
	c-0.101,0.244-0.292,0.498-0.477,0.685c-0.311,0.312-0.73,0.464-1.146,0.573c-0.052,0.014-0.858,0.154-0.854,0.113
	c-0.091,0.229,0.051,0.246,0.209,0.278c0.271,0.052,0.511,0.097,0.787,0.144c0.292,0.048,0.597,0.089,0.889,0.018v0.009
	c-0.164,0.354-0.579,0.679-0.959,0.753c-0.269,0.051-0.556,0.013-0.824-0.032c-0.131-0.021-0.284-0.086-0.414-0.085
	c-0.304,0,0.214,0.507,0.267,0.559c0.225,0.227,0.43,0.364,0.628,0.615c0.082,0.105,0.235,0.194,0.078,0.29
	c-0.097,0.06-0.239,0.054-0.349,0.063c-0.176,0.018-0.304,0.01-0.479-0.022c-0.219-0.039-0.395-0.152-0.568-0.281
	c-0.059-0.045-0.29-0.259-0.377-0.105c-0.134,0.235,0.363,0.66,0.523,0.938c0.069,0.12,0.173,0.256,0.249,0.373
	c0.094,0.146,0.056,0.182-0.032,0.25c-0.247,0.188-0.617-0.036-0.855-0.114l-0.033-0.037c-0.069-0.046-0.688-0.54-0.673-0.553
	c-0.066,0.058-0.126,0.09-0.07,0.178c0.08,0.127,0.119,0.422,0.183,0.558c0.11,0.232,0.044,0.681,0.044,0.681
	s-0.117,0.095-0.205,0.106c-0.349,0.045-1.03-0.909-1.105-0.923c-0.075-0.016-0.535,0.068-0.535,0.068
	c1.596,0.835,2.742,4.651,2.742,4.651c0.091-1.017-1.035-3.412-1.035-3.412c0.229-0.076,0.792-0.017,0.792-0.017
	c-0.563,1.35,0.789,1.7,0.789,1.7c-0.958,0.91,0.122,1.883,0.122,1.883c-0.898,0.926-0.365,1.835-0.456,1.912
	c-0.091,0.075-0.229,0.168-0.229,0.168l-0.106-0.154c-0.501,2.201-3.133,2.37-3.133,2.37c-3.134-0.077-3.727-2.886-3.301-4.45
	c0.426-1.563,2.526-2.095,2.526-2.095c0.578,0.107,1.018,1.155,1.018,1.155c-1.109,0.062-2.733,1.897-1.415,2.991
	c1.34,1.106,2.222-0.546,2.222-0.546c0.729-2.414-1.841-4.375-1.856-4.465c-0.014-0.093,0.086-0.102,0.086-0.194
	c0-0.096-0.115-0.184-0.115-0.184c-0.03-1.002,0.761-0.519,0.761-0.519c-0.456-0.47-0.517-1.213-0.517-1.213
	s-0.129,0.036-0.129,0.351c0,0.316,0.174,0.195,0,0.38c-0.176,0.186-0.435,0.407-0.479,0.665c-0.046,0.259,0.122,0.458,0.122,0.458
	s-0.319,0.211-0.578,0.273c-0.258,0.06-0.341-0.536-0.341-0.536s-0.016-0.032-0.065-0.034c-0.011-0.001-0.063,0.025-0.069,0.08
	c-0.022,0.173-0.025,0.582-0.119,0.685c-0.12,0.138-0.774,0.215-0.76,0.139c0.027-0.139,0.061-0.386,0.007-0.521
	c-0.049-0.127-0.132-0.072-0.143,0.049c-0.016,0.153,0.044,0.366-0.244,0.549c-0.289,0.182-0.76,0.028-0.76,0.028
	s0.091-0.409,0-0.484c-0.238-0.197-0.321,0.388-0.352,0.482c-0.067,0.208-0.249,0.393-0.46,0.458
	c-0.018,0.005-0.288,0.035-0.284,0.029c0,0.001-0.016,0.048-0.075,0.319c-0.062,0.273-0.108,0.122-0.108,0.122
	c-0.304-0.363-0.271-0.881-0.271-0.881c0.516-0.424,0.408-0.728,0.408-0.728c-0.652,0.76-0.988,0.182-1.094,0.244
	c-0.107,0.06-0.426,0.348-0.426,0.348c-0.061-0.455,0.365-1.001,0.365-1.001c0.334,0.151,1.05-0.047,0.82-0.153
	c-0.227-0.106-0.351-0.471-0.351-0.471c-0.056-0.001-0.395-0.049-0.419-0.017c0.205-0.282,0.448-0.497,0.807-0.538
	c0.036-0.004,0.441-0.021,0.45,0.039c0.045,0.317,0.258,0.455,0.38,0.424c0.121-0.03,0.748-0.517,1.817-1.16
	c1.262-0.759,1.133-1.1,1.133-1.1l-0.957,0.545l-0.093-0.163c-0.122-0.894,0.791-1.459,0.548-1.43
	c-0.243,0.03-0.594,0.028-0.594,0.028c0.244-0.985,1.249-1.001,1.554-0.985c1.809-0.107,1.14-1.501,1.14-1.501
	c0.046,0.47-0.122,0.894-0.579,1.138c-0.456,0.242-1.033-0.046-1.033-0.046c0.061-0.03,0.045-0.122,0.076-0.273
	c0.03-0.152,0.196-0.409,0.196-0.409l0.197,0.165c0.198,0.167,0.58-0.044,0.58-0.044c0.243-0.363-0.092-0.789-0.244-0.896
	s-0.212-0.107-0.272-0.062c-0.061,0.045-0.229,0.306-0.229,0.306s-0.305-0.623-0.276-0.686c0.031-0.06,0.139-0.06,0.184-0.136
	c0.046-0.076-0.075-0.076-0.075-0.076s-0.167,0.091-0.227,0.015c-0.063-0.075-0.048-0.226,0.028-0.302s0.595-0.228,0.639-0.272
	c0.047-0.046,0.153-0.093,0.153-0.093s0.152,0.001,0.244-0.091c0.091-0.091,0.881,0.019,0.881,0.019l1.856,0.467
	c0,0-0.929,0.562-0.853,0.577s0.303-0.03,0.545,0c0.245,0.031,0.216,0.41,0.216,0.41c0.015,0.88-0.789,0.592-0.789,0.592
	s0.06,0.198,0.182,0.304c0.121,0.106,0.151,0.183,0.151,0.183c-0.122,0.38,0.485,1.184,0.424,1.382
	c-0.061,0.196-0.729-0.122-0.729-0.047s0.029,1.108,0.029,1.108c-0.757,0.363-1.041-0.676-1.064-0.714
	c0,0.06-0.502,0.943-0.502,0.943l0.473-0.244c0.335,0.485,1.064,0.331,1.064,0.331c1.81-0.651,0.806-3.353,0.911-3.746
	c0.106-0.396,1.749-1.321,1.78-1.276c0.031,0.046,0.001,0.092,0.107,0.092S25.231,20.317,25.231,20.317 M17.706,21.649l0.009,0.078
	c0.069,0,0.205,0.148,0.205,0.148s0.035,0.172,0.058,0.229c0.024,0.058,0.059,0.046,0.207,0c0.148-0.045,0.444-0.127,0.764-0.105
	c0.319,0.023,0.183-0.111,0.183-0.111C18.868,21.751,17.706,21.649,17.706,21.649 M13.106,21.688c0.062-0.001,0.144-0.002,0.229,0
	c0.171,0.005,0.354,0.021,0.399,0.073c0.092,0.103-0.012,0.207,0.068,0.479c0.079,0.273,0.147,0.443,0.238,0.546
	c0.092,0.103,0.148,0.126,0.148,0.046c0-0.079-0.078-0.126,0.093-0.217c0.171-0.092,0.26-0.044,0.295-0.124
	c0.035-0.079,0.082-0.365,0.059-0.468c-0.021-0.103,0.558,0.421,0.478,0.797c0,0,0.08,0.081-0.124,0.229
	c-0.205,0.146-0.344,0.431-0.103,0.716c0.239,0.285,1.152,0.82,1.152,0.82s-0.525,0.764-0.422,1.354c0,0-0.821-0.489-1.063-0.762
	c0,0-0.081,0.102,0.022,0.251c0.103,0.146,1.118,1.158,1.118,1.158v0.422c0,0-0.343-0.262-0.604-0.204
	c-0.262,0.056-0.433,0.33-0.536,0.353c-0.103,0.023-0.582-0.443-0.514-0.672c0.068-0.227,0.331-0.389,0.388-0.434
	c0.058-0.045-0.706,0.239-0.877-0.192c-0.171-0.433-0.183-0.512-0.137-0.524c0.045-0.011,0.569-0.022,0.604-0.102
	c0.035-0.08-0.788-0.011-0.879-0.546c-0.092-0.535-0.021-0.365-0.021-0.365s0.342,0.091,0.399-0.034
	c0.057-0.125,0.068-0.396-0.148-0.443c-0.217-0.045-0.502-0.034-0.662-0.421c0,0-0.286-0.069-0.435-0.08
	c-0.147-0.013,0.4-0.56,0.536-0.57c0.138-0.012,0.618,0.41,0.857,0.365c0.239-0.046,0.124-0.022,0.021-0.09
	c-0.103-0.068-0.569-0.298-0.569-0.456c0-0.159,0.011-0.275,0.056-0.377c0.046-0.104,0.159-0.033,0.102-0.181
	c-0.056-0.147-0.066-0.219-0.157-0.263c-0.091-0.047-0.114-0.081-0.114-0.081S13.046,21.69,13.106,21.688 M16.259,22.753
	c0.01-0.002,0.031,0.013,0.031,0.013s0.912,0.262,1.209,0.285c0.297,0.021,0.33-0.059,0.365,0.021
	c0.034,0.081,0.192,0.262-0.013,0.285c-0.206,0.021-0.297-0.022-0.297-0.022l-0.159-0.16c0,0-0.035,0.001-0.126,0.08
	c-0.09,0.079-0.758-0.075-0.979-0.422C16.251,22.771,16.249,22.754,16.259,22.753 M3.145,24.994c0,0-0.322,0.342-0.231,0.561
	c0.018,0.042,0.043,0.081,0.07,0.113c-0.612,0.358-1.086,0.952-1.267,1.693c-0.032,0.135-0.056,0.27-0.068,0.404
	c-0.045-0.012-0.094-0.017-0.143-0.013c-0.237,0.021-0.396,0.464-0.396,0.464s0.229,0.413,0.466,0.395
	c0.045-0.004,0.088-0.016,0.127-0.032c0.186,0.841,0.769,1.565,1.59,1.912c-0.026,0.04-0.046,0.085-0.058,0.134
	c-0.055,0.231,0.32,0.517,0.32,0.517s0.463-0.088,0.518-0.319c0.01-0.043,0.013-0.087,0.01-0.129
	c0.889,0.089,1.748-0.271,2.313-0.918c0.03,0.037,0.068,0.071,0.112,0.097c0.203,0.124,0.589-0.143,0.589-0.143
	s0.059-0.469-0.144-0.592c-0.039-0.024-0.081-0.039-0.124-0.05c0.063-0.142,0.116-0.29,0.153-0.445
	c0.176-0.72,0.043-1.444-0.312-2.033c0.045-0.018,0.088-0.045,0.126-0.078c0.18-0.154,0.047-0.604,0.047-0.604
	s-0.427-0.201-0.606-0.048c-0.035,0.031-0.063,0.067-0.085,0.105c-0.321-0.287-0.716-0.503-1.162-0.611
	c-0.427-0.104-0.853-0.099-1.252-0.005c-0.002-0.049-0.013-0.099-0.031-0.146C3.616,25.005,3.145,24.994,3.145,24.994
	 M34.831,24.994c0,0-0.471,0.011-0.563,0.229c-0.02,0.047-0.029,0.097-0.031,0.146c-0.4-0.094-0.826-0.099-1.252,0.005
	c-0.446,0.108-0.842,0.323-1.162,0.609c-0.023-0.037-0.051-0.073-0.085-0.104c-0.181-0.153-0.607,0.048-0.607,0.048
	s-0.133,0.449,0.047,0.604c0.038,0.033,0.081,0.061,0.126,0.078c-0.354,0.589-0.487,1.313-0.311,2.033
	c0.038,0.155,0.088,0.304,0.15,0.445c-0.042,0.011-0.083,0.025-0.122,0.05c-0.202,0.123-0.144,0.592-0.144,0.592
	s0.386,0.267,0.59,0.143c0.043-0.025,0.081-0.06,0.112-0.097c0.564,0.647,1.424,1.007,2.313,0.918
	c-0.003,0.042-0.001,0.086,0.01,0.129c0.056,0.231,0.517,0.319,0.517,0.319s0.373-0.285,0.319-0.517
	c-0.013-0.048-0.031-0.092-0.057-0.131c0.821-0.348,1.406-1.075,1.59-1.917c0.04,0.017,0.081,0.03,0.127,0.034
	c0.236,0.019,0.466-0.395,0.466-0.395s-0.158-0.443-0.395-0.464c-0.051-0.004-0.1,0.002-0.146,0.016
	c-0.012-0.135-0.032-0.271-0.065-0.407c-0.181-0.74-0.655-1.335-1.267-1.693c0.027-0.032,0.05-0.071,0.067-0.113
	C35.15,25.336,34.831,24.994,34.831,24.994 M4.319,25.586c0.198-0.003,0.4,0.019,0.604,0.068c0.472,0.114,0.878,0.36,1.189,0.689
	c0.017,0.051,0.043,0.1,0.079,0.144c0.034,0.039,0.074,0.068,0.117,0.092c0.404,0.556,0.569,1.276,0.395,1.993
	c-0.052,0.209-0.127,0.406-0.227,0.587c-0.044,0.032-0.082,0.072-0.111,0.122c-0.026,0.043-0.044,0.089-0.055,0.136
	c-0.537,0.739-1.469,1.137-2.411,0.957c-0.044-0.029-0.094-0.055-0.148-0.067c-0.05-0.013-0.098-0.014-0.146-0.007
	c-0.905-0.294-1.535-1.084-1.653-1.988c0.017-0.051,0.021-0.108,0.017-0.166c-0.004-0.052-0.017-0.102-0.039-0.146
	C1.93,27.812,1.953,27.62,2,27.43c0.179-0.734,0.677-1.309,1.313-1.61c0.056,0,0.109-0.011,0.163-0.034
	c0.048-0.02,0.091-0.047,0.127-0.08C3.831,25.63,4.072,25.589,4.319,25.586 M33.657,25.586c0.247,0.003,0.487,0.044,0.716,0.119
	c0.036,0.033,0.077,0.062,0.125,0.08c0.055,0.023,0.112,0.035,0.168,0.034c0.634,0.303,1.134,0.879,1.313,1.613
	c0.046,0.189,0.068,0.379,0.068,0.566c-0.022,0.045-0.035,0.095-0.039,0.146c-0.005,0.059,0.002,0.116,0.019,0.169
	c-0.117,0.904-0.747,1.693-1.653,1.985c-0.049-0.007-0.101-0.006-0.151,0.007c-0.054,0.013-0.102,0.038-0.146,0.067
	c-0.943,0.18-1.874-0.218-2.411-0.957c-0.01-0.047-0.025-0.093-0.051-0.136c-0.031-0.051-0.072-0.092-0.117-0.125
	c-0.099-0.179-0.174-0.374-0.225-0.582c-0.176-0.719-0.007-1.441,0.399-1.997c0.041-0.023,0.08-0.053,0.112-0.09
	c0.037-0.043,0.063-0.091,0.081-0.142c0.31-0.329,0.716-0.576,1.188-0.691C33.256,25.604,33.458,25.583,33.657,25.586 M4.044,25.961
	c-0.034,0-0.068,0.007-0.104,0.022c-0.219,0.097-0.05,0.335,0.045,0.474c0.111,0.169,0.188,0.388-0.062,0.544
	c-0.284,0.062-0.383-0.147-0.421-0.346c-0.032-0.166-0.081-0.451-0.307-0.368c-0.28,0.106-0.157,0.577-0.324,0.831
	c-0.156,0.259-0.626,0.36-0.594,0.657c0.024,0.239,0.302,0.151,0.465,0.104c0.195-0.055,0.428-0.058,0.499,0.229
	c-0.031,0.287-0.26,0.317-0.46,0.292c-0.167-0.021-0.454-0.066-0.443,0.176c0.014,0.3,0.499,0.326,0.689,0.563
	c0.198,0.227,0.149,0.706,0.442,0.767c0.237,0.051,0.24-0.238,0.246-0.406c0.008-0.204,0.075-0.427,0.373-0.404
	c0.263,0.118,0.221,0.345,0.136,0.526c-0.071,0.152-0.203,0.41,0.03,0.475c0.29,0.08,0.466-0.372,0.75-0.479
	c0.278-0.119,0.719,0.076,0.867-0.183c0.121-0.209-0.154-0.3-0.313-0.358c-0.189-0.071-0.38-0.203-0.272-0.473
	c0.195-0.22,0.399-0.109,0.548,0.03c0.122,0.114,0.328,0.317,0.461,0.116c0.165-0.251-0.207-0.556-0.224-0.857
	c-0.031-0.301,0.293-0.661,0.092-0.884c-0.162-0.179-0.334,0.053-0.438,0.185c-0.128,0.16-0.312,0.299-0.539,0.11
	c-0.143-0.25,0.025-0.408,0.2-0.506c0.149-0.081,0.408-0.214,0.256-0.4c-0.187-0.234-0.594,0.023-0.887-0.052
	C4.498,26.29,4.278,25.96,4.044,25.961 M33.93,25.961c-0.233-0.001-0.45,0.328-0.709,0.385v-0.002
	c-0.293,0.079-0.701-0.182-0.889,0.054c-0.151,0.187,0.106,0.319,0.256,0.4c0.176,0.099,0.345,0.258,0.2,0.508
	c-0.228,0.187-0.413,0.048-0.539-0.112c-0.104-0.132-0.276-0.363-0.438-0.185c-0.2,0.223,0.123,0.583,0.094,0.884
	c-0.019,0.302-0.391,0.606-0.226,0.857c0.133,0.201,0.339-0.002,0.461-0.116c0.148-0.14,0.354-0.25,0.548-0.03
	c0.106,0.27-0.083,0.401-0.272,0.473c-0.158,0.059-0.434,0.149-0.313,0.358c0.149,0.259,0.59,0.062,0.867,0.183
	c0.284,0.107,0.46,0.56,0.751,0.479c0.232-0.064,0.104-0.322,0.031-0.475c-0.084-0.182-0.129-0.408,0.134-0.526
	c0.296-0.021,0.365,0.2,0.373,0.404c0.008,0.168,0.009,0.457,0.246,0.407c0.294-0.062,0.24-0.544,0.443-0.77
	c0.19-0.235,0.675-0.262,0.689-0.561c0.01-0.242-0.277-0.196-0.443-0.176c-0.202,0.026-0.435-0.005-0.464-0.297
	c0.073-0.283,0.306-0.278,0.5-0.225c0.163,0.047,0.439,0.135,0.466-0.104c0.031-0.297-0.437-0.398-0.593-0.657
	c-0.167-0.254-0.042-0.725-0.323-0.831c-0.227-0.083-0.275,0.202-0.308,0.368c-0.038,0.198-0.136,0.407-0.421,0.346
	c-0.25-0.156-0.173-0.375-0.061-0.544c0.094-0.139,0.261-0.377,0.041-0.474C33.998,25.968,33.964,25.961,33.93,25.961 M4.313,27.27
	c0.021-0.001,0.042-0.001,0.063,0c0.049,0.001,0.097,0.009,0.146,0.021c0.396,0.097,0.639,0.49,0.541,0.885
	c-0.096,0.392-0.492,0.634-0.886,0.537c-0.394-0.095-0.638-0.491-0.541-0.884C3.716,27.506,3.998,27.284,4.313,27.27 M33.599,27.27
	c0.341-0.014,0.654,0.215,0.738,0.56c0.096,0.393-0.145,0.789-0.538,0.884c-0.394,0.097-0.791-0.146-0.887-0.537
	c-0.097-0.395,0.144-0.788,0.538-0.885C33.499,27.278,33.55,27.271,33.599,27.27 M24.732,27.387
	c0.085-0.002,0.175,0.005,0.269,0.023c0,0-0.501,0.183-0.47,2.095c0,0-0.063,0.909-1.007,1.334c0,0,0.456,0.533,0.411,0.943
	c-0.046,0.409-0.319,2.352-0.182,2.655c0,0-0.744-0.137-0.85-0.943c0,0,0.302-0.211,0.271-0.302
	c-0.031-0.091-0.606-0.258-0.577-0.879c0.031-0.622,0.35-0.822,0.38-0.943c0.031-0.121-0.883-0.347-0.944-1.166l0.046-0.122
	c0,0,0.715-0.169,1.064-1.004C23.461,28.322,23.905,27.404,24.732,27.387 M17.365,28.275c0,0-0.394,0.364-0.683,0.531
	c-0.29,0.166-0.763,0.439-0.763,0.439s1.583-0.485,1.659-0.53L17.365,28.275z M6.738,31.492c-0.093-0.002-0.187,0.023-0.269,0.076
	c-0.057,0.036-0.185,0.157-0.203,0.224c-0.012,0.046,0.005,0.095,0.018,0.142l0.298-0.188c0.123-0.078,0.289-0.041,0.367,0.081
	c0.079,0.123,0.041,0.287-0.082,0.365l-0.301,0.189c0.035,0.028,0.068,0.072,0.112,0.073c0.123,0.005,0.202-0.024,0.302-0.087
	c0.222-0.142,0.284-0.434,0.145-0.656C7.036,31.573,6.89,31.496,6.738,31.492 M31.183,31.492c-0.152,0.004-0.302,0.081-0.39,0.219
	c-0.14,0.223-0.075,0.515,0.146,0.656c0.101,0.063,0.18,0.092,0.303,0.087c0.044-0.001,0.075-0.045,0.109-0.073l-0.298-0.189
	c-0.124-0.078-0.161-0.242-0.082-0.365c0.078-0.122,0.242-0.159,0.365-0.081l0.3,0.188c0.012-0.047,0.027-0.096,0.014-0.142
	c-0.018-0.066-0.143-0.188-0.198-0.224C31.368,31.516,31.273,31.49,31.183,31.492 M6.375,32.056
	c-0.017,0.002-0.031,0.006-0.044,0.014l-0.402,0.256c-0.054,0.035-0.068,0.113-0.029,0.173c0.038,0.061,0.114,0.081,0.168,0.046
	l0.402-0.255c0.054-0.035,0.065-0.11,0.026-0.171C6.467,32.073,6.42,32.05,6.375,32.056 M31.521,32.056
	c-0.038,0.003-0.076,0.024-0.1,0.063c-0.038,0.061-0.024,0.136,0.03,0.171l0.4,0.255c0.055,0.035,0.127,0.015,0.166-0.046
	c0.037-0.06,0.027-0.138-0.026-0.173l-0.402-0.256C31.569,32.057,31.544,32.054,31.521,32.056 M7.355,32.353l-0.005,0.002
	l-2.552,1.623l-0.073,0.046l-1.593,1.013l1.11,0.018l0.059-0.225l0.667-0.424l0.458,0.716l-0.672,0.427l-0.256-0.09L3.934,36.32
	l0.002,0.002l-0.002,0.003l0.005,0.005l0.002,0.004h0.004v0.003l1.024-0.144l0.025-0.271l0.672-0.427l0.27,0.424l0.29,0.456
	l-0.67,0.427L5.3,36.712l-0.564,0.865l0.003,0.002l0.002,0.005l0.003,0.005h0.002v0.003l1.025-0.144l0.024-0.272l0.67-0.428
	l0.458,0.72l-0.668,0.424l-0.226-0.044L5.573,38.86l1.593-1.013l0.2-0.127l0.933-0.595v0.002l0.151-0.097l1.266-0.804l0.076-0.049
	l0.005-0.004l-1.211-1.896L7.355,32.353z M30.561,32.353l-1.229,1.927l-1.21,1.897l0.005,0.003l1.225,0.778l0.269,0.17l0.808,0.513
	l0.327,0.209l1.593,1.011l-0.456-1.011l-0.226,0.044l-0.67-0.426l0.46-0.72l0.67,0.428l0.024,0.272l1.023,0.144l0.002-0.003
	l0.005-0.005l0.002-0.005v-0.002l-0.562-0.865l-0.26,0.091l-0.666-0.427l0.27-0.424l0.29-0.455l0.67,0.426l0.027,0.271l1.022,0.144
	l0.002-0.003l0.003-0.004l0.005-0.005V36.32l-0.563-0.862l-0.258,0.09l-0.67-0.427l0.458-0.716l0.667,0.427l0.056,0.222l1.113-0.018
	l-1.593-1.011l-0.316-0.202l-1.196-0.76l-1.077-0.685L30.561,32.353z M5.542,32.583c-0.017,0.002-0.031,0.008-0.044,0.016
	l-0.402,0.258c-0.054,0.034-0.067,0.11-0.029,0.171c0.038,0.06,0.114,0.079,0.169,0.046l0.401-0.256
	c0.054-0.033,0.065-0.109,0.026-0.17C5.634,32.602,5.587,32.578,5.542,32.583 M32.354,32.583c-0.038,0.004-0.075,0.026-0.1,0.064
	c-0.037,0.061-0.027,0.137,0.027,0.17l0.403,0.256c0.055,0.033,0.128,0.014,0.166-0.046c0.039-0.061,0.027-0.137-0.026-0.171
	l-0.404-0.258C32.399,32.585,32.377,32.581,32.354,32.583 M7.22,32.977l0.458,0.713l-0.738,0.47l-0.458-0.716L7.22,32.977z
	 M30.698,32.977l0.739,0.467l-0.458,0.716l-0.737-0.47L30.698,32.977z M4.709,33.112c-0.017,0.002-0.031,0.008-0.044,0.017
	l-0.402,0.257c-0.053,0.033-0.064,0.108-0.027,0.17c0.039,0.059,0.112,0.081,0.166,0.047l0.402-0.256
	c0.054-0.035,0.067-0.112,0.029-0.171C4.804,33.13,4.754,33.106,4.709,33.112 M33.187,33.112c-0.038,0.003-0.076,0.026-0.1,0.063
	c-0.04,0.059-0.027,0.136,0.027,0.171l0.403,0.256c0.055,0.034,0.128,0.012,0.166-0.047c0.039-0.062,0.026-0.137-0.026-0.17
	l-0.404-0.257C33.232,33.116,33.21,33.11,33.187,33.112 M3.896,33.641c-0.022-0.002-0.045,0.005-0.064,0.018L3.43,33.913
	c-0.054,0.035-0.067,0.112-0.029,0.173c0.038,0.06,0.114,0.081,0.169,0.047l0.401-0.256C4.024,33.843,4.038,33.766,4,33.706
	C3.976,33.668,3.936,33.645,3.896,33.641 M34.02,33.641c-0.038,0.004-0.075,0.027-0.1,0.065c-0.038,0.06-0.027,0.137,0.027,0.171
	l0.403,0.256c0.055,0.034,0.128,0.013,0.166-0.047c0.039-0.061,0.025-0.138-0.028-0.173l-0.402-0.255
	C34.065,33.646,34.043,33.639,34.02,33.641 M6.102,33.685L6.56,34.4L5.805,34.88l-0.458-0.716L6.102,33.685z M31.815,33.685
	l0.756,0.479l-0.456,0.716L31.36,34.4L31.815,33.685z M34.809,33.777c-0.011-0.001-0.02,0.001-0.028,0.002
	c-0.05,0.008-0.088,0.044-0.124,0.076l0.3,0.189c0.123,0.078,0.158,0.242,0.08,0.365c-0.078,0.122-0.244,0.159-0.368,0.081
	l-0.297-0.189c-0.013,0.042-0.036,0.091-0.021,0.131c0.048,0.113,0.106,0.173,0.205,0.235c0.223,0.142,0.519,0.076,0.658-0.146
	c0.141-0.219,0.075-0.515-0.146-0.655C35.018,33.836,34.886,33.781,34.809,33.777z M3.11,33.779
	c-0.076,0.004-0.209,0.057-0.258,0.088c-0.222,0.141-0.288,0.437-0.146,0.655c0.141,0.222,0.436,0.287,0.658,0.146
	c0.099-0.063,0.156-0.122,0.205-0.235c0.016-0.04-0.009-0.089-0.021-0.131l-0.297,0.189c-0.123,0.078-0.289,0.041-0.368-0.081
	c-0.078-0.123-0.043-0.287,0.081-0.365l0.299-0.189c-0.037-0.032-0.076-0.068-0.124-0.076C3.132,33.778,3.122,33.779,3.11,33.779
	 M7.916,34.064l0.271,0.424l0.292,0.456l-0.739,0.47L7.468,34.99l-0.29-0.456L7.916,34.064z M30.001,34.064l0.741,0.47l-0.29,0.456
	l-0.273,0.424l-0.738-0.47l0.29-0.453L30.001,34.064z M6.798,34.776l0.29,0.455l0.271,0.426l-0.753,0.479l-0.272-0.425l-0.29-0.456
	L6.798,34.776z M31.119,34.776l0.755,0.479l-0.29,0.456l-0.271,0.425l-0.755-0.48l0.29-0.453L31.119,34.776z M8.718,35.316
	l0.458,0.719l-0.741,0.47l-0.458-0.719L8.718,35.316z M29.202,35.319l0.737,0.467l-0.458,0.719l-0.737-0.468L29.202,35.319z
	 M30.319,36.027l0.756,0.48l-0.458,0.719l-0.755-0.48L30.319,36.027z M7.597,36.03l0.458,0.716l-0.752,0.48l-0.458-0.719
	L7.597,36.03z M9.838,36.428c-0.076,0.005-0.152,0.028-0.221,0.072c-0.1,0.064-0.157,0.123-0.205,0.236
	c-0.018,0.041,0.008,0.088,0.019,0.129l0.3-0.189c0.122-0.077,0.287-0.04,0.365,0.083c0.079,0.122,0.043,0.288-0.08,0.365l-0.3,0.19
	c0.039,0.033,0.077,0.066,0.125,0.075c0.068,0.012,0.231-0.054,0.287-0.088c0.221-0.142,0.288-0.435,0.146-0.655
	C10.178,36.494,10.007,36.416,9.838,36.428 M28.033,36.428c-0.152,0.004-0.301,0.081-0.388,0.219
	c-0.141,0.221-0.076,0.514,0.145,0.655c0.056,0.034,0.219,0.1,0.287,0.088c0.048-0.009,0.087-0.042,0.124-0.075l-0.297-0.19
	c-0.123-0.077-0.161-0.243-0.083-0.365c0.078-0.123,0.242-0.16,0.367-0.083l0.297,0.189c0.013-0.041,0.039-0.088,0.022-0.129
	c-0.047-0.113-0.107-0.172-0.207-0.236C28.218,36.448,28.125,36.425,28.033,36.428 M9.517,36.98
	c-0.015,0.002-0.027,0.006-0.042,0.014L9.071,37.25c-0.055,0.035-0.065,0.11-0.027,0.171c0.039,0.061,0.113,0.083,0.166,0.049
	l0.404-0.256c0.054-0.034,0.065-0.111,0.026-0.171C9.612,36.997,9.562,36.975,9.517,36.98 M28.379,36.98
	c-0.038,0.003-0.076,0.024-0.1,0.063c-0.038,0.06-0.027,0.137,0.026,0.171l0.402,0.256c0.054,0.034,0.129,0.012,0.168-0.049
	c0.038-0.061,0.025-0.136-0.027-0.171l-0.404-0.256C28.425,36.982,28.401,36.979,28.379,36.98 M8.684,37.509
	c-0.015,0.002-0.027,0.009-0.042,0.017l-0.403,0.256c-0.055,0.034-0.065,0.11-0.027,0.171c0.039,0.061,0.112,0.081,0.166,0.046
	l0.404-0.256c0.054-0.033,0.065-0.109,0.026-0.17C8.779,37.527,8.729,37.502,8.684,37.509 M29.212,37.509
	c-0.038,0.003-0.076,0.025-0.1,0.063c-0.038,0.061-0.027,0.137,0.026,0.17l0.404,0.256c0.054,0.035,0.127,0.015,0.166-0.046
	s0.024-0.137-0.029-0.171l-0.401-0.256C29.258,37.513,29.235,37.508,29.212,37.509z M11.771,37.765c0,0-0.392,0.264-0.351,0.497
	c0.009,0.046,0.023,0.088,0.044,0.127c-0.676,0.214-1.268,0.688-1.607,1.371c-0.062,0.125-0.114,0.251-0.155,0.38
	c-0.042-0.022-0.089-0.037-0.14-0.044c-0.234-0.032-0.486,0.365-0.486,0.365s0.132,0.451,0.368,0.484
	c0.045,0.007,0.089,0.005,0.131-0.002c-0.006,0.862,0.402,1.698,1.128,2.216c-0.035,0.034-0.065,0.074-0.088,0.12
	c-0.104,0.213,0.197,0.572,0.197,0.572s0.471,0.017,0.574-0.197c0.021-0.042,0.033-0.084,0.039-0.127
	c0.849,0.284,1.769,0.124,2.463-0.385c0.021,0.043,0.049,0.084,0.085,0.12c0.171,0.164,0.607-0.011,0.607-0.011
	s0.161-0.441-0.01-0.606c-0.033-0.031-0.068-0.059-0.107-0.078c0.091-0.124,0.175-0.256,0.246-0.399
	c0.331-0.664,0.361-1.4,0.143-2.056c0.048-0.007,0.097-0.019,0.143-0.044c0.209-0.111,0.18-0.579,0.18-0.579
	s-0.373-0.29-0.582-0.178c-0.041,0.021-0.077,0.047-0.107,0.078c-0.25-0.35-0.586-0.645-0.996-0.849
	c-0.393-0.193-0.81-0.285-1.221-0.281c0.008-0.049,0.01-0.097,0-0.147C12.228,37.879,11.771,37.765,11.771,37.765z M26.11,37.765
	c0,0-0.454,0.114-0.495,0.348c-0.01,0.051-0.01,0.099,0,0.147c-0.411-0.004-0.829,0.088-1.222,0.281
	c-0.411,0.204-0.746,0.5-0.996,0.851c-0.03-0.031-0.065-0.06-0.106-0.08c-0.21-0.112-0.58,0.178-0.58,0.178
	s-0.032,0.468,0.178,0.579c0.045,0.025,0.093,0.037,0.142,0.044c-0.218,0.655-0.188,1.392,0.144,2.056
	c0.071,0.144,0.154,0.275,0.246,0.399c-0.039,0.02-0.074,0.047-0.107,0.078c-0.17,0.165-0.01,0.606-0.01,0.606
	s0.437,0.175,0.606,0.011c0.037-0.036,0.066-0.077,0.088-0.12c0.694,0.508,1.611,0.669,2.46,0.385
	c0.006,0.043,0.019,0.085,0.039,0.127c0.104,0.214,0.575,0.197,0.575,0.197s0.301-0.359,0.196-0.572
	c-0.021-0.046-0.053-0.086-0.087-0.12c0.725-0.518,1.133-1.354,1.127-2.216c0.043,0.007,0.087,0.009,0.132,0.002
	c0.235-0.033,0.368-0.484,0.368-0.484s-0.252-0.397-0.486-0.365c-0.051,0.007-0.098,0.021-0.14,0.044
	c-0.041-0.129-0.094-0.255-0.156-0.38c-0.34-0.683-0.932-1.157-1.607-1.371c0.021-0.039,0.036-0.081,0.044-0.127
	C26.503,38.028,26.11,37.765,26.11,37.765 M7.851,38.039c-0.015,0.002-0.027,0.006-0.042,0.016l-0.403,0.256
	c-0.055,0.034-0.067,0.11-0.027,0.17c0.037,0.062,0.112,0.084,0.166,0.049l0.404-0.256c0.054-0.034,0.064-0.111,0.026-0.173
	C7.946,38.057,7.896,38.034,7.851,38.039 M30.045,38.039c-0.038,0.004-0.076,0.024-0.101,0.062
	c-0.037,0.062-0.026,0.139,0.027,0.173l0.402,0.256c0.054,0.035,0.127,0.013,0.166-0.049c0.038-0.06,0.026-0.136-0.027-0.17
	l-0.402-0.256C30.091,38.041,30.067,38.038,30.045,38.039 M12.314,38.546c0.354,0.005,0.709,0.088,1.046,0.254
	c0.436,0.216,0.775,0.548,1.006,0.938c0.006,0.052,0.022,0.104,0.049,0.154c0.023,0.044,0.054,0.084,0.09,0.116
	c0.271,0.631,0.276,1.369-0.053,2.031c-0.097,0.192-0.213,0.365-0.35,0.52c-0.051,0.021-0.098,0.054-0.139,0.097
	c-0.036,0.038-0.065,0.079-0.085,0.124c-0.685,0.598-1.677,0.781-2.553,0.405c-0.036-0.042-0.083-0.077-0.137-0.104
	c-0.046-0.021-0.095-0.036-0.144-0.041c-0.817-0.484-1.256-1.393-1.174-2.299C9.9,40.693,9.92,40.64,9.928,40.58
	c0.007-0.05,0.005-0.1-0.005-0.146c0.042-0.186,0.105-0.369,0.193-0.546c0.337-0.679,0.95-1.13,1.639-1.284
	c0.053,0.012,0.109,0.013,0.166,0.003c0.05-0.009,0.097-0.025,0.139-0.049C12.144,38.551,12.229,38.545,12.314,38.546
	 M25.567,38.548c0.087,0,0.172,0.003,0.257,0.011c0.042,0.023,0.088,0.04,0.139,0.049c0.055,0.01,0.109,0.01,0.161,0
	c0.688,0.153,1.306,0.602,1.644,1.281c0.087,0.176,0.153,0.356,0.195,0.541c-0.011,0.048-0.015,0.099-0.008,0.15
	c0.009,0.06,0.026,0.113,0.056,0.161c0.083,0.907-0.357,1.814-1.176,2.299c-0.048,0.005-0.096,0.02-0.141,0.041
	c-0.055,0.026-0.099,0.062-0.135,0.104c-0.877,0.378-1.87,0.193-2.556-0.405c-0.019-0.045-0.048-0.086-0.085-0.124
	c-0.041-0.043-0.089-0.075-0.141-0.097c-0.136-0.154-0.252-0.328-0.347-0.52c-0.329-0.662-0.325-1.4-0.054-2.031
	c0.036-0.032,0.066-0.071,0.091-0.116c0.026-0.05,0.043-0.104,0.048-0.156c0.23-0.39,0.571-0.72,1.006-0.936
	C24.858,38.634,25.216,38.553,25.567,38.548z M7.02,38.568c-0.015,0.002-0.029,0.006-0.044,0.015l-0.401,0.255
	c-0.055,0.034-0.069,0.111-0.029,0.172c0.039,0.06,0.115,0.083,0.168,0.049L7.115,38.8c0.053-0.033,0.064-0.11,0.026-0.171
	C7.113,38.584,7.065,38.563,7.02,38.568 M30.878,38.568c-0.038,0.003-0.076,0.023-0.1,0.061c-0.038,0.061-0.026,0.138,0.026,0.171
	l0.402,0.259c0.053,0.034,0.127,0.011,0.166-0.049c0.038-0.061,0.026-0.138-0.027-0.172l-0.401-0.255
	C30.924,38.57,30.9,38.566,30.878,38.568 M6.302,38.714C6.178,38.709,6.1,38.737,6,38.8c-0.222,0.14-0.286,0.434-0.145,0.655
	c0.142,0.221,0.435,0.287,0.655,0.146c0.057-0.036,0.184-0.159,0.202-0.225c0.012-0.048-0.004-0.096-0.017-0.146l-0.298,0.192
	c-0.123,0.078-0.288,0.041-0.367-0.079c-0.078-0.124-0.042-0.288,0.083-0.366l0.3-0.19C6.379,38.76,6.345,38.716,6.302,38.714
	 M31.619,38.714c-0.044,0.002-0.079,0.046-0.112,0.073l0.299,0.19c0.125,0.078,0.159,0.242,0.08,0.366
	c-0.078,0.12-0.241,0.157-0.365,0.079l-0.297-0.192c-0.013,0.051-0.029,0.099-0.017,0.146c0.018,0.065,0.146,0.188,0.202,0.225
	c0.221,0.141,0.514,0.074,0.654-0.146c0.141-0.222,0.078-0.516-0.143-0.655C31.819,38.737,31.742,38.709,31.619,38.714
	 M12.384,38.899c-0.018,0-0.033,0.001-0.052,0.005c-0.236,0.046-0.126,0.315-0.065,0.473c0.072,0.189,0.1,0.419-0.181,0.517
	c-0.289-0.005-0.34-0.229-0.333-0.432c0.005-0.168,0.021-0.46-0.217-0.426c-0.298,0.041-0.281,0.527-0.499,0.738
	c-0.209,0.219-0.69,0.215-0.727,0.511c-0.026,0.24,0.264,0.215,0.432,0.207c0.202-0.011,0.43,0.035,0.438,0.327
	c-0.092,0.278-0.323,0.256-0.514,0.187c-0.159-0.056-0.431-0.161-0.472,0.076c-0.055,0.295,0.413,0.429,0.548,0.701
	c0.145,0.265-0.012,0.72,0.261,0.845c0.219,0.101,0.287-0.18,0.331-0.343c0.053-0.194,0.166-0.396,0.448-0.313
	c0.233,0.174,0.144,0.386,0.019,0.545c-0.102,0.134-0.286,0.357-0.073,0.47c0.266,0.143,0.536-0.258,0.838-0.302
	c0.3-0.054,0.685,0.23,0.888,0.013c0.163-0.177-0.085-0.33-0.228-0.422c-0.169-0.11-0.325-0.279-0.163-0.52
	c0.239-0.172,0.414-0.019,0.529,0.149c0.095,0.14,0.249,0.383,0.424,0.217c0.217-0.208-0.082-0.592-0.03-0.889
	c0.039-0.301,0.435-0.58,0.288-0.841c-0.118-0.21-0.339-0.021-0.47,0.086c-0.158,0.128-0.37,0.223-0.548-0.01
	c-0.088-0.277,0.109-0.396,0.304-0.451c0.162-0.047,0.444-0.12,0.339-0.336c-0.131-0.271-0.586-0.105-0.854-0.246
	C12.786,39.316,12.643,38.902,12.384,38.899 M25.498,38.899c-0.26,0.003-0.403,0.417-0.661,0.536v0.003
	c-0.27,0.137-0.722-0.026-0.852,0.243c-0.105,0.216,0.177,0.289,0.339,0.336c0.194,0.056,0.392,0.174,0.304,0.451
	c-0.179,0.232-0.391,0.138-0.548,0.01c-0.131-0.106-0.353-0.296-0.47-0.086c-0.146,0.261,0.25,0.54,0.286,0.841
	c0.054,0.297-0.246,0.681-0.028,0.889c0.174,0.166,0.331-0.077,0.426-0.217c0.115-0.168,0.287-0.321,0.525-0.149
	c0.164,0.24,0.008,0.409-0.162,0.52c-0.142,0.092-0.39,0.245-0.227,0.422c0.204,0.22,0.594-0.072,0.895-0.013
	c0.299,0.047,0.567,0.443,0.833,0.302c0.212-0.113,0.027-0.336-0.076-0.47c-0.124-0.159-0.215-0.371,0.02-0.545
	c0.281-0.083,0.395,0.119,0.448,0.313c0.044,0.163,0.111,0.443,0.331,0.343c0.272-0.125,0.116-0.58,0.261-0.845
	c0.133-0.272,0.604-0.406,0.55-0.701c-0.042-0.237-0.313-0.132-0.472-0.076c-0.191,0.069-0.425,0.092-0.517-0.187
	c0.009-0.292,0.235-0.338,0.438-0.327c0.168,0.008,0.458,0.033,0.432-0.207c-0.036-0.297-0.522-0.292-0.729-0.514
	c-0.216-0.211-0.202-0.694-0.497-0.735c-0.241-0.034-0.222,0.258-0.217,0.426c0.006,0.202-0.044,0.427-0.334,0.432
	c-0.28-0.097-0.254-0.327-0.18-0.517c0.059-0.157,0.172-0.427-0.066-0.473C25.533,38.9,25.515,38.899,25.498,38.899 M19.796,40.21
	c-0.16,0.002-0.317,0.041-0.436,0.156c-0.229,0.214-0.16,0.596-0.105,0.862c0.099,0.481-0.15,0.601-0.288,0.631
	c-0.104-0.008-0.456-0.075-0.348-0.634c0.051-0.267,0.111-0.649-0.117-0.862c-0.122-0.111-0.28-0.15-0.438-0.151
	c-0.057,0-0.111,0.005-0.168,0.008c-0.085,0.009-0.169,0.034-0.254,0.021c-0.083-0.012-0.301,0.067-0.389,0.112l-0.003-0.002
	c-0.068,0.066-0.213,0.261-0.227,0.346c-0.013,0.084-0.063,0.158-0.095,0.236c-0.021,0.051-0.043,0.103-0.059,0.155
	c-0.046,0.151-0.057,0.315,0.015,0.466c0.134,0.28,0.519,0.336,0.789,0.365c0.489,0.055,0.526,0.325,0.511,0.466
	c-0.039,0.097-0.209,0.41-0.711,0.134c-0.236-0.131-0.585-0.309-0.856-0.156c-0.144,0.081-0.229,0.221-0.278,0.37
	c-0.018,0.054-0.033,0.108-0.046,0.163c-0.019,0.082-0.017,0.169-0.056,0.246s-0.034,0.32-0.018,0.414h0.002
	c0.046,0.09,0.18,0.277,0.256,0.314c0.077,0.038,0.131,0.11,0.195,0.165c0.042,0.036,0.086,0.07,0.131,0.103
	c0.13,0.09,0.283,0.15,0.446,0.13c0.31-0.04,0.482-0.39,0.594-0.636c0.202-0.444,0.467-0.4,0.597-0.345
	c0.077,0.063,0.336,0.323-0.087,0.72c-0.199,0.186-0.475,0.461-0.414,0.765c0.033,0.161,0.139,0.287,0.266,0.38
	c0.046,0.033,0.095,0.064,0.144,0.092c0.073,0.044,0.155,0.07,0.216,0.132c0.06,0.06,0.28,0.123,0.38,0.14v0.002
	c0.003,0,0.005,0,0.006,0c0.002,0,0.004,0,0.005,0v-0.002c0.101-0.017,0.32-0.085,0.38-0.145c0.061-0.062,0.141-0.092,0.215-0.136
	c0.047-0.03,0.096-0.06,0.141-0.093c0.126-0.097,0.231-0.221,0.261-0.382c0.058-0.308-0.224-0.577-0.423-0.761
	c-0.358-0.324-0.24-0.564-0.147-0.673c0.08-0.051,0.414-0.225,0.663,0.306c0.114,0.244,0.292,0.592,0.602,0.628
	c0.164,0.02,0.314-0.044,0.443-0.137c0.046-0.032,0.088-0.068,0.129-0.104c0.064-0.057,0.116-0.127,0.195-0.165
	c0.074-0.039,0.204-0.229,0.248-0.32h0.003c0.001-0.001,0.001-0.005,0.002-0.007h-0.002c0.016-0.098,0.02-0.33-0.018-0.404
	c-0.04-0.077-0.044-0.167-0.063-0.249c-0.012-0.055-0.028-0.107-0.046-0.16c-0.052-0.149-0.138-0.285-0.282-0.365
	c-0.274-0.15-0.618,0.034-0.855,0.168c-0.426,0.242-0.617,0.046-0.689-0.075c-0.025-0.1-0.071-0.458,0.5-0.529
	c0.269-0.034,0.652-0.095,0.781-0.377c0.069-0.151,0.058-0.312,0.01-0.463c-0.019-0.053-0.039-0.105-0.062-0.158
	c-0.032-0.077-0.084-0.149-0.097-0.233c-0.014-0.084-0.162-0.276-0.232-0.342l-0.002,0.003c-0.089-0.047-0.309-0.121-0.392-0.107
	c-0.085,0.014-0.17-0.011-0.253-0.017C19.907,40.212,19.851,40.208,19.796,40.21 M25.61,40.229c0.266,0.004,0.521,0.154,0.647,0.409
	c0.179,0.361,0.033,0.8-0.329,0.979c-0.364,0.181-0.804,0.035-0.984-0.328c-0.18-0.362-0.032-0.801,0.331-0.981
	c0.092-0.045,0.186-0.07,0.28-0.075C25.574,40.23,25.592,40.229,25.61,40.229 M12.257,40.232c0.118-0.005,0.239,0.019,0.354,0.075
	c0.362,0.181,0.511,0.619,0.33,0.981c-0.18,0.363-0.621,0.509-0.985,0.328c-0.363-0.179-0.509-0.617-0.329-0.979
	C11.75,40.39,11.996,40.241,12.257,40.232 M13.065,41.693l-0.008,0.054h-0.002L13.065,41.693z M24.817,41.693l0.011,0.054h-0.003
	L24.817,41.693z"/>
<path fill="#4D4D4D" d="M43.826,45.49h1.184V6.838h-1.184V45.49z M52.371,29.334v15.745h3.088V39.3c0-0.855-0.046-2.858-0.046-3.467
	c0.225,0.584,0.701,1.71,1.105,2.611l3.2,6.995l3.201-6.995c0.405-0.901,0.878-2.027,1.103-2.611c0,0.608-0.043,2.611-0.043,3.467
	v5.779h3.154V29.334h-3.111l-3.178,7.13c-0.404,0.9-0.854,2.049-1.057,2.633c-0.203-0.562-0.678-1.755-1.084-2.633l-3.291-7.13
	H52.371z M70.627,45.079h3.157V29.334h-3.157V45.079z M77.683,29.334l-0.541,7.872l2.999,1.102c0.743-0.518,1.69-0.942,3.11-0.942
	c1.487,0,2.682,0.696,2.682,2.338c0,1.688-1.239,2.587-3.381,2.587c-1.6,0-3.154-0.494-4.621-1.327l-1.531,2.677
	c1.983,1.236,3.877,1.688,6.152,1.688c3.876,0,6.581-1.957,6.581-5.735c0-2.971-1.871-5.218-5.409-5.218
	c-1.486,0-2.434,0.246-3.313,0.719l0.178-2.722h7.597v-3.037H77.683z"/>
<path fill="#4D4D4D" d="M15.916,9.949c0.807-0.563,3.05-0.713,3.05-0.713V6.105l-0.524,0.004c0,0-0.042,0.009-0.01,0.041
	c0.033,0.032,0.319,0.361,0.335,0.441c0.016,0.081,0.024,0.153,0.024,0.153c0,0.031,0.021,0.164,0,0.188
	c-0.078,0.094-0.253-0.074-0.298-0.133c-0.051-0.063-0.087-0.098-0.108-0.177c0,0-0.057-0.016-0.057,0.037
	c0,0.187,0.006,0.199,0.008,0.381l0.009,0.17c-0.004,0.183-0.009,0.123-0.009,0.311c0,0.053,0.057,0.036,0.057,0.036
	s0.064-0.201,0.258-0.266c0.013-0.004,0.138-0.038,0.138-0.044c0.012,0.224-0.047,0.463-0.129,0.672
	c-0.062,0.15-0.266,0.373-0.429,0.409c-0.102,0.023-0.252,0.041-0.355,0.045c-0.201,0.005-0.377-0.066-0.482-0.245
	c-0.19-0.32-0.05-0.607,0.095-0.636c0.097-0.018,0.148,0.021,0.213,0.085c0.173,0.17,0.239-0.159,0.252-0.273
	c0.02-0.2-0.054-0.527-0.293-0.577c-0.125-0.024-0.352,0.019-0.459,0.197c-0.099,0.16-0.068,0.125-0.104,0.105
	c-0.07-0.041-0.019-0.457-0.021-0.53c-0.003-0.194,0.021-0.439-0.105-0.606c-0.084-0.109-0.243-0.189-0.372-0.236
	c-0.099,0.126-0.218,0.265-0.229,0.431c-0.012,0.186,0.079,0.374,0.147,0.539c0.039,0.092,0.091,0.177,0.133,0.267
	c0.024,0.055,0.047,0.123,0.052,0.184c0.01,0.118-0.073,0.03-0.131-0.011c-0.17-0.121-0.396-0.072-0.501,0
	c-0.172,0.119-0.151,0.386-0.089,0.559c0.038,0.104,0.283,0.495,0.389,0.239c0.033-0.085,0.064-0.14,0.16-0.162
	c0.146-0.032,0.389,0.177,0.34,0.548c-0.051,0.378-0.436,0.523-0.759,0.531c-0.274,0.006-0.592-0.258-0.711-0.499
	c-0.054-0.112-0.007-0.166,0.081-0.209c0.065-0.032,0.117-0.014,0.234,0.042c0.075,0.036,0.059-0.04,0.059-0.041
	c-0.085-0.182-0.183-0.358-0.258-0.545c0,0-0.051-0.096-0.073,0.018c-0.012,0.068-0.012,0.048-0.022,0.117
	c-0.025,0.147-0.147,0.181-0.254,0.046c-0.191-0.243-0.109-0.753-0.109-0.753s-0.015-0.063-0.064-0.016
	c-0.039,0.041-0.174,0.166-0.291,0.29"/>
<path fill="#4D4D4D" d="M26.894,16.143c0,0.404,0.328,0.731,0.733,0.731c0.406,0,0.734-0.327,0.734-0.731s-0.328-0.732-0.734-0.732
	C27.222,15.41,26.894,15.738,26.894,16.143"/>
</svg>
