<?xml version="1.0" encoding="utf-8"?>
<!-- Generator: Adobe Illustrator 16.0.3, SVG Export Plug-In . SVG Version: 6.00 Build 0)  -->
<!DOCTYPE svg PUBLIC "-//W3C//DTD SVG 1.1//EN" "http://www.w3.org/Graphics/SVG/1.1/DTD/svg11.dtd">
<svg version="1.1" id="Layer_1" xmlns="http://www.w3.org/2000/svg" xmlns:xlink="http://www.w3.org/1999/xlink" x="0px" y="0px"
	 width="164.89px" height="28.425px" viewBox="0 0 164.89 28.425" enable-background="new 0 0 164.89 28.425" xml:space="preserve">
<path fill-rule="evenodd" clip-rule="evenodd" fill="#4D4D4D" d="M20.471,17.011h-8.612v6.078c0,2.902,2.872,3.059,3.195,3.059
	v0.438H1.547v-0.438c0.323,0,3.195-0.157,3.195-3.059V4.815c0-2.902-2.872-3.059-3.195-3.059V1.318h18.924
	c6.026,0,8.896,3.934,8.896,7.866C29.367,13.08,26.498,17.011,20.471,17.011 M17.116,3.027h-5.257v12.275h5.257
	c3.883,0,5.7-2.858,5.7-6.118C22.816,5.926,20.999,3.027,17.116,3.027 M54.599,26.586l-11.768-9.575v6.078
	c0,2.902,2.872,3.059,3.195,3.059v0.438H32.562v-0.438c0.323,0,3.194-0.157,3.194-3.059V4.815c0-2.902-2.871-3.059-3.194-3.059
	V1.318h18.926c6.024,0,8.854,3.934,8.854,7.866c0,3.896-2.83,7.827-8.854,7.827h-5.904c1.294,1.351,4.002,1.908,6.47,1.908
	c1.09,0,2.182-0.161,3.113-0.397l9.583,7.705v0.359H54.599z M48.129,3.027h-5.298v12.275h5.298c3.843,0,5.703-2.858,5.703-6.118
	C53.833,5.926,51.972,3.027,48.129,3.027 M85.657,26.586v-0.438c1.334,0,1.898-0.396,1.898-1.271c0-0.397-0.162-0.913-0.445-1.429
	l-2.426-4.293H74.171l-1.86,3.776c-0.242,0.517-0.445,1.112-0.445,1.709c0,0.913,0.404,1.508,1.537,1.508v0.438h-6.51v-0.438
	c1.536,0,2.505-1.032,3.437-2.899l7.804-15.614l-2.185-3.616c-1.13-1.867-2.304-2.263-3.478-2.263V1.318h10.231l12.615,22.13
	c0.769,1.35,1.62,2.7,3.317,2.7v0.438H85.657z M79.104,9.382l-4.125,8.067h8.734L79.104,9.382z M116.225,26.586h-14.881v-0.438
	c0.323,0,3.195-0.157,3.195-3.059V4.815c0-2.902-2.872-3.059-3.195-3.059V1.318h14.881c6.673,0,13.626,4.29,13.626,12.634
	C129.851,22.336,122.898,26.586,116.225,26.586 M121.279,9.303c0-4.567-2.913-6.276-6.146-6.276h-3.478v21.85h3.478
	c3.233,0,6.146-1.709,6.146-6.276V9.303z M149.141,26.586v-0.438c1.332,0,1.899-0.396,1.899-1.271c0-0.397-0.163-0.913-0.446-1.429
	l-2.426-4.293h-10.512l-1.861,3.776c-0.242,0.517-0.445,1.112-0.445,1.709c0,0.913,0.404,1.508,1.537,1.508v0.438h-6.51v-0.438
	c1.535,0,2.508-1.032,3.438-2.899l7.803-15.614l-2.182-3.616c-1.133-1.867-2.307-2.263-3.478-2.263V1.318h10.229l12.617,22.13
	c0.767,1.35,1.616,2.7,3.314,2.7v0.438H149.141z M142.587,9.382l-4.124,8.067h8.735L142.587,9.382z"/>
</svg>
