<?xml version="1.0" encoding="utf-8"?>
<!-- Generator: Adobe Illustrator 16.0.3, SVG Export Plug-In . SVG Version: 6.00 Build 0)  -->
<!DOCTYPE svg PUBLIC "-//W3C//DTD SVG 1.1//EN" "http://www.w3.org/Graphics/SVG/1.1/DTD/svg11.dtd">
<svg version="1.1" id="Layer_1" xmlns="http://www.w3.org/2000/svg" xmlns:xlink="http://www.w3.org/1999/xlink" x="0px" y="0px"
	 width="126.89px" height="67.092px" viewBox="0 0 126.89 67.092" enable-background="new 0 0 126.89 67.092" xml:space="preserve">
<path fill-rule="evenodd" clip-rule="evenodd" fill="#4D4D4D" d="M15.185,32.756H9.641H1.084c-1.044,0-1.044,0-1.044,0.764v28.422
	c-0.021-0.02-0.021,0-0.04,0.02v0.02c0.02,0.161,0.201,0.623,0.803,0.623h6.829c0.663,0,0.663,0,0.663-0.603v-5.725
	c0-0.783,0-0.903,0.764-0.903h0.582h5.544c3.254-0.141,4.058-0.904,4.058-4.6V36.593C19.242,33.439,18.438,32.756,15.185,32.756
	 M10.987,50.392c-0.04,0.884-0.703,1.326-1.347,1.326c-0.683,0-1.346-0.462-1.346-1.406V37.356c0-0.884,0.663-1.346,1.346-1.346
	c0.684,0,1.347,0.462,1.347,1.406V50.392z"/>
<path fill-rule="evenodd" clip-rule="evenodd" fill="#4D4D4D" d="M41.478,33.439c0-0.683-0.141-0.462-0.763-0.683h-6.749
	c-0.744,0-0.744,0-0.744,0.683l-0.02,23.521c0,2.31-2.611,2.25-2.611,0V33.439c0-0.683,0-0.683-0.683-0.683h-7.05
	c-0.824,0-0.824,0-0.824,0.683v24.887c0,3.676,0.824,4.278,3.074,4.278h13.056c2.551,0,3.395-0.682,3.313-4.057V33.439z"/>
<path fill-rule="evenodd" clip-rule="evenodd" fill="#4D4D4D" d="M70.885,32.756h-23.26c-2.772,0-3.597,0.683-3.597,3.394v25.852
	c0,0.602,0,0.602,0.824,0.602h6.528c0.903,0,0.903,0,0.903-0.602V37.658c0-2.129,2.611-2.35,2.611,0v24.345
	c0,0.602,0,0.602,0.984,0.602h6.508c0.764,0,0.764,0,0.764-0.602V37.658c0-2.009,2.611-2.129,2.611,0v24.345
	c0,0.602,0,0.602,0.823,0.602h6.688c0.743,0,0.743,0,0.743-0.602V35.991C74.018,33.439,73.194,32.756,70.885,32.756"/>
<path fill-rule="evenodd" clip-rule="evenodd" fill="#4D4D4D" d="M93.461,32.756h-6.729h-6.468c-2.189,0-3.094,0.683-3.094,3.254
	v25.992c0,0.603,0,0.603,0.904,0.603h6.528c0.823,0,0.823,0,0.823-0.603v-5.805c0.08-0.904,0.684-1.366,1.306-1.386
	c0.663-0.02,1.326,0.462,1.326,1.466v5.725c0,0.603,0,0.603,0.822,0.603h6.771c0.662,0,0.662,0,0.662-0.603V35.99
	C96.313,33.439,95.63,32.756,93.461,32.756 M88.059,50.392c0,0.804-0.663,1.205-1.326,1.185c-0.643,0-1.306-0.401-1.306-1.185
	V37.657c0-0.884,0.663-1.305,1.306-1.305c0.663,0.02,1.326,0.462,1.326,1.305V50.392z"/>
<path fill-rule="evenodd" clip-rule="evenodd" fill="#4D4D4D" d="M103.545,57.945h-0.061c-1.948,0-3.556,1.607-3.556,3.596
	c0,1.948,1.607,3.555,3.556,3.555h0.061c1.969-0.02,3.535-1.607,3.535-3.555C107.08,59.572,105.514,57.985,103.545,57.945
	 M106.356,61.842c-0.221,1.506-1.405,2.511-2.812,2.531c-0.381,0-0.763-0.061-1.146-0.201c-1.185-0.583-1.848-1.587-1.747-2.913
	c0.222-1.607,1.526-2.611,2.893-2.591c0.783,0,1.566,0.322,2.169,1.045C106.196,60.396,106.396,60.978,106.356,61.842"/>
<path fill-rule="evenodd" clip-rule="evenodd" fill="#4D4D4D" d="M104.69,61.6c0.261-0.241,0.4-0.562,0.4-0.943
	c0-0.342-0.16-0.643-0.481-0.864c-0.281-0.221-0.663-0.362-1.064-0.382h-0.141h-1.406l-0.021,4.279h0.703l-0.02-1.668h0.542
	l0.342,0.462l0.904,1.185h0.683l-1.326-1.687C104.107,61.982,104.408,61.822,104.69,61.6 M103.404,61.48h-0.724l-0.02-1.607h0.743
	c0.061,0,0.101,0.02,0.141,0.02c0.221,0.021,0.442,0.1,0.582,0.221c0.181,0.141,0.302,0.362,0.302,0.543
	c0,0.24-0.101,0.421-0.302,0.582c-0.16,0.141-0.361,0.221-0.582,0.241H103.404z"/>
<path fill-rule="evenodd" clip-rule="evenodd" fill="#4D4D4D" d="M125.981,2.386c-0.623-1.004-1.969-0.703-3.596,0.08
	c-2.109,0.904-5.905,5.122-6.829,7.472c-0.823,3.375-2.752,6.488-5.886,9.843c-3.153,2.571-8.758,1.546-11.991-0.502
	c-0.201,0-13.479-10.345-13.479-10.345c-4.76-3.756-8.073-5.383-12.071-5.865c-0.201-0.121-0.382-0.321-0.441-0.462
	C71.065,1.221,70.944,1.342,70.503,1c-0.522,0.402-0.904,0.623-1.427,0.783c-0.241,0-0.28,0-0.422-0.08
	c-0.321-0.14-0.663-0.422-1.004-0.442c-0.402,0.081-0.723,0.884-1.265,1.687c0,0-0.924,0.804-1.769,1.507
	c-0.321,0.281-0.361,0.723-0.583,0.984c-0.441,0.482-0.964,1.266-1.044,1.266c-0.201,0.562-0.281,1.064,0.08,1.325
	c0,0.623,0.322,0.784,0.442,0.924c0.101,0.201,0.121,0.282,0.261,0.422c0.242,0.101,0.442,0.141,0.683,0.201
	c1.286,1.185,1.809,1.165,3.294,0.964c2.571,0.181,2.351,1.045,2.29,2.35c-0.159,0.201-0.199,0.181-0.381,0.281
	c-1.145,0-2.351-0.261-3.495-0.261c-2.511,0.221-4.681,0.663-4.479,3.696c0.161,1.185,2.31,2.832,3.435,0.603
	c0.161-1.025,1.025-0.562,1.769-0.321c4.499,1.948,8.094,2.952,10.484,0.923c0.724-0.903,1.165-0.261,1.908,0.282
	c3.616,4.298,8.798,7.09,16.772,7.19c2.651,0.663,4.68,1.768,5.685,4.379c2.47,6.327,5.604,11.429,10.204,14.101
	c-0.382,3.997-0.221,7.312,3.816,8.175c1.064-0.863-0.423-2.17,0.803-5.102c-0.101-1.305-1.226-2.37-1.607-4.861
	c-4.7-3.856-2.711-5.443-3.414-8.014c-0.061-3.756-0.884-6.628-2.471-9.481c-0.181-0.462,0.121-0.803,0.542-1.044
	c2.652-1.989,4.098-3.937,4.741-5.825c0.983-3.355,2.651-5.986,5.021-7.874c2.009-1.607,3.916-2.109,6.086-3.536
	C126.805,3.993,126.604,3.39,125.981,2.386"/>
</svg>
