<?xml version="1.0" encoding="utf-8"?>
<!-- Generator: Adobe Illustrator 16.0.3, SVG Export Plug-In . SVG Version: 6.00 Build 0)  -->
<!DOCTYPE svg PUBLIC "-//W3C//DTD SVG 1.1//EN" "http://www.w3.org/Graphics/SVG/1.1/DTD/svg11.dtd">
<svg version="1.1" id="Layer_1" xmlns="http://www.w3.org/2000/svg" xmlns:xlink="http://www.w3.org/1999/xlink" x="0px" y="0px"
	 width="211.89px" height="40.759px" viewBox="0 0 211.89 40.759" enable-background="new 0 0 211.89 40.759" xml:space="preserve">
<path fill="#4D4D4D" d="M21.568,2.939c0,4.716,7.91,9.953,7.91,15.34c0,0,0,0.52-0.219,1.075c7.396,1.561,12.633,5.239,12.633,9.55
	c0,5.794-9.339,10.589-20.911,10.589C9.161,39.493,0,34.777,0,29.125c0-4.307,5.675-7.802,12.525-9.656
	c0,2.375,7.793,9.919,7.982,12.962c0.021,0.349,0.089,0.644,0,1.003c1.684-0.889,1.684-3.677,1.684-3.677
	c0-6.612-7.579-9.547-7.579-16.047c0-2.527,1.173-4.384,2.233-4.903v1.818c0,4.72,8.2,9.993,8.2,14.304v1.411
	c1.908-0.74,1.908-4.273,1.908-4.273c0-5.943-7.618-9.249-7.618-16.048c0-2.524,1.172-4.381,2.233-4.903V2.939z"/>
<path fill="#4D4D4D" d="M58.515,37.666c-3.99,0-6.88-1.151-6.88-1.151v-7.017h0.989c0.511,3.711,3.292,6.532,6.475,6.532
	c3.186,0,5.418-1.781,5.418-4.602c0-3.007-2.966-4.379-4.941-5.382l-2.853-1.448c-2.709-1.373-4.904-3.603-4.904-6.72
	c0-3.897,2.855-7.237,8.306-7.237c3.732,0,6.806,1.262,6.806,1.262v6.271h-0.989c-0.584-3.34-2.414-5.976-6.147-5.976
	c-2.781,0-4.427,1.931-4.427,3.898c0,2.561,1.756,3.712,3.804,4.752l2.856,1.446c2.597,1.339,5.819,3.566,5.819,7.353
	C67.847,34.472,64.552,37.666,58.515,37.666"/>
<path fill="#4D4D4D" d="M76.958,30.017c-0.77,0.335-2.124,0.966-2.124,2.746c0,0.965,0.551,2.526,2.455,2.526
	c0.914,0,2.194-0.522,3.109-1.262v-5.495L76.958,30.017z M75.458,37.517c-2.489,0-4.099-1.672-4.099-4.159
	c0-1.78,1.281-3.156,4.099-4.196l4.94-1.817v-1.562c0-2.336-1.061-3.785-2.672-3.785c-1.099,0-2.196,0.558-2.745,1.449
	c-0.218,0.332-0.254,0.818-0.254,1.186c0,0.632,0.4,1.372,0.4,1.372l-2.414,1.117c-0.292-0.519-0.658-1.299-0.658-2.08
	c0-0.147,0.035-0.296,0.035-0.409c0.184-1.335,1.319-2.226,2.855-3.153c1.501-0.926,2.781-1.191,3.696-1.191
	c4.611,0,5.415,3.713,5.415,4.94v7.685c0,1.222,0.112,2.004,1.099,2.004c0.293,0,0.475,0,0.88-0.151l0.878-0.295v1.114l-5.125,1.931
	c-0.768-0.556-1.135-1.559-1.279-2.413C79.299,36.144,77.214,37.517,75.458,37.517"/>
<path fill="#4D4D4D" d="M88.045,37.145v-0.888l1.209-0.227c0.731-0.149,1.242-0.704,1.242-1.449v-9.91c0-0.851-0.401-1.3-1.135-1.3
	c-0.255,0-0.549,0.04-0.841,0.149l-0.475,0.186v-1.113l5.268-2.304h0.769v2.75c1.609-1.822,3.513-2.75,5.197-2.75
	c3.731,0,5.524,2.713,5.524,5.866v8.426c0,0.745,0.552,1.34,1.283,1.449l1.243,0.227v0.888H98.62v-0.888l1.208-0.227
	c0.729-0.149,1.317-0.704,1.317-1.449v-8.385c0-1.118-0.294-3.603-3.22-3.603c-1.611,0-2.965,1.005-3.769,1.744v10.244
	c0,0.745,0.584,1.3,1.318,1.449l1.206,0.227v0.888H88.045z"/>
<path fill="#4D4D4D" d="M119.954,22.556h-5.124v9.207c0,2.041,1.063,3.154,2.599,3.154c0.621,0,1.609-0.187,2.525-0.704l0.402,0.89
	l-3.294,2.116c0,0-0.658,0.111-0.987,0.111c-3.185,0-4.905-1.892-4.905-5.903v-8.871h-2.67v-0.927c0,0,4.024-1.561,5.599-5.385
	h0.731v4.713h5.783L119.954,22.556z"/>
<path fill="#4D4D4D" d="M127.631,30.017c-0.768,0.335-2.125,0.966-2.125,2.746c0,0.965,0.548,2.526,2.453,2.526
	c0.915,0,2.195-0.522,3.11-1.262v-5.495L127.631,30.017z M126.127,37.517c-2.489,0-4.097-1.672-4.097-4.159
	c0-1.78,1.282-3.156,4.097-4.196l4.942-1.817v-1.562c0-2.336-1.062-3.785-2.672-3.785c-1.097,0-2.196,0.558-2.744,1.449
	c-0.22,0.332-0.256,0.818-0.256,1.186c0,0.632,0.403,1.372,0.403,1.372l-2.415,1.117c-0.295-0.519-0.659-1.299-0.659-2.08
	c0-0.147,0.037-0.296,0.037-0.409c0.181-1.335,1.316-2.226,2.853-3.153c1.502-0.926,2.781-1.191,3.694-1.191
	c4.615,0,5.42,3.713,5.42,4.94v7.685c0,1.222,0.108,2.004,1.097,2.004c0.292,0,0.475,0,0.875-0.151l0.882-0.295v1.114l-5.124,1.931
	c-0.767-0.556-1.131-1.559-1.28-2.413C129.972,36.144,127.886,37.517,126.127,37.517"/>
<path fill="#4D4D4D" d="M138.716,37.145v-0.888l1.207-0.227c0.731-0.149,1.246-0.704,1.246-1.449v-9.91c0-0.851-0.404-1.3-1.135-1.3
	c-0.256,0-0.549,0.04-0.843,0.149l-0.475,0.186v-1.113l5.27-2.304h0.769v2.75c1.61-1.822,3.512-2.75,5.196-2.75
	c3.729,0,5.525,2.713,5.525,5.866v8.426c0,0.745,0.549,1.34,1.279,1.449L158,36.256v0.888h-8.708v-0.888l1.208-0.227
	c0.731-0.149,1.316-0.704,1.316-1.449v-8.385c0-1.118-0.293-3.603-3.22-3.603c-1.611,0-2.965,1.005-3.769,1.744v10.244
	c0,0.745,0.589,1.3,1.317,1.449l1.208,0.227v0.888H138.716z"/>
<path fill="#4D4D4D" d="M168.941,21.853c-2.634,0-5.343,1.704-5.343,6.679c0,4.158,2.05,6.682,5.271,6.682
	c1.94,0,3.146-1.152,3.439-1.745v-9.65C171.834,22.592,170.479,21.853,168.941,21.853 M167.296,37.517
	c-3.439,0-7.575-2.599-7.575-8.241c0-4.939,3.769-8.987,8.818-8.987c1.685,0,2.894,0.337,3.77,0.711v-8.503
	c0-0.894-0.475-1.152-1.061-1.152c-0.33,0-0.694,0.075-1.024,0.184l-0.731,0.261v-1.116l5.709-2.447h0.768V32.69
	c0,1.414,0.219,2.228,1.209,2.228c0.292,0,0.472,0,0.876-0.151l0.878-0.295v1.114l-5.122,1.931c-0.804-0.556-1.208-1.596-1.39-2.45
	C171.468,36.107,169.747,37.517,167.296,37.517"/>
<path fill="#4D4D4D" d="M191.776,26.045v-0.073c0-2.785-1.536-4.125-3.365-4.125c-2.052,0-3.591,1.377-4.028,4.198H191.776z
	 M184.274,27.566v0.187c-0.036,4.936,2.745,7.423,6.222,7.423c1.754,0,3.366-0.669,4.647-1.669v1.483
	c-1.467,1.374-3.695,2.526-6.439,2.526c-5.71,0-8.234-4.344-8.234-8.464c0-4.829,3.621-8.764,8.305-8.764
	c3.843,0,6.846,2.75,6.846,6.797v0.481H184.274z"/>
<path fill="#4D4D4D" d="M197.776,37.145v-0.888l1.208-0.227c0.698-0.149,1.244-0.704,1.244-1.449v-9.91c0-0.851-0.402-1.3-1.132-1.3
	c-0.255,0-0.551,0.04-0.841,0.149l-0.479,0.186v-1.113l5.194-2.304h0.771v3.604c1.317-2.598,2.892-3.676,4.683-3.676
	c1.467,0,1.832,0.372,1.832,0.372v3.934h-0.731c-0.183-1.038-0.88-1.558-1.977-1.558c-1.172,0-2.637,0.333-3.66,2.486v9.13
	c0,0.745,0.731,1.34,1.427,1.449l1.759,0.227v0.888H197.776z"/>
</svg>
