<?xml version="1.0" encoding="utf-8"?>
<!-- Generator: Adobe Illustrator 16.0.3, SVG Export Plug-In . SVG Version: 6.00 Build 0)  -->
<!DOCTYPE svg PUBLIC "-//W3C//DTD SVG 1.1//EN" "http://www.w3.org/Graphics/SVG/1.1/DTD/svg11.dtd">
<svg version="1.1" id="Layer_1" xmlns="http://www.w3.org/2000/svg" xmlns:xlink="http://www.w3.org/1999/xlink" x="0px" y="0px"
	 width="100.828px" height="60.866px" viewBox="0 0 100.828 60.866" enable-background="new 0 0 100.828 60.866"
	 xml:space="preserve">
<g>
	<path fill-rule="evenodd" clip-rule="evenodd" fill="#4D4D4D" d="M18.525,47.636H1.653c-0.661,0-1.321-0.332-1.321-0.992v-3.309
		c0-2.316,1.321-3.639,3.638-3.639h15.216c1.654,0,2.316-0.662,2.316-1.324c0-0.992-0.662-1.654-2.646-1.984l-9.593-2.314
		C2.978,32.749,0,29.771,0,24.81c0-5.624,3.97-10.255,11.579-10.255h16.869c0.992,0,1.656,0.33,1.656,0.992v3.639
		c0,1.985-0.994,3.639-3.64,3.639H11.579c-1.655,0-1.986,0.33-1.986,1.324c0,0.661,0.661,1.653,2.647,1.984l9.593,1.985
		c6.284,1.323,9.261,4.631,9.261,9.924S27.456,47.636,18.525,47.636"/>
	<path fill-rule="evenodd" clip-rule="evenodd" fill="#4D4D4D" d="M67.152,17.532L55.574,29.771l10.585,15.217
		c0,0.332,0.662,0.993,0.662,1.323c0,0.992-0.662,1.324-1.653,1.324H57.89c-0.993,0-1.324-0.332-1.984-1.324L44.327,29.771
		l12.901-13.893c0.662-0.993,0.99-1.323,1.984-1.323h6.946c0.993,0,1.654,0.33,1.654,1.323
		C67.813,16.539,67.483,17.202,67.152,17.532 M40.357,47.636h-4.962c-0.661,0-1.323-0.332-1.323-0.992V3.308
		C34.072,0.992,35.395,0,37.711,0h4.963c0.66,0,0.991,0.332,0.991,0.992v43.335C43.665,46.644,42.342,47.636,40.357,47.636"/>
	<path fill-rule="evenodd" clip-rule="evenodd" fill="#4D4D4D" d="M80.714,59.212c-0.33,0.993-0.992,1.654-2.315,1.654h-5.294
		c-0.991,0-1.983-0.661-1.983-1.654c0-0.331,0.33-0.99,0.661-1.654l5.624-12.237L61.858,16.539c-0.66-1.323,0-1.984,0.993-1.984
		h6.617c1.653,0,2.977,0.661,3.308,1.655l9.593,18.855l8.27-18.526c0.662-1.323,1.984-1.984,3.308-1.984h5.624
		c0.992,0,1.654,0.661,0.992,1.984L80.714,59.212z"/>
</g>
</svg>
