<?xml version="1.0" encoding="utf-8"?>
<!-- Generator: Adobe Illustrator 16.0.3, SVG Export Plug-In . SVG Version: 6.00 Build 0)  -->
<!DOCTYPE svg PUBLIC "-//W3C//DTD SVG 1.1//EN" "http://www.w3.org/Graphics/SVG/1.1/DTD/svg11.dtd">
<svg version="1.1" id="Layer_1" xmlns="http://www.w3.org/2000/svg" xmlns:xlink="http://www.w3.org/1999/xlink" x="0px" y="0px"
	 width="142.89px" height="54.425px" viewBox="0 0 142.89 54.425" enable-background="new 0 0 142.89 54.425" xml:space="preserve">
<path fill-rule="evenodd" clip-rule="evenodd" fill="#4D4D4D" d="M40.692,0c12.301,0,23.293,3.766,30.574,9.677
	C78.547,3.766,89.539,0,101.84,0c21.922,0,39.692,11.96,39.692,26.712s-17.77,26.712-39.692,26.712
	c-12.301,0-23.293-3.766-30.574-9.677c-7.281,5.911-18.273,9.677-30.574,9.677C18.77,53.424,1,41.464,1,26.712S18.77,0,40.692,0
	 M137.002,3.562c0.497,0,0.974,0.125,1.43,0.374c0.457,0.248,0.816,0.604,1.077,1.068c0.261,0.465,0.392,0.951,0.392,1.458
	c0,0.505-0.128,0.987-0.384,1.444c-0.257,0.457-0.614,0.815-1.072,1.071c-0.458,0.256-0.94,0.383-1.443,0.383
	c-0.505,0-0.986-0.127-1.445-0.383c-0.457-0.256-0.815-0.614-1.071-1.071c-0.255-0.457-0.383-0.939-0.383-1.444
	c0-0.507,0.13-0.993,0.391-1.458c0.261-0.464,0.62-0.82,1.076-1.068C136.028,3.687,136.504,3.562,137.002,3.562 M137.006,4.131
	c-0.4,0-0.782,0.099-1.148,0.298c-0.365,0.199-0.653,0.486-0.864,0.859c-0.212,0.374-0.316,0.765-0.316,1.174
	c0,0.406,0.103,0.794,0.308,1.162c0.206,0.368,0.493,0.657,0.861,0.863c0.368,0.207,0.754,0.31,1.159,0.31
	c0.405,0,0.791-0.103,1.16-0.31c0.367-0.206,0.654-0.495,0.86-0.863c0.207-0.368,0.31-0.756,0.31-1.162
	c0-0.409-0.105-0.8-0.315-1.174c-0.211-0.373-0.5-0.66-0.867-0.859C137.787,4.23,137.404,4.131,137.006,4.131 M135.692,8.013V4.937
	h0.625c0.585,0,0.913,0.003,0.983,0.008c0.207,0.017,0.368,0.058,0.483,0.122c0.115,0.065,0.211,0.163,0.287,0.295
	c0.078,0.133,0.116,0.281,0.116,0.442c0,0.221-0.072,0.411-0.218,0.568c-0.145,0.159-0.349,0.256-0.611,0.295
	c0.093,0.035,0.165,0.074,0.216,0.115c0.05,0.041,0.12,0.12,0.208,0.236c0.023,0.03,0.098,0.155,0.227,0.375l0.363,0.62H137.6
	l-0.259-0.499c-0.173-0.336-0.317-0.547-0.431-0.634c-0.112-0.087-0.257-0.13-0.431-0.13h-0.162v1.263H135.692z M136.317,6.265
	h0.253c0.361,0,0.584-0.014,0.672-0.041c0.087-0.029,0.155-0.076,0.205-0.146c0.052-0.07,0.077-0.149,0.077-0.237
	c0-0.086-0.025-0.162-0.074-0.228c-0.049-0.067-0.119-0.115-0.211-0.145c-0.09-0.029-0.313-0.043-0.669-0.043h-0.253V6.265z"/>
<path fill-rule="evenodd" clip-rule="evenodd" fill="#333333" d="M71.266,9.677c5.695,4.624,9.119,10.56,9.119,17.035
	s-3.424,12.411-9.119,17.035c-5.695-4.624-9.119-10.56-9.119-17.035S65.571,14.301,71.266,9.677"/>
<path fill="#FFFFFF" d="M26.754,28.778c0.004-0.464-0.047-0.913-0.145-1.338c-0.103-0.425-0.276-0.834-0.52-1.232
	c-0.248-0.393-0.583-0.775-1.008-1.149c-0.425-0.374-0.964-0.74-1.61-1.098l-2.834-1.583c-0.507-0.279-0.901-0.531-1.184-0.752
	c-0.284-0.22-0.481-0.437-0.591-0.649c-0.114-0.212-0.165-0.445-0.161-0.701c-0.008-0.535,0.189-0.948,0.582-1.236
	c0.398-0.291,1.032-0.436,1.898-0.44c0.767,0,1.539,0.023,2.318,0.063c0.775,0.043,1.555,0.102,2.334,0.173h0.024h0.023
	c0.122-0.004,0.217-0.044,0.292-0.126c0.07-0.079,0.11-0.177,0.11-0.299v-1.748c-0.004-0.118-0.043-0.216-0.122-0.295
	c-0.083-0.079-0.181-0.13-0.303-0.154c-0.205-0.047-0.48-0.098-0.827-0.145c-0.346-0.052-0.732-0.095-1.157-0.138
	c-0.425-0.043-0.858-0.075-1.299-0.102c-0.437-0.028-0.858-0.04-1.252-0.04c-1.094,0.004-2.019,0.114-2.775,0.335
	c-0.755,0.22-1.365,0.531-1.822,0.933c-0.461,0.401-0.795,0.877-1,1.421c-0.208,0.547-0.311,1.145-0.307,1.798
	c-0.008,0.551,0.071,1.071,0.236,1.567c0.162,0.496,0.445,0.968,0.851,1.425c0.409,0.456,0.976,0.897,1.7,1.33l3.117,1.866
	c0.516,0.303,0.921,0.571,1.213,0.803c0.295,0.236,0.499,0.472,0.621,0.708c0.119,0.233,0.178,0.5,0.174,0.803
	c0.004,0.457-0.075,0.843-0.244,1.162c-0.166,0.314-0.449,0.554-0.85,0.716c-0.402,0.165-0.949,0.248-1.646,0.248
	c-0.177,0-0.405-0.004-0.681-0.012c-0.271-0.012-0.57-0.023-0.897-0.035c-0.323-0.016-0.646-0.036-0.972-0.055
	c-0.327-0.02-0.634-0.04-0.917-0.063c-0.284-0.024-0.52-0.048-0.713-0.071h-0.023h-0.024c-0.122,0.004-0.225,0.043-0.311,0.126
	c-0.087,0.082-0.134,0.189-0.138,0.322v1.701c0.004,0.13,0.051,0.236,0.138,0.315c0.086,0.082,0.189,0.134,0.311,0.157
	c0.374,0.087,0.775,0.161,1.193,0.225c0.421,0.063,0.877,0.114,1.369,0.149c0.488,0.032,1.032,0.051,1.618,0.051
	c0.941-0.004,1.763-0.098,2.46-0.283c0.697-0.189,1.287-0.441,1.767-0.768c0.481-0.323,0.866-0.696,1.157-1.118
	c0.292-0.421,0.505-0.865,0.634-1.338C26.691,29.735,26.758,29.259,26.754,28.778 M39.515,27.787v-1.818
	c0-1.232-0.204-2.291-0.617-3.177c-0.414-0.881-1.039-1.558-1.874-2.034c-0.835-0.473-1.886-0.713-3.153-0.717
	c-0.507,0-1.031,0.024-1.578,0.075c-0.544,0.051-1.083,0.122-1.622,0.213c-0.539,0.09-1.055,0.2-1.547,0.326
	c-0.177,0.048-0.315,0.095-0.405,0.15c-0.095,0.055-0.154,0.118-0.189,0.197c-0.032,0.078-0.043,0.173-0.043,0.291v16.437
	c0.004,0.134,0.051,0.244,0.137,0.335c0.091,0.086,0.201,0.134,0.335,0.137h2.173c0.134-0.003,0.244-0.051,0.334-0.137
	c0.087-0.091,0.134-0.201,0.138-0.335v-4.18c0.441,0.059,0.858,0.102,1.248,0.126c0.393,0.027,0.732,0.039,1.019,0.039
	c1.267-0.004,2.318-0.244,3.153-0.716c0.835-0.476,1.46-1.153,1.874-2.039C39.311,30.078,39.515,29.02,39.515,27.787 M36.398,27.787
	c0.008,0.65-0.059,1.233-0.204,1.736c-0.142,0.508-0.398,0.906-0.764,1.197c-0.37,0.291-0.89,0.441-1.559,0.445
	c-0.193,0-0.425-0.008-0.693-0.024c-0.267-0.012-0.539-0.031-0.818-0.055c-0.28-0.028-0.532-0.055-0.756-0.087v-8.242
	c0.154-0.031,0.354-0.059,0.598-0.086c0.244-0.024,0.512-0.044,0.803-0.06c0.291-0.011,0.579-0.019,0.866-0.019
	c0.669,0.004,1.189,0.153,1.559,0.445c0.366,0.291,0.622,0.688,0.764,1.196c0.145,0.504,0.212,1.083,0.204,1.736V27.787z
	 M51.663,27.361V26.04c0-0.882-0.122-1.693-0.366-2.421c-0.244-0.732-0.602-1.366-1.079-1.897c-0.476-0.535-1.066-0.949-1.763-1.24
	c-0.697-0.291-1.504-0.437-2.413-0.441c-1.208,0.004-2.231,0.252-3.074,0.736c-0.842,0.484-1.488,1.177-1.928,2.071
	c-0.441,0.893-0.662,1.956-0.666,3.192v1.747c0.008,0.929,0.13,1.729,0.366,2.402c0.241,0.677,0.563,1.239,0.965,1.696
	c0.405,0.453,0.854,0.815,1.354,1.082c0.496,0.268,1.007,0.461,1.531,0.579c0.519,0.114,1.023,0.173,1.5,0.169
	c0.527,0,0.992-0.008,1.397-0.023c0.405-0.016,0.775-0.04,1.114-0.071c0.342-0.032,0.677-0.075,1.007-0.126
	c0.331-0.051,0.685-0.11,1.063-0.181c0.209-0.032,0.343-0.099,0.41-0.193c0.063-0.094,0.094-0.236,0.086-0.421v-1.559
	c-0.004-0.118-0.043-0.205-0.122-0.264c-0.082-0.059-0.181-0.09-0.303-0.09h-0.071c-0.334,0.031-0.728,0.067-1.185,0.102
	c-0.456,0.036-0.952,0.067-1.487,0.095c-0.536,0.023-1.095,0.039-1.673,0.039c-0.563-0.004-1.032-0.098-1.398-0.275
	c-0.37-0.181-0.661-0.418-0.87-0.713c-0.208-0.291-0.358-0.614-0.444-0.964c-0.083-0.351-0.126-0.701-0.122-1.047v-0.071h7.699
	c0.165,0,0.283-0.051,0.362-0.154C51.628,27.696,51.663,27.55,51.663,27.361 M48.522,25.732h-5.007v-0.095
	c0.004-0.622,0.114-1.149,0.331-1.582c0.216-0.433,0.512-0.759,0.889-0.984c0.378-0.224,0.815-0.339,1.307-0.339
	c0.492,0,0.925,0.115,1.295,0.343c0.37,0.228,0.662,0.559,0.866,0.992c0.209,0.429,0.315,0.956,0.319,1.57V25.732z M62.157,32.793
	v-1.535c-0.004-0.118-0.043-0.205-0.126-0.264c-0.079-0.059-0.177-0.09-0.299-0.09h-0.071c-0.232,0.031-0.452,0.055-0.657,0.075
	c-0.209,0.023-0.421,0.039-0.646,0.051c-0.22,0.016-0.472,0.023-0.751,0.031c-0.284,0.004-0.611,0.008-0.992,0.008
	c-0.28,0.004-0.555-0.043-0.823-0.138c-0.268-0.094-0.512-0.255-0.728-0.488c-0.217-0.228-0.39-0.547-0.52-0.948
	c-0.126-0.402-0.193-0.909-0.197-1.52v-2.196c0.004-0.61,0.071-1.118,0.197-1.519c0.13-0.402,0.303-0.721,0.52-0.949
	c0.216-0.232,0.46-0.393,0.728-0.488c0.268-0.094,0.543-0.141,0.823-0.138c0.381,0,0.708,0.004,0.992,0.008
	c0.279,0.008,0.531,0.016,0.751,0.032c0.225,0.011,0.437,0.027,0.646,0.051c0.205,0.019,0.425,0.043,0.657,0.075h0.071
	c0.122,0,0.22-0.032,0.299-0.091c0.083-0.059,0.122-0.146,0.126-0.264v-1.535c0.004-0.185-0.027-0.322-0.098-0.413
	c-0.067-0.091-0.201-0.157-0.398-0.201c-0.275-0.075-0.669-0.145-1.189-0.209c-0.515-0.062-1.133-0.094-1.857-0.098
	c-0.772,0-1.484,0.118-2.138,0.354c-0.653,0.237-1.22,0.595-1.704,1.071c-0.488,0.476-0.866,1.075-1.134,1.795
	c-0.267,0.716-0.405,1.555-0.409,2.519v2.196c0.004,0.961,0.142,1.803,0.409,2.519c0.268,0.721,0.646,1.319,1.134,1.796
	c0.484,0.476,1.051,0.83,1.704,1.07c0.654,0.236,1.366,0.354,2.138,0.354c0.724-0.004,1.342-0.039,1.857-0.102
	c0.52-0.063,0.914-0.13,1.189-0.205c0.197-0.043,0.331-0.11,0.398-0.2C62.13,33.116,62.161,32.979,62.157,32.793 M72.958,30.03
	c0.004-0.299-0.019-0.602-0.074-0.901c-0.055-0.296-0.158-0.595-0.315-0.894c-0.158-0.299-0.386-0.598-0.685-0.893
	c-0.303-0.299-0.701-0.602-1.193-0.902l-3.093-1.889c-0.3-0.173-0.528-0.331-0.693-0.476c-0.166-0.146-0.248-0.311-0.252-0.492
	c-0.004-0.362,0.126-0.618,0.39-0.772c0.263-0.153,0.677-0.224,1.239-0.22c0.343,0,0.705,0.012,1.083,0.031
	c0.382,0.02,0.756,0.044,1.122,0.075c0.366,0.032,0.696,0.059,0.996,0.091c0.295,0.035,0.527,0.063,0.696,0.086h0.04h0.055
	c0.118,0,0.212-0.039,0.279-0.118c0.063-0.079,0.099-0.189,0.099-0.33v-1.37c0-0.142-0.036-0.26-0.107-0.351
	c-0.071-0.094-0.177-0.157-0.319-0.193c-0.393-0.086-0.795-0.165-1.2-0.236c-0.406-0.074-0.846-0.129-1.331-0.173
	c-0.484-0.039-1.039-0.063-1.672-0.063c-1.5,0-2.622,0.295-3.37,0.886c-0.744,0.59-1.118,1.476-1.118,2.657
	c0.005,0.456,0.091,0.889,0.256,1.295c0.17,0.405,0.402,0.775,0.701,1.11c0.295,0.33,0.638,0.614,1.027,0.854l3.236,1.984
	c0.252,0.153,0.452,0.295,0.606,0.421c0.153,0.126,0.264,0.252,0.33,0.378c0.071,0.122,0.103,0.259,0.103,0.405
	c0.008,0.217-0.032,0.405-0.11,0.579c-0.079,0.169-0.24,0.303-0.48,0.401c-0.245,0.102-0.607,0.15-1.087,0.154
	c-0.185,0-0.437-0.008-0.76-0.02c-0.322-0.016-0.677-0.032-1.062-0.055c-0.39-0.028-0.772-0.055-1.146-0.083
	c-0.378-0.031-0.708-0.067-1-0.102H64.11h-0.055c-0.118,0.004-0.216,0.043-0.287,0.118c-0.075,0.075-0.11,0.161-0.115,0.26v1.417
	c0,0.142,0.04,0.26,0.118,0.35c0.079,0.095,0.19,0.158,0.331,0.193c0.335,0.086,0.697,0.161,1.09,0.224
	c0.39,0.059,0.784,0.107,1.173,0.146c0.394,0.035,0.76,0.063,1.103,0.079c0.338,0.015,0.626,0.023,0.862,0.023
	c0.775-0.004,1.448-0.098,2.027-0.287c0.578-0.189,1.062-0.449,1.448-0.783c0.386-0.335,0.673-0.728,0.866-1.173
	C72.864,31.026,72.958,30.546,72.958,30.03 M84.327,33.053v-8.502c0-1.008-0.201-1.846-0.603-2.515
	c-0.397-0.665-0.984-1.165-1.755-1.5c-0.771-0.33-1.716-0.496-2.838-0.496c-0.819,0.004-1.563,0.044-2.228,0.118
	c-0.669,0.075-1.24,0.162-1.716,0.26c-0.154,0.035-0.268,0.094-0.339,0.177c-0.074,0.083-0.11,0.189-0.11,0.319v1.512
	c0.004,0.161,0.044,0.267,0.126,0.322c0.079,0.055,0.177,0.083,0.299,0.079h0.052h0.067c0.263-0.032,0.602-0.063,1.007-0.091
	c0.409-0.031,0.858-0.051,1.346-0.07c0.488-0.02,0.988-0.028,1.496-0.028c0.465-0.004,0.85,0.047,1.157,0.153
	c0.311,0.111,0.539,0.304,0.693,0.583c0.153,0.276,0.228,0.669,0.228,1.177v1.039h-1.488c-1.365,0-2.472,0.154-3.322,0.461
	c-0.846,0.307-1.468,0.763-1.857,1.369c-0.394,0.607-0.587,1.358-0.583,2.256v0.094c0.008,0.791,0.126,1.445,0.362,1.961
	c0.236,0.515,0.551,0.917,0.945,1.208c0.393,0.287,0.834,0.492,1.314,0.606c0.481,0.118,0.969,0.173,1.465,0.169
	c0.566-0.004,1.129-0.094,1.684-0.271c0.555-0.181,1.102-0.437,1.646-0.768v0.378c0.004,0.134,0.051,0.244,0.137,0.335
	c0.091,0.086,0.201,0.133,0.335,0.137h2.007c0.134-0.004,0.244-0.051,0.335-0.137C84.275,33.297,84.323,33.188,84.327,33.053
	 M81.209,30.573c-0.346,0.193-0.728,0.351-1.141,0.473c-0.417,0.122-0.839,0.184-1.268,0.189c-0.393,0.004-0.716-0.036-0.964-0.123
	c-0.252-0.086-0.437-0.236-0.559-0.448c-0.118-0.213-0.177-0.512-0.177-0.894v-0.094c-0.004-0.331,0.031-0.622,0.106-0.87
	c0.075-0.252,0.209-0.46,0.398-0.63c0.193-0.169,0.456-0.295,0.803-0.382c0.342-0.082,0.779-0.126,1.314-0.126h1.488V30.573z
	 M96.852,20.584c-0.004-0.111-0.039-0.197-0.11-0.268c-0.071-0.071-0.158-0.106-0.268-0.11h-2.362c-0.11,0-0.208,0.039-0.299,0.122
	c-0.094,0.078-0.157,0.196-0.196,0.35l-2.268,9.895c-0.047,0.221-0.11,0.374-0.189,0.465c-0.078,0.086-0.165,0.13-0.26,0.126
	c-0.094,0.004-0.181-0.04-0.259-0.126c-0.079-0.091-0.142-0.244-0.189-0.465l-2.268-9.895c-0.035-0.154-0.098-0.272-0.181-0.35
	c-0.086-0.083-0.181-0.122-0.291-0.122H85.35c-0.11,0.004-0.196,0.039-0.267,0.11c-0.071,0.071-0.106,0.157-0.11,0.268
	c0,0.023,0,0.05,0.004,0.082c0,0.032,0.008,0.059,0.019,0.083l2.976,10.745c0.161,0.579,0.398,1.028,0.701,1.354
	c0.307,0.323,0.653,0.548,1.039,0.677c0.386,0.13,0.783,0.193,1.188,0.189c0.406,0.004,0.807-0.059,1.197-0.189
	c0.39-0.129,0.74-0.354,1.047-0.677c0.311-0.326,0.547-0.775,0.709-1.354l2.975-10.745c0.012-0.024,0.02-0.051,0.02-0.083
	C96.852,20.634,96.852,20.607,96.852,20.584 M108.504,27.361V26.04c0-0.882-0.123-1.693-0.367-2.421
	c-0.244-0.732-0.602-1.366-1.078-1.897c-0.476-0.535-1.067-0.949-1.763-1.24c-0.697-0.291-1.504-0.437-2.413-0.441
	c-1.209,0.004-2.232,0.252-3.074,0.736c-0.843,0.484-1.488,1.177-1.929,2.071c-0.441,0.893-0.661,1.956-0.665,3.192v1.747
	c0.007,0.929,0.129,1.729,0.366,2.402c0.24,0.677,0.563,1.239,0.964,1.696c0.405,0.453,0.854,0.815,1.354,1.082
	c0.496,0.268,1.008,0.461,1.531,0.579c0.52,0.114,1.024,0.173,1.5,0.169c0.527,0,0.992-0.008,1.397-0.023
	c0.406-0.016,0.776-0.04,1.114-0.071c0.342-0.032,0.677-0.075,1.008-0.126c0.33-0.051,0.685-0.11,1.063-0.181
	c0.208-0.032,0.342-0.099,0.409-0.193c0.063-0.094,0.094-0.236,0.087-0.421v-1.559c-0.005-0.118-0.044-0.205-0.123-0.264
	c-0.082-0.059-0.181-0.09-0.303-0.09h-0.07c-0.335,0.031-0.729,0.067-1.185,0.102c-0.457,0.036-0.953,0.067-1.488,0.095
	c-0.535,0.023-1.094,0.039-1.673,0.039c-0.563-0.004-1.031-0.098-1.397-0.275c-0.37-0.181-0.662-0.418-0.87-0.713
	c-0.209-0.291-0.358-0.614-0.445-0.964c-0.083-0.351-0.126-0.701-0.122-1.047v-0.071h7.699c0.165,0,0.283-0.051,0.362-0.154
	C108.468,27.696,108.504,27.55,108.504,27.361 M105.362,25.732h-5.006v-0.095c0.004-0.622,0.114-1.149,0.33-1.582
	c0.217-0.433,0.512-0.759,0.89-0.984c0.378-0.224,0.815-0.339,1.307-0.339c0.492,0,0.925,0.115,1.295,0.343
	c0.37,0.228,0.661,0.559,0.866,0.992c0.208,0.429,0.315,0.956,0.318,1.57V25.732z M117.155,22.213v-1.701
	c-0.004-0.133-0.051-0.243-0.137-0.334c-0.091-0.087-0.201-0.134-0.335-0.138c-0.319-0.004-0.665,0.028-1.039,0.095
	c-0.374,0.067-0.76,0.181-1.157,0.346c-0.398,0.165-0.791,0.398-1.181,0.693v-0.496c-0.004-0.134-0.051-0.244-0.138-0.335
	c-0.09-0.086-0.201-0.133-0.334-0.137h-2.055c-0.134,0.004-0.244,0.051-0.335,0.137c-0.086,0.091-0.133,0.201-0.137,0.335v12.351
	c0.004,0.134,0.051,0.249,0.137,0.347c0.091,0.094,0.201,0.145,0.335,0.149h2.173c0.134-0.004,0.244-0.055,0.334-0.149
	c0.087-0.098,0.134-0.213,0.138-0.347v-9.493c0.488-0.264,0.996-0.469,1.523-0.623c0.524-0.149,1.102-0.224,1.736-0.228
	c0.134-0.003,0.244-0.051,0.335-0.137C117.104,22.458,117.151,22.348,117.155,22.213 M127.248,30.03
	c0.004-0.299-0.02-0.602-0.075-0.901c-0.055-0.296-0.157-0.595-0.315-0.894c-0.157-0.299-0.385-0.598-0.685-0.893
	c-0.303-0.299-0.7-0.602-1.192-0.902l-3.094-1.889c-0.299-0.173-0.528-0.331-0.693-0.476c-0.165-0.146-0.248-0.311-0.252-0.492
	c-0.004-0.362,0.126-0.618,0.39-0.772c0.264-0.153,0.677-0.224,1.24-0.22c0.342,0,0.704,0.012,1.082,0.031
	c0.382,0.02,0.756,0.044,1.122,0.075c0.366,0.032,0.697,0.059,0.996,0.091c0.295,0.035,0.528,0.063,0.697,0.086h0.039h0.055
	c0.118,0,0.213-0.039,0.28-0.118c0.062-0.079,0.098-0.189,0.098-0.33v-1.37c0-0.142-0.036-0.26-0.106-0.351
	c-0.071-0.094-0.177-0.157-0.319-0.193c-0.394-0.086-0.795-0.165-1.201-0.236c-0.405-0.074-0.846-0.129-1.33-0.173
	c-0.484-0.039-1.039-0.063-1.673-0.063c-1.499,0-2.621,0.295-3.369,0.886c-0.744,0.59-1.118,1.476-1.118,2.657
	c0.004,0.456,0.091,0.889,0.256,1.295c0.169,0.405,0.401,0.775,0.7,1.11c0.296,0.33,0.638,0.614,1.028,0.854l3.235,1.984
	c0.252,0.153,0.453,0.295,0.606,0.421c0.154,0.126,0.264,0.252,0.331,0.378c0.071,0.122,0.102,0.259,0.102,0.405
	c0.008,0.217-0.031,0.405-0.11,0.579c-0.079,0.169-0.24,0.303-0.48,0.401c-0.244,0.102-0.606,0.15-1.086,0.154
	c-0.185,0-0.437-0.008-0.76-0.02c-0.323-0.016-0.677-0.032-1.063-0.055c-0.389-0.028-0.771-0.055-1.145-0.083
	c-0.378-0.031-0.709-0.067-1-0.102H118.4h-0.056c-0.118,0.004-0.216,0.043-0.287,0.118c-0.074,0.075-0.11,0.161-0.114,0.26v1.417
	c0,0.142,0.04,0.26,0.118,0.35c0.079,0.095,0.189,0.158,0.331,0.193c0.334,0.086,0.697,0.161,1.09,0.224
	c0.39,0.059,0.783,0.107,1.173,0.146c0.394,0.035,0.76,0.063,1.102,0.079c0.339,0.015,0.626,0.023,0.862,0.023
	c0.776-0.004,1.449-0.098,2.027-0.287c0.579-0.189,1.063-0.449,1.449-0.783c0.386-0.335,0.673-0.728,0.866-1.173
	C127.154,31.026,127.248,30.546,127.248,30.03"/>
</svg>
