<?xml version="1.0" encoding="utf-8"?>
<!-- Generator: Adobe Illustrator 16.0.3, SVG Export Plug-In . SVG Version: 6.00 Build 0)  -->
<!DOCTYPE svg PUBLIC "-//W3C//DTD SVG 1.1//EN" "http://www.w3.org/Graphics/SVG/1.1/DTD/svg11.dtd">
<svg version="1.1" id="Layer_1" xmlns="http://www.w3.org/2000/svg" xmlns:xlink="http://www.w3.org/1999/xlink" x="0px" y="0px"
	 width="53.557px" height="64.425px" viewBox="0 0 53.557 64.425" enable-background="new 0 0 53.557 64.425" xml:space="preserve">
<path fill="#4D4D4D" d="M53.186,7.233c-5.476-3.025-11.69-4.452-16.68-5.124c-5.449-0.732-9.436-0.565-9.416-0.595
	c0.011,0.017-1.052-0.021-2.836,0.039c-1.819,0.063-4.388,0.229-7.332,0.66C14.6,2.555,12.046,3.061,9.443,3.81
	C6.607,4.627,3.714,5.734,1,7.233v6.313v2.405v4.61v17.596c0.001,6.261,2.157,11.763,6.875,15.685
	c1.07,0.904,2.711,1.938,4.596,2.985c1.598,0.888,3.373,1.787,5.116,2.633c2.057,0.995,4.072,1.909,5.713,2.634
	c2.253,0.995,3.802,1.632,3.79,1.62c-0.019,0.016,3.428-1.402,7.504-3.304c4.338-2.027,9.386-4.599,11.713-6.568
	c4.721-3.922,6.879-9.424,6.879-15.687V20.562V15.76v-2.214C53.186,11.442,53.186,9.337,53.186,7.233"/>
<path fill="#FFFFFF" d="M51.14,7.636c-7.634-0.803-16.046-1.013-24.42,0.656c-2.43,0.488-4.857,1.133-7.252,1.973
	c-2.56,0.896-5.08,2.013-7.527,3.391c-3.129,1.762-6.133,3.952-8.937,6.653C3.002,20.885,3.001,21.463,3,22.04
	c-0.004,2.772-0.006,5.547-0.007,8.322c-0.003,2.604,0,5.209,0.001,7.814c0.005,5.81,2.092,10.696,6.176,14.09
	c2.511,1.299,5.023,2.6,7.535,3.9c1.919,0.994,3.838,1.987,5.757,2.982c1.543,0.798,3.086,1.596,4.63,2.396
	c3.075-1.281,14.282-6.205,17.923-9.28c4.085-3.393,6.17-8.28,6.174-14.089c0.006-5.599,0.003-11.201-0.006-16.795
	c-0.008-3.8-0.019-7.596-0.033-11.381C51.145,9.213,51.144,8.424,51.14,7.636"/>
<path fill="#4D4D4D" d="M44.904,37.352c-0.032-1.465-0.835-2.256-2.858-3.456c-3.809-2.26-4.512-4.131-4.522-6.627
	c-0.023-3.786,3.172-5.974,6.182-6.03c2.519-0.048,4.202,0.931,4.996,1.563c0.004,1.341,0.007,2.685,0.007,4.026
	c-0.938-0.998-2.463-1.912-4.063-1.941c-1.299-0.023-2.656,0.549-2.697,2.21c-0.037,1.697,1.325,2.374,3.023,3.396
	c3.81,2.3,4.502,4.33,4.429,7.032c-0.098,2.96-2.066,6.217-6.608,6.266c-1.819,0.02-3.626-0.543-5.078-1.402
	c0.006-1.434,0.011-2.87,0.012-4.313c1.189,1.069,2.958,1.884,4.426,1.884C43.836,39.958,44.94,38.97,44.904,37.352 M25.996,25.251
	c0.379-0.184,1.03-0.335,1.663-0.335c2.727,0,3.859,2.176,3.863,7.446c-0.002,5.139-1.297,7.616-4.002,7.616
	c-0.632,0-1.186-0.158-1.524-0.284C25.995,34.89,25.995,30.055,25.996,25.251 M26.005,53.26c-0.002-3.21-0.006-6.462-0.006-9.736
	c0.465,0.137,1.152,0.261,2.114,0.26c5.198-0.005,8.195-4.687,8.195-11.545c-0.003-6.841-3.084-11.083-8.684-11.087
	c-2.553,0-4.618,0.567-6.312,1.673c-0.024,10.147-0.009,20.49,0.041,30.422C22.902,53.255,24.454,53.258,26.005,53.26
	 M12.229,39.845c0.938,0.007,1.686-0.205,2.188-0.552c-0.017-5.869-0.012-11.773,0.017-17.62c1.54-0.013,3.089-0.023,4.643-0.029
	c-0.023,6.74-0.025,13.571-0.005,20.327c-1.782,1.21-4.166,1.853-6.986,1.826c-4.554-0.046-6.788-2.566-6.797-7.466
	c0-4.854,0-9.716,0-14.561c1.501-0.021,3.018-0.038,4.544-0.056c-0.023,4.93-0.031,9.894-0.023,14.844
	C9.814,37.873,10.125,39.831,12.229,39.845"/>
</svg>
