<?xml version="1.0" encoding="utf-8"?>
<!-- Generator: Adobe Illustrator 16.0.3, SVG Export Plug-In . SVG Version: 6.00 Build 0)  -->
<!DOCTYPE svg PUBLIC "-//W3C//DTD SVG 1.1//EN" "http://www.w3.org/Graphics/SVG/1.1/DTD/svg11.dtd">
<svg version="1.1" id="Layer_1" xmlns="http://www.w3.org/2000/svg" xmlns:xlink="http://www.w3.org/1999/xlink" x="0px" y="0px"
	 width="155.557px" height="21.759px" viewBox="0 0 155.557 21.759" enable-background="new 0 0 155.557 21.759"
	 xml:space="preserve">
<polygon fill-rule="evenodd" clip-rule="evenodd" fill="#4D4D4D" points="1.134,0.907 1.134,3.718 5.743,3.718 14.764,20.637 
	25.865,20.637 34.887,3.689 39.497,3.662 39.505,0.907 25.715,0.907 25.715,3.672 29.388,3.672 23.018,15.698 16.127,3.713 
	21.153,3.689 21.145,0.907 "/>
<polygon fill-rule="evenodd" clip-rule="evenodd" fill="#4D4D4D" points="90.102,0.907 90.102,3.718 94.71,3.718 103.731,20.637 
	114.833,20.637 123.854,3.689 128.464,3.662 128.473,0.907 114.684,0.907 114.684,3.672 118.354,3.672 111.985,15.698 
	105.096,3.713 110.121,3.689 110.111,0.907 "/>
<path fill-rule="evenodd" clip-rule="evenodd" fill="#4D4D4D" d="M67.419,0.907v2.811h4.609l0.007,13.813h-4.858v3.079l4.861,0.027
	h23.015v-9.184h-2.999c-0.163,4.862-4.382,6.085-6.157,6.085c-1.629,0-4.784-0.008-4.784-0.008V3.713l4.54-0.023l-0.006-2.782
	H67.419z"/>
<path fill-rule="evenodd" clip-rule="evenodd" fill="#4D4D4D" d="M51.902,0.342c-7.835,0-14.185,4.665-14.185,10.418
	s6.35,10.416,14.185,10.416s14.186-4.663,14.186-10.416S59.737,0.342,51.902,0.342 M51.699,18.11c-2.762,0-4.999-3.309-4.999-7.392
	c0-4.084,2.237-7.395,4.999-7.395s5,3.311,5,7.395C56.699,14.802,54.461,18.11,51.699,18.11"/>
<path fill-rule="evenodd" clip-rule="evenodd" fill="#4D4D4D" d="M140.871,0c-7.836,0-14.186,4.739-14.186,10.588
	c0,5.846,6.35,10.586,14.186,10.586c7.834,0,14.185-4.74,14.185-10.586C155.056,4.739,148.705,0,140.871,0 M140.667,18.058
	c-2.761,0-4.998-3.363-4.998-7.513c0-4.15,2.237-7.515,4.998-7.515c2.762,0,4.999,3.364,4.999,7.515
	C145.666,14.694,143.429,18.058,140.667,18.058"/>
</svg>
