<?xml version="1.0" encoding="utf-8"?>
<!-- Generator: Adobe Illustrator 16.0.3, SVG Export Plug-In . SVG Version: 6.00 Build 0)  -->
<!DOCTYPE svg PUBLIC "-//W3C//DTD SVG 1.1//EN" "http://www.w3.org/Graphics/SVG/1.1/DTD/svg11.dtd">
<svg version="1.1" id="Layer_1" xmlns="http://www.w3.org/2000/svg" xmlns:xlink="http://www.w3.org/1999/xlink" x="0px" y="0px"
	 width="68.89px" height="68.092px" viewBox="0 0 68.89 68.092" enable-background="new 0 0 68.89 68.092" xml:space="preserve">
<path fill-rule="evenodd" clip-rule="evenodd" fill="#4D4D4D" d="M34.198,67.396c18.285,0,33.198-14.913,33.198-33.198
	S52.483,1,34.198,1S1,15.913,1,34.198S15.913,67.396,34.198,67.396"/>
<path fill-rule="evenodd" clip-rule="evenodd" fill="#FFFFFF" d="M34.198,5.579c15.763,0,28.618,12.856,28.618,28.619
	c0,15.762-12.855,28.618-28.618,28.618S5.58,49.96,5.58,34.198C5.58,18.435,18.436,5.579,34.198,5.579 M21.717,13.579
	c-2.773,1.687-5.183,3.918-7.077,6.543L25.671,46.17l4.942-10.952h7.172l4.943,10.952l11.03-26.046
	c-1.896-2.625-4.304-4.857-7.077-6.544l-8.896,19.99h-7.174L21.717,13.579z M41.115,11.099c-2.192-0.66-4.515-1.016-6.917-1.016
	c-2.401,0-4.723,0.356-6.915,1.015l6.916,15.494L41.115,11.099z M11.118,27.216c-0.672,2.211-1.034,4.556-1.034,6.982
	c0,9.666,5.737,18.033,13.981,21.873L11.118,27.216z M27.215,57.277c2.212,0.673,4.557,1.035,6.983,1.035
	c2.429,0,4.773-0.363,6.986-1.036l-6.985-15.177L27.215,57.277z M44.335,56.07c8.241-3.841,13.978-12.208,13.978-21.872
	c0-2.425-0.362-4.768-1.033-6.979L44.335,56.07z"/>
</svg>
