<?xml version="1.0" encoding="utf-8"?>
<!-- Generator: Adobe Illustrator 16.0.3, SVG Export Plug-In . SVG Version: 6.00 Build 0)  -->
<!DOCTYPE svg PUBLIC "-//W3C//DTD SVG 1.1//EN" "http://www.w3.org/Graphics/SVG/1.1/DTD/svg11.dtd">
<svg version="1.1" id="Layer_1" xmlns="http://www.w3.org/2000/svg" xmlns:xlink="http://www.w3.org/1999/xlink" x="0px" y="0px"
	 width="170.224px" height="37.092px" viewBox="0 0 170.224 37.092" enable-background="new 0 0 170.224 37.092"
	 xml:space="preserve">
<polygon fill="#4D4D4D" points="17.966,27.923 21.391,27.923 21.391,26.98 13.34,26.98 13.34,27.923 16.767,27.923 16.767,35.375 
	17.966,35.375 "/>
<path fill="#4D4D4D" d="M27.474,35.375h1.199v-3.426c0-1.971-1.199-2.828-2.827-2.828c-1.113,0-2.055,0.429-2.569,1.285V26.98h-1.2
	v8.395h1.2v-2.828c0-1.883,1.198-2.654,2.398-2.654c1.114,0,1.799,0.599,1.799,2.142V35.375z"/>
<path fill="#4D4D4D" d="M31.242,32.634c0.086,1.199,0.857,2.142,2.227,2.142c1.029,0,1.713-0.343,1.97-1.2h1.285
	c-0.257,1.457-1.713,1.97-3.169,1.97c-2.227,0-3.512-1.199-3.512-3.084c0-2.14,1.37-3.34,3.512-3.34c2.141,0,3.255,1.114,3.255,3.17
	v0.342H31.242z M33.555,29.893c-1.199,0-2.056,0.599-2.227,1.97h4.282C35.61,30.492,34.582,29.893,33.555,29.893"/>
<path fill="#4D4D4D" d="M82.034,30.235c0.171,0,0.427,0,0.856,0.086v-1.027c-0.171-0.087-0.343-0.087-0.686-0.087
	c-1.112,0-1.885,0.599-2.313,1.371l-0.086-1.2h-1.113c0,0.428,0.086,0.857,0.086,1.371v4.626h1.113v-2.914
	C79.893,31.006,80.577,30.235,82.034,30.235"/>
<path fill="#4D4D4D" d="M117.579,30.235c0.259,0,0.516,0,0.943,0.086v-1.027c-0.172-0.087-0.343-0.087-0.771-0.087
	c-1.112,0-1.799,0.599-2.312,1.371v-1.2h-1.114v1.371v4.626h1.199v-2.914C115.524,31.006,116.209,30.235,117.579,30.235"/>
<polygon fill="#4D4D4D" points="60.792,34.518 58.908,29.378 57.537,29.378 59.936,35.375 61.563,35.375 63.533,30.321 
	65.675,35.375 67.216,35.375 69.614,29.378 68.33,29.378 66.445,34.518 64.39,29.378 62.848,29.378 "/>
<path fill="#4D4D4D" d="M45.46,32.12h-2.569v3.256h-1.2V26.98h3.598c2.569-0.085,3.426,1.028,3.426,2.484
	C48.715,31.006,47.687,32.12,45.46,32.12 M45.289,27.837h-2.398v3.34h2.484c1.542,0,2.055-0.599,2.055-1.713
	C47.43,28.522,46.917,27.837,45.289,27.837"/>
<path fill="#4D4D4D" d="M53.083,35.546c-2.399,0-3.683-1.113-3.683-3.168c0-1.971,1.284-3.256,3.683-3.256
	c2.569,0,3.768,1.2,3.768,3.256C56.852,34.433,55.567,35.546,53.083,35.546 M53.083,29.893c-1.628,0-2.484,1.028-2.484,2.485
	c0,1.284,0.856,2.398,2.484,2.398c1.713,0,2.569-1.114,2.569-2.398C55.653,30.921,54.797,29.893,53.083,29.893"/>
<path fill="#4D4D4D" d="M71.414,32.634c0.171,1.199,0.854,2.142,2.226,2.142c1.028,0,1.8-0.343,2.057-1.2h1.198
	c-0.257,1.457-1.713,1.97-3.169,1.97c-2.228,0-3.426-1.199-3.426-3.084c0-2.14,1.285-3.34,3.426-3.34s3.34,1.114,3.34,3.17v0.342
	H71.414z M73.726,29.893c-1.199,0-2.055,0.599-2.228,1.97h4.283C75.781,30.492,74.754,29.893,73.726,29.893"/>
<path fill="#4D4D4D" d="M120.321,32.634c0.086,1.199,0.855,2.142,2.227,2.142c1.028,0,1.713-0.343,1.97-1.2h1.284
	c-0.256,1.457-1.713,1.97-3.254,1.97c-2.141,0-3.426-1.199-3.426-3.084c0-2.14,1.37-3.34,3.512-3.34c2.141,0,3.254,1.114,3.254,3.17
	v0.342H120.321z M122.634,29.893c-1.2,0-2.142,0.599-2.227,1.97h4.282C124.689,30.492,123.661,29.893,122.634,29.893"/>
<path fill="#4D4D4D" d="M98.308,27.581c0.258,0,0.685,0.085,1.286,0.171v-0.856c-0.43-0.086-0.943-0.086-1.543-0.086
	c-1.713,0-2.227,0.856-2.227,2.312v0.257h-1.542v0.771h1.542v5.226h1.113v-5.226h2.483v-0.771h-2.483v-0.513
	C96.938,27.923,97.366,27.581,98.308,27.581"/>
<path fill="#4D4D4D" d="M90,35.546c-2.484,0-3.769-1.113-3.769-3.168c0-1.971,1.371-3.256,3.769-3.256c2.483,0,3.77,1.2,3.77,3.256
	C93.77,34.433,92.398,35.546,90,35.546 M90,29.893c-1.629,0-2.484,1.028-2.484,2.485c0,1.284,0.855,2.398,2.484,2.398
	c1.627,0,2.483-1.114,2.483-2.398C92.483,30.921,91.713,29.893,90,29.893"/>
<path fill="#4D4D4D" d="M141.22,30.578c-0.342-0.941-1.284-1.457-2.14-1.457c-0.858,0-1.714,0.429-2.229,1.285l-0.086-1.028h-1.112
	c0,0.429,0.084,0.857,0.084,1.371v4.626h1.114v-2.913c0-1.798,1.029-2.569,1.971-2.569s1.455,0.685,1.455,2.399v3.083h1.2v-2.913
	c0-2.141,1.285-2.569,1.883-2.569c1.2,0,1.543,0.856,1.543,2.399v3.083h1.113v-3.512c0-1.97-1.028-2.742-2.483-2.742
	C142.334,29.121,141.478,29.979,141.22,30.578"/>
<path fill="#4D4D4D" d="M150.556,35.546c2.228,0,3.342-0.599,3.342-1.884c0-0.943-0.601-1.37-1.714-1.543l-1.971-0.427
	c-0.854-0.172-1.285-0.343-1.285-0.857c0-0.6,0.688-0.942,1.801-0.942c0.855,0,1.627,0.257,1.713,1.028h1.197
	c0-1.457-1.626-1.8-2.91-1.8c-1.543,0-2.913,0.516-2.913,1.886c0,0.942,0.686,1.371,1.628,1.541l1.884,0.342
	c0.6,0.172,1.284,0.343,1.284,0.857c0,0.686-0.685,1.029-1.969,1.029c-1.027,0-1.8-0.343-1.97-1.114h-1.2
	C147.559,35.032,148.843,35.546,150.556,35.546"/>
<path fill="#4D4D4D" d="M107.9,35.375h-3.596V26.98h3.596c3.256,0,4.712,1.457,4.712,4.197
	C112.612,33.833,110.899,35.375,107.9,35.375 M107.559,27.837h-1.97v6.596h2.141c2.912,0,3.597-1.543,3.597-3.256
	C111.326,28.952,110.557,27.837,107.559,27.837"/>
<path fill="#4D4D4D" d="M132.57,35.375h1.111v-1.2v-2.912c0-1.457-1.197-2.142-2.912-2.142c-1.283,0-2.825,0.343-2.996,1.799h1.284
	c0.086-0.599,0.686-1.028,1.712-1.028c1.029,0,1.715,0.429,1.715,1.457v0.257h-0.686c-1.371,0-4.455-0.086-4.455,1.969
	c0,1.2,1.028,1.971,2.57,1.971c1.199,0,1.97-0.085,2.57-1.028L132.57,35.375z M132.484,32.719c0,1.456-0.771,2.056-2.229,2.056
	c-1.198,0-1.627-0.514-1.627-1.2c0-1.284,2.398-1.198,3.255-1.198h0.601V32.719z"/>
<path fill="#4D4D4D" d="M132.483,19.785v-2.569l2.655-0.257c0.857-0.171,1.2-0.942,1.37-1.114l6.424-10.534
	c0.515-0.772,0-1.543-0.685-1.628l-3.34-0.342V0.685h14.646c0.856,0,1.37,0.6,1.713,1.114l8.565,13.104
	c0.686,1.028,1.199,1.884,2.055,1.969l2.741,0.257v2.655h-16.53v-2.569l2.056-0.257c1.027-0.086,1.884-0.6,1.027-1.798l-0.771-1.2
	h-11.734l-0.943,1.457c-0.514,0.857,0,1.455,0.857,1.541l2.141,0.257v2.569H132.483z M144.731,10.535h7.452l-3.768-5.824
	L144.731,10.535z"/>
<path fill="#4D4D4D" d="M121.521,0.685h-18.844v2.656l2.312,0.171c0.942,0.171,1.285,0.77,1.285,1.627v10.279
	c0,0.77-0.343,1.455-1.114,1.541l-2.482,0.343v2.483h18.844c8.735,0,12.504-4.196,12.504-9.849
	C134.024,4.968,130.256,0.685,121.521,0.685 M118.607,16.103h-4.882V4.368h4.882c4.712,0,6.596,1.028,6.596,5.91
	C125.203,15.075,123.319,16.103,118.607,16.103"/>
<path fill="#4D4D4D" d="M-0.021,19.786H15.31v-2.569l-2.655-0.257c-0.6-0.086-1.199-0.428-1.199-1.713v-3.084h11.82v2.913
	c0,0.856-0.172,1.712-1.2,1.798l-2.655,0.257v2.655h15.332V17.13l-2.741-0.257c-0.514-0.086-1.113-0.514-1.113-1.541V5.396
	c0-1.028,0.342-1.714,1.199-1.8l2.655-0.256V0.685H19.421v2.571l2.655,0.341c0.943,0.086,1.2,0.857,1.2,1.8v2.912h-11.82V5.311
	c0-1.114,0.513-1.628,1.284-1.714l2.57-0.256V0.685H0.064V3.34l2.569,0.256c0.943,0.086,1.285,0.857,1.2,1.8v9.679
	c0,1.112-0.257,1.798-1.286,1.884l-2.569,0.257V19.786z"/>
<path fill="#4D4D4D" d="M35.439,10.192C35.439,4.197,40.321,0,51.113,0C61.82,0,66.702,4.197,66.702,10.192
	c0,6.083-4.882,10.279-15.589,10.279C40.321,20.471,35.439,16.275,35.439,10.192 M51.113,3.597c-4.368,0-6.852,1.628-6.852,6.595
	c0,5.054,2.484,6.681,6.852,6.681c4.283,0,6.767-1.627,6.767-6.681C57.88,5.225,55.396,3.597,51.113,3.597"/>
<path fill="#4D4D4D" d="M67.559,19.786h12.163v-2.569l-2.57-0.257c-0.771-0.086-1.198-0.685-1.198-1.627V5.653l10.107,13.362
	c0.342,0.513,1.027,0.77,1.626,0.77h9.593V5.311c0-0.685,0.172-1.628,1.114-1.714l2.655-0.256V0.685H88.886v2.571l2.656,0.341
	c0.94,0.086,1.112,0.943,1.112,1.8v9.421L82.634,1.542c-0.428-0.514-0.942-0.857-1.627-0.857H67.559V3.34l2.484,0.256
	c0.941,0.172,1.285,0.6,1.285,1.8v9.679c0,1.199-0.344,1.712-1.285,1.884l-2.484,0.257V19.786z"/>
</svg>
