<?xml version="1.0" encoding="utf-8"?>
<!-- Generator: Adobe Illustrator 16.0.3, SVG Export Plug-In . SVG Version: 6.00 Build 0)  -->
<!DOCTYPE svg PUBLIC "-//W3C//DTD SVG 1.1//EN" "http://www.w3.org/Graphics/SVG/1.1/DTD/svg11.dtd">
<svg version="1.1" id="Layer_1" xmlns="http://www.w3.org/2000/svg" xmlns:xlink="http://www.w3.org/1999/xlink" x="0px" y="0px"
	 width="125.224px" height="38.425px" viewBox="0 0 125.224 38.425" enable-background="new 0 0 125.224 38.425"
	 xml:space="preserve">
<path fill-rule="evenodd" clip-rule="evenodd" fill="#4D4D4D" d="M48.637,36.105c-0.865,0.46-2.583,0.068-3.778,0.199H44.66
	c-1.13,0.33-3.642,0.33-4.772,0c-11.07,0.067-12.991-9.014-17.696-15.311c-0.458,3.251-5.823,11.656-0.596,12.726
	c-0.265,0.729-0.47,1.518-0.597,2.386c-2.784,0.463-6.428,0.067-9.543,0.199c-2.723-0.347-7.469,0.639-9.146-0.398
	c0.048,0.03,0.147-0.023,0.198,0c-0.083-0.945,0.289-1.434,0.398-2.187c0.843,0.047,1.408-0.184,1.988-0.398
	c3.968-3.911,5.334-13.858,7.357-21.076c0.956-3.41,3.418-7.734-0.994-8.351c0.126-0.867,0.331-1.657,0.596-2.385
	c0.536-0.459,1.918-0.071,2.784-0.199h14.912v0.795H29.35c0.141,0.737-0.339,0.853-0.199,1.591
	c-5.009,1.485-3.971,9.019-6.163,13.321C27.853,13.73,33.63,9.634,38.099,5.286c-0.176-1.084-1.306-1.213-2.187-1.59
	c0.265-0.729,0.47-1.519,0.596-2.386H37.9h8.748c2.903,0,6.494-0.698,8.55,0c0.099,0.033-0.097,0.512-0.199,0.396
	c0.064,0.927-0.396,1.327-0.397,2.188c-4.435,0.756-7.592,4.438-10.737,6.96c-2.88,2.307-5.596,4.456-8.351,6.561
	c2.598,3.802,5.567,9.3,8.55,13.123c1.174,1.505,2.528,3.034,5.169,3.182C49.163,34.644,48.978,35.452,48.637,36.105 M82.239,15.428
	c-0.356,2.957-1.375,5.252-1.79,8.151c-0.997-0.099-2.206-1.611-3.976-1.591c-2.724,0.126-5.956-0.256-8.351,0.199
	c-0.238,3.741-4.554,9.787,0,11.73c-0.216,0.713-0.31,1.546-0.597,2.188c-3.586-0.347-11.8,1.122-15.508,0.199
	c-0.532-0.133-0.625-0.365-0.199-0.598c1.653-6.632,4.041-14.941,6.164-22.666c0.909-3.307,3.45-8.545-0.796-9.345
	c-0.064-0.926,0.397-1.327,0.398-2.187h0.199c7.357-0.465,15.575-0.067,23.263-0.199h8.351v0.795h-0.199
	c-0.597,3.049-1.325,5.965-2.187,8.749c-2.077,0.154-1.687-2.158-3.579-2.188H71.9c-0.345,2.373-1.246,4.189-1.591,6.563
	C74.09,15.357,79.45,14.968,82.239,15.428 M121.408,11.45c-1.953-0.257-2.734-2.097-4.374-2.784
	c-7.683-3.216-19.24,1.731-19.684,9.544v2.387c1.064,6.027,5.408,8.774,11.731,9.544h2.187c2.954-0.426,5.822-0.938,8.351-1.79
	c-0.532,2.584-1.052,5.179-1.79,7.556c-2.915,0.267-5.302,1.061-8.55,0.994c-1.923,0.331-5.234,0.331-7.157,0
	c-9.648-0.85-18.536-5.747-17.497-16.9C85.668,8.808,97.731,2.347,109.279,1.311c2.123-0.332,5.633-0.332,7.755,0
	c2.756-0.039,4.674,0.76,6.959,1.193C123.219,5.572,122.502,8.7,121.408,11.45"/>
</svg>
