<?xml version="1.0" encoding="utf-8"?>
<!-- Generator: Adobe Illustrator 16.0.3, SVG Export Plug-In . SVG Version: 6.00 Build 0)  -->
<!DOCTYPE svg PUBLIC "-//W3C//DTD SVG 1.1//EN" "http://www.w3.org/Graphics/SVG/1.1/DTD/svg11.dtd">
<svg version="1.1" id="Layer_1" xmlns="http://www.w3.org/2000/svg" xmlns:xlink="http://www.w3.org/1999/xlink" x="0px" y="0px"
	 width="63.557px" height="67.092px" viewBox="0 0 63.557 67.092" enable-background="new 0 0 63.557 67.092" xml:space="preserve">
<path fill-rule="evenodd" clip-rule="evenodd" fill="#4D4D4D" d="M9.647,27.136c0-9.407,5.188-18.573,15.56-18.573
	c10.491,0,15.799,8.925,15.799,18.573c0,9.528-4.704,18.573-15.799,18.573C14.352,45.709,9.647,36.423,9.647,27.136 M0,27.136
	c0,16.041,9.166,27.257,25.207,27.257c16.16,0,25.447-11.216,25.447-27.257C50.654,11.578,41.246,0,25.207,0
	C9.287,0,0,11.578,0,27.136"/>
<path fill-rule="evenodd" clip-rule="evenodd" fill="#4D4D4D" d="M48.362,66.936v-3.739c1.931-1.809,9.407-8.08,9.407-12.06
	c0-2.051-1.809-3.016-3.497-3.016c-1.93,0-3.739,0.845-5.186,1.81l-0.362-3.739c2.05-0.965,4.342-1.568,6.633-1.568
	c4.102,0,6.754,2.171,6.754,6.513c0,4.583-4.704,8.924-8.201,12.302h9.046v3.497H48.362z"/>
</svg>
