<?xml version="1.0" encoding="utf-8"?>
<!-- Generator: Adobe Illustrator 16.0.3, SVG Export Plug-In . SVG Version: 6.00 Build 0)  -->
<!DOCTYPE svg PUBLIC "-//W3C//DTD SVG 1.1//EN" "http://www.w3.org/Graphics/SVG/1.1/DTD/svg11.dtd">
<svg version="1.1" id="Layer_1" xmlns="http://www.w3.org/2000/svg" xmlns:xlink="http://www.w3.org/1999/xlink" x="0px" y="0px"
	 width="205.224px" height="24.759px" viewBox="0 0 205.224 24.759" enable-background="new 0 0 205.224 24.759"
	 xml:space="preserve">
<polygon fill="#4D4D4D" points="4.6,2.815 0,2.815 0,1.465 10.797,1.465 10.797,2.815 6.197,2.815 6.197,19.48 4.6,19.48 "/>
<path fill="#4D4D4D" d="M11.747,1.465h1.499v6.592h0.051c0.377-1.348,1.672-2.148,3.249-2.148c2.025,0,3.398,1.05,3.398,3.547
	v10.025h-1.498V9.882c0-1.825-0.751-2.725-2.274-2.725c-1.752,0-2.926,1.35-2.926,3.402v8.922h-1.499V1.465z"/>
<path fill="#4D4D4D" d="M28.679,11.657c-0.051-3.3-0.975-4.5-2.827-4.5c-1.847,0-2.771,1.2-2.822,4.5H28.679z M30.153,15.079
	c-0.225,2.825-1.775,4.703-4.272,4.703c-2.8,0-4.449-1.951-4.449-6.954c0-4.595,1.649-6.92,4.572-6.92
	c2.948,0,4.273,2.026,4.273,6.449v0.551H23.03v0.622c0,3.827,1.348,5.001,2.822,5.001c1.577,0,2.553-1.124,2.802-3.452H30.153z"/>
<path fill="#4D4D4D" d="M42.861,11.056c0-1.975-0.45-2.798-1.527-2.798c-1.348,0-1.525,1.701-1.525,4.475
	c0,3.051,0.177,4.447,1.525,4.447c1.201,0,1.479-0.824,1.527-3.199h3.748c-0.026,4.173-1.675,5.851-5.347,5.851
	c-5.1,0-5.5-3.576-5.5-7.598c0-3.8,1.099-6.628,5.5-6.628c4.248,0,5.347,2.225,5.347,5.45H42.861z"/>
<path fill="#4D4D4D" d="M53.095,8.258c-1.199,0-1.551,1.174-1.551,4.45c0,3.3,0.352,4.473,1.551,4.473
	c1.247,0,1.499-1.122,1.499-4.448C54.594,9.382,54.342,8.258,53.095,8.258 M47.496,12.758c0-4.05,0.898-7.152,5.574-7.152
	c4.948,0,5.572,3.026,5.572,7.076c0,4.05-0.9,7.15-5.572,7.15C48.119,19.832,47.496,16.806,47.496,12.758"/>
<path fill="#4D4D4D" d="M69.574,8.258c-1.198,0-1.549,1.174-1.549,4.45c0,3.3,0.351,4.473,1.549,4.473c1.252,0,1.5-1.122,1.5-4.448
	C71.074,9.382,70.826,8.258,69.574,8.258 M63.977,12.758c0-4.05,0.899-7.152,5.573-7.152c4.95,0,5.575,3.026,5.575,7.076
	c0,4.05-0.901,7.15-5.575,7.15C64.6,19.832,63.977,16.806,63.977,12.758"/>
<path fill="#4D4D4D" d="M81.381,16.883c1.472,0,1.548-1.627,1.548-4.077c0-2.173-0.049-4.249-1.575-4.249
	c-1.198,0-1.449,1.449-1.449,4.075C79.905,15.029,80.007,16.883,81.381,16.883 M75.933,5.958h3.896V7.61h0.049
	c0.303-0.928,1.128-2.004,2.926-2.004c2.725,0,4.176,1.951,4.176,7.001c0,4.199-0.599,7.225-3.924,7.225
	c-1.127,0-2.35-0.377-3.025-1.825H79.98v5.87h-4.047V5.958z"/>
<path fill="#4D4D4D" d="M94.704,11.033c0-1.901-0.249-2.925-1.373-2.925c-1.328,0-1.55,1.1-1.55,2.925H94.704z M91.781,13.381v0.824
	c0,2.103,0.3,3.126,1.475,3.126c1.049,0,1.374-0.775,1.473-2.476h3.751c-0.074,3.352-1.901,4.977-5.251,4.977
	c-5.097,0-5.499-3.577-5.499-7.599c0-3.799,1.1-6.627,5.499-6.627c5.027,0,5.374,3.178,5.374,7.775H91.781z"/>
<path fill="#4D4D4D" d="M99.411,5.958h3.901v1.899h0.049c0.526-1.199,1.549-2.251,3.25-2.251c0.196,0,0.396,0,0.651,0.051v3.799
	c-0.402-0.074-0.727-0.1-1.128-0.1c-1.624,0-2.672,0.679-2.672,2.451v7.674h-4.051V5.958z"/>
<path fill="#4D4D4D" d="M120.315,8.758h-1.672v-2.8h1.672V1.453h4.05v4.505h1.874v2.8h-1.874v6.823c0,0.949,0.352,1.249,1.297,1.249
	c0.176,0,0.4-0.025,0.577-0.05v2.7c-0.778,0.101-1.548,0.152-2.322,0.152c-2.802,0-3.602-0.503-3.602-3.649V8.758z"/>
<path fill="#4D4D4D" d="M127.335,5.958h4.05v13.523h-4.05V5.958z M127.335,1.436h4.05V4.53h-4.05V1.436z"/>
<polygon fill="#4D4D4D" points="132.232,5.958 136.431,5.958 138.004,15.933 138.055,15.933 139.656,5.958 143.706,5.958 
	140.354,19.481 135.558,19.481 "/>
<path fill="#4D4D4D" d="M150.392,11.033c0-1.901-0.249-2.925-1.374-2.925c-1.323,0-1.547,1.1-1.547,2.925H150.392z M147.471,13.381
	v0.824c0,2.103,0.297,3.126,1.472,3.126c1.053,0,1.373-0.775,1.474-2.476h3.749c-0.074,3.352-1.898,4.977-5.248,4.977
	c-5.101,0-5.497-3.577-5.497-7.599c0-3.799,1.097-6.627,5.497-6.627c5.024,0,5.374,3.178,5.374,7.775H147.471z"/>
<rect x="59.235" y="11.028" fill="#4D4D4D" width="4.048" height="3.3"/>
<path fill="#4D4D4D" d="M114.138,15.179c0,1.351-0.777,1.852-1.624,1.852c-0.751,0-1.176-0.649-1.176-1.725
	c0-0.75,0.201-1.175,0.625-1.501c0.374-0.3,0.924-0.323,2.199-0.999C114.162,13.357,114.138,14.056,114.138,15.179 M117.912,16.556
	V9.607c0-2.85-1.475-4.001-4.798-4.001c-1.676,0-2.826,0.231-3.775,0.877c-0.829,0.565-1.354,1.497-1.491,2.953h3.626
	c0.135-0.755,0.523-1.178,1.413-1.178c0.899,0,1.275,0.526,1.275,1.349c0,1.027-0.224,1.227-1.449,1.551
	c-1.127,0.299-2.623,0.55-3.626,1.099c-0.998,0.549-1.649,1.874-1.649,3.451c0,2.923,1.326,4.125,3.601,4.125
	c1.348,0,2.624-0.704,3.174-1.901h0.048c0.025,0.523,0.075,1.074,0.226,1.549h3.899C117.912,18.881,117.912,17.581,117.912,16.556"
	/>
<path fill="#4D4D4D" d="M164.553,18.506c1.539,0,2.974-0.796,2.974-5.85c0-5.027-1.435-5.823-2.974-5.823
	c-1.564,0-2.975,0.796-2.975,5.823C161.578,17.709,162.989,18.506,164.553,18.506 M160.037,1.164h1.541v6.747h0.05
	c0.333-1.437,1.489-2.362,3.181-2.362c3.001,0,4.361,2.414,4.361,7.107c0,4.72-1.36,7.134-4.361,7.134
	c-1.616,0-2.924-1.002-3.334-2.567h-0.052v2.258h-1.386V1.164z"/>
<path fill="#4D4D4D" d="M177.813,11.784h-0.05c-0.156,0.46-1.026,0.743-1.642,0.899l-1.283,0.332
	c-1.539,0.41-2.334,1.205-2.334,2.823c0,1.588,0.821,2.667,2.154,2.667c1.874,0,3.155-1.412,3.155-3.849V11.784z M171.299,9.91
	c0-2.794,1.333-4.362,4.207-4.362c2.822,0,3.848,1.466,3.848,3.619v8.055c0,0.769,0.256,1.13,0.793,1.13h0.439v1.128
	c-0.283,0.104-0.515,0.153-0.719,0.153c-1.206,0-1.977-0.282-1.977-1.692v-0.462h-0.05c-0.614,1.796-2.001,2.31-3.515,2.31
	c-2.387,0-3.463-1.489-3.463-3.849c0-1.796,0.823-3.232,2.745-3.772l2.899-0.82c1.077-0.31,1.307-0.564,1.307-2.155
	c0-1.744-0.973-2.36-2.359-2.36c-1.822,0-2.616,1.103-2.616,3.077H171.299z"/>
<path fill="#4D4D4D" d="M182.508,5.858h1.386v1.898h0.052c0.769-1.513,2.104-2.207,3.489-2.207c2.079,0,3.489,1.078,3.489,3.645
	V19.48h-1.54V9.63c0-1.874-0.77-2.797-2.336-2.797c-1.794,0-3,1.386-3,3.488v9.16h-1.54V5.858z"/>
<polygon fill="#4D4D4D" points="193.744,1.164 195.285,1.164 195.285,12.629 195.335,12.629 200.619,5.857 202.517,5.857 
	198.412,10.911 203.261,19.48 201.365,19.48 197.311,12.299 195.285,14.708 195.285,19.48 193.744,19.48 "/>
</svg>
