<?xml version="1.0" encoding="utf-8"?>
<!-- Generator: Adobe Illustrator 16.0.3, SVG Export Plug-In . SVG Version: 6.00 Build 0)  -->
<!DOCTYPE svg PUBLIC "-//W3C//DTD SVG 1.1//EN" "http://www.w3.org/Graphics/SVG/1.1/DTD/svg11.dtd">
<svg version="1.1" id="Layer_1" xmlns="http://www.w3.org/2000/svg" xmlns:xlink="http://www.w3.org/1999/xlink" x="0px" y="0px"
	 width="215.89px" height="40.092px" viewBox="0 0 215.89 40.092" enable-background="new 0 0 215.89 40.092" xml:space="preserve">
<rect x="1" y="1.321" fill="#4D4D4D" width="214" height="38.044"/>
<path fill="#FFFFFF" d="M18.546,9.002h2.399V4.104c-1.024-0.043-2.314-0.016-3.383-0.016c-5.867,0-7.766,3.237-7.766,6.709v2.046
	H6.564v4.502h3.232v17.457h6.753V17.345h4.149v-4.502h-3.972v-1.662C16.728,9.665,17.608,9.002,18.546,9.002"/>
<rect x="23.537" y="12.405" fill="#FFFFFF" width="6.314" height="22.413"/>
<rect x="23.676" y="4.036" fill="#FFFFFF" width="6.21" height="5.205"/>
<path fill="#FFFFFF" d="M48.463,18.152v-6.179c-5.429,0-6.79,1.212-7.9,3.989l0.019-3.357h-6.243v22.199h6.543V24.74
	C40.881,21.771,41.533,17.136,48.463,18.152"/>
<path fill="#FFFFFF" d="M55.923,18.107c0-2.647,7.548-2.647,7.386,0.951h5.768c-0.47-5.429-4.914-7.05-9.741-7.05
	c-4.743,0-9.614,1.77-9.614,7.409c0,3.889,3.53,5.105,7.006,5.991c4.358,1.108,6.48,0.91,6.779,2.723
	c0.438,2.644-2.861,2.929-3.874,2.929c-2.392,0-4.612-0.694-4.655-3.342h-5.769c0.256,5.853,5.254,7.677,10.383,7.677
	c5.041,0,10.084-2.261,10.084-8.073C69.675,18.991,55.923,22.303,55.923,18.107"/>
<path fill="#FFFFFF" d="M84.36,34.849v-4.803c-4.161,0.024-4.161-0.152-4.113-2.647v-9.854h4.014v-4.603h-4.014V5.969h-6.446v6.974
	h-3.136v4.603h3.136v11.548C73.801,32.938,73.489,35.367,84.36,34.849"/>
<path fill="#FFFFFF" d="M111.139,32.486l0.132,2.316h6.128V4.086h-6.415l-0.043,10.762c-1.41-2.177-3.774-2.842-6.38-2.842
	c-6.495,0-9.786,5.51-9.786,11.45c0,6.112,3.249,11.907,9.914,11.907C107.507,35.364,109.729,34.876,111.139,32.486 M101.178,23.627
	c0-5.695,2.824-6.776,4.928-6.776c3.459,0,5.003,2.712,5.003,6.736c0,3.965-1.324,7.063-5.003,7.063
	C102.899,30.651,101.178,27.729,101.178,23.627"/>
<rect x="121.615" y="12.405" fill="#FFFFFF" width="6.314" height="22.413"/>
<rect x="121.757" y="4.036" fill="#FFFFFF" width="6.208" height="5.205"/>
<path fill="#FFFFFF" d="M146.542,18.204v-6.179c-5.43,0-6.79,1.213-7.901,3.99l0.018-3.356h-6.242v22.089h6.543v-9.957
	C138.959,21.648,139.655,16.968,146.542,18.204"/>
<path fill="#FFFFFF" d="M168.731,28.431h-6.08c-0.485,0.927-1.633,2.291-4.347,2.291c-1.879,0-5.056-1.621-5.227-5.469h16.037
	c0.477-7.085-3.303-13.347-10.824-13.347c-6.708,0-11.279,5.143-11.279,11.765c0,6.835,4.314,11.622,11.279,11.622
	C163.291,35.293,167.023,33.645,168.731,28.431 M153.149,21.079c0.085-1.709,1.405-4.5,5.043-4.5c2.632,0,4.426,1.617,4.426,4.5"/>
<path fill="#FFFFFF" d="M177.902,23.757c0-3.249,1.338-7.229,5.069-7.179c2.094,0.028,4.09,1.512,4.488,4.031l5.938-0.068
	c-0.432-5.811-5.17-8.533-10.384-8.533c-7.177,0-11.281,5.083-11.281,11.961c0,7.158,4.488,11.425,11.155,11.425
	c5.812,0,9.768-2.829,10.539-8.683l-5.854-0.142c-0.446,2.708-2.199,4.046-4.73,4.046C179.283,30.616,177.902,27.244,177.902,23.757
	"/>
<path fill="#FFFFFF" d="M204.165,27.362v-9.854h4.015v-4.602h-4.015V5.931h-6.446v6.975h-3.135v4.602h3.135v11.546
	c0,3.847-0.312,6.275,10.563,5.76v-4.804C204.118,30.031,204.118,29.858,204.165,27.362"/>
</svg>
