<?xml version="1.0" encoding="utf-8"?>
<!-- Generator: Adobe Illustrator 16.0.3, SVG Export Plug-In . SVG Version: 6.00 Build 0)  -->
<!DOCTYPE svg PUBLIC "-//W3C//DTD SVG 1.1//EN" "http://www.w3.org/Graphics/SVG/1.1/DTD/svg11.dtd">
<svg version="1.1" id="Layer_1" xmlns="http://www.w3.org/2000/svg" xmlns:xlink="http://www.w3.org/1999/xlink" x="0px" y="0px"
	 width="184.89px" height="44.425px" viewBox="0 0 184.89 44.425" enable-background="new 0 0 184.89 44.425" xml:space="preserve">
<path fill-rule="evenodd" clip-rule="evenodd" fill="#4D4D4D" d="M76.381,20.504V42.8h4.778V30.458
	c0.99,0.726,7.211,11.914,8.361,12.342h3.782c0.818-0.149,1.207-0.824,1.194-1.99V19.841h-4.977c0,2.634-0.239,9.822,0.198,12.01
	c-0.54-0.196-0.354,0.005-1.185-1.402l-3.281-5.08c-3.1-4.905-2.692-5.462-8.274-5.462C76.52,19.907,76.381,20.045,76.381,20.504"/>
<path fill-rule="evenodd" clip-rule="evenodd" fill="#4D4D4D" d="M164.871,42.735h4.74l-0.161-12.343
	c1.141,0.765,5.27,8.738,8.56,12.343h3.533c0.91-0.12,1.24-0.533,1.258-1.778c0.037-2.679-0.425-18.285-0.039-19.196
	c0.224-0.738,0.675-0.818,0.906-0.885l0.049-1.035h-5.707v11.945c-0.549-0.403-6.341-9.706-6.482-9.841
	c-0.799-1.239-1.91-2.009-3.472-2.104h-3.185V42.735z"/>
<path fill-rule="evenodd" clip-rule="evenodd" fill="#4D4D4D" d="M120.776,20.504v21.102c0,0.732,0.751,1.06,1.776,1.194h4.593
	v-9.555c0.83,0.221,0.339,0.105,1.273,1.514l3.504,5.455c1.321,1.88,2.113,2.442,3.692,2.586h4.347c0.352-0.002,0.724-0.003,1.12,0
	c-0.166-0.711-8.14-12.866-8.562-13.537c0.304-0.202,1.715-1.826,1.991-2.19c0.667-0.873,1.419-1.385,2.106-2.273
	c0.442-0.573,0.594-0.667,1.02-1.17l2.847-3.723c-6.73,0-5.435-0.875-10.609,5.316c-0.67,0.801-1.891,2.038-2.729,2.647v-7.963
	h-5.772C120.914,19.907,120.776,20.045,120.776,20.504"/>
<path fill-rule="evenodd" clip-rule="evenodd" fill="#4D4D4D" d="M43.335,40.81c-0.073,1.465,0.646,1.945,2.189,1.991h11.546
	c0.773-0.012,1.229-0.49,1.395-1.394V38.62H50.9c-0.684,0.043-1.11-0.193-1.194-0.796v-4.778h6.968v-4.38h-6.968v-4.379h8.76
	c0-2.341,0.504-3.945-1.195-4.38H43.335V40.81z"/>
<path fill-rule="evenodd" clip-rule="evenodd" fill="#4D4D4D" d="M64.04,41.805c0,0.644,0.723,0.995,1.394,0.995h4.777V19.907H64.04
	V41.805z"/>
<path fill-rule="evenodd" clip-rule="evenodd" fill="#4D4D4D" d="M100.661,40.81c-0.072,1.465,0.646,1.945,2.19,1.991h11.546
	c0.773-0.012,1.229-0.49,1.394-1.394V38.62h-7.564c-0.685,0.043-1.111-0.193-1.195-0.796v-4.778h6.968v-4.38h-6.968v-4.379h8.76
	c0-2.341,0.505-3.945-1.194-4.38h-13.936V40.81z"/>
<path fill-rule="evenodd" clip-rule="evenodd" fill="#4D4D4D" d="M144.186,40.81c-0.073,1.465,0.646,1.945,2.189,1.991h11.547
	c0.772-0.012,1.228-0.49,1.394-1.394V38.62h-7.565c-0.684,0.043-1.11-0.193-1.194-0.796v-4.778h6.968v-4.38h-6.968v-4.379h8.76
	c0-2.341,0.504-3.945-1.195-4.38h-13.935V40.81z"/>
<path fill-rule="evenodd" clip-rule="evenodd" fill="#4D4D4D" d="M19.322,22.031L19.234,42.46h6.225v-9.889l5.396-0.01l-0.021,9.899
	h6.171V19.841h-6.171v8.162c0.031,0.381-0.164,0.622-0.598,0.598h-4.181c-0.4,0.008-0.595-0.196-0.597-0.598v-8.162h-7.167
	C18.196,21.361,19.365,20.693,19.322,22.031"/>
<path fill-rule="evenodd" clip-rule="evenodd" fill="#4D4D4D" d="M9.671,15.667l4.373,3.257l-1.717,5.949
	c-1.7,1.205-3.434,2.412-5.09,3.618C6.6,28.694,6.606,28.163,6.93,27.265l2.883-9.138c-2.883-2.147-5.766-4.294-8.647-6.44
	c-0.29-0.242-0.254-0.606,0.552-0.614l10.488,0.123c1.063-3.251,2.126-6.501,3.188-9.752c0.218-0.614,0.62-0.519,0.797-0.061
	l3.189,9.936h10.769c0.303-0.003,0.365,0.229,0.14,0.406l-5.266,3.764h-5.948l-1.637-5.045c-0.109-0.29-0.296-0.284-0.394,0.007
	l-1.712,4.977l-5.609,0.028C9.463,15.45,9.469,15.549,9.671,15.667"/>
</svg>
