<?xml version="1.0" encoding="utf-8"?>
<!-- Generator: Adobe Illustrator 16.0.3, SVG Export Plug-In . SVG Version: 6.00 Build 0)  -->
<!DOCTYPE svg PUBLIC "-//W3C//DTD SVG 1.1//EN" "http://www.w3.org/Graphics/SVG/1.1/DTD/svg11.dtd">
<svg version="1.1" id="Layer_1" xmlns="http://www.w3.org/2000/svg" xmlns:xlink="http://www.w3.org/1999/xlink" x="0px" y="0px"
	 width="106.89px" height="54.425px" viewBox="0 0 106.89 54.425" enable-background="new 0 0 106.89 54.425" xml:space="preserve">
<path fill="#4D4D4D" d="M2.182,8.149c0-3.737,2.647-6.795,6.902-6.795c4.478,0,6.88,3.208,6.88,6.977
	c0,4.145-3.035,6.655-6.848,6.655C4.965,14.986,2.182,12.155,2.182,8.149"/>
<path fill="#4D4D4D" d="M2.217,20.663c0-0.637,0.357-1.097,1.069-1.097h11.627c0.614,0,1.02,0.487,1.02,1.085v17.825
	c0,3.039,1.73,6.573,7.071,6.573c5.201,0,7.892-3.236,7.892-9.843v-1.391l5.522,10.511l0.712,3.563c0,0-5.418,5.237-15.237,5.237
	c-4.874,0-19.676-0.799-19.676-16.994V20.663z"/>
<path fill="#4D4D4D" d="M37.13,47.889l5.522-14.25l1.781-1.782v2.494c0,5.999,2.91,10.613,10.44,10.613
	c6.866,0,11.698-3.89,11.698-9.926c0-3.066-1.485-5.502-1.485-5.502l7.789,3.89l0.682,9.475c0,0-5.186,10.172-19.806,10.172
	C42.335,53.073,37.13,47.889,37.13,47.889"/>
<path fill="#4D4D4D" d="M37.13,47.889c0,0-6.234-4.765-6.234-13.673V8.701c0-2.052,1.323-3.83,6.843-3.83
	c6.032,0,6.694,2.348,6.694,4.11v10.586h10.688c0.771,0,1.069,0.45,1.069,1.165v6.316c0,0.597-0.244,1.068-0.945,1.068h-7.071
	c-1.834,0-3.741-0.713-3.741-0.713v4.275C44.434,37.01,43.057,42.454,37.13,47.889"/>
<path fill="#4D4D4D" d="M73.558,42.901l1.697-18.646l0.767-3.244c0,0,3.387,4.938,12.015,20.823c5.48-9.963,8.975-21.87,8.975-21.87
	c0.245-0.813,0.895-1.01,1.836-0.763l5.915,1.829c0.718,0.256,1.107,0.539,0.703,1.875c-4.92,14.317-12.624,26.129-12.624,26.129
	c-1.484,2.197-2.994,4.063-8,4.063c-4.039,0-5.446-1.375-6.852-3.475L73.558,42.901z"/>
<path fill="#4D4D4D" d="M73.558,42.901l-9.221-14.529c-0.554-1.036-0.976-1.664-0.976-2.895c0.008-1.808,0.947-3.114,4.132-5.11
	c0.689-0.452,3.169-1.438,5.179-1.438c2.711,0,4.733,2.806,4.733,8.675C77.405,37.155,73.558,42.901,73.558,42.901z"/>
</svg>
