<?xml version="1.0" encoding="utf-8"?>
<!-- Generator: Adobe Illustrator 16.0.3, SVG Export Plug-In . SVG Version: 6.00 Build 0)  -->
<!DOCTYPE svg PUBLIC "-//W3C//DTD SVG 1.1//EN" "http://www.w3.org/Graphics/SVG/1.1/DTD/svg11.dtd">
<svg version="1.1" id="Layer_1" xmlns="http://www.w3.org/2000/svg" xmlns:xlink="http://www.w3.org/1999/xlink" x="0px" y="0px"
	 width="89.224px" height="72.425px" viewBox="0 0 89.224 72.425" enable-background="new 0 0 89.224 72.425" xml:space="preserve">
<path fill-rule="evenodd" clip-rule="evenodd" fill="#4D4D4D" d="M17.366,10.001l16.257,2.409l2.564,8.919l-3.859-0.344
	L42.426,53.37c0,0,0.818,2.687,0.092,4.592c0,0-0.621,1.668-3.04,2.621l-7.31,2.197c0,0-2.326,0.409-4.242-0.278
	c0,0-1.97-0.808-2.868-2.938l-1.586-5.003l-4.6-14.597l7.203-0.437l3.476,10.958c0,0,0.437,1.772,1.864,1.76
	c0,0,1.177-0.039,1.64-0.317c0.462-0.277,0.925-0.49,0.674-1.628l-7.362-24.179l-1.811-5.757l-4.019-0.291L17.366,10.001z"/>
<path fill-rule="evenodd" clip-rule="evenodd" fill="#4D4D4D" d="M41.315,13.548l7.217,1.098c0,0,2.644,0.331,4.665,2.118
	c0,0,1.494,1.059,2.168,3.479l2.815,8.92l-6.106-0.025l-1.691-5.413c0,0-0.251-1.191-1.797-1.469c0,0-1.282-0.094-1.534,0.013
	c0,0-0.779,0.106-0.489,1.218c0.291,1.111,6.754,22.432,6.754,22.432s0.377,1.231,1.302,1.259c0,0,1.282-0.027,1.805-0.358
	c0.521-0.331,0.681-0.893,0.568-1.429s-2.26-7.412-2.26-7.412l6.079-0.438l3.371,10.707c0,0,0.647,2.171-0.146,3.879
	c0,0-0.647,1.588-2.868,2.421l-6.887,1.984c0,0-2.921,0.597-4.718-1.085c0,0-0.952-0.873-1.454-2.778l-9.794-32.662l-0.886-2.806
	c0,0-0.476-1.999,0.701-2.978C38.13,14.223,39.095,13.111,41.315,13.548"/>
<path fill-rule="evenodd" clip-rule="evenodd" fill="#4D4D4D" d="M57.269,16.009l11.578,36.195l9.489-2.739
	c0,0,1.916-0.821,2.67-2.951c0,0,0.596-1.959-0.146-4.115l-2.299-6.936c0,0-1.111-2.263-4.164-2.991c0,0,1.269-0.794,1.679-2.13
	c0,0,0.37-1.178,0.053-2.171L74.2,22.23c0,0-0.952-2.092-2.551-3.137c0,0-1.242-1.02-3.979-1.562L57.269,16.009z M65.635,23.552
	c0,0,1.93,0.054,2.907,0.187c0.979,0.132,1.295,0.873,1.295,0.873l1.216,3.771c0.173,1.151-0.567,1.351-0.567,1.351l-2.896,0.039
	L65.635,23.552z M69.706,36.655l2.961-0.132c1.031,0.105,1.467,1.045,1.467,1.045s0.966,2.912,1.27,4.143
	c0.304,1.231-0.82,1.588-0.82,1.588l-2.511,0.397L69.706,36.655z"/>
<path fill-rule="evenodd" clip-rule="evenodd" fill="#4D4D4D" d="M8.431,1.956l49.193,8.099l12.662,2.118
	c0,0,3.729,0.237,6.45,3.096c0,0,1.745,1.721,2.591,4.447l7.904,24.165c0,0,0.978,2.646,0.185,5.559c0,0-0.423,2.62-4.415,4.287
	l-53.582,17.31c0,0-2.511,0.716-5.26,0.08c0,0-2.089-0.477-3.807-3.6L2.413,10.529c0,0-1.093-4.365,0.414-6.721
	C2.827,3.808,4.069,1.108,8.431,1.956 M8.854,4.39C6.209,3.993,5.576,5.131,5.576,5.131C4.253,6.335,4.889,9.313,4.889,9.313
	s16.706,54.154,17.446,55.98c0.74,1.825,2.114,2.673,2.114,2.673c2.645,1.218,4.441,0.291,4.441,0.291l53.001-16.86
	c0,0,1.956-0.635,2.907-2.408c0.952-1.773,0.106-4.367,0.106-4.367s-6.873-20.884-7.904-24.06c-1.03-3.176-2.591-4.156-2.591-4.156
	c-2.3-1.932-4.917-2.063-4.917-2.063L8.854,4.39z"/>
</svg>
