<?xml version="1.0" encoding="utf-8"?>
<!-- Generator: Adobe Illustrator 16.0.3, SVG Export Plug-In . SVG Version: 6.00 Build 0)  -->
<!DOCTYPE svg PUBLIC "-//W3C//DTD SVG 1.1//EN" "http://www.w3.org/Graphics/SVG/1.1/DTD/svg11.dtd">
<svg version="1.1" id="Layer_1" xmlns="http://www.w3.org/2000/svg" xmlns:xlink="http://www.w3.org/1999/xlink" x="0px" y="0px"
	 width="203.89px" height="77.759px" viewBox="0 0 203.89 77.759" enable-background="new 0 0 203.89 77.759" xml:space="preserve">
<path fill="#4D4D4D" d="M61.889,23.571c3.081,0,4.712,1.783,4.712,5.196v10.694h-4.44v-9.969c0-1.631-0.725-2.507-1.963-2.507
	c-1.541,0-2.659,1.268-2.659,3.383v9.093h-4.439v-9.909c0-1.721-0.665-2.598-1.935-2.598c-1.449,0-2.566,1.209-2.566,3.142v9.365
	h-4.442V23.934h4.139v2.357c1.058-1.813,2.568-2.719,4.441-2.719c2.114,0,3.535,0.846,4.35,2.688
	C58.264,24.448,59.835,23.571,61.889,23.571"/>
<path fill="#4D4D4D" d="M73.156,34.839c0,1.269,0.846,2.025,2.356,2.025c1.903,0,3.353-1.511,3.353-3.625v-1.39
	C75.09,31.909,73.156,32.996,73.156,34.839 M78.956,36.954c-1.058,1.873-2.839,2.9-5.136,2.9c-3.383,0-5.438-1.873-5.438-4.742
	c0-3.656,3.505-5.589,10.482-5.65v-0.664c0-1.571-0.876-2.386-2.598-2.386c-1.903,0-2.99,0.755-3.232,2.175l-4.229-0.454
	c0.725-3.05,3.323-4.621,7.704-4.621c4.894,0,6.797,1.812,6.797,6.071v6.888c0,1.268,0.121,2.265,0.453,2.99h-4.502
	C79.077,38.736,78.986,37.891,78.956,36.954"/>
<path fill="#4D4D4D" d="M85.963,23.934h4.169v2.477c0.998-1.903,2.599-2.899,4.653-2.899c3.444,0,5.044,1.902,5.044,5.89v10.059
	h-4.501v-9.757c0-1.903-0.695-2.9-2.114-2.9c-1.601,0-2.778,1.329-2.778,3.504v9.153h-4.473V23.934"/>
<path fill="#4D4D4D" d="M109.346,26.653c-1.874,0-2.87,1.691-2.87,5.015c0,3.322,1.057,5.045,2.87,5.045
	c1.42,0,2.477-1.149,2.688-3.173l3.957,0.454c-0.423,3.594-3.111,5.89-6.888,5.89c-4.38,0-7.461-3.292-7.461-8.156
	c0-4.954,3.11-8.217,7.793-8.217c3.564,0,6.043,2.175,6.524,5.891l-4.078,0.423C111.61,27.77,110.645,26.653,109.346,26.653"/>
<path fill="#4D4D4D" d="M117.772,18.497h4.471v7.401c1.059-1.601,2.479-2.386,4.351-2.386c3.443,0,5.045,1.902,5.045,5.89v10.06
	h-4.501v-9.758c0-1.903-0.695-2.9-2.115-2.9c-1.601,0-2.779,1.33-2.779,3.505v9.153h-4.471V18.497"/>
<path fill="#4D4D4D" d="M144.507,29.946c-0.031-2.266-1.147-3.474-3.081-3.474c-1.783,0-2.961,1.238-3.082,3.474H144.507z
	 M141.486,39.884c-4.863,0-8.035-3.292-8.035-8.156c0-4.773,3.383-8.216,8.247-8.216c4.622,0,7.521,3.11,7.521,8.337v0.634h-10.935
	c0,2.719,1.239,4.199,3.383,4.199c1.511,0,2.659-0.846,3.082-2.326l4.379,0.363C148.102,38.012,145.322,39.884,141.486,39.884"/>
<path fill="#4D4D4D" d="M153.75,34.597c0.393,1.42,1.752,2.236,3.775,2.236c1.723,0,2.688-0.725,2.688-1.692
	c0-1.359-1.358-1.299-3.776-1.782c-3.866-0.756-5.8-1.994-5.8-4.803c0-2.9,2.478-5.075,6.586-5.075c3.353,0,5.619,1.42,6.586,4.047
	l-3.656,0.665c-0.544-1.238-1.54-1.752-3.11-1.752c-1.51,0-2.326,0.544-2.326,1.541c0,1.359,1.57,1.298,4.501,1.903
	c3.534,0.725,5.256,1.933,5.256,4.652c0,3.051-2.719,5.256-7.341,5.256c-3.745,0-6.404-1.782-7.159-4.682L153.75,34.597"/>
<path fill="#4D4D4D" d="M167.103,26.955h-2.509v-3.021h2.63l0.24-4.319l4.14-0.272v4.591h3.23v3.021h-3.23v6.978
	c0,1.752,0.332,2.446,1.873,2.446c0.482,0,1.057-0.06,1.689-0.21v3.382c-1.025,0.212-2.021,0.333-2.959,0.333
	c-3.656,0-5.104-1.661-5.104-5.467V26.955"/>
<path fill="#4D4D4D" d="M186.979,29.946c-0.031-2.266-1.148-3.474-3.082-3.474c-1.782,0-2.96,1.238-3.081,3.474H186.979z
	 M183.958,39.884c-4.864,0-8.035-3.292-8.035-8.156c0-4.773,3.383-8.216,8.247-8.216c4.622,0,7.521,3.11,7.521,8.337v0.634h-10.935
	c0,2.719,1.237,4.199,3.383,4.199c1.51,0,2.659-0.846,3.082-2.326l4.38,0.363C190.573,38.012,187.794,39.884,183.958,39.884"/>
<path fill="#4D4D4D" d="M193.685,23.934h4.019v3.263c0.693-2.477,2.054-3.685,4.288-3.685c0.183,0,0.453,0.03,0.785,0.06v4.199
	c-0.332-0.03-0.633-0.061-0.936-0.061c-2.295,0-3.655,1.541-3.655,4.139v7.612h-4.501V23.934"/>
<path fill="#4D4D4D" d="M51.676,54.469c-3.9,0-5.907,1.159-5.907,3.306c0,1.584,1.131,2.628,3.024,2.628
	c2.543,0,4.577-2.288,4.577-5.114v-0.763C52.777,54.469,52.212,54.469,51.676,54.469 M53.37,59.132
	c-0.989,1.95-2.798,3.081-5.002,3.081c-2.967,0-4.973-1.866-4.973-4.409c0-3.278,2.938-4.973,8.731-4.973
	c0.396,0,0.819,0,1.243,0.028v-0.904c0-2.177-1.158-3.251-3.617-3.251c-2.204,0-3.475,0.793-3.871,2.515l-2.063-0.311
	c0.595-2.599,2.714-3.956,6.302-3.956c3.787,0,5.369,1.809,5.369,5.738v6.216c0,1.102,0.086,2.063,0.396,2.967H53.71
	C53.484,61.055,53.37,60.122,53.37,59.132"/>
<path fill="#4D4D4D" d="M58.118,47.348h2.147v14.525h-2.147V47.348z M58.118,42.262h2.147v2.146h-2.147V42.262z"/>
<path fill="#4D4D4D" d="M63.12,47.349h2.063v3.249c0.875-2.458,2.233-3.673,4.239-3.673c0.254,0,0.508,0.028,0.791,0.057v2.176
	h-0.367c-2.77,0-4.55,2.062-4.55,5.425v7.291H63.12V47.349"/>
<path fill="#4D4D4D" d="M77.645,60.292c2.346,0,3.872-2.063,3.872-5.736c0-3.619-1.498-5.682-3.787-5.682
	c-2.035,0-3.786,1.809-3.786,4.465v2.431C73.943,58.625,75.496,60.292,77.645,60.292 M71.823,47.349h1.979v2.825
	c0.988-2.119,2.542-3.221,4.465-3.221c3.165,0,5.595,2.911,5.595,7.546c0,4.747-2.516,7.658-5.736,7.658
	c-1.696,0-3.193-0.905-4.182-2.6v7.347h-2.12V47.349"/>
<path fill="#4D4D4D" d="M95.617,54.61c0-3.702-1.668-5.849-4.182-5.849c-2.515,0-4.154,2.12-4.154,5.849
	c0,3.703,1.667,5.851,4.154,5.851C93.922,60.461,95.617,58.284,95.617,54.61 M84.936,54.61c0-4.691,2.656-7.658,6.5-7.658
	c3.871,0,6.555,2.967,6.555,7.658c0,4.663-2.684,7.659-6.555,7.659C87.592,62.27,84.936,59.273,84.936,54.61"/>
<path fill="#4D4D4D" d="M99.744,47.349h2.063v3.249c0.875-2.458,2.232-3.673,4.238-3.673c0.254,0,0.509,0.028,0.791,0.057v2.176
	h-0.367c-2.771,0-4.55,2.062-4.55,5.425v7.291h-2.176V47.349"/>
<path fill="#4D4D4D" d="M110.228,48.931h-2.544v-1.582h2.544v-3.448l2.177-0.227v3.675h3.446v1.582h-3.446v7.602
	c0,2.713,0.254,3.871,2.457,3.871c0.452,0,0.962-0.029,1.499-0.169v1.807c-0.595,0.143-1.216,0.227-1.81,0.227
	c-1.724,0-2.91-0.508-3.729-1.723c-0.594-0.848-0.594-2.206-0.594-4.07V48.931"/>
<g>
	<defs>
		<path id="SVGID_1_" d="M16.855,59.436c0.217,9.164,4.888,20.543,18.245,16.324c7.171-2.265,11.513-6.619,11.513-6.619
			s-16.711-7.225-25.984-24.478C20.629,44.663,16.669,51.45,16.855,59.436"/>
	</defs>
	<clipPath id="SVGID_2_">
		<use xlink:href="#SVGID_1_"  overflow="visible"/>
	</clipPath>
	<path clip-path="url(#SVGID_2_)" fill="#808080" d="M46.613,69.142c0,0-16.712-7.225-25.984-24.478c0,0-3.96,6.786-3.773,14.772
		c0.217,9.165,4.889,20.543,18.245,16.324C42.271,73.496,46.613,69.142,46.613,69.142"/>
</g>
<path fill="#4D4D4D" d="M27.205,76.408c0,0-8.273-1.128-9.812-16.604c-1.509-15.202,20.87-43.66,26.632-52.401
	c6.254-9.488-2.155-5.929-5.931-4.852c-3.773,1.077-26.199,8.626-34.393,28.357C-3.448,48.129,8.215,72.268,27.205,76.408"/>
</svg>
