<?xml version="1.0" encoding="utf-8"?>
<!-- Generator: Adobe Illustrator 16.0.3, SVG Export Plug-In . SVG Version: 6.00 Build 0)  -->
<!DOCTYPE svg PUBLIC "-//W3C//DTD SVG 1.1//EN" "http://www.w3.org/Graphics/SVG/1.1/DTD/svg11.dtd">
<svg version="1.1" id="Layer_1" xmlns="http://www.w3.org/2000/svg" xmlns:xlink="http://www.w3.org/1999/xlink" x="0px" y="0px"
	 width="118.753px" height="47.993px" viewBox="0 0 118.753 47.993" enable-background="new 0 0 118.753 47.993"
	 xml:space="preserve">
<rect fill="#4D4D4D" width="118.753" height="47.993"/>
<path fill="#FFFFFF" d="M102.769,4.01c-3.771-0.002-6.224,0.327-8.853,1.184c-2.379,0.777-4.743,2.292-6.096,3.91
	c-0.9,1.075-1.929,3.095-2.244,4.406c-0.512,2.138-0.487,4.782,0.057,6.395c1.008,2.994,3.08,4.68,8.283,6.739
	c4.981,1.971,6.25,3.02,6.246,5.162c-0.003,1.416-0.521,2.335-1.763,3.137c-0.989,0.639-2.089,0.985-3.966,1.237
	c-3.419,0.461-8.415-0.27-11.185-1.633c-0.426-0.209-0.797-0.359-0.825-0.331c-0.076,0.075-2.457,7.756-2.417,7.798
	c0.018,0.02,0.639,0.208,1.378,0.42c1.783,0.511,4.795,1.123,6.606,1.342c1.972,0.239,6.375,0.25,8.319,0.02
	c3.061-0.362,5.698-1.079,7.762-2.11c1.57-0.784,2.53-1.486,3.686-2.7c2.266-2.379,3.218-5.166,3.077-9.019
	c-0.051-1.4-0.125-1.886-0.413-2.737c-1.136-3.36-3.473-5.295-9.067-7.503c-3.28-1.294-4.62-2.118-5.203-3.205
	c-0.307-0.573-0.299-1.953,0.013-2.535c0.767-1.434,2.46-2.098,5.837-2.288c2.901-0.164,6.356,0.35,8.695,1.289
	c0.62,0.249,1.137,0.439,1.148,0.425c0.012-0.014,0.529-1.596,1.144-3.517c0.616-1.921,1.176-3.627,1.246-3.792
	c0.069-0.165,0.091-0.353,0.052-0.416c-0.134-0.218-2.486-0.889-4.022-1.148C107.994,4.157,105.963,4.011,102.769,4.01"/>
<path fill="#FFFFFF" d="M11.558,4.657l-0.21,1.003C10.821,8.164,9.09,16.314,8.084,21.021c-0.608,2.846-1.54,7.212-2.069,9.702
	c-0.53,2.49-1.343,6.3-1.807,8.465c-0.465,2.165-0.845,3.999-0.845,4.075c0,0.097,1.481,0.126,4.899,0.101l4.9-0.032l0.465-2.361
	c1.354-6.87,4.879-24.336,4.92-24.376c0.025-0.026,0.111,0.206,0.19,0.517c0.078,0.311,0.399,1.408,0.715,2.434
	c0.316,1.025,1.11,3.639,1.763,5.809c1.312,4.364,2.502,8.3,3.577,11.836c0.389,1.281,0.855,2.823,1.035,3.428
	c0.18,0.605,0.44,1.464,0.582,1.908l0.259,0.809h6.456h6.456l0.064-0.291c0.078-0.338,0.918-4.301,2.009-9.476
	c0.421-1.992,1.352-6.387,2.07-9.767c2.669-12.559,4.01-18.922,4.01-19.032c0-0.062-2.197-0.113-4.891-0.113h-4.887L37.414,7.34
	c-0.297,1.477-1.146,5.682-1.888,9.347c-0.742,3.664-1.717,8.478-2.167,10.7c-0.45,2.222-0.855,3.969-0.901,3.881
	c-0.047-0.088-0.36-1.089-0.696-2.228c-0.335-1.138-0.928-3.146-1.317-4.463c-0.39-1.316-1.282-4.343-1.985-6.726
	c-0.703-2.384-1.752-5.935-2.329-7.891c-0.577-1.957-1.164-3.951-1.305-4.431l-0.259-0.873h-6.505H11.558z"/>
<path fill="#FFFFFF" d="M51.534,4.657l-0.679,3.266c-0.73,3.509-1.643,7.911-5.069,24.417c-1.204,5.799-2.214,10.645-2.244,10.769
	c-0.051,0.213,0.26,0.227,5.162,0.227h5.219l0.129-0.615c0.135-0.629,1.946-9.341,2.822-13.583l0.489-2.36h6.052
	c4.814,0,6.052,0.034,6.052,0.165c0,0.091-0.318,1.706-0.704,3.59c-1.435,7.006-2.546,12.357-2.611,12.576
	c-0.064,0.213,0.245,0.227,5.182,0.227c2.886,0,5.247-0.047,5.247-0.105c0-0.115,0.419-2.144,2.062-9.985
	c0.715-3.412,2.265-10.889,4.79-23.091c0.575-2.775,1.077-5.147,1.116-5.272c0.066-0.213-0.24-0.226-5.178-0.226
	c-2.887,0-5.247,0.019-5.247,0.044c0,0.057-1.577,7.763-2.386,11.655c-0.324,1.561-0.59,2.885-0.59,2.943
	c0,0.058-2.744,0.105-6.096,0.105H58.96l0.085-0.485c0.098-0.555,2.767-13.528,2.874-13.971l0.073-0.291h-5.227H51.534z"/>
</svg>
