<?xml version="1.0" encoding="utf-8"?>
<!-- Generator: Adobe Illustrator 16.0.3, SVG Export Plug-In . SVG Version: 6.00 Build 0)  -->
<!DOCTYPE svg PUBLIC "-//W3C//DTD SVG 1.1//EN" "http://www.w3.org/Graphics/SVG/1.1/DTD/svg11.dtd">
<svg version="1.1" id="Layer_1" xmlns="http://www.w3.org/2000/svg" xmlns:xlink="http://www.w3.org/1999/xlink" x="0px" y="0px"
	 width="1024px" height="230px" viewBox="0 0 1024 230" enable-background="new 0 0 1024 230" xml:space="preserve">
<g>
	<polygon fill-rule="evenodd" clip-rule="evenodd" fill="#4F4F4F" points="42.295,70.339 42.295,33.539 266.278,33.539 
		266.278,70.339 42.295,70.339 	"/>
	<polygon fill-rule="evenodd" clip-rule="evenodd" fill="#808080" points="42.295,77.473 42.295,68.836 266.278,68.836 
		266.278,77.473 42.295,77.473 	"/>
	<path fill-rule="evenodd" clip-rule="evenodd" fill="#FFFFFF" d="M262.336,55.317c0-6.945-3.754-9.949-7.322-9.949
		c-2.815,0-7.885,2.064-7.885,10.326c0,9.763,7.135,10.139,7.885,10.139c3.192,0,5.444-1.878,6.76-3.382l0.187-0.187l-0.75-1.501
		l-0.376,0.187c0,0-1.876,1.501-3.567,1.501c-3.567,0-4.317-2.438-4.317-6.757c0.564,0,9.387,0,9.387,0V55.317L262.336,55.317z
		 M252.949,53.065c0-4.318,0.75-5.258,2.253-5.258c1.689,0,1.878,2.066,1.878,5.258C256.516,53.065,253.513,53.065,252.949,53.065
		L252.949,53.065z"/>
	<path fill-rule="evenodd" clip-rule="evenodd" fill="#FFFFFF" d="M245.626,63.578c-0.75,0-1.314-0.75-1.314-1.501V37.106h-8.448
		v1.689h1.126c0.563,0,1.69,0.563,1.69,1.315c0,0,0,5.444,0,6.945c-0.752-0.751-2.066-1.688-4.131-1.688
		c-2.816,0-7.322,2.815-7.322,10.513c0,7.885,4.505,9.952,6.758,9.952c2.253,0,3.756-0.94,4.506-1.878c0,0.562,0,1.314,0,1.314
		h7.509v-1.691H245.626L245.626,63.578z M238.492,50.812c0,0.188,0,9.575,0,9.575c0,0.563-1.69,2.254-2.628,2.254
		c-2.253,0-2.628-3.568-2.628-6.76c0-6.383,1.314-7.321,2.815-7.321C237.366,48.56,238.492,50.625,238.492,50.812L238.492,50.812z"
		/>
	<path fill-rule="evenodd" clip-rule="evenodd" fill="#FFFFFF" d="M225.913,63.578c-0.375,0-1.314-0.563-1.314-1.313V45.932h-5.82
		v16.333c0,0.751-0.752,1.313-1.502,1.313h-0.375v1.691h9.387v-1.691H225.913L225.913,63.578z"/>
	<path fill-rule="evenodd" clip-rule="evenodd" fill="#FFFFFF" d="M211.268,45.932v1.688h0.376c0.375,0,0.938,0,1.126,0.376
		c0.187,0.188,0.187,0.376,0.187,0.376c0,0.188,0,0.375,0,0.375c-0.375,0.938-1.876,5.444-2.628,7.697
		c-0.563-2.253-1.689-7.134-1.876-7.697c0-0.188,0-0.188,0-0.375c0-0.188,0-0.188,0.188-0.376c0.188-0.376,0.563-0.376,1.126-0.376
		h0.375v-1.688h-9.2v1.688h0.375c0.376,0,1.127,0,1.314,0.563c0,0,0.752,2.254,0.752,2.628c0,0.188-1.689,4.506-2.253,5.819
		c-0.563-1.876-2.253-6.383-2.628-7.507c-0.188-0.19-0.188-0.564-0.188-0.752c0-0.188,0-0.376,0.188-0.376
		c0.187-0.376,0.375-0.376,0.938-0.376h0.376v-1.688h-8.637v1.501l0.188,0.188c0.188,0,0.563,0.188,0.752,0.563
		c0.375,0.563,3.942,10.702,6.383,17.273l0.187,0.187h1.878c0,0,3.38-9.199,3.942-10.889c0.563,1.689,3.38,10.889,3.38,10.889h1.877
		l5.82-16.333c0.375-1.314,0.75-1.878,1.501-1.878h0.188v-1.501H211.268L211.268,45.932z"/>
	<path fill-rule="evenodd" clip-rule="evenodd" fill="#FFFFFF" d="M191.367,63.578c-1.126,0-1.314-0.563-1.314-1.127V51.375
		c0-3.003-1.877-6.007-5.256-6.007c-2.253,0-3.942,0.751-5.069,2.252c0-0.563,0-1.688,0-1.688h-7.698v1.688h0.938
		c0,0,0.939,0.188,0.939,1.127v13.33c0,0.938-0.75,1.501-1.689,1.501h-0.188v1.691h9.576v-1.691h-0.375
		c-0.939,0-1.502-0.563-1.502-1.501V51c0-0.563,1.314-2.253,2.628-2.253c1.314,0,1.877,0.938,1.877,2.441v11.263
		c0,0.377-0.939,1.127-1.501,1.127h-0.188v1.691h9.2v-1.691H191.367L191.367,63.578z"/>
	<path fill-rule="evenodd" clip-rule="evenodd" fill="#FFFFFF" d="M162.266,45.368c-4.13,0-8.637,3.942-8.637,10.137
		c0,8.073,5.633,10.328,8.637,10.328c3.567,0,8.637-3.192,8.637-9.765C170.903,50.061,167.147,45.368,162.266,45.368L162.266,45.368
		z M164.706,56.068c0,7.137-1.689,7.137-2.44,7.137c-1.127,0-2.628,0-2.628-7.324c0-7.321,1.314-8.073,2.628-8.073
		C163.393,47.808,164.706,48.747,164.706,56.068L164.706,56.068z"/>
	<path fill-rule="evenodd" clip-rule="evenodd" fill="#FFFFFF" d="M152.127,63.578c-0.375,0-1.314-0.563-1.314-1.313V45.932h-5.82
		v16.333c0,0.751-0.751,1.313-1.501,1.313h-0.376v1.691h9.388v-1.691H152.127L152.127,63.578z"/>
	<path fill-rule="evenodd" clip-rule="evenodd" fill="#FFFFFF" d="M141.989,48.372v-2.44c0,0-2.816,0-3.38,0c0-0.563,0-6.76,0-6.76
		h-1.501l-0.188,0.188c-1.126,1.877-3.38,5.257-5.82,7.135l-0.188,0.188v1.69c0,0,1.502,0,1.877,0c0,0.752,0,12.954,0,12.954
		c0,2.816,2.065,4.317,4.319,4.317c1.69,0,3.004-0.374,4.318-2.065v-0.187v-1.503l-0.563,0.188c-0.375,0.374-1.126,0.188-1.689,0
		c-0.375-0.376-0.563-0.751-0.563-1.127c0,0,0-12.017,0-12.578C139.173,48.372,141.989,48.372,141.989,48.372L141.989,48.372z"/>
	<path fill-rule="evenodd" clip-rule="evenodd" fill="#FFFFFF" d="M129.222,62.451c0,0.189-0.188,0.189-0.375,0
		c-0.376,0-0.563-0.187-0.563-0.563V50.812c0-3.191-3.192-5.256-7.885-5.256c-3.942,0-6.008,1.313-6.947,2.252l-0.187,0.188v5.82
		h1.689v-0.377c1.126-5.067,3.942-5.443,5.068-5.443c1.127,0,2.628,0.938,2.628,2.064c0,0,0,2.255,0,2.816
		c-6.758,1.878-9.95,4.694-9.95,8.449c0,2.816,1.877,4.507,4.693,4.507c1.878,0,3.755-0.753,5.445-2.067
		c0.375,1.127,1.689,2.067,3.192,2.067s2.816-0.753,3.755-2.067l0.188-0.188v-1.877L129.222,62.451L129.222,62.451z M120.398,62.265
		c-0.75,0-1.69-0.563-1.69-2.44c0-1.689,1.69-3.566,3.755-4.319c0,0.939,0,5.069,0,5.259
		C121.899,61.701,120.774,62.265,120.398,62.265L120.398,62.265z"/>
	<path fill-rule="evenodd" clip-rule="evenodd" fill="#FFFFFF" d="M102.75,37.106v1.878h1.314c0.563,0,1.689,0.75,1.689,1.878
		c0,0,0,10.513,0,12.391c-1.127-1.689-11.64-16.146-11.64-16.146h-8.261v1.689c0,0,0.376,0,0.563,0
		c0.187,0.188,1.878,2.253,2.065,2.44c0,0.189,0,20.652,0,20.652c0,1.503-1.878,1.689-2.44,1.689h-0.375v1.691h9.387v-1.878h-0.938
		c-0.938,0-2.064-0.94-2.064-1.503c0,0,0-14.643,0-16.521c1.126,1.501,15.395,20.651,15.395,20.651h1.876V40.862
		c0-1.314,0.752-1.878,2.066-1.878h0.375v-1.878H102.75L102.75,37.106z"/>
	<path fill-rule="evenodd" clip-rule="evenodd" fill="#FFFFFF" d="M147.81,36.73c-1.689,0-3.192,1.503-3.192,3.381
		c0,1.877,1.502,3.192,3.192,3.192c1.877,0,3.38-1.315,3.38-3.192C151.189,38.233,149.687,36.73,147.81,36.73L147.81,36.73z"/>
	<path fill-rule="evenodd" clip-rule="evenodd" fill="#FFFFFF" d="M221.594,36.73c-1.876,0-3.19,1.503-3.19,3.381
		c0,1.877,1.314,3.192,3.19,3.192c1.877,0,3.38-1.315,3.38-3.192C224.974,38.233,223.472,36.73,221.594,36.73L221.594,36.73z"/>
	<path fill-rule="evenodd" clip-rule="evenodd" fill="#FFFFFF" d="M74.775,47.057c0-1.313,0-9.95,0-9.95h-11.64c0,0,0,3.005,0,4.319
		c-1.127,0-3.943,0-3.943,0v1.688c-0.375,0-0.563,0-0.939,0c-6.57,0-12.015,5.446-12.015,12.018c0,3.941,2.253,7.51,5.82,9.762
		l0.563,0.377v8.072h22.156c0,0,0-3.192,0-4.506c1.878,0,6.758,0,6.758,0v-15.02C81.533,53.816,75.526,47.996,74.775,47.057
		L74.775,47.057z"/>
	<polygon fill-rule="evenodd" clip-rule="evenodd" fill="#3F3F3F" points="72.897,63.578 72.897,60.013 71.207,60.013 
		71.207,63.578 72.897,63.578 	"/>
	<path fill-rule="evenodd" clip-rule="evenodd" fill="#4F4F4F" d="M72.897,47.808v-9.012h-7.886v4.317h-3.942v2.255
		c-0.939-0.377-1.877-0.377-2.817-0.377c-5.633,0-10.138,4.507-10.138,10.14c0,3.565,2.066,6.57,4.882,8.261l6.383-10.139h9.012l0,0
		c-0.564-3.192-2.628-5.82-5.633-7.321v-0.94h3.943v-4.317h4.318v14.457h6.759V65.27H71.02v4.316H65.2v-5.257l5.82-9.198H60.507
		l-6.008,9.386v6.947h18.398v-4.317h6.759V54.567L72.897,47.808L72.897,47.808z M56.375,69.586v-5.257h6.947v5.257H56.375
		L56.375,69.586z"/>
</g>
<g>
	<g>
		<g>
			<path fill="#4F4F4F" d="M336.479,50.097c0-1.273,0.353-2.301,1.061-3.079c0.707-0.784,1.63-1.175,2.761-1.175
				c1.131,0,2.049,0.391,2.761,1.175c0.704,0.778,1.06,1.806,1.06,3.079v20.407c0,1.271-0.356,2.299-1.06,3.076
				c-0.712,0.781-1.63,1.169-2.761,1.169c-1.131,0-2.054-0.388-2.761-1.169c-0.708-0.777-1.061-1.805-1.061-3.076V50.097z"/>
			<path fill="#4F4F4F" d="M348.393,50.097c0-1.273,0.353-2.301,1.063-3.079c0.71-0.784,1.631-1.175,2.768-1.175
				c0.995,0,1.796,0.256,2.396,0.755c0.603,0.498,0.978,1.193,1.122,2.085c0.747-1.026,1.715-1.804,2.907-2.336
				c1.19-0.53,2.694-0.797,4.51-0.797c1.495,0,2.889,0.232,4.188,0.694c1.298,0.455,2.411,1.129,3.336,2.016
				c0.921,0.886,1.653,1.963,2.188,3.236c0.531,1.274,0.797,2.729,0.797,4.352v14.656c0,1.274-0.35,2.302-1.06,3.076
				c-0.708,0.781-1.626,1.169-2.758,1.169c-1.136,0-2.052-0.388-2.762-1.169c-0.706-0.774-1.06-1.802-1.06-3.076V57.18
				c0-1.805-0.494-3.133-1.476-3.982c-0.988-0.852-2.178-1.278-3.576-1.278c-1.609,0-2.837,0.506-3.679,1.512
				c-0.843,1.014-1.262,2.261-1.262,3.749v13.324c0,1.274-0.353,2.302-1.062,3.076c-0.708,0.781-1.628,1.169-2.761,1.169
				c-1.131,0-2.053-0.388-2.761-1.169c-0.706-0.777-1.059-1.805-1.059-3.076V50.097z"/>
			<path fill="#4F4F4F" d="M379.801,52.815h-1.703c-1.028,0-1.846-0.296-2.447-0.896c-0.605-0.603-0.907-1.411-0.907-2.435
				c0-0.95,0.322-1.749,0.96-2.379c0.637-0.633,1.435-0.95,2.394-0.95h1.703v-4.579c0-1.275,0.351-2.303,1.059-3.085
				c0.709-0.777,1.626-1.171,2.761-1.171c1.132,0,2.052,0.394,2.759,1.171c0.707,0.782,1.062,1.81,1.062,3.085v4.579h2.184
				c0.992,0,1.851,0.246,2.578,0.738c0.727,0.495,1.093,1.356,1.093,2.591c0,1.197-0.367,2.055-1.093,2.564
				c-0.727,0.514-1.586,0.767-2.578,0.767h-2.184v17.688c0,1.28-0.355,2.306-1.062,3.09c-0.707,0.781-1.627,1.169-2.759,1.169
				c-1.135,0-2.051-0.388-2.761-1.169c-0.708-0.784-1.059-1.81-1.059-3.09V52.815z"/>
			<path fill="#4F4F4F" d="M400.001,62.897c0.284,1.93,1.109,3.347,2.476,4.241c1.363,0.893,2.951,1.343,4.762,1.343
				c0.992,0,1.906-0.162,2.739-0.478c0.831-0.319,1.603-0.675,2.314-1.063c0.71-0.394,1.365-0.748,1.97-1.067
				c0.602-0.321,1.152-0.479,1.648-0.479c0.814,0,1.543,0.345,2.18,1.041c0.636,0.689,0.96,1.441,0.96,2.254
				c0,0.812-0.381,1.607-1.145,2.381c-0.763,0.775-1.748,1.464-2.951,2.064c-1.207,0.601-2.556,1.081-4.045,1.451
				c-1.488,0.371-2.945,0.558-4.362,0.558c-2.163,0-4.124-0.376-5.882-1.121c-1.758-0.741-3.267-1.771-4.53-3.085
				c-1.262-1.311-2.24-2.862-2.93-4.655c-0.694-1.791-1.042-3.753-1.042-5.88c0-1.951,0.34-3.824,1.011-5.62
				c0.671-1.788,1.604-3.368,2.811-4.73c1.203-1.369,2.646-2.458,4.324-3.273c1.684-0.817,3.529-1.229,5.547-1.229
				c2.052,0,3.927,0.43,5.625,1.277c1.699,0.854,3.148,1.952,4.352,3.299c1.2,1.349,2.131,2.849,2.783,4.496
				c0.656,1.647,0.984,3.274,0.984,4.868c0,1.135-0.265,1.988-0.794,2.555c-0.531,0.567-1.378,0.853-2.542,0.853H400.001z
				 M411.956,57.799c-0.213-1.712-0.83-3.116-1.857-4.218c-1.024-1.106-2.439-1.662-4.244-1.662c-1.697,0-3.088,0.576-4.163,1.711
				c-1.081,1.142-1.709,2.531-1.883,4.169H411.956z"/>
			<path fill="#4F4F4F" d="M422.209,49.672c0-1.274,0.417-2.231,1.247-2.87c0.832-0.636,1.726-0.959,2.681-0.959
				c1.029,0,1.902,0.225,2.628,0.665c0.727,0.446,1.087,1.283,1.087,2.523h0.106c0.708-1.062,1.479-1.857,2.316-2.388
				c0.832-0.531,1.852-0.801,3.056-0.801c0.922,0,1.773,0.338,2.554,1.01c0.78,0.676,1.172,1.706,1.172,3.084
				c0,0.639-0.135,1.134-0.401,1.491c-0.268,0.353-0.613,0.652-1.037,0.9c-0.425,0.247-0.913,0.47-1.465,0.664
				c-0.547,0.198-1.107,0.415-1.674,0.666c-0.568,0.282-1.129,0.557-1.674,0.819c-0.552,0.267-1.047,0.596-1.489,0.986
				c-0.445,0.388-0.798,0.851-1.065,1.382c-0.27,0.53-0.4,1.168-0.4,1.911v11.747c0,1.271-0.355,2.299-1.058,3.076
				c-0.712,0.781-1.628,1.169-2.763,1.169c-1.133,0-2.053-0.388-2.76-1.169c-0.706-0.777-1.063-1.805-1.063-3.076V49.672z"/>
			<path fill="#4F4F4F" d="M462.542,62.897c0.288,1.93,1.113,3.347,2.476,4.241c1.367,0.893,2.954,1.343,4.76,1.343
				c0.993,0,1.908-0.162,2.739-0.478c0.836-0.319,1.606-0.675,2.319-1.063c0.706-0.394,1.362-0.748,1.967-1.067
				c0.603-0.321,1.152-0.479,1.649-0.479c0.814,0,1.542,0.345,2.181,1.041c0.64,0.689,0.957,1.441,0.957,2.254
				c0,0.812-0.379,1.607-1.141,2.381c-0.764,0.775-1.748,1.464-2.955,2.064c-1.205,0.601-2.554,1.081-4.044,1.451
				c-1.487,0.371-2.942,0.558-4.36,0.558c-2.167,0-4.125-0.376-5.882-1.121c-1.757-0.741-3.267-1.771-4.528-3.085
				c-1.262-1.311-2.241-2.862-2.935-4.655c-0.692-1.791-1.039-3.753-1.039-5.88c0-1.951,0.336-3.824,1.007-5.62
				c0.675-1.788,1.611-3.368,2.816-4.73c1.2-1.369,2.643-2.458,4.323-3.273c1.68-0.817,3.528-1.229,5.546-1.229
				c2.052,0,3.925,0.43,5.625,1.277c1.7,0.854,3.147,1.952,4.349,3.299c1.204,1.349,2.133,2.849,2.789,4.496
				c0.654,1.647,0.982,3.274,0.982,4.868c0,1.135-0.267,1.988-0.795,2.555c-0.529,0.567-1.379,0.853-2.541,0.853H462.542z
				 M474.497,57.799c-0.211-1.712-0.829-3.116-1.855-4.218c-1.025-1.106-2.44-1.662-4.244-1.662c-1.697,0-3.089,0.576-4.165,1.711
				c-1.081,1.142-1.709,2.531-1.884,4.169H474.497z"/>
			<path fill="#4F4F4F" d="M486.672,52.815h-1.704c-1.03,0-1.844-0.296-2.447-0.896c-0.601-0.603-0.905-1.411-0.905-2.435
				c0-0.95,0.322-1.749,0.959-2.379c0.637-0.633,1.435-0.95,2.393-0.95h1.704v-4.579c0-1.275,0.352-2.303,1.062-3.085
				c0.706-0.777,1.626-1.171,2.758-1.171s2.051,0.394,2.757,1.171c0.708,0.782,1.065,1.81,1.065,3.085v4.579h2.18
				c0.996,0,1.854,0.246,2.581,0.738c0.726,0.495,1.092,1.356,1.092,2.591c0,1.197-0.366,2.055-1.092,2.564
				c-0.727,0.514-1.585,0.767-2.581,0.767h-2.18v17.688c0,1.28-0.357,2.306-1.065,3.09c-0.706,0.781-1.625,1.169-2.757,1.169
				s-2.052-0.388-2.758-1.169c-0.709-0.784-1.062-1.81-1.062-3.09V52.815z"/>
			<g>
				<path fill="#A4A4A4" d="M309.585,49.691v-6.533l-0.006-4.9c0-1.32-1.071-2.39-2.39-2.39c-1.32,0-2.388,1.069-2.388,2.39v4.914
					v6.523l-4.619-4.621l-3.471-3.46c-0.931-0.933-2.445-0.933-3.378,0.002c-0.934,0.932-0.934,2.445,0,3.376l3.475,3.478
					l4.604,4.603h-9.856h-1.561c-1.323,0-2.397,1.073-2.397,2.396c0,1.324,1.075,2.398,2.397,2.398l1.445-0.002l3.452-0.007h6.528
					l-4.614,4.613l-2.363,2.365l-1.104,1.103c-0.936,0.937-0.936,2.453,0,3.39c0.936,0.937,2.454,0.937,3.391,0l1.018-1.022
					l2.438-2.445l4.617-4.617v6.526v3.342v1.561c0,1.325,1.073,2.397,2.396,2.397s2.396-1.072,2.396-2.397v-1.444l-0.008-3.452
					v-6.529l4.615,4.614l2.364,2.364l1.104,1.103c0.935,0.938,2.452,0.938,3.389,0c0.936-0.936,0.936-2.452,0-3.389l-1.023-1.021
					l-2.445-2.436l-4.615-4.625l6.535,0.001l4.901-0.008c1.318,0,2.388-1.069,2.388-2.389c0-1.32-1.069-2.39-2.388-2.39h-4.916
					l-6.524,0.001l4.621-4.619l3.459-3.471c0.932-0.934,0.932-2.445,0-3.379s-2.445-0.933-3.378,0l-3.475,3.475L309.585,49.691z"/>
				
					<path fill="none" stroke="#9C9C9C" stroke-width="0.0112" stroke-linecap="round" stroke-linejoin="round" stroke-miterlimit="10" d="
					M306.193,53.072"/>
				<path fill="#4F4F4F" d="M317.583,62.478c0.935,0.935,0.935,2.449,0,3.383c-0.934,0.937-2.449,0.937-3.383,0l-4.224-4.224
					l-3.782-3.779h-11.296c-1.323,0-2.394-1.071-2.394-2.394c0-1.32,1.071-2.392,2.394-2.392h11.294l3.392-3.381l4.612-4.613
					c0.935-0.934,2.452-0.934,3.384,0c0.936,0.935,0.936,2.45,0,3.385l-4.61,4.609l6.524-0.001c1.32,0,2.392,1.072,2.392,2.393
					c0,1.322-1.071,2.394-2.392,2.394l-6.521-0.001L317.583,62.478z"/>
			</g>
		</g>
	</g>
	<path fill="#4F4F4F" d="M443.607,68.029c0.753,0.352,1.162,0.039,1.162,0.039c0.375-0.28,0.647-0.634,0.814-1.056
		c0.162-0.427,0.26-0.881,0.292-1.356c0.035-0.479,0.049-0.915,0.049-1.307V48.975c0-1.249,0.354-2.198,1.057-2.855
		c0.706-0.659,1.568-0.993,2.625-0.993c1.061,0,1.924,0.334,2.627,0.993c0.703,0.657,1.057,1.604,1.057,2.852v15.848
		c0,2.067-0.281,3.896-0.746,5.116c-0.523,1.371-1.306,2.412-2.241,3.2c-0.934,0.789-2.162,1.336-3.322,1.645
		c0,0-2.873,0.347-4.192,0.043c-1.317-0.303-2.184-0.503-2.952-0.927c-0.773-0.424-1.316-0.718-2.314-1.716
		c-0.839-0.839-0.933-1.942-0.933-2.738c0-0.797,0.472-1.644,0.762-1.944c0.292-0.302,0.719-0.641,0.884-0.718
		c0.168-0.075,0.478-0.268,1.109-0.268c0.63,0,1.097,0.148,1.452,0.295c0.356,0.147,1.423,0.616,1.423,0.616L443.607,68.029z"/>
</g>
<g>
	<g>
		<path fill="#FFFFFF" d="M578.01,160.269c0,7.604-6.167,13.77-13.771,13.77c-7.604,0-13.769-6.165-13.769-13.77
			c0-7.606,6.165-13.77,13.769-13.77C571.843,146.499,578.01,152.663,578.01,160.269"/>
		<path fill="#454545" d="M566.07,160.349c0,0,0.884-0.999,1.279-4.856c0.116-1.233,0.327-4.906-0.999-5.882
			c-0.264-0.155-0.558,0-0.838,0.535c-0.208,0.465-0.44,1.023-0.697,2.208c-0.255,1.068-1.673,6.206-1.673,6.206
			S565.072,159.164,566.07,160.349"/>
		<path fill="#454545" d="M561.757,163.238c0,0,2.09,0.108,2.339-0.604c0.017-0.093,0.171-0.418-0.574-0.774
			c-0.278-0.125-0.559-0.257-1.176-0.388C562.174,162.077,561.757,163.238,561.757,163.238"/>
		<path fill="#454545" d="M559.215,161.379c0,0-0.617,0.081-0.759,0.464c-0.051,0.099,0.017,0.45,0.387,0.635
			C559.123,161.642,559.215,161.379,559.215,161.379"/>
		<path fill="#454545" d="M555.757,171.1c-3.23-2.52-5.315-6.448-5.315-10.863c0-7.605,6.164-13.771,13.771-13.771
			c0.252,0,0.504,0.008,0.754,0.021c-0.042,0.009-0.116,0.048-0.15,0.057c-0.302,0.117-1.788,0.768-2.347,3.092
			c-0.115,0.418-2.347,8.576-2.347,8.576s-4.37,0-4.974,3.254c-0.061,0.557-0.047,2.301,2.812,3.927
			C557.752,166.02,555.757,171.1,555.757,171.1"/>
		<path fill="#454545" d="M568.347,147.09c5.597,1.748,9.635,6.972,9.635,13.145c0,4.455-2.115,8.414-5.395,10.931L568,163.394
			c0,0,2.208-2.44,2.464-7.623C570.511,154.398,570.951,149.274,568.347,147.09"/>
		<path fill="#454545" d="M569.993,172.741c-1.756,0.811-3.72,1.264-5.781,1.264c-2.06,0-4.015-0.453-5.77-1.263
			c1.348-3.58,2.354-6.537,2.354-6.537s2.859,0.303,4.881-0.929C566.466,166.623,569.993,172.741,569.993,172.741"/>
		<path fill="#454545" d="M566.07,160.349c0,0,0.884-0.999,1.279-4.856c0.116-1.233,0.327-4.906-0.999-5.882
			c-0.264-0.155-0.558,0-0.838,0.535c-0.208,0.465-0.44,1.023-0.697,2.208c-0.255,1.068-1.673,6.206-1.673,6.206
			S565.072,159.164,566.07,160.349"/>
		<path fill="#454545" d="M561.757,163.238c0,0,2.09,0.108,2.339-0.604c0.017-0.093,0.171-0.418-0.574-0.774
			c-0.278-0.125-0.559-0.257-1.176-0.388C562.174,162.077,561.757,163.238,561.757,163.238"/>
		<path fill="#454545" d="M559.215,161.379c0,0-0.617,0.081-0.759,0.464c-0.051,0.099,0.017,0.45,0.387,0.635
			C559.123,161.642,559.215,161.379,559.215,161.379"/>
		<path fill="#454545" d="M555.757,171.1c-3.23-2.52-5.315-6.448-5.315-10.863c0-7.605,6.164-13.771,13.771-13.771
			c0.252,0,0.504,0.008,0.754,0.021c-0.042,0.009-0.116,0.048-0.15,0.057c-0.302,0.117-1.788,0.768-2.347,3.092
			c-0.115,0.418-2.347,8.576-2.347,8.576s-4.37,0-4.974,3.254c-0.061,0.557-0.047,2.301,2.812,3.927
			C557.752,166.02,555.757,171.1,555.757,171.1"/>
		<path fill="#454545" d="M568.347,147.09c5.597,1.748,9.635,6.972,9.635,13.145c0,4.455-2.115,8.414-5.395,10.931L568,163.394
			c0,0,2.208-2.44,2.464-7.623C570.511,154.398,570.951,149.274,568.347,147.09"/>
		<path fill="#454545" d="M569.993,172.741c-1.756,0.811-3.72,1.264-5.781,1.264c-2.06,0-4.015-0.453-5.77-1.263
			c1.348-3.58,2.354-6.537,2.354-6.537s2.859,0.303,4.881-0.929C566.466,166.623,569.993,172.741,569.993,172.741"/>
		<path fill="#4F4F4F" d="M586.856,169.28v-15.902c-0.015-0.566-0.015-1.192,0.002-1.88c0.017-0.687,0.137-1.321,0.36-1.903
			c0.222-0.583,0.637-1,1.242-1.249v-0.109h-6.965v0.109c0.605,0.249,1.023,0.663,1.252,1.24s0.355,1.209,0.377,1.897
			c0.022,0.687,0.027,1.319,0.012,1.896v13.75c0.016,0.567,0.011,1.193-0.012,1.881c-0.021,0.687-0.148,1.32-0.377,1.899
			c-0.229,0.578-0.646,0.987-1.252,1.226v0.11h14.995l1.896-4.86h-0.108c-0.912,0.774-1.906,1.354-2.984,1.742
			c-1.077,0.39-2.235,0.551-3.476,0.483L586.856,169.28z"/>
		<path fill="#4F4F4F" d="M615.145,160.537h-7.189l3.613-9.197L615.145,160.537z M616.203,163.233l1.972,5.147
			c0.521,1.224,0.782,2.07,0.784,2.536c0.002,0.468-0.431,0.874-1.296,1.222v0.11h7.482v-0.11c-1.006-0.548-1.758-1.283-2.255-2.207
			c-0.494-0.922-0.936-1.915-1.321-2.975l-7.593-18.719h-5.767v0.109c0.821,0.299,1.194,0.769,1.123,1.41
			c-0.073,0.64-0.266,1.303-0.575,1.985l-6.095,15.213c-0.367,1.061-0.793,2.053-1.276,2.976c-0.485,0.923-1.241,1.659-2.264,2.207
			v0.11h6.716v-0.11c-0.846-0.315-1.281-0.769-1.31-1.359s0.165-1.39,0.58-2.399l1.896-5.146L616.203,163.233L616.203,163.233z"/>
		<path fill="#4F4F4F" d="M631.005,153.38l12.522,15.877c0.762,1.028,1.527,1.872,2.293,2.532c0.769,0.659,1.778,1.203,3.031,1.629
			v-20.476c-0.039-1.017,0.04-1.902,0.236-2.654c0.198-0.754,0.752-1.402,1.661-1.945v-0.109h-6.42v0.109
			c0.926,0.542,1.484,1.191,1.675,1.944c0.193,0.752,0.267,1.637,0.226,2.654v13.833l-13.362-16.861l-0.513-0.73
			c-0.125-0.139-0.23-0.272-0.313-0.402c-0.085-0.129-0.162-0.3-0.233-0.512v-0.035h-5.324v0.109
			c0.911,0.542,1.463,1.191,1.661,1.944c0.197,0.752,0.277,1.637,0.237,2.654v14.563c0.041,1.017-0.04,1.903-0.242,2.659
			c-0.202,0.758-0.766,1.416-1.693,1.976v0.11h6.457v-0.11c-0.926-0.56-1.484-1.218-1.675-1.976
			c-0.191-0.756-0.265-1.643-0.224-2.659V153.38L631.005,153.38z"/>
		<path fill="#4F4F4F" d="M658.438,160.532h2.7c0.594-0.024,1.202,0.015,1.83,0.113c0.625,0.1,1.099,0.403,1.417,0.909h0.108v-3.865
			h-0.108c-0.222,0.104-0.47,0.169-0.748,0.192c-0.275,0.023-0.563,0.032-0.857,0.028h-4.342v-6.793
			c0.585-0.107,1.19-0.177,1.817-0.21c0.628-0.033,1.263-0.049,1.903-0.046c0.844-0.021,1.63,0.058,2.36,0.237
			c0.728,0.18,1.376,0.587,1.946,1.224h0.108v-4.267h-0.108c-0.238,0.118-0.509,0.182-0.802,0.187
			c-0.294,0.006-0.601,0.005-0.913-0.004h-11.676v0.108c0.607,0.25,1.026,0.663,1.253,1.24c0.23,0.577,0.355,1.209,0.379,1.896
			c0.021,0.687,0.024,1.318,0.012,1.897v13.762c0.013,0.567,0.01,1.192-0.012,1.879c-0.023,0.687-0.148,1.318-0.379,1.896
			c-0.227,0.576-0.646,0.984-1.253,1.221v0.11h15.216l1.643-4.776h-0.109c-0.931,0.805-1.982,1.394-3.158,1.761
			c-1.174,0.368-2.373,0.499-3.595,0.393l-4.635-0.439v-8.653H658.438z"/>
		<path fill="#4F4F4F" d="M671.982,148.235v0.109c0.607,0.249,1.023,0.662,1.245,1.24s0.342,1.211,0.358,1.898
			s0.019,1.32,0.003,1.896v13.761c0.016,0.567,0.016,1.193-0.003,1.88c-0.016,0.687-0.137,1.318-0.358,1.895
			c-0.224,0.578-0.638,0.986-1.245,1.225v0.11h6.968v-0.11c-0.607-0.237-1.024-0.642-1.253-1.214
			c-0.23-0.573-0.355-1.202-0.379-1.889c-0.021-0.687-0.024-1.318-0.012-1.896v-16.354c0.418-0.073,0.833-0.135,1.241-0.187
			c0.41-0.051,0.824-0.086,1.243-0.105c1.264-0.043,2.356,0.29,3.272,1c0.914,0.709,1.395,1.726,1.438,3.052
			c-0.024,1.137-0.355,2.063-0.989,2.781c-0.635,0.716-1.433,1.267-2.392,1.653c-0.961,0.384-1.939,0.646-2.938,0.785l3.359,5.146
			l4.454,5.511c0.533,0.667,1.134,1.14,1.8,1.418c0.667,0.28,1.478,0.415,2.43,0.406h3.357c-1.059-0.67-2.113-1.448-3.16-2.334
			c-1.048-0.889-1.962-1.813-2.751-2.774l-5.251-6.606c1.55-0.37,2.89-1.126,4.021-2.268c1.13-1.142,1.722-2.525,1.776-4.155
			c-0.01-1.699-0.655-3.092-1.942-4.182c-1.286-1.09-3.154-1.654-5.608-1.69L671.982,148.235z"/>
		<path fill="#4F4F4F" d="M704.572,150.24c1.93,0.03,3.576,0.541,4.938,1.532c1.365,0.989,2.407,2.277,3.131,3.859
			c0.725,1.583,1.088,3.279,1.095,5.085c-0.033,2.775-0.854,5.037-2.466,6.786c-1.609,1.749-3.817,2.651-6.625,2.707
			c-1.92-0.035-3.576-0.552-4.969-1.553c-1.396-1-2.471-2.287-3.226-3.856c-0.76-1.57-1.142-3.223-1.151-4.96
			c0.033-2.812,0.871-5.101,2.514-6.866C699.46,151.206,701.712,150.294,704.572,150.24 M704.829,147.616
			c-2.584-0.031-4.9,0.514-6.956,1.633c-2.055,1.119-3.683,2.633-4.885,4.543c-1.201,1.91-1.818,4.035-1.844,6.378
			c0.03,2.511,0.646,4.715,1.847,6.608s2.803,3.372,4.808,4.433c2.003,1.062,4.225,1.603,6.665,1.62
			c2.452-0.019,4.688-0.578,6.709-1.675c2.021-1.097,3.638-2.606,4.852-4.529c1.215-1.924,1.837-4.138,1.867-6.641
			c-0.019-2.222-0.579-4.267-1.682-6.135c-1.104-1.868-2.632-3.371-4.589-4.504C709.668,148.212,707.402,147.636,704.829,147.616"/>
		<path fill="#4F4F4F" d="M734.409,148.454c-0.879-0.272-1.774-0.475-2.69-0.605c-0.916-0.131-1.831-0.196-2.749-0.196
			c-1.515-0.006-2.966,0.202-4.352,0.624c-1.388,0.423-2.528,1.101-3.421,2.034c-0.893,0.934-1.354,2.164-1.385,3.689
			c0.033,1.527,0.469,2.765,1.307,3.716c0.837,0.95,1.874,1.735,3.113,2.356c1.238,0.62,2.478,1.2,3.715,1.739
			c1.239,0.539,2.277,1.161,3.114,1.866c0.839,0.705,1.272,1.616,1.306,2.734c-0.026,0.853-0.323,1.559-0.891,2.12
			c-0.568,0.563-1.252,0.983-2.051,1.261c-0.801,0.278-1.56,0.417-2.279,0.416c-1.444-0.009-2.863-0.282-4.256-0.816
			c-1.395-0.536-2.64-1.273-3.735-2.213l1.06,4.559c1.041,0.381,2.111,0.659,3.207,0.834c1.098,0.174,2.205,0.261,3.323,0.259
			c1.913-0.02,3.603-0.385,5.067-1.09c1.463-0.705,2.611-1.628,3.442-2.767c0.831-1.14,1.255-2.372,1.27-3.695
			c-0.035-1.334-0.471-2.443-1.306-3.327c-0.838-0.883-1.875-1.638-3.114-2.261c-1.238-0.623-2.478-1.212-3.717-1.765
			c-1.237-0.553-2.276-1.167-3.112-1.84c-0.837-0.673-1.272-1.503-1.308-2.488c0.02-0.833,0.273-1.493,0.759-1.98
			c0.487-0.486,1.089-0.833,1.807-1.04c0.719-0.208,1.433-0.308,2.146-0.303c1.044,0.006,2.075,0.207,3.098,0.603
			s1.899,0.963,2.632,1.698V148.454L734.409,148.454z"/>
		<path fill="#4F4F4F" d="M753.426,148.454c-0.877-0.272-1.774-0.475-2.69-0.605c-0.915-0.131-1.831-0.196-2.747-0.196
			c-1.516-0.006-2.967,0.202-4.354,0.624c-1.389,0.423-2.527,1.101-3.42,2.034c-0.891,0.934-1.353,2.164-1.383,3.689
			c0.032,1.527,0.467,2.765,1.305,3.716c0.835,0.95,1.873,1.735,3.114,2.356c1.237,0.62,2.477,1.2,3.716,1.739
			c1.238,0.539,2.275,1.161,3.112,1.866c0.838,0.705,1.273,1.616,1.305,2.734c-0.025,0.853-0.32,1.559-0.889,2.12
			c-0.569,0.563-1.253,0.983-2.054,1.261c-0.799,0.278-1.558,0.417-2.278,0.416c-1.444-0.009-2.862-0.282-4.257-0.816
			c-1.393-0.536-2.637-1.273-3.733-2.213l1.058,4.559c1.043,0.381,2.112,0.659,3.21,0.834c1.098,0.174,2.203,0.261,3.32,0.259
			c1.913-0.02,3.604-0.385,5.067-1.09c1.465-0.705,2.612-1.628,3.443-2.767c0.832-1.14,1.254-2.372,1.271-3.695
			c-0.035-1.334-0.471-2.443-1.308-3.327c-0.837-0.883-1.875-1.638-3.112-2.261c-1.239-0.623-2.479-1.212-3.717-1.765
			c-1.237-0.553-2.276-1.167-3.113-1.84c-0.838-0.673-1.271-1.503-1.307-2.488c0.021-0.833,0.271-1.493,0.761-1.98
			c0.485-0.486,1.086-0.833,1.805-1.04c0.716-0.208,1.432-0.308,2.146-0.303c1.045,0.006,2.078,0.207,3.099,0.603
			c1.022,0.396,1.898,0.963,2.631,1.698L753.426,148.454L753.426,148.454z"/>
		<path fill="#4F4F4F" d="M759.779,167.14c0.016,0.567,0.012,1.193-0.01,1.88c-0.02,0.687-0.144,1.318-0.367,1.895
			c-0.224,0.578-0.634,0.986-1.228,1.225v0.11h6.931v-0.11c-0.596-0.25-1.003-0.663-1.229-1.239
			c-0.222-0.577-0.345-1.207-0.365-1.888c-0.021-0.682-0.024-1.307-0.014-1.873v-13.76c-0.011-0.566-0.01-1.194,0.014-1.881
			c0.021-0.688,0.144-1.323,0.365-1.906c0.227-0.583,0.634-0.999,1.229-1.249v-0.109h-6.931v0.109
			c0.604,0.249,1.02,0.663,1.243,1.241c0.223,0.577,0.343,1.21,0.358,1.897c0.019,0.688,0.019,1.32,0.003,1.897V167.14
			L759.779,167.14z"/>
		<path fill="#5A5A5A" d="M769.699,148.401h1.221c0.202,0,0.367,0.03,0.499,0.088c0.247,0.112,0.372,0.32,0.372,0.623
			c0,0.158-0.033,0.286-0.099,0.387c-0.065,0.101-0.155,0.181-0.271,0.242c0.102,0.042,0.178,0.097,0.231,0.166
			c0.05,0.068,0.08,0.179,0.085,0.333l0.014,0.354c0.003,0.101,0.012,0.176,0.024,0.225c0.022,0.083,0.061,0.138,0.115,0.162v0.059
			h-0.438c-0.012-0.022-0.023-0.053-0.028-0.088c-0.009-0.036-0.014-0.106-0.019-0.209l-0.02-0.441
			c-0.011-0.172-0.075-0.288-0.193-0.347c-0.068-0.033-0.176-0.048-0.322-0.048h-0.813v1.134h-0.358V148.401L769.699,148.401z
			 M770.885,149.608c0.167,0,0.301-0.033,0.397-0.099c0.099-0.068,0.146-0.188,0.146-0.363c0-0.187-0.066-0.314-0.203-0.382
			c-0.073-0.036-0.172-0.053-0.296-0.053h-0.872v0.896H770.885z"/>
		<circle fill="none" stroke="#5A5A5A" stroke-width="0.1596" stroke-miterlimit="57" cx="770.713" cy="149.71" r="2.099"/>
		<path fill="#5A5A5A" d="M735.853,180.979l2.205-3.359c0,0,0.417-0.918-0.686-1.078c-0.209,0-0.572,0.056-0.931,0.12
			c-0.406,0.092-3.503,0.837-4.826,1.361c-0.248,0.101-0.754,0.377-0.599,1.057c0.12,0.293,0.405,0.809,0.405,0.809l0.33-0.211
			l-0.055-0.156c0,0-0.092-0.294,0.222-0.386c0.349-0.093,2.664-0.663,3.703-0.735c0.128,0.009,0.276,0.018,0.155,0.183
			c-0.146,0.229-2.188,3.355-2.452,3.935c-0.066,0.127-0.186,0.817,0.551,0.661c0.7-0.257,3.641-1.599,3.641-1.599
			s0.099-0.018,0.063,0.101c-0.038,0.119-0.772,1.451-0.772,1.451s-0.193,0.625,0.478,0.479c0.625-0.294,3.715-1.811,3.715-1.811
			s0.153-0.046,0.128,0.101c-0.055,0.156-0.572,1.259-0.572,1.259s-0.137,0.578,0.479,0.523c0.286-0.036,0.699-0.127,1.151-0.395
			c0.448-0.285,0.973-0.634,0.973-0.634l-0.277-0.413l-0.459,0.277c0,0-0.103,0.073-0.073-0.129c0.08-0.189,0.836-1.845,0.836-1.845
			s0.222-0.753-0.5-0.649c-0.217,0.081-3.182,1.625-3.182,1.625s-0.166,0.055-0.116-0.093c0.128-0.263,0.607-1.25,0.607-1.25
			s0.213-0.612-0.324-0.729c-0.217-0.037-0.424-0.006-0.657,0.111c-0.257,0.121-3.07,1.483-3.07,1.483
			S735.867,181.062,735.853,180.979"/>
		<path fill="#5A5A5A" d="M746.744,180.967c0,0,0.015,0.074,0.052,0.074c0.22,0.097,0.323,0.33,0.349,0.496
			c0.025,0.165-0.014,0.576-0.014,0.619c0,0.043,0.044,0.122,0.124,0.038c0.08-0.086,0.445-0.889,0.458-0.926
			c0.016-0.036,0.044-0.103,0.021-0.146c-0.247-0.32-0.238-0.717-0.238-0.822c-0.009-1.042,0.5-1.471,0.653-1.643
			s0.386-0.27,0.521-0.27c0.245,0,0.32,0.37,0.264,0.687c-0.043,0.293-0.209,0.82-0.209,0.82s-0.048,0.123-0.133,0.313
			c-0.025,0.165,0.275,0.16,0.275,0.16s0.839,0.018,1.049,0.024c0.466,0.086,0.255,0.582,0.255,0.582s-0.264,0.711-0.342,0.938
			c-0.03,0.196,0.165,0.11,0.209,0.042c0.521-0.441,1.041-1.212,1.15-1.391c0.112-0.177,0.186-0.38,0.209-0.52
			c0.05-0.251,0.172-0.656,0.398-1.011c0.288-0.435,0.784-0.527,0.951-0.509c0.325,0.116,0.151,0.52,0.095,0.68
			c-0.056,0.16-0.275,0.545-0.391,0.748c-0.087,0.184,0.067,0.287,0.067,0.287s0.57,0.307,0.754,0.43
			c0.206,0.191,0.031,0.455,0.031,0.455s-0.146,0.275-0.215,0.403c-0.068,0.129,0.018,0.184,0.018,0.184l0.239,0.105l-0.282,0.606
			c0,0-0.158-0.038-0.252-0.08c-0.092-0.018-0.145,0.086-0.158,0.123c-0.014,0.037,0.005,0.098,0.099,0.117
			c0.09,0.017,0.623,0.226,0.623,0.226s0.901-0.643,0.981-0.723s0.128-0.129,0.165-0.252c0.337-0.845,0.844-1.146,1.042-1.287
			c0.478-0.343,1.066-0.276,1.227-0.22c0.509,0.183,0.262,0.71,0.207,0.839c-0.092,0.092-0.067,0.177-0.047,0.251
			c0.151,0.422-0.131,1.004-0.211,1.151c-0.71,0.975-1.268,0.914-1.445,0.926c-0.629-0.013-0.864-0.563-0.895-0.62
			c-0.03-0.055-0.11-0.03-0.11-0.03s-0.6,0.464-0.717,0.594c-0.078,0.459-0.396,1.334-0.704,2.034
			c-0.349,0.789-0.947,1.211-1.162,1.337c-0.204,0.115-0.417,0.16-0.565,0.103c-0.411-0.19-0.244-1.073,0.018-1.605
			c0.209-0.54,1.151-1.618,1.231-1.703c0.057-0.068,0.073-0.172,0.019-0.228c-0.117-0.085-0.252-0.03-0.252-0.03
			s-0.367,0.11-0.445,0.153c-0.08,0.042-0.394,0.05-0.553-0.055c-0.295-0.27-0.135-0.594-0.135-0.594s0.351-0.595,0.374-0.645
			c0.024-0.049,0.012-0.11,0.012-0.11l-0.244-0.141l0.324-0.619c0,0,0.184,0.042,0.217,0.079c0.048,0.06,0.12,0.012,0.12,0.012
			s0.215-0.38,0.252-0.508c0.031-0.129-0.074-0.245-0.159-0.294c-0.085-0.048-0.16-0.023-0.16-0.023s-0.905,1.249-1.077,1.463
			s-1.011,0.968-1.244,1.134c-0.232,0.165-0.381,0.245-0.509,0.3c-0.129,0.055-0.301,0.05-0.44-0.006
			c-0.344-0.208-0.146-0.595-0.094-0.717c0.056-0.123,0.456-1.024,0.504-1.262c0.042-0.113-0.062-0.098-0.062-0.098
			s-0.393-0.03-0.473-0.03s-0.153,0.116-0.153,0.116s-0.043,0.118-0.305,0.723c-0.262,0.606-0.741,1.134-1.024,1.349
			c-0.287,0.214-0.514,0.018-0.514,0.018s-0.339-0.453-0.349-0.495c-0.015-0.043-0.063-0.055-0.113-0.025
			c-0.061,0.093-0.41,0.288-0.686,0.343c-0.942,0.196-1.323-0.313-1.371-0.398c-0.398-0.804,0.44-1.772,0.516-1.857
			c0.715-0.882,1.685-0.956,1.886-0.956C746.992,180.258,746.744,180.967,746.744,180.967 M745.964,181.658
			c0,0,0.041-0.167-0.059-0.194c-0.153-0.041-0.479,0.058-0.801,0.299c-0.318,0.242-0.634,0.588-0.382,0.889
			c0.073,0.062,0.247,0.13,0.472,0.02c0.179-0.105,0.445-0.354,0.652-0.725C745.93,181.79,745.94,181.716,745.964,181.658
			 M756.265,182.003c0,0,0.157-0.35,0.084-0.433c-0.045-0.038-0.065-0.056-0.341,0.064c-0.276,0.12-0.83,0.294-0.945,0.938
			c0,0.155,0.146,0.229,0.294,0.229c0.146,0,0.432-0.101,0.615-0.321C756.16,182.251,756.265,182.003,756.265,182.003"/>
	</g>
	<polygon fill="#5A5A5A" points="759.768,179.135 760.477,177.526 759.482,176.911 758.813,178.491 755.513,176.185 754.74,177.333 
		758.287,179.595 757.314,182.141 758.113,182.627 759.298,180.183 759.768,180.513 758.408,183.602 759.308,184.098 
		760.797,181.14 761.284,181.451 761.723,180.596 761.239,180.21 761.845,179.006 760.742,178.308 760.218,179.494 	"/>
	<g>
		<path fill="#5A5A5A" d="M763.886,180.78c0.046,0.092,0.099,0.073,0.099,0.073s1.225-0.073,1.767-0.093
			c0,0.112-0.037,0.469-0.139,0.764c-0.127,0.349-0.385,0.349-0.385,0.349s-0.883,0.138-0.986,0.138
			c-0.099,0-0.265,0.084-0.33,0.231c-0.193,0.468-0.604,0.892-0.836,1.065c-0.735,0.571-1.314,0.176-1.433,0.074
			c-0.617-0.532-0.405-1.332,0.249-2.252c0.955-1.184,1.689-1.167,1.901-1.149C764.428,180.137,763.886,180.78,763.886,180.78
			 M763.591,181.019c0,0-0.309-0.158-0.79,0.295c-0.351,0.35-0.771,0.993-0.506,1.212c0.11,0.056,0.352,0.018,0.625-0.202
			c0.23-0.22,0.616-0.762,0.708-1C763.691,181.184,763.674,181.038,763.591,181.019"/>
		<path fill="#5A5A5A" d="M709.918,180.517c-0.1-0.167-0.224-0.295-0.375-0.384c-0.152-0.09-0.318-0.133-0.506-0.133
			c-0.34,0-0.622,0.125-0.846,0.377c-0.223,0.251-0.335,0.569-0.335,0.953c0,0.316,0.092,0.567,0.277,0.754
			c0.183,0.188,0.429,0.28,0.735,0.28c0.21,0,0.396-0.058,0.554-0.174c0.158-0.115,0.271-0.278,0.345-0.486h-0.812l0.076-0.6h1.553
			c-0.034,0.6-0.208,1.062-0.514,1.39c-0.307,0.328-0.722,0.492-1.242,0.492c-0.519,0-0.931-0.15-1.237-0.448
			c-0.308-0.299-0.463-0.698-0.463-1.2c0-0.246,0.044-0.487,0.132-0.723c0.087-0.236,0.214-0.446,0.374-0.631
			c0.167-0.191,0.37-0.337,0.612-0.438c0.24-0.101,0.507-0.151,0.801-0.151c0.331,0,0.617,0.061,0.854,0.181
			c0.235,0.119,0.427,0.3,0.574,0.542L709.918,180.517z"/>
		<path fill="#5A5A5A" d="M712.469,182.896h-0.719l0.45-3.423h0.714c0.299,0,0.512,0.017,0.644,0.047
			c0.132,0.032,0.247,0.084,0.347,0.159c0.112,0.081,0.195,0.181,0.254,0.298c0.057,0.118,0.087,0.249,0.087,0.393
			c0,0.263-0.075,0.479-0.222,0.649c-0.147,0.172-0.36,0.287-0.634,0.348l0.775,1.53h-0.786l-0.703-1.57L712.469,182.896z
			 M712.722,180.953h0.105c0.271,0,0.455-0.037,0.554-0.111c0.095-0.073,0.144-0.2,0.144-0.382c0-0.153-0.04-0.262-0.122-0.324
			c-0.081-0.062-0.241-0.094-0.48-0.094h-0.08L712.722,180.953z"/>
		<path fill="#5A5A5A" d="M716.498,179.473l-0.258,1.934c-0.007,0.05-0.012,0.103-0.016,0.16c-0.003,0.058-0.005,0.122-0.005,0.19
			c0,0.21,0.054,0.37,0.155,0.478c0.105,0.107,0.255,0.162,0.453,0.162c0.141,0,0.263-0.028,0.371-0.085
			c0.104-0.057,0.191-0.143,0.262-0.254c0.088-0.143,0.158-0.422,0.213-0.837c0.004-0.023,0.006-0.04,0.009-0.049l0.227-1.7h0.709
			l-0.252,1.924c-0.041,0.317-0.09,0.55-0.145,0.704c-0.052,0.152-0.125,0.286-0.221,0.403c-0.135,0.166-0.304,0.29-0.502,0.37
			c-0.2,0.079-0.438,0.119-0.719,0.119c-0.432,0-0.752-0.098-0.964-0.292c-0.214-0.196-0.318-0.49-0.318-0.883
			c0-0.055,0.006-0.15,0.021-0.283c0.01-0.136,0.029-0.3,0.055-0.497l0.207-1.564L716.498,179.473L716.498,179.473z"/>
		<path fill="#5A5A5A" d="M720.437,182.896h-0.719l0.45-3.423h0.662c0.32,0,0.549,0.018,0.684,0.051
			c0.134,0.035,0.252,0.092,0.354,0.173c0.112,0.088,0.199,0.196,0.258,0.326c0.057,0.13,0.086,0.275,0.086,0.436
			c0,0.188-0.033,0.359-0.102,0.51c-0.066,0.151-0.168,0.278-0.302,0.379c-0.108,0.085-0.237,0.146-0.386,0.186
			c-0.148,0.036-0.365,0.055-0.651,0.055h-0.164L720.437,182.896z M720.686,181.006h0.109c0.272,0,0.455-0.04,0.554-0.119
			c0.096-0.077,0.144-0.21,0.144-0.4c0-0.159-0.04-0.271-0.12-0.334c-0.081-0.064-0.241-0.095-0.481-0.095h-0.08L720.686,181.006z"
			/>
		<path fill="#5A5A5A" d="M723.979,182.896h-0.721l0.45-3.423h0.662c0.322,0,0.551,0.018,0.684,0.051
			c0.136,0.035,0.252,0.092,0.354,0.173c0.113,0.088,0.198,0.196,0.257,0.326c0.058,0.13,0.086,0.275,0.086,0.436
			c0,0.188-0.033,0.359-0.102,0.51c-0.066,0.151-0.168,0.278-0.3,0.379c-0.11,0.085-0.238,0.146-0.387,0.186
			c-0.147,0.036-0.366,0.055-0.651,0.055h-0.163L723.979,182.896z M724.228,181.006h0.108c0.272,0,0.456-0.04,0.553-0.119
			c0.098-0.077,0.146-0.21,0.146-0.4c0-0.159-0.042-0.271-0.122-0.334c-0.081-0.064-0.241-0.095-0.481-0.095h-0.082L724.228,181.006
			z"/>
		<path fill="#5A5A5A" d="M728.557,182.987c-0.514,0-0.923-0.151-1.231-0.449c-0.309-0.3-0.464-0.697-0.464-1.195
			c0-0.243,0.044-0.479,0.132-0.71c0.087-0.23,0.21-0.437,0.372-0.62c0.181-0.201,0.396-0.355,0.643-0.461
			c0.248-0.106,0.519-0.16,0.809-0.16c0.512,0,0.923,0.146,1.231,0.441c0.309,0.297,0.462,0.688,0.462,1.175
			c0,0.255-0.039,0.494-0.117,0.717c-0.078,0.224-0.193,0.421-0.344,0.595c-0.187,0.218-0.41,0.384-0.663,0.497
			C729.132,182.93,728.856,182.987,728.557,182.987 M728.778,180.014c-0.341,0-0.622,0.125-0.846,0.373
			c-0.226,0.249-0.337,0.561-0.337,0.938c0,0.317,0.09,0.571,0.273,0.759c0.179,0.188,0.424,0.281,0.728,0.281
			c0.337,0,0.62-0.126,0.844-0.379c0.227-0.252,0.337-0.566,0.337-0.939c0-0.316-0.09-0.567-0.271-0.754
			C729.325,180.107,729.083,180.014,728.778,180.014"/>
	</g>
</g>
<g>
	<polygon fill="#4F4F4F" points="992.692,60.387 992.692,63.818 992.017,63.818 992.017,60.387 990.899,60.387 990.899,59.779 
		993.807,59.779 993.807,60.387 	"/>
	<polygon fill="#4F4F4F" points="997.731,61.358 997.353,62.118 996.788,63.24 996.293,63.24 995.741,62.183 995.324,61.358 
		995.299,61.358 995.299,63.818 994.632,63.818 994.632,59.779 995.262,59.779 996.032,61.313 996.528,62.356 996.563,62.356 
		997.057,61.303 997.806,59.779 998.422,59.779 998.422,63.818 997.753,63.818 997.753,61.358 	"/>
	<path fill="#4F4F4F" d="M794.898,55.836h5.544c1.494,0,6.376,0.44,6.376,6.131v8.477c0,4.519-3.295,6.129-6.376,6.129h-5.544
		V55.836z M801.336,51.951H790.69v28.426h10.604c5.595,0,9.813-4.008,9.813-9.326v-9.734
		C811.107,55.804,807.09,51.951,801.336,51.951"/>
	<path fill="#4F4F4F" d="M836.808,74.776c-1.897,1.199-4.198,1.998-5.769,1.998h-0.101c-2.142,0-3.228-1.351-3.228-4.017v-5.275
		c0-2.78,1.029-4.021,3.331-4.021c1.481,0,3.836,0.967,5.766,2.355V74.776z M836.875,61.781c-2.456-1.523-4.368-2.205-6.158-2.205
		c-4.234,0-6.972,2.913-6.972,7.42v6.205c0,4.482,2.737,7.377,6.972,7.377c1.312,0,3.411-0.339,6.091-1.922v1.93
		c0,4.145-3.731,4.466-4.871,4.466c-1.429,0-3.706-0.718-4.908-1.884l-0.183-0.175l-2.462,2.928l0.173,0.154
		c1.934,1.716,4.637,2.697,7.418,2.697c4.375,0,8.799-2.55,8.799-7.419V59.78h-3.52L836.875,61.781z"/>
	<path fill="#4F4F4F" d="M880.576,71.412v3.437c-1.864,1.044-4.003,2.088-5.847,2.088c-2.062,0-3.29-0.998-3.29-2.678
		c0-1.917,1.328-2.847,4.061-2.847H880.576z M876.553,59.578c-3.08,0-5.622,0.797-7.768,2.443l-0.177,0.132l1.969,3.046l0.206-0.171
		c1.486-1.217,3.282-1.81,5.487-1.81c3.02,0,4.306,1.057,4.306,3.534v1.303h-5.644c-2.914,0-7.54,1.684-7.54,6.203
		c0,3.814,2.608,6.28,6.646,6.28c1.493,0,3.322-0.25,6.579-2.038l0.409,1.876h3.47V66.834
		C884.497,61.95,881.9,59.578,876.553,59.578"/>
	<path fill="#4F4F4F" d="M908.475,65.533l5.793,2.823v6.836c-1.422,1.037-3.096,1.544-5.115,1.544c-3.047,0-6.294-1.631-6.294-6.213
		v-8.718c0-4.582,3.419-6.215,6.616-6.215c2.091,0,4.426,0.779,5.812,1.935l0.205,0.174l2.128-3.33l-0.162-0.134
		c-2.113-1.702-4.795-2.568-7.982-2.568c-6.295,0-10.862,3.94-10.862,9.367v10.219c0,6.177,5.3,9.407,10.54,9.407
		c3.727,0,7.176-1.395,9.227-3.732l0.058-0.065V65.533H908.475z"/>
	<path fill="#4F4F4F" d="M940.441,76.859c-2.109,0-4.631-0.783-4.631-4.51v-4.54c0-3.329,2.497-4.51,4.631-4.51
		c2.118,0,4.589,1.181,4.589,4.51v4.54C945.03,75.679,942.56,76.859,940.441,76.859 M940.399,59.578
		c-5.031,0-8.553,3.134-8.553,7.619v5.842c0,4.511,3.422,7.54,8.514,7.54c5.061,0,8.595-3.101,8.595-7.54v-5.842
		C948.955,62.568,945.6,59.578,940.399,59.578"/>
	<path fill="#4F4F4F" d="M956.42,65.829c2.497-1.571,4.453-2.367,5.809-2.367c2.27,0,3.328,1.265,3.328,3.979v5.316
		c0,2.666-1.12,4.02-3.328,4.02c-1.535,0-4.167-0.924-5.809-2.036V65.829z M962.676,59.578c-1.245,0-2.865,0.266-6.256,2.146V51.95
		h-3.963v28.427h3.516l0.375-1.771c2.999,1.744,4.865,1.973,6.165,1.973c4.26,0,7.009-2.911,7.009-7.418v-6.164
		C969.521,62.211,967.088,59.578,962.676,59.578"/>
	<path fill="#4F4F4F" d="M981.257,63.259c2.763,0,4.345,1.643,4.345,4.509v0.53h-8.691v-0.653
		C976.91,64.409,979.252,63.259,981.257,63.259 M989.608,71.615v-4.214c0-4.655-3.358-7.781-8.352-7.781s-8.353,3.242-8.353,8.064
		v5.314c0,4.606,3.406,7.582,8.673,7.582c3.066,0,5.553-0.951,7.392-2.83l0.162-0.163l-2.51-2.739l-0.176,0.169
		c-1.761,1.67-3.753,1.919-4.783,1.919c-1.125,0-4.792-0.301-4.792-4.22v-1.102H989.608z"/>
	<rect x="815.451" y="59.779" fill="#4F4F4F" width="3.924" height="20.598"/>
	<path fill="#4F4F4F" d="M817.392,51.667c-1.228,0-2.267,1.039-2.267,2.272c0,1.228,1.061,2.305,2.267,2.305
		c1.252,0,2.308-1.057,2.308-2.305C819.699,52.706,818.644,51.667,817.392,51.667"/>
	<rect x="845.302" y="59.779" fill="#4F4F4F" width="3.922" height="20.598"/>
	<path fill="#4F4F4F" d="M847.241,51.667c-1.229,0-2.267,1.039-2.267,2.272c0,1.228,1.061,2.305,2.267,2.305
		c1.253,0,2.309-1.057,2.309-2.305C849.55,52.706,848.494,51.667,847.241,51.667"/>
	<path fill="#4F4F4F" d="M895.719,76.807l-0.246,0.01c-0.218,0.01-0.418,0.015-0.61,0.015c-1.643,0-2.225-0.311-2.225-2.048V51.953
		h-3.923v23.275c0,3.239,0.82,5.392,4.821,5.392c0.694,0,1.348-0.052,2.067-0.167l0.115-0.017V76.807z"/>
	<path fill="#4F4F4F" d="M929.722,76.807l-0.241,0.01c-0.215,0.01-0.417,0.015-0.61,0.015c-1.64,0-2.224-0.311-2.224-2.048V51.953
		h-3.924v23.275c0,3.239,0.818,5.392,4.823,5.392c0.693,0,1.349-0.052,2.064-0.167l0.111-0.017V76.807z"/>
	<path fill="#4F4F4F" d="M864.963,76.512c-0.983,0.135-1.908,0.256-2.671,0.256c-1.704,0-2.764-0.638-2.764-3.815v-9.574h5.435
		v-3.599h-5.435v-4.662h-2.904l-0.788,4.662h-2.87v3.599h2.755v10.628c0,4.601,1.822,6.565,6.099,6.565
		c0.493,0,1.813-0.078,3.144-0.379V76.512z"/>
	<path fill="#898989" d="M929.761,27.952c-2.272-1.88-5.388-2.153-8.766-1.184c5.802-2.779,11.606-2.898,15.38,0.284
		c1.408,1.18,2.4,2.711,3.027,4.494c1.141,3.254,0.926,7.525-0.4,11.53c-0.214,0.646-0.503,1.3-0.484,1.9
		c0.021,0.601,0.137,1.181,0.57,1.792c0.434,0.612,1.3,1.259,2.451,1.259c1.185,0,2.019-0.625,2.428-1.151
		c0.413-0.528,0.483-0.889,0.764-1.756c0.439-1.36,0.771-2.709,0.997-4.032c0.2-1.169,0.318-2.316,0.35-3.434
		c13.655,1.394,26.963,3.958,39.817,7.602l-0.904-0.908c-12.404-4.849-25.497-8.31-39.098-10.188
		c-0.252-1.794-0.751-3.469-1.511-4.964c-0.767-1.505-1.792-2.827-3.09-3.918c-7.277-6.127-20.373-2.68-30.015,7.604
		c-18.263,1.143-35.767,5.126-52.054,11.507l-0.894,0.891c6.871-1.949,18.687-5.026,35.405-7.118
		c21.239-2.586,37.53-1.5,38.637-1.494C932.794,33.397,932.18,29.952,929.761,27.952 M912.711,32.795
		c4.678-4.336,10.058-5.982,12.854-3.627c0.962,0.808,1.498,2.009,1.66,3.442c-1.676-0.05-3.359-0.083-5.056-0.083
		C918.997,32.528,915.844,32.623,912.711,32.795"/>
</g>
<g id="Total">
	<g id="Text">
		<path fill="#4F4F4F" d="M147.958,168.465h-4.271l-5.595-16.002h4.451l3.188,11.25l2.828-9.806c0.32-0.962,0.962-1.444,1.925-1.444
			h3.128L147.958,168.465z"/>
		<path fill="#4F4F4F" d="M154.695,147.771h2.167c0.561,0,1.042,0.201,1.443,0.602c0.401,0.401,0.602,0.882,0.602,1.444v1.263
			h-4.211V147.771z M154.695,152.463h2.167c0.561,0,1.042,0.201,1.443,0.601c0.401,0.402,0.602,0.883,0.602,1.444v13.957h-4.211
			V152.463z"/>
		<path fill="#4F4F4F" d="M158.727,163.171h4.09c0.04,0.803,0.34,1.405,0.903,1.805c0.602,0.401,1.404,0.601,2.406,0.601
			c0.722,0,1.343-0.14,1.865-0.421c0.481-0.28,0.722-0.662,0.722-1.143c0-0.722-0.842-1.264-2.527-1.624
			c-0.722-0.121-1.263-0.241-1.625-0.361c-2.126-0.521-3.549-1.144-4.271-1.865c-0.803-0.722-1.203-1.685-1.203-2.888
			c0-1.523,0.581-2.787,1.745-3.79c1.203-0.922,2.768-1.384,4.693-1.384c2.084,0,3.75,0.461,4.993,1.384
			c1.163,1.003,1.784,2.307,1.865,3.91h-2.587c-0.762,0-1.344-0.34-1.745-1.023c-0.16-0.16-0.321-0.32-0.481-0.48
			c-0.481-0.362-1.143-0.542-1.986-0.542c-0.802,0-1.404,0.12-1.805,0.361c-0.361,0.241-0.542,0.602-0.542,1.083
			c0,0.642,1.043,1.184,3.128,1.625c0.241,0.081,0.452,0.141,0.632,0.18c0.18,0.041,0.35,0.061,0.511,0.061
			c2.046,0.521,3.469,1.123,4.271,1.804c0.762,0.722,1.143,1.685,1.143,2.888c0,1.766-0.641,3.128-1.924,4.091
			c-1.204,0.882-3.008,1.323-5.415,1.323c-2.286,0-3.991-0.46-5.113-1.383c-1.164-0.922-1.744-2.266-1.744-4.031V163.171z"/>
		<path fill="#4F4F4F" d="M187.543,152.463v9.385c0,2.848-0.743,4.713-2.226,5.595c-1.484,0.882-3.108,1.323-4.873,1.323
			c-1.725-0.081-3.299-0.561-4.723-1.444c-1.424-0.881-2.136-2.708-2.136-5.474v-9.385h4.211v10.227c0,0.963,0.28,1.665,0.842,2.106
			c0.561,0.442,1.203,0.661,1.925,0.661c0.722,0,1.373-0.219,1.955-0.661c0.581-0.441,0.872-1.143,0.872-2.106v-8.182
			c0-0.561,0.19-1.042,0.572-1.444c0.38-0.4,0.872-0.601,1.474-0.601H187.543z"/>
		<path fill="#4F4F4F" d="M198.432,167.804c-0.842,0.442-1.735,0.711-2.677,0.812c-0.943,0.1-1.775,0.15-2.497,0.15
			c-1.444,0-2.707-0.391-3.79-1.173c-1.083-0.782-1.624-2.076-1.624-3.88c0-1.685,0.49-2.887,1.474-3.609
			c0.983-0.722,2.235-1.204,3.76-1.444c0.2,0,0.441-0.03,0.722-0.09c0.28-0.06,0.602-0.11,0.962-0.15
			c1.765-0.241,2.647-0.762,2.647-1.564c0-0.602-0.312-0.993-0.932-1.173c-0.622-0.181-1.194-0.271-1.715-0.271
			c-0.562,0-1.063,0.082-1.504,0.241c-0.442,0.161-0.762,0.461-0.963,0.903h-4.03c0.16-1.243,0.722-2.266,1.685-3.068
			c1.083-0.922,2.626-1.384,4.632-1.384c2.245,0,3.93,0.382,5.053,1.143c1.163,0.803,1.745,1.925,1.745,3.369v5.475
			c0,1.604-0.292,2.858-0.873,3.76C199.926,166.751,199.234,167.403,198.432,167.804z M197.47,160.404
			c-0.562,0.28-1.344,0.541-2.347,0.782l-1.383,0.301c-0.722,0.201-1.244,0.461-1.564,0.782c-0.282,0.442-0.421,0.883-0.421,1.323
			c0,0.602,0.181,1.083,0.541,1.444c0.362,0.321,0.882,0.481,1.564,0.481c1.123,0,2.005-0.321,2.647-0.963
			c0.641-0.641,0.963-1.523,0.963-2.647V160.404z"/>
		<path fill="#4F4F4F" d="M202.162,147.771h2.166c0.561,0,1.042,0.191,1.443,0.572c0.4,0.381,0.602,0.852,0.602,1.414v18.709h-4.211
			V147.771z"/>
		<path fill="#999999" d="M155.839,192.628h-4.211l-2.467-11.43l-2.466,11.43h-4.211l-4.392-16.003h4.09l2.527,11.069l2.286-11.069
			h4.271l2.166,11.069l2.226-9.625c0.241-0.962,0.882-1.444,1.925-1.444h2.647L155.839,192.628z"/>
		<path fill="#999999" d="M163.299,191.184c-0.842-0.721-1.444-1.693-1.805-2.917c-0.361-1.223-0.542-2.497-0.542-3.821
			c0-1.083,0.15-2.165,0.452-3.248c0.301-1.083,0.771-1.985,1.414-2.708c1.042-1.203,2.386-1.915,4.031-2.136
			c1.644-0.219,3.128-0.089,4.452,0.391c1.524,0.602,2.647,1.646,3.369,3.129c0.682,1.324,1.023,2.868,1.023,4.632
			c0,1.284-0.141,2.386-0.421,3.309c-0.281,0.923-0.642,1.705-1.083,2.346c-0.962,1.324-2.186,2.146-3.67,2.467
			c-1.323,0.361-2.657,0.391-4.001,0.09C165.172,192.417,164.101,191.906,163.299,191.184z M166.187,180.596
			c-0.842,0.923-1.224,2.297-1.143,4.121c0.081,1.825,0.421,3.099,1.023,3.82c0.24,0.322,0.662,0.592,1.263,0.812
			c0.602,0.221,1.212,0.24,1.834,0.06c0.622-0.18,1.173-0.631,1.655-1.354c0.481-0.721,0.742-1.885,0.782-3.489
			c0-1.444-0.232-2.527-0.692-3.249c-0.461-0.722-0.993-1.183-1.594-1.384c-0.601-0.2-1.203-0.21-1.805-0.031
			C166.908,180.084,166.467,180.316,166.187,180.596z"/>
		<path fill="#999999" d="M176.354,192.628v-7.761c0-1.564,0.23-2.876,0.691-3.94c0.461-1.062,1.093-1.915,1.895-2.557
			c0.762-0.602,1.655-1.042,2.678-1.324c1.022-0.28,2.076-0.421,3.158-0.421c0.08,0,0.181,0,0.301,0s0.22,0,0.301,0v4.271h-1.384
			c-1.164,0-2.026,0.281-2.587,0.842c-0.562,0.562-0.842,1.444-0.842,2.647v8.242H176.354z"/>
		<path fill="#999999" d="M190.01,176.625v5.896l5.113-5.896h5.054l-5.715,6.136l5.775,9.867h-5.053l-2.948-5.415
			c-0.602-1.083-1.124-1.543-1.564-1.383c-0.442,0.161-0.662,0.401-0.662,0.722v2.226v3.85h-4.211v-20.695h2.166
			c0.562,0,1.042,0.201,1.444,0.602c0.4,0.401,0.602,0.863,0.602,1.384V176.625z"/>
		<path fill="#999999" d="M205.049,196.479c0,0.561-0.201,1.042-0.601,1.443c-0.402,0.4-0.883,0.602-1.444,0.602h-2.046v-14.98
			c0-2.806,0.822-4.722,2.467-5.745c1.644-1.022,3.429-1.534,5.354-1.534c1.001,0,2.015,0.191,3.038,0.571
			c1.022,0.382,1.834,0.932,2.437,1.654c1.203,1.564,1.805,3.57,1.805,6.016c0,2.526-0.602,4.572-1.805,6.136
			c-1.204,1.525-2.748,2.287-4.632,2.287c-1.003,0-1.886-0.181-2.647-0.542c-0.803-0.4-1.443-1.022-1.925-1.865V196.479z
			 M211.908,184.688c0-1.565-0.3-2.768-0.902-3.61c-0.602-0.842-1.465-1.263-2.587-1.263c-1.083,0-1.925,0.421-2.527,1.263
			c-0.562,0.762-0.842,1.965-0.842,3.61c0,1.524,0.301,2.667,0.902,3.428c0.602,0.842,1.464,1.264,2.587,1.264
			c1.042,0,1.865-0.421,2.467-1.264C211.607,187.274,211.908,186.13,211.908,184.688z"/>
		<path fill="#999999" d="M216.962,171.933h2.166c0.561,0,1.042,0.191,1.444,0.572c0.4,0.381,0.601,0.852,0.601,1.414v18.71h-4.21
			V171.933z"/>
		<path fill="#999999" d="M232.122,191.966c-0.842,0.442-1.736,0.711-2.677,0.812c-0.943,0.1-1.775,0.15-2.497,0.15
			c-1.444,0-2.707-0.391-3.79-1.173c-1.083-0.783-1.625-2.076-1.625-3.881c0-1.684,0.491-2.887,1.474-3.609
			c0.982-0.722,2.235-1.203,3.76-1.443c0.201,0,0.441-0.03,0.721-0.09c0.281-0.061,0.602-0.111,0.963-0.151
			c1.764-0.24,2.646-0.762,2.646-1.564c0-0.602-0.311-0.993-0.932-1.173c-0.623-0.18-1.193-0.271-1.714-0.271
			c-0.563,0-1.063,0.081-1.504,0.241c-0.442,0.161-0.762,0.461-0.963,0.902h-4.03c0.159-1.243,0.722-2.265,1.684-3.068
			c1.083-0.922,2.626-1.384,4.632-1.384c2.246,0,3.93,0.381,5.054,1.143c1.162,0.802,1.744,1.925,1.744,3.369v5.475
			c0,1.604-0.292,2.858-0.872,3.76C233.615,190.913,232.923,191.566,232.122,191.966z M231.159,184.566
			c-0.562,0.281-1.344,0.541-2.346,0.782l-1.384,0.3c-0.722,0.201-1.243,0.462-1.564,0.783c-0.281,0.442-0.421,0.882-0.421,1.323
			c0,0.603,0.181,1.083,0.542,1.444c0.361,0.321,0.881,0.481,1.564,0.481c1.122,0,2.005-0.32,2.647-0.963
			c0.642-0.64,0.963-1.522,0.963-2.646V184.566z"/>
		<path fill="#999999" d="M246.801,187.694h3.008c-0.442,1.685-1.284,2.969-2.526,3.851c-1.244,0.923-2.808,1.384-4.692,1.384
			c-2.287,0-4.071-0.742-5.355-2.226c-1.284-1.444-1.924-3.508-1.924-6.196c0-2.567,0.621-4.572,1.864-6.016
			c1.284-1.483,3.068-2.226,5.354-2.226c2.407,0,4.271,0.722,5.595,2.166c0.722,0.883,1.243,1.905,1.564,3.068h-4.211
			c-0.201-0.4-0.401-0.701-0.601-0.902c-0.522-0.561-1.264-0.842-2.227-0.842c-0.883,0-1.604,0.281-2.165,0.842
			c-0.722,0.803-1.083,2.126-1.083,3.971c0,1.845,0.361,3.149,1.083,3.911c0.52,0.642,1.303,0.962,2.346,0.962
			c0.681,0,1.263-0.14,1.745-0.421c0.121-0.04,0.23-0.111,0.331-0.211c0.1-0.099,0.21-0.21,0.331-0.331
			c0.08-0.12,0.241-0.28,0.481-0.481C245.958,187.795,246.319,187.694,246.801,187.694z"/>
		<path fill="#999999" d="M261.6,187.694h3.008c-0.441,1.685-1.284,2.969-2.527,3.851c-1.244,0.923-2.808,1.384-4.692,1.384
			c-2.287,0-4.071-0.742-5.354-2.226c-1.284-1.444-1.925-3.508-1.925-6.196c0-2.567,0.621-4.572,1.865-6.016
			c1.283-1.483,3.068-2.226,5.354-2.226c2.406,0,4.271,0.722,5.595,2.166c1.283,1.484,1.925,3.549,1.925,6.196
			c0,0.161,0,0.301,0,0.421c0,0.12,0,0.201,0,0.241c0,0.201-0.021,0.341-0.06,0.421H254.38c0.04,1.244,0.34,2.166,0.903,2.768
			c0.521,0.642,1.302,0.962,2.346,0.962c0.682,0,1.264-0.14,1.745-0.421c0.121-0.04,0.23-0.111,0.331-0.211
			c0.099-0.099,0.21-0.21,0.331-0.331c0.039-0.12,0.19-0.28,0.451-0.481C260.747,187.795,261.119,187.694,261.6,187.694z
			 M254.38,183.002h6.137c-0.081-1.083-0.361-1.885-0.842-2.407c-0.521-0.561-1.263-0.842-2.226-0.842
			c-0.883,0-1.605,0.281-2.166,0.842C254.721,181.158,254.42,181.959,254.38,183.002z"/>
	</g>
	<g id="Icon">
		<path fill="#ACACAC" d="M124.683,192.766c-0.794,7.657-7.646,13.22-15.303,12.425l-43.275-4.489
			c-7.657-0.795-13.22-7.646-12.426-15.304l4.034-38.874c0.794-7.657,7.646-13.22,15.303-12.426l43.275,4.49
			c7.657,0.794,13.22,7.646,12.425,15.303L124.683,192.766z"/>
		<path fill="#4F4F4F" d="M129.748,184.771l-5.285-38.723c-1.041-7.627-8.068-12.967-15.695-11.926l-43.108,5.883
			c-7.627,1.041-12.967,8.068-11.926,15.696l5.284,38.724c1.041,7.627,8.068,12.967,15.696,11.925l43.107-5.883
			C125.449,199.425,130.788,192.397,129.748,184.771z"/>
		<g>
			<path fill="#FFFFFF" d="M79.139,188.326l0.047,0.075v0.08c0,0.063-0.306,0.183-0.918,0.357c-1.748,0.239-3.52,0.527-5.315,0.866
				c-0.061,0.09-0.138,0.271-0.23,0.541c-0.46,1.001-0.853,1.895-1.176,2.682c-0.05,0.058-0.315,0.681-0.794,1.866
				c-0.186,0.387-0.33,0.719-0.434,0.998c0,0.016-0.161,0.391-0.484,1.125l-0.616,1.43c-0.172,0.228-0.299,0.347-0.381,0.358
				c-0.069-0.027-0.103-0.052-0.103-0.076c0-0.339,0.315-1.225,0.945-2.657c0.649-1.537,1.391-3.335,2.225-5.396
				c0.12-0.209,0.221-0.448,0.306-0.715h-0.052c-1.898,0.357-3.015,0.553-3.349,0.588l-0.536,0.075
				c-0.016,0-0.023-0.007-0.023-0.023l-0.306,0.023c-0.474,0-0.765-0.195-0.871-0.587c0-0.527,0.427-0.979,1.279-1.354
				c0.159-0.05,0.303-0.076,0.433-0.076c0.051,0.064,0.076,0.124,0.076,0.179v0.076c0,0.172-0.119,0.284-0.358,0.334
				c-0.566,0.341-0.855,0.614-0.866,0.818v0.023c0,0.053,0.119,0.08,0.357,0.08c0.517,0,1.931-0.24,4.244-0.719l3.245-0.537v0.028
				C76.53,188.599,77.748,188.445,79.139,188.326z"/>
			<path fill="#FFFFFF" d="M72.453,194.252h0.028c0.111,0.062,0.167,0.101,0.167,0.12v0.119c-0.12,0.392-0.264,0.755-0.433,1.089
				h0.047c0-0.038,0.137-0.151,0.41-0.338c0.368-0.257,0.666-0.385,0.894-0.385c0.313,0,0.491,0.112,0.533,0.337
				c0,0.225-0.137,0.596-0.409,1.113l-0.219,0.528h0.072c0.424-0.254,0.98-0.632,1.669-1.133l0.143-0.027h0.099
				c0.048,0,0.071,0.073,0.071,0.218c-0.228,0.348-0.695,0.742-1.402,1.184c-0.262,0.146-0.471,0.219-0.628,0.219
				c-0.402,0-0.604-0.137-0.604-0.41c0.167-0.468,0.368-0.944,0.604-1.425c0.016-0.053,0.024-0.11,0.024-0.172
				c-0.591,0.255-1.162,0.753-1.716,1.498c-0.074,0.162-0.171,0.243-0.291,0.243c-0.241-0.017-0.361-0.063-0.361-0.144v-0.123
				c0.016-0.077,0.152-0.383,0.409-0.918c0.066-0.22,0.285-0.719,0.656-1.498C72.281,194.285,72.36,194.252,72.453,194.252z"/>
			<path fill="#FFFFFF" d="M82.628,188.326h0.048c0.016,0,0.024,0.008,0.024,0.024l0.051-0.024h0.024c0.919,0,1.688,0.47,2.308,1.41
				c0.146,0.328,0.219,0.597,0.219,0.802c0,0.8-0.631,1.659-1.895,2.575c-0.103,0.113-0.542,0.381-1.315,0.802
				c-0.196,0.093-0.366,0.182-0.509,0.266l-1.434,0.632c-0.228,0.082-0.592,0.18-1.092,0.294c-0.082,0.182-0.204,0.409-0.365,0.679
				c-0.437,0.788-0.875,1.452-1.311,1.994c-0.202,0.064-0.348,0.096-0.437,0.096h-0.076c-0.048-0.016-0.072-0.064-0.072-0.147
				c0.365-0.408,0.883-1.242,1.554-2.503h-0.533c-0.514-0.048-1.072-0.267-1.676-0.655c-0.342-0.326-0.528-0.585-0.56-0.779
				l0.071-0.047h0.024c0.095,0.04,0.233,0.162,0.413,0.365c0.625,0.501,1.21,0.751,1.753,0.751c0.206-0.016,0.32-0.032,0.341-0.048
				l0.048,0.024c0.294,0,0.463-0.097,0.508-0.29c0.757-1.357,1.269-2.401,1.534-3.134c0.405-1.033,0.608-1.779,0.608-2.237
				c0-0.024,0.023-0.048,0.071-0.072c0.339,0,0.509,0.097,0.509,0.29c0,0.699-0.461,1.997-1.383,3.889
				c-0.103,0.136-0.331,0.557-0.684,1.264h0.028c1.163-0.376,2.338-0.951,3.524-1.725c0.708-0.53,1.225-1.057,1.553-1.582
				c0.17-0.278,0.268-0.537,0.294-0.778c0-0.448-0.26-0.884-0.779-1.311c-0.376-0.26-0.83-0.389-1.362-0.389
				c-0.745,0-1.595,0.21-2.551,0.631c-0.038,0.045-0.191,0.135-0.461,0.266c-0.379,0.228-0.849,0.618-1.41,1.168
				c-0.305,0.34-0.476,0.631-0.513,0.875c-0.053,0.032-0.101,0.048-0.143,0.048c-0.228-0.021-0.342-0.118-0.342-0.291
				c0.112-0.638,0.824-1.392,2.138-2.26C80.467,188.617,81.553,188.326,82.628,188.326z"/>
		</g>
		<g>
			<g>
				<path fill-rule="evenodd" clip-rule="evenodd" fill="#FFFFFF" d="M111.449,170.52c-6.317-10.806-17.989-19.704-35.02-26.615
					c-4.968-1.99-10.075-3.706-15.319-5.149c-0.739,0.705-2.257,2.867-2.652,4.486c-0.612,0.41-2.213,1.994-2.978,3.588
					c3.249,12.051,6.486,24.09,9.675,36.082l0.64-31.7c9.674,0.398,20.228,3.735,31.581,10.011
					C103.054,164.321,107.771,167.421,111.449,170.52z"/>
				<path fill-rule="evenodd" clip-rule="evenodd" fill="#FFFFFF" d="M118.245,156.298l-0.561,31.779
					c-9.674-0.398-20.227-3.656-31.581-9.932l-14.072-9.374c6.317,10.804,17.989,19.702,35.021,26.613
					c5.037,2.012,9.825,3.666,14.396,4.961c0.418-0.434,0.69-0.838,1.034-1.38c4.051-1.924,5.733-5.709,5.733-5.709L118.245,156.298
					z"/>
			</g>
			<path fill="#FFFFFF" d="M94.206,165.58c-3.153,0-5.709,2.557-5.709,5.71S91.053,177,94.206,177s5.71-2.556,5.71-5.709
				S97.359,165.58,94.206,165.58z M93.644,171.29c-1.29,0-2.336-1.046-2.336-2.336c0-1.291,1.046-2.336,2.336-2.336
				c1.291,0,2.336,1.046,2.336,2.336C95.98,170.244,94.935,171.29,93.644,171.29z"/>
		</g>
	</g>
</g>
<g>
	<g>
		<path fill-rule="evenodd" clip-rule="evenodd" fill="#4F4F4F" d="M475.922,185.052v-3.843c-1.513-0.409-2.516-1.291-3.265-2.593
			c1.236-2.713,1.96-5.53,2.396-8.452l0,0l-3.055-0.658c-0.288,1.882-0.749,3.646-1.315,5.411c-1.146-2.107-2.449-4.134-3.252-6.438
			c2.316-2.686,4.409-4.332,4.409-8.307c0-2.935-2.026-5.885-5.621-5.885c-3.565,0-6.001,2.344-6.001,6.017
			c0,3.172,1.144,5.529,2.462,8.36c-2.462,2.724-4.686,5.844-4.686,9.753c0,3.383,2.039,7.254,6.436,7.254
			c2.569,0,4.464-1.356,5.913-3.318C471.959,184.21,473.46,185,475.922,185.052L475.922,185.052z M487.361,165.991v-0.355
			c0-1.026,0.199-6.608-1.711-6.608c-2.303,0-2.039,9.663-2.039,10.676c0,9.609,0.829,11.255,1.961,11.255
			c2.316,0,2.171-5.78,2.171-7.253l0,0h5.437v0.355c0.053,5.068-0.553,12.308-7.702,12.308c-8.292,0-8.386-11.321-8.386-16.666
			c0-4.95,0.699-16.1,8.386-16.1c7.149,0,7.648,6.924,7.635,12.032l0,0v0.355H487.361L487.361,165.991z M422.766,171.06v14.704
			h-2.449l-0.805-2.067c-1.014,1.514-2.711,2.672-4.607,2.672c-7.964,0-8.215-10.452-8.215-16.166c0-5.371,0.816-16.6,8.215-16.6
			c7.213,0,7.609,6.293,7.609,11.9l0,0h-5.175l0.054-2.014c0-1.355-0.185-5.016-2.16-5.016c-2.816,0-2.5,9.623-2.5,11.782
			c0,4.673-0.316,11.269,2.75,11.269c2.474,0,2.411-4.239,2.358-5.858l0,0h-2.134v-4.607H422.766L422.766,171.06z M455.728,177.681
			c0,4.871-2.856,8.688-8.005,8.688c-5.764,0-7.463-4.805-7.397-9.754l0,0h5.147c0,1.738,0.157,4.91,2.46,4.91
			c1.751,0,2.582-1.553,2.582-3.041c0-5.582-10.466-7.03-10.466-16.285c0-4.594,2.501-8.596,7.451-8.596
			c5.713,0,7.227,4.818,7.36,9.624l0,0h-5.175c0-1.145,0.21-4.752-2.304-4.752c-1.619,0-2.172,1.553-2.172,2.87
			C445.209,166.649,455.728,168.624,455.728,177.681L455.728,177.681z M377.163,185.764h-5.831l-2.699-13.56h-1.37v13.56h-5.792
			v-31.542h6.517c6.003,0,9.122,2.83,9.122,8.965c0,2.791-0.762,6.135-3.343,7.688l0,0L377.163,185.764L377.163,185.764z
			 M404.585,169.993c0,7.346,0,15.771-9.717,15.771l0,0h-5.949v-31.542h5.002C404.295,154.222,404.585,161.871,404.585,169.993
			L404.585,169.993z M313.37,177.681c0,4.871-2.831,8.688-7.964,8.688c-5.766,0-7.411-4.805-7.411-9.754l0,0h5.121
			c0,1.355,0.197,4.91,2.501,4.91c1.751,0,2.62-1.553,2.62-3.041c0-5.582-10.505-7.03-10.505-16.285
			c0-4.594,2.462-8.596,7.451-8.596c5.714,0,7.28,4.818,7.359,9.624l0,0h-5.147c0-1.369-0.131-4.752-2.33-4.752
			c-1.62,0-2.173,1.553-2.173,2.87C302.891,166.649,313.37,168.624,313.37,177.681L313.37,177.681z M488.098,165.24h4.357
			c-0.065-5.161-0.75-10.953-6.977-10.953c-6.819,0-7.673,10.071-7.673,15.403c0,5.712,0.249,15.981,7.673,15.981
			c6.227,0,7.03-6.108,7.042-11.282l0,0h-4.068c-0.039,1.869-0.039,7.214-2.868,7.214c-1.962,0-2.66-2.962-2.66-11.913
			c0-2.238-0.264-11.334,2.737-11.334C488.242,158.356,488.098,163.739,488.098,165.24L488.098,165.24z M328.917,185.764h-13.388
			v-31.542h13.098v4.858h-7.32v8.069h5.412v5.134h-5.412v8.61h7.609V185.764L328.917,185.764z M439.207,185.764h-13.389v-31.542
			h13.072v4.858h-7.292v8.069h5.371v5.134h-5.371v8.61h7.609V185.764L439.207,185.764z M344.385,185.764h-13.163v-31.542H337v26.671
			h7.385V185.764L344.385,185.764z M359.154,159.08h-7.135v8.451h5.239v5.108h-5.239v13.125h-5.765v-31.542h12.899V159.08
			L359.154,159.08z M494.682,163.49c0-4.331,0.96-9.781,6.409-9.781c5.478,0,6.438,5.45,6.438,9.781c0,4.278-0.96,9.702-6.438,9.702
			C495.642,173.192,494.682,167.768,494.682,163.49L494.682,163.49z M506.989,176.088c-1.118,1.764-2.752,3.37-4.767,3.37
			c-2.026,0-2.921-1.764-4.423-1.764c-0.803,0-1.5,0.474-2.025,1.146l0,0l-0.896-1.291c1.146-1.803,2.725-3.357,4.778-3.357
			c2.042,0,2.896,1.751,4.463,1.751c0.763,0,1.447-0.488,1.962-1.146l0,0L506.989,176.088L506.989,176.088z M495.379,163.49
			c0,3.804,0.697,9.004,5.712,9.004c4.978,0,5.714-5.2,5.714-9.004c0-3.91-0.736-9.07-5.714-9.07
			C496.076,154.419,495.379,159.58,495.379,163.49L495.379,163.49z M506.226,176.101l-0.198-0.303c-0.5,0.54-1.21,0.896-1.921,0.896
			c-1.777,0-2.593-1.764-4.45-1.764c-1.633,0-3.068,1.172-4.028,2.646l0,0l0.198,0.276c0.499-0.5,1.225-0.868,1.974-0.868
			c1.712,0,2.581,1.764,4.423,1.764C503.869,178.747,505.291,177.51,506.226,176.101L506.226,176.101z M464.297,172.375l4.042,7.385
			c-0.593,0.909-1.5,1.869-2.711,1.869c-2.226,0-3.332-3.053-3.332-4.857C462.296,174.824,462.994,173.719,464.297,172.375
			L464.297,172.375z M385.603,185.764h-5.792v-31.542h5.792V185.764L385.603,185.764z M464.166,173.534
			c-0.764,0.868-1.159,1.896-1.159,3.211c0,1.896,0.856,4.147,2.713,4.147c1,0,1.369-0.685,1.765-1.238l0,0L464.166,173.534
			L464.166,173.534z M371.332,163.227c0-2.225-0.487-4.41-3.187-4.41l0,0h-0.894v8.807h1.158
			C370.713,167.623,371.332,165.108,371.332,163.227L371.332,163.227z M394.71,159.093v21.813c4.477,0,3.871-4.818,3.871-10.32
			C398.582,165.728,399.779,159.093,394.71,159.093L394.71,159.093z M464.245,160.304c0-1.146,0.395-2.567,1.907-2.567
			c1.582,0,2.03,1.474,2.03,2.844c0,2.067-1.225,3.527-2.384,5.068C465.087,164.016,464.245,162.068,464.245,160.304
			L464.245,160.304z M501.078,156.881c1.198,0,1.738,1.462,1.738,6.596c0,5.635-0.604,6.516-1.738,6.516
			c-0.961,0-1.724-0.881-1.724-6.516c0-2.673,0.092-4.305,0.302-5.253C499.974,157.065,500.526,156.881,501.078,156.881
			L501.078,156.881z M465.917,164.372c0.842-1.119,1.605-2.29,1.605-3.751c0-1.317-0.461-2.12-1.371-2.12
			c-0.853,0-1.209,0.724-1.209,1.83C464.943,161.528,465.443,163.108,465.917,164.372L465.917,164.372z M500.077,163.477
			c0,4.87,0.488,5.818,1.014,5.818c0.541,0,1.041-0.592,1.041-5.818c0-1.83-0.053-5.897-1.041-5.897
			C500.184,157.579,500.077,159.62,500.077,163.477L500.077,163.477z M476.646,185.764h-0.342c-2.462,0-4.357-0.684-5.924-2.304
			c-1.462,1.75-3.567,2.909-5.976,2.909c-4.923,0-7.124-4.396-7.124-7.938c0-3.66,1.844-6.833,4.57-9.886
			c-1.305-2.752-2.37-5.082-2.37-8.241c0-4.054,2.775-6.701,6.725-6.701c4.069,0,6.293,3.318,6.293,6.583
			c0,4.055-1.961,5.673-4.278,8.438c0.553,1.58,1.447,3.041,2.264,4.542c0.447-1.501,0.711-2.962,0.868-4.476l0,0l4.423,0.961
			c-0.367,3.042-1.039,6.082-2.382,8.912c0.803,1.238,1.764,1.764,3.252,2.106l0,0V185.764L476.646,185.764z"/>
	</g>
</g>
<g>
	<g>
		<g>
			<path fill="#4F4F4F" d="M750.727,44.941h-4.092v8.066h-0.061c-1.216-1.898-3.558-2.67-6.02-2.67
				c-5.989,0-8.599,4.359-8.599,8.332c0,4.033,2.609,8.392,8.599,8.392c3.263,0,5.723-1.81,6.02-2.758h0.061v2.165h4.092V44.941z
				 M736.225,58.67c0-2.609,1.455-5.188,5.31-5.188c3.824,0,5.277,2.579,5.277,5.188c0,2.669-1.453,5.248-5.277,5.248
				C737.68,63.918,736.225,61.339,736.225,58.67 M720.689,66.469h4.091v-7.591c0-3.647,2.936-4.745,5.011-4.745
				c0.713,0,1.483,0.03,2.61,0.386v-4.033c-0.533-0.088-1.009-0.147-1.631-0.147c-3.143,0-4.834,1.69-5.93,3.469h-0.061v-3.055
				h-4.091V66.469z M713.188,60.153c0,3.469-3.707,4.299-5.9,4.299c-1.394,0-3.291-0.386-3.291-2.462
				c0-1.333,0.742-2.016,3.824-2.371c2.905-0.326,4.18-0.476,5.367-0.979V60.153z M717.279,55.438c0-2.046-0.236-5.277-8.45-5.277
				c-4.656,0-7.709,1.273-8.303,5.396h4.003c0.148-1.75,1.602-2.609,4.3-2.609c2.372,0,4.447,0.445,4.447,2.254
				c0,1.215-0.624,1.423-6.495,1.985c-2.608,0.237-7.056,0.624-7.056,4.953c0,3.083,2.313,4.922,6.405,4.922
				c4.595,0,6.582-1.394,7.383-2.165c0.118,0.593,0.415,2.017,3.084,2.017c1.393,0,2.104-0.208,2.905-0.355v-2.877
				c-0.327,0.06-0.949,0.089-1.334,0.089c-0.268,0-0.89-0.029-0.89-0.89V55.438z M681.55,61.25c0,4.595,3.292,5.812,6.672,5.812
				c2.787,0,4.862-1.097,6.196-2.787h0.059v2.194h4.093V50.752h-4.093v8.63c0,3.351-2.964,4.536-4.773,4.536
				c-3.498,0-4.063-1.808-4.063-4.209v-8.957h-4.091V61.25z M675.798,50.694v2.313h-0.06c-0.949-1.661-3.293-2.67-6.464-2.67
				c-6.05,0-8.719,3.974-8.719,8.006c0,5.842,4.598,7.946,8.749,7.946c2.4,0,4.447-0.651,6.403-2.521h0.09v1.898
				c0,2.046-0.682,4.536-5.367,4.536c-2.49,0-4.419-0.326-4.834-2.343h-4.269c0.354,4.063,4.358,5.13,9.219,5.13
				c6.941,0,9.343-3.321,9.343-7.056V50.694H675.798z M664.826,58.284c0-2.816,2.283-4.803,5.338-4.803
				c2.104,0,5.634,0.978,5.634,4.743c0,2.906-2.165,4.923-5.279,4.923C666.219,63.147,664.826,60.598,664.826,58.284 M644.9,57.039
				c0.682-3.202,3.351-4.092,5.249-4.092c2.017,0,4.804,0.949,5.308,4.092H644.9z M659.727,59.648v-0.593
				c0-4.597-2.668-8.895-9.637-8.895c-5.573,0-9.458,3.35-9.458,8.598c0,4.181,2.639,8.303,9.725,8.303
				c5.989,0,8.125-3.469,9.016-5.219h-4.449c-0.8,1.305-1.986,2.254-4.685,2.254c-4.063,0-5.248-2.698-5.338-4.448H659.727z
				 M632.893,66.469h4.092v-12.75h4.3v-2.967h-4.3v-1.215c0-1.423,0.326-1.868,2.194-1.868c0.771,0,1.661,0.06,2.105,0.12v-2.967
				c-0.949-0.059-1.898-0.118-3.678-0.118c-4.271,0-4.714,2.284-4.714,4.033v2.015h-3.232v2.967h3.232V66.469z M624.739,60.153
				c0,3.469-3.708,4.299-5.901,4.299c-1.395,0-3.291-0.386-3.291-2.462c0-1.333,0.74-2.016,3.824-2.371
				c2.906-0.326,4.181-0.476,5.368-0.979V60.153z M628.831,55.438c0-2.046-0.237-5.277-8.452-5.277
				c-4.655,0-7.709,1.273-8.302,5.396h4.003c0.149-1.75,1.602-2.609,4.299-2.609c2.372,0,4.448,0.445,4.448,2.254
				c0,1.215-0.623,1.423-6.493,1.985c-2.61,0.237-7.058,0.624-7.058,4.953c0,3.083,2.313,4.922,6.405,4.922
				c4.596,0,6.582-1.394,7.383-2.165c0.118,0.593,0.415,2.017,3.084,2.017c1.393,0,2.105-0.208,2.906-0.355v-2.877
				c-0.326,0.06-0.949,0.089-1.335,0.089c-0.267,0-0.889-0.029-0.889-0.89V55.438z M590.253,51.257
				c0,8.688,15.598,4.123,15.598,9.371c0,2.312-2.521,3.112-5.218,3.112c-3.649,0-5.961-1.335-6.079-4.121h-4.804
				c0.06,4.447,3.113,7.442,10.733,7.442c4.507,0,10.171-1.423,10.171-6.879c0-9.044-15.773-4.27-15.773-9.252
				c0-1.985,1.956-2.904,4.92-2.904c3.708,0,5.189,1.777,5.338,3.408h4.804c-0.563-6.137-7.087-6.73-10.349-6.73
				C594.435,44.704,590.253,46.543,590.253,51.257"/>
			<path fill="#4F4F4F" d="M563.709,77.152c11.954,0,21.647-9.69,21.647-21.646c0-11.954-9.693-21.646-21.647-21.646
				c-11.956,0-21.649,9.692-21.649,21.646C542.06,67.462,551.753,77.152,563.709,77.152"/>
			<path fill="#FFFFFF" d="M572.654,51.663c0.414,0.585,1.031,1.616,1.301,2.867c0.07,0.32,0.108,0.64,0.124,0.947
				c0.041,0.799-0.073,1.578-0.177,2.048c-0.942,0.003-9.018,0-11.995,0.024c0.032,0.843-0.615,1.559-1.454,1.597
				c-0.846,0.04-1.568-0.62-1.611-1.472c-0.044-0.852,0.61-1.575,1.454-1.616c0.678-0.031,1.27,0.387,1.505,0.99L572.654,51.663z
				 M570.845,50.639l-8.872,4.642c-0.494-0.346-1.098-0.538-1.741-0.508c-1.55,0.072-2.747,1.401-2.669,2.963
				c0.078,1.56,1.406,2.771,2.955,2.698c0.906-0.043,1.69-0.516,2.171-1.212l0.703-0.001c-0.521,2.681-1.524,4.187-3.206,5.743
				c-1.061,0.982-3.652,2.03-5.278,2.545c-0.127-1.107-0.263-3.461-0.343-5.033c-0.173-3.4,0.023-7.104,1.338-9.292
				c1.481-2.469,4.904-5.154,9.555-4.922C568.788,48.428,570.061,50.031,570.845,50.639 M561.876,65.934
				c0,0,2.972-2.632,3.451-6.723l4.879-0.02l0.497,3.134l-1.78,0.462l0.334,4.886C569.257,67.673,564.354,66.744,561.876,65.934
				 M572.162,49.865l-1.206-1.048c0,0,2.732-4.196,4.391-6.352c-6.135-4.612-13.84-3.965-19.586,0.563
				c-4.247,3.348-7.391,8.524-7.748,16.754l2.188-0.996c0.439-6.984,3.045-11.152,6.828-14.134
				c4.349-3.428,10.864-4.424,15.522-1.707c-0.726,0.924-2.345,3.752-2.966,4.829c-0.467-0.233-0.952-0.438-1.458-0.606l1.153-3.599
				c-0.11-0.032-0.245-0.064-0.374-0.096c-0.771-0.127-1.72-0.246-2.721-0.282l-0.269,3.486l-0.083-0.004
				c-0.5-0.056-1.006-0.088-1.521-0.079l-0.255-3.31c-0.834,0.116-1.745,0.319-2.721,0.621l0.683,2.926
				c-0.553,0.118-1.126,0.309-1.64,0.497l-1.038-2.605c-0.737,0.391-1.406,0.846-2.001,1.32l1.219,2.109
				c-0.487,0.274-0.855,0.554-1.287,0.889l-1.448-1.567c-0.66,0.676-1.029,1.126-1.359,1.58l1.428,1.259
				c-0.372,0.408-0.707,0.84-1.006,1.294l-1.494-0.907c-0.514,0.944-0.696,1.464-0.895,1.961c0.652,0.254,0.896,0.278,1.26,0.47
				c-0.445,1.048-0.806,2.624-0.978,3.938c-0.054,0.36-0.101,0.726-0.13,1.101l0.017-0.001c-0.277,3.416,0.106,7.295,0.493,10.426
				l0.146,1.174l1.134-0.3l5.232-1.958l11.534,2.552l-0.42-5.901l1.974-0.536l-0.662-4.441l2.931-0.012l0.198-0.569
				c0.031-0.088,0.745-2.179,0.255-4.435c-0.525-2.403-2.04-4.104-2.104-4.175l-0.445-0.493l-0.584,0.309L572.162,49.865z"/>
		</g>
	</g>
	<path fill="#5E5E5E" d="M752.166,47.285c0-1.063,0.799-1.876,1.828-1.876c1.019,0,1.819,0.813,1.819,1.876
		c0,1.085-0.801,1.882-1.819,1.882C752.965,49.167,752.166,48.37,752.166,47.285z M753.994,49.539c1.226,0,2.273-0.95,2.273-2.254
		c0-1.288-1.048-2.247-2.273-2.247c-1.234,0-2.282,0.959-2.282,2.247C751.712,48.589,752.76,49.539,753.994,49.539z M753.517,47.464
		h0.454l0.688,1.125h0.438l-0.737-1.143c0.382-0.048,0.672-0.249,0.672-0.714c0-0.51-0.304-0.735-0.916-0.735h-0.99v2.592h0.392
		V47.464z M753.517,47.13v-0.802h0.537c0.273,0,0.569,0.06,0.569,0.382c0,0.396-0.301,0.42-0.634,0.42H753.517z"/>
</g>
<g>
	<g>
		<path fill-rule="evenodd" clip-rule="evenodd" fill="#A7A7A7" d="M920.182,187.485c-10.78,7.956-26.408,12.185-39.865,12.185
			c-18.86,0-35.847-6.972-48.698-18.577c-1.009-0.911-0.11-2.156,1.104-1.45c13.868,8.069,31.016,12.929,48.727,12.929
			c11.948,0,25.082-2.479,37.168-7.605C920.437,184.193,921.965,186.167,920.182,187.485z"/>
		<path fill-rule="evenodd" clip-rule="evenodd" fill="#A7A7A7" d="M924.668,182.363c-1.38-1.766-9.113-0.836-12.59-0.419
			c-1.051,0.125-1.216-0.794-0.268-1.46c6.172-4.334,16.282-3.083,17.458-1.632c1.184,1.463-0.313,11.601-6.095,16.439
			c-0.89,0.743-1.736,0.347-1.339-0.635C923.135,191.405,926.048,184.129,924.668,182.363z"/>
	</g>
	<g>
		<path fill-rule="evenodd" clip-rule="evenodd" fill="#4F4F4F" d="M912.323,149.866v-4.212c0.004-0.641,0.485-1.068,1.068-1.065
			l18.875-0.003c0.604,0,1.087,0.44,1.087,1.064v3.611c-0.004,0.606-0.515,1.396-1.421,2.651l-9.777,13.959
			c3.629-0.085,7.471,0.46,10.767,2.313c0.743,0.417,0.942,1.036,1.001,1.644v4.493c0,0.619-0.678,1.336-1.391,0.963
			c-5.808-3.044-13.518-3.376-19.942,0.038c-0.656,0.349-1.344-0.357-1.344-0.978v-4.271c0-0.684,0.014-1.853,0.702-2.896
			l11.327-16.25l-9.861-0.001C912.812,150.927,912.327,150.497,912.323,149.866z"/>
		<path fill-rule="evenodd" clip-rule="evenodd" fill="#4F4F4F" d="M843.473,176.169h-5.742c-0.547-0.035-0.981-0.446-1.027-0.971
			l0.004-29.471c0-0.59,0.495-1.061,1.108-1.061l5.347-0.001c0.561,0.029,1.01,0.452,1.044,0.99v3.848h0.108
			c1.394-3.722,4.021-5.458,7.558-5.458c3.591,0,5.844,1.737,7.45,5.458c1.396-3.722,4.558-5.458,7.934-5.458
			c2.412,0,5.038,0.993,6.646,3.225c1.823,2.481,1.449,6.077,1.449,9.241l-0.006,18.6c0,0.587-0.495,1.06-1.109,1.06h-5.734
			c-0.576-0.037-1.028-0.493-1.028-1.058l-0.003-15.625c0-1.238,0.106-4.34-0.161-5.518c-0.43-1.985-1.715-2.544-3.376-2.544
			c-1.395,0-2.841,0.931-3.431,2.418c-0.59,1.489-0.537,3.97-0.537,5.644v15.624c0,0.587-0.495,1.06-1.107,1.06h-5.735
			c-0.576-0.037-1.03-0.493-1.03-1.058l-0.007-15.625c0-3.286,0.537-8.123-3.537-8.123c-4.127,0-3.966,4.712-3.966,8.123
			l-0.003,15.624C844.58,175.697,844.085,176.169,843.473,176.169z"/>
		<path fill-rule="evenodd" clip-rule="evenodd" fill="#4F4F4F" d="M949.604,144.044c8.523,0,13.131,7.319,13.131,16.621
			c0,8.991-5.091,16.125-13.131,16.125c-8.363,0-12.918-7.32-12.918-16.435C936.686,151.177,941.295,144.044,949.604,144.044z
			 M949.655,150.06c-4.232,0-4.501,5.767-4.501,9.364c0,3.597-0.053,11.287,4.449,11.287c4.45,0,4.662-6.202,4.662-9.983
			c0-2.481-0.106-5.458-0.858-7.815C952.766,150.866,951.478,150.06,949.655,150.06z"/>
		<path fill-rule="evenodd" clip-rule="evenodd" fill="#4F4F4F" d="M973.788,176.169h-5.722c-0.573-0.037-1.029-0.493-1.029-1.058
			l-0.009-29.482c0.048-0.54,0.523-0.962,1.102-0.962l5.327-0.001c0.502,0.027,0.916,0.368,1.02,0.826v4.508h0.108
			c1.608-4.032,3.859-5.954,7.825-5.954c2.573,0,5.094,0.929,6.701,3.474c1.5,2.356,1.5,6.324,1.5,9.178v18.546
			c-0.063,0.521-0.532,0.927-1.1,0.927h-5.757c-0.53-0.034-0.96-0.425-1.021-0.927V159.24c0-3.226,0.376-7.94-3.592-7.94
			c-1.394,0-2.68,0.931-3.322,2.355c-0.805,1.8-0.913,3.597-0.913,5.584v15.869C974.897,175.697,974.4,176.169,973.788,176.169z"/>
		<path fill-rule="evenodd" clip-rule="evenodd" fill="#4F4F4F" d="M897.277,162.094c0,2.238,0.054,4.102-1.074,6.092
			c-0.915,1.615-2.365,2.611-3.977,2.611c-2.202,0-3.491-1.679-3.491-4.166c0-4.89,4.389-5.78,8.542-5.78V162.094z M903.065,176.096
			c-0.38,0.34-0.929,0.364-1.356,0.133c-1.906-1.585-2.248-2.317-3.291-3.826c-3.152,3.211-5.385,4.174-9.467,4.174
			c-4.834,0-8.596-2.984-8.596-8.949c0-4.662,2.525-7.831,6.124-9.385c3.115-1.368,7.467-1.617,10.798-1.991v-0.745
			c0-1.368,0.108-2.982-0.698-4.165c-0.699-1.057-2.042-1.492-3.224-1.492c-2.19,0-4.137,1.123-4.615,3.447
			c-0.1,0.519-0.478,1.031-0.998,1.058l-5.565-0.604c-0.471-0.106-0.992-0.482-0.856-1.201c1.279-6.751,7.377-8.791,12.84-8.791
			c2.796,0,6.447,0.744,8.649,2.859c2.794,2.61,2.526,6.091,2.526,9.884v8.944c0,2.693,1.117,3.872,2.166,5.321
			c0.367,0.524,0.449,1.145-0.019,1.527c-1.172,0.983-3.256,2.792-4.404,3.813L903.065,176.096z"/>
		<path fill-rule="evenodd" clip-rule="evenodd" fill="#4F4F4F" d="M822,162.094c0,2.238,0.055,4.102-1.073,6.092
			c-0.914,1.615-2.364,2.611-3.976,2.611c-2.203,0-3.492-1.679-3.492-4.166c0-4.89,4.388-5.78,8.541-5.78V162.094z M827.79,176.096
			c-0.379,0.34-0.929,0.364-1.356,0.133c-1.909-1.585-2.251-2.317-3.292-3.826c-3.152,3.211-5.385,4.174-9.467,4.174
			c-4.834,0-8.596-2.984-8.596-8.949c0-4.662,2.525-7.831,6.125-9.385c3.115-1.368,7.466-1.617,10.796-1.991v-0.745
			c0-1.368,0.108-2.982-0.698-4.165c-0.698-1.057-2.042-1.492-3.223-1.492c-2.19,0-4.139,1.123-4.615,3.447
			c-0.1,0.519-0.479,1.031-0.998,1.058l-5.565-0.604c-0.47-0.106-0.993-0.482-0.857-1.201c1.279-6.751,7.377-8.791,12.842-8.791
			c2.793,0,6.447,0.744,8.648,2.859c2.793,2.61,2.525,6.091,2.525,9.884v8.944c0,2.693,1.116,3.872,2.166,5.321
			c0.366,0.524,0.449,1.145-0.018,1.527c-1.174,0.983-3.259,2.792-4.404,3.813L827.79,176.096z"/>
	</g>
</g>
</svg>
