<?xml version="1.0" encoding="utf-8"?>
<!-- Generator: Adobe Illustrator 16.0.3, SVG Export Plug-In . SVG Version: 6.00 Build 0)  -->
<!DOCTYPE svg PUBLIC "-//W3C//DTD SVG 1.1//EN" "http://www.w3.org/Graphics/SVG/1.1/DTD/svg11.dtd">
<svg version="1.1" id="Layer_1" xmlns="http://www.w3.org/2000/svg" xmlns:xlink="http://www.w3.org/1999/xlink" x="0px" y="0px"
	 width="147.333px" height="147px" viewBox="0 0 147.333 147" enable-background="new 0 0 147.333 147" xml:space="preserve">
<circle fill="#CC316B" cx="73.833" cy="73.5" r="72.5"/>
<g>
	<g>
		<path fill="#CC316B" d="M119.722,65.889c-0.285-0.454-0.73-0.771-1.256-0.893l-11.355-2.614c0.037,0.15,0.086,0.296,0.11,0.452
			l5.52,36.028l7.237-31.449C120.101,66.887,120.009,66.346,119.722,65.889z"/>
		<path fill="#CC316B" d="M80.349,56.223l-0.256-0.052h-0.199c-0.942,0-1.75,0.642-1.963,1.563l-1.063,4.618l18.076-2.77
			L80.349,56.223z"/>
		<path fill="#CC316B" d="M89.873,87.52c0.079-0.094,0.154-0.182,0.225-0.278c2.189-3.051,2.785-13.595-5.52-12.321
			c-8.313,1.271-4.58,11.154-1.584,13.408c0.094,0.073,0.197,0.133,0.295,0.196c0.564,0.64,1.863,2.409-1.068,3.954l0.016,0.002
			c-3.553,1.265-8.384,4.004-9.186,10.514l30.973-4.747c-2.725-6.002-8.189-7.15-11.962-7.286
			C88.821,90.36,89.535,88.293,89.873,87.52z"/>
		<path fill="#CC316B" d="M71.189,105.491l-5.24-34.203l34.494-5.284l5.241,34.202L71.189,105.491z M104.832,63.198
			c-0.199-1.306-1.301-2.253-2.621-2.253l-0.223,0.004l-38.844,5.95c-0.701,0.107-1.32,0.482-1.739,1.055
			c-0.419,0.569-0.589,1.268-0.483,1.97l7.07,46.137c0.197,1.306,1.3,2.252,2.62,2.252l0.223-0.003l38.843-5.951
			c0.701-0.106,1.319-0.48,1.739-1.052c0.418-0.571,0.589-1.271,0.483-1.97L104.832,63.198z"/>
	</g>
	<g>
		<path fill="#CA306A" d="M118.966,65.133c-0.285-0.454-0.731-0.771-1.256-0.892l-11.356-2.615c0.038,0.151,0.086,0.296,0.11,0.452
			l5.52,36.029l7.237-31.449C119.345,66.131,119.253,65.59,118.966,65.133z"/>
		<path fill="#CA306A" d="M79.593,55.467l-0.256-0.052h-0.2c-0.942,0-1.75,0.642-1.962,1.563l-1.063,4.618l18.077-2.769
			L79.593,55.467z"/>
		<path fill="#CA306A" d="M89.116,86.764c0.08-0.094,0.155-0.182,0.225-0.278c2.199-3.044,2.786-13.595-5.519-12.321
			c-8.313,1.271-4.56,11.127-1.584,13.408c0.094,0.072,0.197,0.132,0.294,0.196c0.564,0.64,1.864,2.409-1.068,3.954l0.016,0.002
			c-3.553,1.265-8.384,4.004-9.186,10.514l30.972-4.747c-2.724-6.002-8.189-7.15-11.961-7.287
			C88.065,89.604,88.778,87.538,89.116,86.764z"/>
		<path fill="#CA306A" d="M70.433,104.734l-5.24-34.203l34.494-5.285l5.241,34.203L70.433,104.734z M104.075,62.442
			c-0.199-1.306-1.301-2.253-2.621-2.253l-0.223,0.003l-38.844,5.951c-0.702,0.107-1.32,0.482-1.739,1.054
			c-0.419,0.57-0.589,1.268-0.483,1.97l7.07,46.137c0.198,1.305,1.3,2.252,2.621,2.252l0.223-0.003l38.843-5.951
			c0.701-0.106,1.319-0.48,1.739-1.052c0.418-0.571,0.589-1.27,0.483-1.97L104.075,62.442z"/>
	</g>
	<g>
		<path fill="#C82F69" d="M118.21,64.377c-0.285-0.455-0.73-0.772-1.256-0.893l-11.355-2.614c0.037,0.15,0.086,0.295,0.111,0.452
			l5.519,36.028l7.238-31.449C118.589,65.375,118.497,64.834,118.21,64.377z"/>
		<path fill="#C82F69" d="M78.837,54.711l-0.255-0.052h-0.199c-0.942,0-1.75,0.642-1.963,1.563l-1.063,4.618l18.076-2.77
			L78.837,54.711z"/>
		<path fill="#C82F69" d="M88.361,86.008c0.079-0.094,0.154-0.182,0.225-0.279c2.204-3.04,2.785-13.595-5.52-12.321
			c-8.312,1.271-4.558,11.126-1.584,13.408c0.095,0.073,0.198,0.133,0.295,0.197c0.564,0.639,1.863,2.409-1.068,3.954l0.015,0.001
			c-3.552,1.265-8.384,4.004-9.185,10.514l30.973-4.748c-2.725-6.002-8.189-7.15-11.962-7.286
			C87.309,88.848,88.022,86.781,88.361,86.008z"/>
		<path fill="#C82F69" d="M69.677,103.979l-5.24-34.203l34.494-5.284l5.241,34.202L69.677,103.979z M103.32,61.686
			c-0.199-1.306-1.301-2.253-2.622-2.253l-0.223,0.004l-38.844,5.951c-0.701,0.107-1.32,0.482-1.739,1.054
			c-0.418,0.569-0.589,1.268-0.483,1.97l7.07,46.137c0.198,1.306,1.3,2.252,2.62,2.252l0.223-0.003l38.843-5.951
			c0.701-0.106,1.319-0.48,1.739-1.052c0.418-0.571,0.589-1.271,0.483-1.969L103.32,61.686z"/>
	</g>
	<g>
		<path fill="#C52F67" d="M117.455,63.621c-0.286-0.454-0.731-0.771-1.256-0.893l-11.356-2.614c0.037,0.15,0.086,0.296,0.111,0.452
			l5.52,36.028l7.238-31.449C117.833,64.619,117.742,64.079,117.455,63.621z"/>
		<path fill="#C52F67" d="M78.081,53.955l-0.256-0.052h-0.199c-0.942,0-1.75,0.642-1.963,1.563L74.6,60.084l18.077-2.77
			L78.081,53.955z"/>
		<path fill="#C52F67" d="M87.604,85.252c0.08-0.094,0.155-0.182,0.225-0.279c2.198-3.043,2.785-13.595-5.52-12.321
			c-8.312,1.271-4.559,11.127-1.584,13.408c0.094,0.072,0.198,0.133,0.295,0.196c0.564,0.64,1.864,2.409-1.068,3.954l0.015,0.002
			c-3.553,1.265-8.384,4.004-9.186,10.514l30.973-4.747c-2.725-6.002-8.189-7.15-11.962-7.286
			C86.553,88.092,87.267,86.025,87.604,85.252z"/>
		<path fill="#C52F67" d="M68.921,103.223L63.681,69.02l34.494-5.285l5.242,34.202L68.921,103.223z M102.563,60.93
			c-0.199-1.306-1.301-2.253-2.621-2.253l-0.223,0.004l-38.844,5.951c-0.701,0.107-1.32,0.482-1.739,1.054
			c-0.419,0.569-0.589,1.268-0.484,1.97l7.07,46.137c0.198,1.306,1.3,2.252,2.621,2.252l0.223-0.003l38.842-5.951
			c0.701-0.106,1.32-0.479,1.74-1.051c0.418-0.571,0.588-1.271,0.483-1.97L102.563,60.93z"/>
	</g>
	<g>
		<path fill="#C32E66" d="M116.699,62.866c-0.286-0.455-0.731-0.772-1.256-0.893l-11.356-2.614c0.037,0.15,0.086,0.296,0.11,0.452
			l5.52,36.028l7.238-31.449C117.077,63.863,116.985,63.322,116.699,62.866z"/>
		<path fill="#C32E66" d="M77.325,53.199l-0.255-0.052h-0.199c-0.943,0-1.751,0.642-1.964,1.563l-1.062,4.618l18.076-2.77
			L77.325,53.199z"/>
		<path fill="#C32E66" d="M86.848,84.497c0.08-0.094,0.155-0.182,0.225-0.279c2.203-3.041,2.785-13.595-5.52-12.321
			c-8.313,1.272-4.56,11.127-1.584,13.408c0.094,0.072,0.197,0.132,0.294,0.196c0.565,0.64,1.864,2.409-1.068,3.954l0.016,0.002
			c-3.553,1.265-8.384,4.004-9.186,10.514l30.973-4.747c-2.725-6.002-8.189-7.15-11.962-7.286
			C85.796,87.336,86.511,85.27,86.848,84.497z"/>
		<path fill="#C32E66" d="M68.165,102.466l-5.24-34.203l34.495-5.284l5.241,34.202L68.165,102.466z M101.808,60.174
			c-0.199-1.306-1.301-2.253-2.621-2.253l-0.223,0.004l-38.844,5.95c-0.702,0.107-1.32,0.482-1.739,1.054
			c-0.418,0.57-0.589,1.268-0.483,1.97l7.07,46.137c0.197,1.306,1.3,2.252,2.62,2.252l0.223-0.003l38.842-5.951
			c0.702-0.106,1.32-0.48,1.74-1.052c0.418-0.571,0.589-1.271,0.483-1.97L101.808,60.174z"/>
	</g>
	<g>
		<path fill="#C12D65" d="M115.942,62.109c-0.286-0.455-0.731-0.772-1.256-0.893l-11.356-2.614c0.037,0.15,0.087,0.296,0.111,0.452
			l5.519,36.028l7.238-31.449C116.321,63.107,116.229,62.566,115.942,62.109z"/>
		<path fill="#C12D65" d="M76.569,52.443l-0.255-0.051h-0.199c-0.943,0-1.75,0.642-1.963,1.563l-1.063,4.618l18.076-2.77
			L76.569,52.443z"/>
		<path fill="#C12D65" d="M86.092,83.74c0.08-0.094,0.155-0.182,0.225-0.278c2.208-3.038,2.786-13.595-5.52-12.321
			c-8.313,1.271-4.56,11.128-1.583,13.408c0.094,0.072,0.196,0.132,0.294,0.196c0.564,0.64,1.863,2.41-1.068,3.954l0.015,0.002
			c-3.553,1.265-8.384,4.004-9.185,10.514l30.973-4.748c-2.725-6.001-8.189-7.15-11.962-7.286
			C85.041,86.58,85.754,84.513,86.092,83.74z"/>
		<path fill="#C12D65" d="M67.409,101.71l-5.241-34.202l34.495-5.285l5.241,34.203L67.409,101.71z M101.051,59.417
			c-0.199-1.305-1.301-2.252-2.621-2.252l-0.222,0.004l-38.844,5.95c-0.701,0.107-1.32,0.482-1.739,1.054
			c-0.419,0.57-0.589,1.268-0.484,1.97l7.07,46.137c0.198,1.305,1.3,2.252,2.62,2.252l0.223-0.003l38.842-5.951
			c0.701-0.106,1.32-0.481,1.739-1.052c0.418-0.572,0.589-1.271,0.483-1.97L101.051,59.417z"/>
	</g>
	<g>
		<path fill="#BF2C64" d="M115.186,61.354c-0.285-0.455-0.73-0.772-1.255-0.893l-11.356-2.615c0.037,0.15,0.086,0.296,0.11,0.453
			l5.52,36.028l7.237-31.449C115.564,62.352,115.473,61.811,115.186,61.354z"/>
		<path fill="#BF2C64" d="M75.813,51.687l-0.256-0.051h-0.199c-0.942,0-1.75,0.642-1.963,1.562l-1.063,4.618l18.076-2.769
			L75.813,51.687z"/>
		<path fill="#BF2C64" d="M85.336,82.984c0.08-0.095,0.155-0.182,0.226-0.279c2.208-3.038,2.785-13.595-5.52-12.321
			c-8.312,1.271-4.56,11.128-1.583,13.408c0.094,0.072,0.197,0.132,0.294,0.196c0.564,0.64,1.864,2.409-1.068,3.954l0.016,0.002
			c-3.552,1.265-8.384,4.004-9.185,10.513l30.972-4.747c-2.725-6.002-8.189-7.15-11.962-7.286
			C84.285,85.824,84.999,83.758,85.336,82.984z"/>
		<path fill="#BF2C64" d="M66.653,100.955l-5.241-34.203l34.494-5.285l5.241,34.202L66.653,100.955z M100.295,58.662
			c-0.199-1.306-1.301-2.253-2.621-2.253l-0.223,0.004l-38.844,5.951c-0.701,0.107-1.319,0.482-1.739,1.054
			c-0.419,0.57-0.589,1.269-0.483,1.971l7.07,46.136c0.197,1.305,1.3,2.252,2.62,2.252l0.223-0.003l38.843-5.951
			c0.701-0.106,1.319-0.48,1.739-1.051c0.418-0.572,0.589-1.271,0.483-1.971L100.295,58.662z"/>
	</g>
	<g>
		<path fill="#BC2C62" d="M114.43,60.598c-0.285-0.454-0.73-0.772-1.255-0.893l-11.356-2.614c0.037,0.15,0.086,0.296,0.11,0.452
			l5.52,36.029l7.238-31.45C114.809,61.596,114.717,61.055,114.43,60.598z"/>
		<path fill="#BC2C62" d="M75.057,50.931l-0.256-0.051h-0.199c-0.943,0-1.75,0.642-1.963,1.562l-1.063,4.618l18.076-2.769
			L75.057,50.931z"/>
		<path fill="#BC2C62" d="M84.581,82.229c0.079-0.095,0.155-0.182,0.225-0.279c2.203-3.041,2.785-13.595-5.52-12.322
			c-8.312,1.272-4.56,11.129-1.583,13.409c0.094,0.072,0.197,0.132,0.294,0.196c0.564,0.639,1.863,2.409-1.068,3.955l0.015,0.001
			c-3.553,1.265-8.384,4.005-9.185,10.514l30.973-4.746c-2.725-6.002-8.19-7.151-11.962-7.286
			C83.529,85.067,84.243,83.001,84.581,82.229z"/>
		<path fill="#BC2C62" d="M65.897,100.198l-5.24-34.202l34.495-5.284l5.241,34.202L65.897,100.198z M99.54,57.906
			c-0.199-1.306-1.301-2.253-2.621-2.253l-0.223,0.003l-38.844,5.951c-0.701,0.106-1.319,0.482-1.739,1.054
			c-0.418,0.57-0.589,1.269-0.483,1.971l7.07,46.137c0.197,1.305,1.3,2.251,2.62,2.251l0.223-0.003l38.843-5.951
			c0.701-0.106,1.319-0.48,1.739-1.052c0.418-0.572,0.589-1.27,0.483-1.97L99.54,57.906z"/>
	</g>
	<g>
		<path fill="#BA2B61" d="M113.675,59.842c-0.286-0.455-0.732-0.772-1.256-0.893l-11.356-2.615c0.037,0.151,0.086,0.296,0.111,0.452
			l5.52,36.028l7.237-31.449C114.053,60.839,113.961,60.298,113.675,59.842z"/>
		<path fill="#BA2B61" d="M74.301,50.175l-0.255-0.051h-0.199c-0.942,0-1.75,0.642-1.963,1.563l-1.063,4.618l18.077-2.77
			L74.301,50.175z"/>
		<path fill="#BA2B61" d="M83.824,81.473c0.08-0.095,0.155-0.182,0.226-0.279c2.204-3.04,2.785-13.595-5.521-12.321
			c-8.312,1.272-4.563,11.132-1.583,13.409c0.094,0.072,0.197,0.132,0.295,0.196c0.564,0.64,1.863,2.409-1.068,3.954l0.016,0.001
			c-3.553,1.265-8.384,4.005-9.185,10.514l30.972-4.747c-2.725-6.002-8.189-7.15-11.962-7.285
			C82.773,84.312,83.487,82.245,83.824,81.473z"/>
		<path fill="#BA2B61" d="M65.142,99.442L59.901,65.24l34.494-5.285l5.241,34.203L65.142,99.442z M98.784,57.15
			c-0.199-1.306-1.301-2.253-2.621-2.253l-0.223,0.004l-38.845,5.95c-0.701,0.107-1.319,0.482-1.738,1.054
			c-0.419,0.569-0.589,1.268-0.483,1.97l7.07,46.136c0.198,1.306,1.3,2.252,2.621,2.252l0.223-0.003l38.843-5.951
			c0.701-0.106,1.319-0.481,1.739-1.052c0.418-0.571,0.589-1.27,0.482-1.97L98.784,57.15z"/>
	</g>
	<g>
		<path fill="#B82A60" d="M112.918,59.085c-0.285-0.455-0.731-0.772-1.256-0.892l-11.356-2.615c0.037,0.15,0.087,0.297,0.111,0.453
			l5.519,36.028l7.238-31.449C113.296,60.083,113.206,59.542,112.918,59.085z"/>
		<path fill="#B82A60" d="M73.544,49.419l-0.255-0.052H73.09c-0.942,0-1.75,0.643-1.963,1.563l-1.063,4.618l18.076-2.77
			L73.544,49.419z"/>
		<path fill="#B82A60" d="M83.068,80.717c0.08-0.095,0.156-0.183,0.226-0.279c2.198-3.043,2.785-13.595-5.52-12.321
			c-8.312,1.272-4.563,11.131-1.583,13.408c0.094,0.072,0.197,0.132,0.295,0.196c0.564,0.64,1.863,2.409-1.068,3.954l0.016,0.002
			c-3.553,1.265-8.384,4.004-9.186,10.513l30.973-4.747c-2.725-6.002-8.189-7.15-11.962-7.286
			C82.017,83.556,82.731,81.489,83.068,80.717z"/>
		<path fill="#B82A60" d="M64.385,98.687l-5.241-34.203l34.495-5.285l5.241,34.202L64.385,98.687z M98.027,56.394
			c-0.199-1.306-1.301-2.253-2.621-2.253l-0.223,0.004l-38.844,5.951c-0.701,0.107-1.319,0.482-1.738,1.054
			c-0.419,0.57-0.589,1.269-0.483,1.971l7.069,46.136c0.198,1.306,1.3,2.252,2.621,2.252l0.223-0.003l38.842-5.951
			c0.702-0.106,1.319-0.48,1.74-1.052c0.418-0.571,0.589-1.27,0.482-1.97L98.027,56.394z"/>
	</g>
	<g>
		<path fill="#B6295F" d="M112.163,58.33c-0.286-0.455-0.731-0.772-1.256-0.892L99.55,54.822c0.037,0.15,0.087,0.297,0.111,0.452
			l5.519,36.028l7.238-31.449C112.541,59.328,112.449,58.786,112.163,58.33z"/>
		<path fill="#B6295F" d="M72.789,48.663l-0.255-0.052h-0.199c-0.942,0-1.75,0.643-1.963,1.563l-1.063,4.618l18.076-2.77
			L72.789,48.663z"/>
		<path fill="#B6295F" d="M82.312,79.96c0.08-0.095,0.155-0.182,0.226-0.279c2.204-3.04,2.785-13.595-5.521-12.321
			c-8.312,1.272-4.56,11.128-1.583,13.409c0.094,0.072,0.197,0.132,0.295,0.196c0.564,0.64,1.863,2.409-1.068,3.954l0.015,0.002
			c-3.552,1.265-8.384,4.005-9.185,10.513l30.973-4.747c-2.726-6.002-8.189-7.15-11.962-7.286
			C81.261,82.8,81.975,80.733,82.312,79.96z"/>
		<path fill="#B6295F" d="M63.629,97.931l-5.24-34.203l34.494-5.285l5.241,34.202L63.629,97.931z M97.272,55.638
			c-0.199-1.306-1.302-2.253-2.622-2.253l-0.223,0.004l-38.844,5.951c-0.701,0.107-1.319,0.482-1.738,1.054
			c-0.419,0.57-0.59,1.269-0.484,1.97l7.07,46.137c0.198,1.305,1.301,2.252,2.621,2.252l0.223-0.003l38.843-5.951
			c0.702-0.106,1.319-0.48,1.739-1.052c0.418-0.572,0.589-1.27,0.483-1.97L97.272,55.638z"/>
	</g>
	<g>
		<path fill="#B3295D" d="M111.407,57.573c-0.286-0.454-0.731-0.772-1.256-0.892l-11.356-2.615c0.037,0.15,0.087,0.296,0.11,0.452
			l5.52,36.028l7.238-31.449C111.785,58.572,111.693,58.03,111.407,57.573z"/>
		<path fill="#B3295D" d="M72.033,47.907l-0.255-0.052h-0.199c-0.943,0-1.75,0.642-1.963,1.563l-1.063,4.618l18.076-2.77
			L72.033,47.907z"/>
		<path fill="#B3295D" d="M81.556,79.205c0.08-0.095,0.155-0.182,0.226-0.279c2.212-3.034,2.785-13.595-5.521-12.321
			c-8.312,1.272-4.56,11.128-1.583,13.409c0.094,0.072,0.197,0.131,0.294,0.196c0.564,0.64,1.864,2.409-1.067,3.954l0.015,0.002
			c-3.552,1.265-8.384,4.004-9.185,10.513l30.973-4.747c-2.726-6.002-8.189-7.15-11.962-7.286
			C80.505,82.044,81.218,79.978,81.556,79.205z"/>
		<path fill="#B3295D" d="M62.874,97.174l-5.241-34.202l34.495-5.285l5.24,34.202L62.874,97.174z M96.515,54.882
			c-0.198-1.306-1.301-2.253-2.621-2.253l-0.223,0.004l-38.844,5.951c-0.701,0.106-1.319,0.482-1.739,1.053
			c-0.418,0.57-0.589,1.269-0.483,1.971l7.07,46.137c0.198,1.305,1.3,2.252,2.621,2.252l0.223-0.004l38.843-5.95
			c0.701-0.106,1.319-0.48,1.739-1.052c0.418-0.572,0.59-1.27,0.483-1.971L96.515,54.882z"/>
	</g>
	<g>
		<path fill="#B1285C" d="M110.651,56.817c-0.286-0.454-0.732-0.772-1.256-0.892l-11.357-2.615c0.038,0.15,0.087,0.296,0.111,0.452
			l5.519,36.028l7.238-31.449C111.029,57.815,110.937,57.274,110.651,56.817z"/>
		<path fill="#B1285C" d="M71.276,47.151l-0.255-0.052h-0.198c-0.943,0-1.751,0.642-1.964,1.563l-1.063,4.618l18.077-2.77
			L71.276,47.151z"/>
		<path fill="#B1285C" d="M80.8,78.448c0.079-0.095,0.155-0.182,0.226-0.278c2.212-3.034,2.785-13.595-5.521-12.321
			c-8.312,1.271-4.557,11.124-1.583,13.409c0.093,0.072,0.196,0.131,0.294,0.196c0.564,0.64,1.864,2.409-1.068,3.954l0.015,0.002
			c-3.552,1.265-8.384,4.004-9.185,10.513l30.973-4.746c-2.726-6.002-8.189-7.15-11.963-7.286
			C79.749,81.288,80.462,79.221,80.8,78.448z"/>
		<path fill="#B1285C" d="M62.118,96.418l-5.241-34.202l34.495-5.285l5.241,34.202L62.118,96.418z M95.759,54.126
			c-0.198-1.306-1.301-2.253-2.621-2.253l-0.223,0.004l-38.844,5.951c-0.701,0.106-1.319,0.482-1.739,1.053
			c-0.418,0.57-0.589,1.269-0.483,1.971l7.07,46.137c0.198,1.305,1.3,2.252,2.62,2.252l0.223-0.004l38.842-5.95
			c0.701-0.106,1.319-0.481,1.739-1.052c0.418-0.572,0.59-1.271,0.483-1.97L95.759,54.126z"/>
	</g>
	<g>
		<path fill="#AF275B" d="M109.895,56.062c-0.286-0.455-0.732-0.773-1.256-0.893l-11.356-2.615c0.037,0.151,0.087,0.297,0.11,0.453
			l5.52,36.028l7.238-31.449C110.272,57.06,110.181,56.519,109.895,56.062z"/>
		<path fill="#AF275B" d="M70.521,46.396l-0.255-0.052h-0.198c-0.943,0-1.751,0.642-1.964,1.563l-1.063,4.618l18.077-2.77
			L70.521,46.396z"/>
		<path fill="#AF275B" d="M80.044,77.692c0.08-0.095,0.156-0.182,0.226-0.279c2.212-3.034,2.785-13.595-5.521-12.321
			c-8.311,1.272-4.558,11.125-1.583,13.409c0.094,0.072,0.196,0.132,0.294,0.196c0.564,0.64,1.864,2.409-1.067,3.954l0.015,0.002
			c-3.552,1.265-8.384,4.004-9.185,10.513l30.972-4.746c-2.725-6.002-8.189-7.151-11.962-7.286
			C78.993,80.532,79.707,78.466,80.044,77.692z"/>
		<path fill="#AF275B" d="M61.362,95.662L56.121,61.46l34.495-5.285l5.24,34.203L61.362,95.662z M95.003,53.37
			c-0.198-1.305-1.301-2.252-2.621-2.252l-0.223,0.004l-38.844,5.951c-0.702,0.106-1.319,0.481-1.739,1.053
			c-0.418,0.57-0.589,1.269-0.483,1.971l7.07,46.136c0.198,1.305,1.3,2.252,2.621,2.252l0.223-0.003l38.842-5.95
			c0.701-0.106,1.319-0.48,1.739-1.052c0.418-0.572,0.59-1.27,0.482-1.97L95.003,53.37z"/>
	</g>
	<g>
		<path fill="#AD265A" d="M109.139,55.306c-0.286-0.454-0.732-0.772-1.256-0.893l-11.357-2.614c0.037,0.15,0.087,0.296,0.111,0.452
			l5.52,36.029l7.238-31.45C109.516,56.304,109.425,55.763,109.139,55.306z"/>
		<path fill="#AD265A" d="M69.765,45.639l-0.255-0.051h-0.198c-0.943,0-1.751,0.642-1.964,1.562l-1.063,4.618l18.076-2.769
			L69.765,45.639z"/>
		<path fill="#AD265A" d="M79.288,76.937c0.08-0.095,0.156-0.182,0.227-0.279c2.211-3.033,2.785-13.595-5.521-12.322
			c-8.311,1.272-4.557,11.125-1.582,13.409c0.094,0.072,0.196,0.132,0.294,0.196c0.564,0.639,1.864,2.409-1.067,3.955l0.015,0.001
			c-3.552,1.265-8.384,4.005-9.185,10.514l30.973-4.746c-2.727-6.002-8.189-7.151-11.963-7.286
			C78.237,79.775,78.951,77.709,79.288,76.937z"/>
		<path fill="#AD265A" d="M60.606,94.906l-5.241-34.202L89.86,55.42l5.24,34.202L60.606,94.906z M94.248,52.614
			c-0.198-1.306-1.302-2.253-2.621-2.253l-0.223,0.003l-38.845,5.951c-0.701,0.106-1.318,0.482-1.738,1.054
			c-0.418,0.57-0.59,1.269-0.483,1.971l7.07,46.137c0.198,1.305,1.3,2.251,2.621,2.251l0.223-0.003l38.843-5.951
			c0.701-0.106,1.319-0.48,1.739-1.052c0.418-0.572,0.59-1.27,0.482-1.97L94.248,52.614z"/>
	</g>
	<g>
		<path fill="#AA2658" d="M108.383,54.55c-0.286-0.455-0.732-0.772-1.256-0.893L95.77,51.042c0.037,0.15,0.087,0.297,0.111,0.452
			l5.52,36.029l7.238-31.45C108.76,55.548,108.669,55.006,108.383,54.55z"/>
		<path fill="#AA2658" d="M69.008,44.883l-0.255-0.052h-0.199c-0.942,0-1.75,0.643-1.963,1.563l-1.063,4.619l18.076-2.77
			L69.008,44.883z"/>
		<path fill="#AA2658" d="M78.532,76.181c0.08-0.095,0.156-0.182,0.226-0.279c2.207-3.037,2.785-13.596-5.521-12.322
			c-8.311,1.272-4.557,11.125-1.582,13.409c0.094,0.072,0.196,0.132,0.294,0.196c0.564,0.64,1.864,2.409-1.068,3.954l0.015,0.002
			c-3.552,1.265-8.384,4.005-9.185,10.514l30.973-4.747c-2.727-6.002-8.189-7.15-11.963-7.286
			C77.481,79.02,78.195,76.953,78.532,76.181z"/>
		<path fill="#AA2658" d="M59.85,94.15l-5.241-34.202l34.494-5.285l5.241,34.202L59.85,94.15z M93.492,51.858
			c-0.199-1.306-1.302-2.253-2.621-2.253l-0.223,0.004L51.803,55.56c-0.701,0.106-1.319,0.482-1.738,1.054
			c-0.419,0.57-0.59,1.269-0.483,1.97l7.069,46.137c0.198,1.305,1.301,2.251,2.621,2.251l0.223-0.003l38.843-5.951
			c0.701-0.106,1.319-0.48,1.739-1.051c0.418-0.572,0.59-1.27,0.482-1.97L93.492,51.858z"/>
	</g>
	<g>
		<path fill="#A82557" d="M107.627,53.794c-0.286-0.455-0.732-0.773-1.256-0.893l-11.357-2.615c0.037,0.15,0.088,0.297,0.111,0.452
			l5.52,36.029l7.238-31.45C108.004,54.792,107.913,54.25,107.627,53.794z"/>
		<path fill="#A82557" d="M68.252,44.127l-0.255-0.052h-0.198c-0.943,0-1.75,0.643-1.964,1.563l-1.063,4.618l18.076-2.769
			L68.252,44.127z"/>
		<path fill="#A82557" d="M77.776,75.425c0.08-0.095,0.156-0.183,0.226-0.279c2.212-3.034,2.786-13.595-5.521-12.321
			c-8.312,1.272-4.56,11.128-1.583,13.409c0.094,0.072,0.197,0.131,0.294,0.196c0.565,0.64,1.864,2.408-1.067,3.954l0.014,0.002
			c-3.552,1.264-8.383,4.004-9.185,10.512l30.973-4.746c-2.726-6.002-8.19-7.151-11.963-7.286
			C76.725,78.264,77.438,76.198,77.776,75.425z"/>
		<path fill="#A82557" d="M59.094,93.394l-5.241-34.201l34.495-5.285l5.241,34.202L59.094,93.394z M92.735,51.102
			c-0.198-1.306-1.301-2.253-2.621-2.253l-0.222,0.004l-38.845,5.951c-0.701,0.106-1.319,0.482-1.738,1.053
			c-0.418,0.57-0.59,1.269-0.483,1.97l7.069,46.137c0.198,1.305,1.3,2.252,2.621,2.252l0.223-0.003l38.842-5.951
			c0.702-0.106,1.319-0.48,1.739-1.052c0.418-0.572,0.59-1.27,0.483-1.97L92.735,51.102z"/>
	</g>
	<g>
		<path fill="#A62456" d="M106.871,53.038c-0.286-0.455-0.732-0.773-1.256-0.893L94.258,49.53c0.037,0.15,0.087,0.297,0.111,0.452
			l5.52,36.028l7.238-31.449C107.248,54.036,107.157,53.494,106.871,53.038z"/>
		<path fill="#A62456" d="M67.497,43.371l-0.255-0.051h-0.199c-0.943,0-1.75,0.642-1.963,1.562L64.016,49.5l18.077-2.77
			L67.497,43.371z"/>
		<path fill="#A62456" d="M77.02,74.669c0.08-0.095,0.156-0.183,0.227-0.279c2.212-3.034,2.785-13.595-5.521-12.321
			c-8.311,1.272-4.561,11.129-1.583,13.409c0.093,0.071,0.197,0.131,0.294,0.195c0.564,0.64,1.864,2.408-1.067,3.954l0.015,0.002
			c-3.552,1.265-8.383,4.005-9.185,10.513l30.973-4.746c-2.727-6.002-8.19-7.15-11.963-7.285
			C75.969,77.508,76.683,75.441,77.02,74.669z"/>
		<path fill="#A62456" d="M58.338,92.638l-5.241-34.202l34.494-5.285l5.241,34.202L58.338,92.638z M91.98,50.346
			c-0.199-1.306-1.302-2.253-2.622-2.253l-0.223,0.004l-38.844,5.951c-0.701,0.105-1.319,0.481-1.739,1.053
			c-0.418,0.57-0.59,1.269-0.483,1.97l7.07,46.137c0.198,1.305,1.301,2.252,2.621,2.252l0.223-0.004l38.842-5.95
			c0.701-0.106,1.32-0.48,1.739-1.052c0.418-0.572,0.59-1.27,0.483-1.971L91.98,50.346z"/>
	</g>
	<g>
		<path fill="#A42355" d="M106.115,52.282c-0.286-0.455-0.732-0.773-1.255-0.893l-11.357-2.615c0.038,0.15,0.088,0.297,0.111,0.452
			l5.52,36.028l7.238-31.449C106.492,53.28,106.401,52.738,106.115,52.282z"/>
		<path fill="#A42355" d="M66.74,42.615l-0.255-0.052h-0.198c-0.943,0-1.751,0.643-1.964,1.563l-1.063,4.618l18.076-2.77
			L66.74,42.615z"/>
		<path fill="#A42355" d="M76.264,73.913c0.08-0.096,0.156-0.183,0.227-0.279c2.22-3.027,2.785-13.596-5.521-12.321
			c-8.311,1.272-4.561,11.129-1.582,13.409c0.093,0.071,0.196,0.131,0.294,0.195c0.564,0.64,1.864,2.408-1.068,3.954l0.015,0.002
			c-3.552,1.265-8.384,4.004-9.185,10.513l30.973-4.746c-2.726-6.002-8.189-7.15-11.963-7.286
			C75.212,76.752,75.926,74.686,76.264,73.913z"/>
		<path fill="#A42355" d="M57.582,91.882L52.341,57.68l34.495-5.285l5.24,34.202L57.582,91.882z M91.224,49.59
			c-0.199-1.306-1.302-2.253-2.621-2.253l-0.223,0.004l-38.845,5.951c-0.701,0.106-1.318,0.482-1.739,1.053
			c-0.417,0.57-0.589,1.27-0.483,1.971l7.07,46.137c0.198,1.305,1.3,2.252,2.621,2.252l0.223-0.004l38.842-5.95
			c0.702-0.106,1.319-0.48,1.739-1.052c0.418-0.572,0.59-1.27,0.483-1.971L91.224,49.59z"/>
	</g>
	<g>
		<path fill="#A12353" d="M105.359,51.526c-0.286-0.455-0.732-0.773-1.256-0.893l-11.357-2.615c0.037,0.151,0.088,0.297,0.111,0.453
			l5.52,36.028l7.238-31.449C105.736,52.524,105.646,51.982,105.359,51.526z"/>
		<path fill="#A12353" d="M65.984,41.859l-0.255-0.052h-0.198c-0.943,0-1.75,0.642-1.964,1.563l-1.063,4.618l18.076-2.77
			L65.984,41.859z"/>
		<path fill="#A12353" d="M75.507,73.157c0.081-0.095,0.156-0.183,0.227-0.279c2.21-3.035,2.786-13.596-5.521-12.321
			c-8.311,1.272-4.559,11.125-1.582,13.409c0.093,0.071,0.196,0.131,0.293,0.195c0.564,0.64,1.865,2.409-1.067,3.955l0.015,0.002
			c-3.552,1.265-8.384,4.005-9.185,10.513l30.973-4.746c-2.726-6.002-8.189-7.15-11.963-7.285
			C74.457,75.996,75.171,73.929,75.507,73.157z"/>
		<path fill="#A12353" d="M56.826,91.125l-5.241-34.201L86.08,51.64l5.24,34.202L56.826,91.125z M90.467,48.833
			c-0.198-1.305-1.302-2.252-2.621-2.252l-0.223,0.004l-38.845,5.951c-0.702,0.106-1.318,0.481-1.738,1.053
			c-0.418,0.57-0.59,1.269-0.483,1.97l7.069,46.137c0.198,1.305,1.3,2.251,2.621,2.251l0.222-0.003l38.843-5.95
			c0.701-0.107,1.321-0.48,1.74-1.052c0.419-0.572,0.589-1.27,0.482-1.971L90.467,48.833z"/>
	</g>
	<g>
		<path fill="#9F2252" d="M104.603,50.771c-0.286-0.456-0.732-0.774-1.256-0.893L91.99,47.263c0.037,0.15,0.088,0.297,0.112,0.452
			l5.519,36.028l7.238-31.449C104.98,51.768,104.889,51.226,104.603,50.771z"/>
		<path fill="#9F2252" d="M65.228,41.103l-0.255-0.052h-0.198c-0.943,0-1.751,0.643-1.964,1.563l-1.063,4.619l18.076-2.77
			L65.228,41.103z"/>
		<path fill="#9F2252" d="M74.752,72.401c0.08-0.096,0.156-0.183,0.227-0.279c2.22-3.027,2.785-13.596-5.522-12.321
			c-8.311,1.272-4.561,11.129-1.582,13.409c0.093,0.071,0.196,0.131,0.294,0.195c0.564,0.64,1.864,2.408-1.068,3.955l0.015,0.001
			c-3.552,1.265-8.384,4.005-9.185,10.513l30.973-4.746c-2.727-6.002-8.189-7.15-11.963-7.285
			C73.701,75.24,74.415,73.174,74.752,72.401z"/>
		<path fill="#9F2252" d="M56.07,90.37l-5.241-34.202l34.495-5.285l5.24,34.202L56.07,90.37z M89.712,48.078
			c-0.199-1.306-1.302-2.253-2.622-2.253l-0.223,0.004L48.023,51.78c-0.701,0.106-1.318,0.481-1.738,1.053
			c-0.417,0.571-0.59,1.27-0.483,1.971l7.07,46.137c0.198,1.305,1.301,2.251,2.621,2.251l0.223-0.003l38.843-5.951
			c0.702-0.106,1.319-0.48,1.739-1.052c0.418-0.572,0.59-1.27,0.482-1.97L89.712,48.078z"/>
	</g>
	<g>
		<path fill="#9D2151" d="M103.847,50.014c-0.286-0.455-0.732-0.773-1.256-0.893l-11.357-2.615c0.037,0.15,0.088,0.297,0.111,0.452
			l5.52,36.028l7.238-31.449C104.224,51.012,104.133,50.47,103.847,50.014z"/>
		<path fill="#9D2151" d="M64.472,40.347l-0.255-0.052h-0.198c-0.943,0-1.751,0.643-1.964,1.563l-1.063,4.618l18.076-2.77
			L64.472,40.347z"/>
		<path fill="#9D2151" d="M73.996,71.645c0.08-0.096,0.155-0.184,0.227-0.279c2.188-3.051,2.785-13.596-5.521-12.321
			c-8.311,1.272-4.58,11.154-1.582,13.409c0.093,0.072,0.196,0.131,0.294,0.195c0.564,0.64,1.864,2.408-1.067,3.954l0.015,0.002
			c-3.552,1.265-8.384,4.005-9.185,10.513l30.973-4.746c-2.727-6.002-8.189-7.15-11.963-7.285
			C72.945,74.484,73.659,72.417,73.996,71.645z"/>
		<path fill="#9D2151" d="M55.314,89.614l-5.241-34.201l34.495-5.285l5.24,34.202L55.314,89.614z M88.956,47.322
			c-0.198-1.306-1.302-2.253-2.621-2.253l-0.223,0.004l-38.845,5.951c-0.701,0.105-1.318,0.481-1.738,1.053
			c-0.418,0.57-0.59,1.27-0.483,1.971l7.069,46.137c0.198,1.305,1.301,2.252,2.621,2.252l0.223-0.004l38.843-5.95
			c0.701-0.106,1.319-0.48,1.739-1.052c0.418-0.572,0.59-1.27,0.482-1.971L88.956,47.322z"/>
	</g>
</g>
<g>
	<path fill="#F5F5F5" d="M104.095,50.014c-0.285-0.455-0.73-0.773-1.256-0.893l-11.355-2.615c0.037,0.15,0.086,0.297,0.11,0.452
		l5.52,36.028l7.237-31.449C104.474,51.012,104.382,50.47,104.095,50.014z"/>
	<path fill="#F5F5F5" d="M64.722,40.347l-0.256-0.052h-0.199c-0.942,0-1.75,0.643-1.963,1.563l-1.063,4.618l18.076-2.77
		L64.722,40.347z"/>
	<path fill="#F5F5F5" d="M74.246,71.645c0.079-0.096,0.154-0.184,0.225-0.279c2.189-3.051,2.785-13.596-5.52-12.321
		c-8.313,1.272-4.58,11.154-1.584,13.409c0.094,0.072,0.197,0.131,0.295,0.195c0.564,0.64,1.863,2.408-1.068,3.954l0.016,0.002
		c-3.553,1.265-8.384,4.005-9.186,10.513l30.973-4.746c-2.725-6.002-8.189-7.15-11.962-7.285
		C73.194,74.484,73.908,72.417,74.246,71.645z"/>
	<path fill="#F5F5F5" d="M89.205,47.322c-0.199-1.306-1.301-2.253-2.621-2.253l-0.223,0.004l-38.844,5.951
		c-0.701,0.105-1.32,0.481-1.739,1.053c-0.419,0.57-0.589,1.27-0.483,1.971l7.07,46.137c0.197,1.305,1.3,2.252,2.62,2.252
		l0.223-0.004l38.843-5.95c0.701-0.106,1.319-0.48,1.739-1.052c0.418-0.572,0.589-1.27,0.483-1.971L89.205,47.322z M55.562,89.614
		l-5.24-34.201l34.494-5.285l5.241,34.202L55.562,89.614z"/>
</g>
</svg>
