<?xml version="1.0" encoding="utf-8"?>
<!-- Generator: Adobe Illustrator 16.0.3, SVG Export Plug-In . SVG Version: 6.00 Build 0)  -->
<!DOCTYPE svg PUBLIC "-//W3C//DTD SVG 1.1//EN" "http://www.w3.org/Graphics/SVG/1.1/DTD/svg11.dtd">
<svg version="1.1" id="Layer_1" xmlns="http://www.w3.org/2000/svg" xmlns:xlink="http://www.w3.org/1999/xlink" x="0px" y="0px"
	 width="147.333px" height="147px" viewBox="0 0 147.333 147" enable-background="new 0 0 147.333 147" xml:space="preserve">
<circle fill="#CC316B" cx="73.833" cy="73.5" r="72.5"/>
<g>
	<g>
		<g>
			<path fill="#CC316B" d="M97.125,61.961H84.362H71.601l-7.067,24.445c6.819,7.484,15.199,17.023,15.11,30.386
				c0.129,0,0.248,0,0.366,0c0.986,0,1.543,0,1.813,0c0.135,0,0.199,0,0.206,0l0,0c0.053,0,0.107,0,0.161,0c0.068,0,0.133,0,0.205,0
				c0.166,0,0.438,0,0.849,0V93.375c-4.3-0.549-7.625-4.219-7.625-8.67c0-4.828,3.913-8.743,8.742-8.743
				c4.829,0,8.743,3.915,8.743,8.743c0,4.451-3.326,8.121-7.627,8.67v23.417c0.412,0,0.686,0,0.849,0c0.072,0,0.139,0,0.207,0
				c0.054,0,0.108,0,0.161,0l0,0c0.008,0,0.071,0,0.205,0c0.27,0,0.829,0,1.815,0c0.115,0,0.236,0,0.366,0
				c-0.09-13.362,8.29-22.901,15.109-30.386L97.125,61.961z"/>
			<rect x="92.716" y="113.526" fill="#CC316B" width="24.604" height="3.242"/>
		</g>
	</g>
	<g>
		<path fill="#CA306A" d="M96.368,61.206H83.605h-12.76l-7.067,24.445c6.819,7.484,15.199,17.023,15.11,30.385
			c0.129,0,0.249,0,0.366,0c0.986,0,1.543,0,1.813,0c0.135,0,0.198,0,0.206,0l0,0c0.052,0,0.107,0,0.161,0c0.067,0,0.133,0,0.205,0
			c0.166,0,0.437,0,0.849,0V92.62c-4.3-0.549-7.625-4.219-7.625-8.67c0-4.828,3.913-8.743,8.742-8.743
			c4.829,0,8.743,3.915,8.743,8.743c0,4.451-3.325,8.121-7.627,8.67v23.417c0.412,0,0.686,0,0.849,0c0.072,0,0.139,0,0.207,0
			c0.055,0,0.108,0,0.161,0l0,0c0.008,0,0.071,0,0.205,0c0.27,0,0.829,0,1.815,0c0.115,0,0.236,0,0.366,0
			c-0.09-13.362,8.29-22.901,15.108-30.385L96.368,61.206z"/>
		<rect x="91.959" y="112.77" fill="#CA306A" width="24.605" height="3.242"/>
	</g>
	<g>
		<path fill="#C82F69" d="M95.612,60.449H82.85H70.089l-7.066,24.446c6.819,7.484,15.199,17.023,15.11,30.385
			c0.129,0,0.249,0,0.367,0c0.986,0,1.543,0,1.813,0c0.135,0,0.199,0,0.206,0l0,0c0.053,0,0.107,0,0.162,0c0.067,0,0.133,0,0.205,0
			c0.165,0,0.437,0,0.849,0V91.864c-4.299-0.549-7.625-4.219-7.625-8.67c0-4.829,3.913-8.744,8.742-8.744
			c4.829,0,8.743,3.915,8.743,8.744c0,4.451-3.325,8.121-7.626,8.67v23.417c0.411,0,0.686,0,0.849,0c0.071,0,0.139,0,0.207,0
			c0.054,0,0.107,0,0.16,0l0,0c0.008,0,0.071,0,0.205,0c0.271,0,0.829,0,1.815,0c0.116,0,0.236,0,0.366,0
			c-0.09-13.362,8.29-22.901,15.109-30.385L95.612,60.449z"/>
		<rect x="91.204" y="112.014" fill="#C82F69" width="24.604" height="3.242"/>
	</g>
	<g>
		<path fill="#C52F67" d="M94.856,59.693H82.094H69.333l-7.067,24.445c6.819,7.485,15.199,17.023,15.11,30.386
			c0.129,0,0.248,0,0.366,0c0.986,0,1.543,0,1.813,0c0.135,0,0.199,0,0.206,0l0,0c0.053,0,0.107,0,0.161,0c0.068,0,0.133,0,0.205,0
			c0.166,0,0.438,0,0.849,0V91.108c-4.3-0.549-7.625-4.219-7.625-8.67c0-4.828,3.913-8.743,8.742-8.743
			c4.829,0,8.743,3.915,8.743,8.743c0,4.451-3.326,8.121-7.627,8.67v23.417c0.412,0,0.686,0,0.849,0c0.072,0,0.139,0,0.208,0
			c0.054,0,0.107,0,0.16,0l0,0c0.008,0,0.071,0,0.205,0c0.271,0,0.829,0,1.815,0c0.115,0,0.236,0,0.365,0
			c-0.09-13.362,8.29-22.901,15.109-30.386L94.856,59.693z"/>
		<rect x="90.448" y="111.258" fill="#C52F67" width="24.605" height="3.242"/>
	</g>
	<g>
		<path fill="#C32E66" d="M94.101,58.938H81.338H68.577L61.51,83.383c6.819,7.484,15.199,17.023,15.11,30.386
			c0.128,0,0.248,0,0.366,0c0.986,0,1.543,0,1.813,0c0.135,0,0.199,0,0.206,0l0,0c0.053,0,0.106,0,0.161,0c0.068,0,0.133,0,0.205,0
			c0.166,0,0.438,0,0.849,0V90.352c-4.3-0.549-7.625-4.219-7.625-8.67c0-4.828,3.912-8.743,8.742-8.743
			c4.829,0,8.743,3.915,8.743,8.743c0,4.451-3.326,8.121-7.627,8.67v23.417c0.411,0,0.686,0,0.849,0c0.072,0,0.139,0,0.207,0
			c0.054,0,0.108,0,0.161,0l0,0c0.008,0,0.071,0,0.205,0c0.27,0,0.829,0,1.814,0c0.115,0,0.237,0,0.366,0
			c-0.09-13.362,8.29-22.901,15.109-30.386L94.101,58.938z"/>
		<rect x="89.692" y="110.502" fill="#C32E66" width="24.604" height="3.242"/>
	</g>
	<g>
		<path fill="#C12D65" d="M93.345,58.181H80.582H67.821l-7.067,24.446c6.819,7.484,15.199,17.023,15.11,30.386
			c0.129,0,0.248,0,0.366,0c0.986,0,1.543,0,1.813,0c0.134,0,0.198,0,0.206,0l0,0c0.053,0,0.107,0,0.161,0c0.067,0,0.133,0,0.205,0
			c0.165,0,0.438,0,0.849,0V89.596c-4.299-0.549-7.625-4.219-7.625-8.67c0-4.828,3.913-8.743,8.743-8.743
			c4.828,0,8.743,3.915,8.743,8.743c0,4.451-3.326,8.121-7.627,8.67v23.417c0.412,0,0.686,0,0.849,0c0.072,0,0.139,0,0.207,0
			c0.055,0,0.108,0,0.161,0l0,0c0.008,0,0.07,0,0.205,0c0.27,0,0.829,0,1.815,0c0.115,0,0.236,0,0.366,0
			c-0.09-13.363,8.29-22.901,15.108-30.386L93.345,58.181z"/>
		<rect x="88.936" y="109.746" fill="#C12D65" width="24.604" height="3.242"/>
	</g>
	<g>
		<path fill="#BF2C64" d="M92.589,57.426H79.826H67.065l-7.067,24.445c6.819,7.484,15.199,17.023,15.11,30.386
			c0.129,0,0.248,0,0.366,0c0.986,0,1.543,0,1.813,0c0.135,0,0.198,0,0.206,0l0,0c0.053,0,0.107,0,0.162,0c0.067,0,0.133,0,0.205,0
			c0.165,0,0.438,0,0.849,0V88.84c-4.3-0.549-7.625-4.22-7.625-8.67c0-4.828,3.913-8.743,8.743-8.743
			c4.828,0,8.743,3.915,8.743,8.743c0,4.451-3.326,8.122-7.627,8.67v23.417c0.412,0,0.686,0,0.849,0c0.072,0,0.139,0,0.207,0
			c0.055,0,0.108,0,0.161,0l0,0c0.008,0,0.071,0,0.205,0c0.27,0,0.829,0,1.815,0c0.115,0,0.236,0,0.366,0
			c-0.09-13.363,8.291-22.901,15.109-30.386L92.589,57.426z"/>
		<rect x="88.18" y="108.99" fill="#BF2C64" width="24.604" height="3.242"/>
	</g>
	<g>
		<path fill="#BC2C62" d="M91.833,56.669H79.07H66.309l-7.067,24.446c6.819,7.484,15.199,17.023,15.11,30.386
			c0.129,0,0.248,0,0.366,0c0.986,0,1.543,0,1.813,0c0.135,0,0.199,0,0.207,0l0,0c0.053,0,0.106,0,0.161,0c0.067,0,0.133,0,0.205,0
			c0.165,0,0.437,0,0.849,0V88.084c-4.3-0.549-7.625-4.22-7.625-8.671c0-4.828,3.912-8.743,8.742-8.743
			c4.828,0,8.743,3.915,8.743,8.743c0,4.451-3.326,8.122-7.626,8.671v23.417c0.411,0,0.686,0,0.849,0c0.072,0,0.139,0,0.207,0
			c0.055,0,0.108,0,0.161,0l0,0c0.008,0,0.071,0,0.205,0c0.27,0,0.829,0,1.815,0c0.115,0,0.236,0,0.365,0
			C83.699,98.139,92.079,88.6,98.897,81.115L91.833,56.669z"/>
		<rect x="87.424" y="108.234" fill="#BC2C62" width="24.604" height="3.241"/>
	</g>
	<g>
		<path fill="#BA2B61" d="M91.076,55.913H78.314H65.553l-7.067,24.446c6.819,7.484,15.199,17.023,15.11,30.386
			c0.129,0,0.248,0,0.366,0c0.986,0,1.543,0,1.813,0c0.135,0,0.199,0,0.206,0l0,0c0.053,0,0.107,0,0.162,0c0.068,0,0.133,0,0.205,0
			c0.166,0,0.437,0,0.849,0V87.328c-4.3-0.549-7.626-4.22-7.626-8.67c0-4.828,3.913-8.744,8.743-8.744
			c4.829,0,8.743,3.916,8.743,8.744c0,4.451-3.325,8.122-7.626,8.67v23.417c0.412,0,0.685,0,0.849,0c0.072,0,0.139,0,0.208,0
			c0.054,0,0.108,0,0.161,0l0,0c0.008,0,0.071,0,0.205,0c0.27,0,0.829,0,1.815,0c0.115,0,0.236,0,0.365,0
			c-0.09-13.362,8.29-22.901,15.109-30.386L91.076,55.913z"/>
		<rect x="86.668" y="107.478" fill="#BA2B61" width="24.604" height="3.242"/>
	</g>
	<g>
		<path fill="#B82A60" d="M90.32,55.157H77.558H64.797L57.73,79.604c6.819,7.484,15.199,17.022,15.11,30.385
			c0.129,0,0.249,0,0.367,0c0.986,0,1.543,0,1.813,0c0.134,0,0.199,0,0.206,0l0,0c0.053,0,0.107,0,0.161,0c0.068,0,0.133,0,0.205,0
			c0.166,0,0.438,0,0.85,0V86.572c-4.3-0.549-7.626-4.219-7.626-8.67c0-4.828,3.913-8.743,8.742-8.743s8.743,3.915,8.743,8.743
			c0,4.451-3.325,8.122-7.627,8.67v23.417c0.412,0,0.686,0,0.85,0c0.071,0,0.139,0,0.207,0c0.054,0,0.107,0,0.16,0l0,0
			c0.008,0,0.071,0,0.205,0c0.271,0,0.829,0,1.815,0c0.115,0,0.236,0,0.365,0c-0.09-13.362,8.29-22.9,15.109-30.385L90.32,55.157z"
			/>
		<rect x="85.912" y="106.722" fill="#B82A60" width="24.605" height="3.242"/>
	</g>
	<g>
		<path fill="#B6295F" d="M89.564,54.401H76.802H64.041l-7.067,24.446c6.819,7.484,15.2,17.022,15.11,30.385
			c0.129,0,0.248,0,0.367,0c0.985,0,1.542,0,1.813,0c0.135,0,0.199,0,0.206,0l0,0c0.053,0,0.107,0,0.161,0c0.068,0,0.133,0,0.205,0
			c0.166,0,0.438,0,0.849,0V85.816c-4.299-0.549-7.625-4.219-7.625-8.67c0-4.828,3.913-8.743,8.742-8.743
			c4.829,0,8.743,3.915,8.743,8.743c0,4.451-3.326,8.122-7.627,8.67v23.417c0.412,0,0.686,0,0.85,0c0.071,0,0.138,0,0.207,0
			c0.054,0,0.108,0,0.161,0l0,0c0.008,0,0.071,0,0.205,0c0.27,0,0.829,0,1.815,0c0.116,0,0.237,0,0.366,0
			c-0.09-13.362,8.29-22.9,15.109-30.385L89.564,54.401z"/>
		<rect x="85.156" y="105.966" fill="#B6295F" width="24.604" height="3.242"/>
	</g>
	<g>
		<path fill="#B3295D" d="M88.809,53.646H76.046H63.285l-7.067,24.446c6.819,7.484,15.199,17.023,15.11,30.385
			c0.129,0,0.248,0,0.366,0c0.986,0,1.543,0,1.813,0c0.135,0,0.198,0,0.206,0l0,0c0.053,0,0.107,0,0.161,0c0.067,0,0.133,0,0.205,0
			c0.166,0,0.438,0,0.849,0V85.06c-4.3-0.549-7.625-4.22-7.625-8.67c0-4.828,3.913-8.743,8.742-8.743
			c4.828,0,8.743,3.915,8.743,8.743c0,4.45-3.326,8.121-7.627,8.67v23.417c0.412,0,0.686,0,0.849,0c0.072,0,0.139,0,0.207,0
			c0.055,0,0.108,0,0.161,0l0,0c0.008,0,0.071,0,0.205,0c0.27,0,0.829,0,1.815,0c0.115,0,0.236,0,0.366,0
			c-0.09-13.362,8.29-22.901,15.108-30.385L88.809,53.646z"/>
		<rect x="84.399" y="105.21" fill="#B3295D" width="24.605" height="3.242"/>
	</g>
	<g>
		<path fill="#B1285C" d="M88.052,52.889H75.29h-12.76l-7.067,24.446c6.819,7.484,15.199,17.023,15.11,30.385
			c0.129,0,0.248,0,0.366,0c0.986,0,1.543,0,1.813,0c0.135,0,0.199,0,0.206,0l0,0c0.053,0,0.106,0,0.161,0c0.067,0,0.133,0,0.205,0
			c0.166,0,0.438,0,0.849,0V84.304c-4.3-0.549-7.625-4.22-7.625-8.67c0-4.828,3.912-8.743,8.742-8.743
			c4.829,0,8.743,3.915,8.743,8.743c0,4.451-3.326,8.122-7.626,8.67v23.416c0.411,0,0.686,0,0.849,0c0.072,0,0.139,0,0.208,0
			c0.054,0,0.108,0,0.161,0l0,0c0.008,0,0.071,0,0.205,0c0.27,0,0.828,0,1.815,0c0.115,0,0.236,0,0.366,0
			c-0.09-13.362,8.29-22.901,15.108-30.385L88.052,52.889z"/>
		<rect x="83.644" y="104.454" fill="#B1285C" width="24.604" height="3.242"/>
	</g>
	<g>
		<path fill="#AF275B" d="M87.297,52.134H74.534H61.773l-7.067,24.445c6.819,7.485,15.199,17.023,15.11,30.386
			c0.129,0,0.248,0,0.366,0c0.986,0,1.543,0,1.813,0c0.135,0,0.199,0,0.206,0l0,0c0.053,0,0.107,0,0.162,0c0.067,0,0.133,0,0.205,0
			c0.165,0,0.437,0,0.849,0V83.548c-4.3-0.549-7.625-4.22-7.625-8.67c0-4.828,3.912-8.744,8.742-8.744
			c4.828,0,8.743,3.916,8.743,8.744c0,4.45-3.326,8.121-7.627,8.67v23.417c0.412,0,0.686,0,0.849,0c0.072,0,0.139,0,0.207,0
			c0.055,0,0.108,0,0.161,0l0,0c0.008,0,0.07,0,0.205,0c0.27,0,0.828,0,1.814,0c0.115,0,0.236,0,0.366,0
			c-0.09-13.363,8.29-22.901,15.108-30.386L87.297,52.134z"/>
		<rect x="82.888" y="103.698" fill="#AF275B" width="24.604" height="3.241"/>
	</g>
	<g>
		<path fill="#AD265A" d="M86.541,51.377H73.778H61.017L53.95,75.823c6.819,7.484,15.199,17.023,15.11,30.386
			c0.129,0,0.248,0,0.366,0c0.986,0,1.543,0,1.813,0c0.135,0,0.199,0,0.207,0l0,0c0.053,0,0.106,0,0.161,0c0.067,0,0.133,0,0.205,0
			c0.165,0,0.437,0,0.849,0V82.792c-4.3-0.549-7.625-4.22-7.625-8.671c0-4.828,3.912-8.743,8.742-8.743
			c4.828,0,8.743,3.915,8.743,8.743c0,4.451-3.326,8.122-7.626,8.671v23.417c0.411,0,0.686,0,0.849,0c0.072,0,0.139,0,0.207,0
			c0.055,0,0.108,0,0.161,0l0,0c0.008,0,0.071,0,0.205,0c0.27,0,0.829,0,1.815,0c0.115,0,0.236,0,0.365,0
			c-0.089-13.362,8.291-22.901,15.109-30.386L86.541,51.377z"/>
		<rect x="82.132" y="102.942" fill="#AD265A" width="24.604" height="3.241"/>
	</g>
	<g>
		<path fill="#AA2658" d="M85.784,50.621H73.021H60.261l-7.066,24.446c6.819,7.484,15.199,17.022,15.11,30.385
			c0.129,0,0.248,0,0.366,0c0.985,0,1.543,0,1.813,0c0.135,0,0.199,0,0.207,0l0,0c0.052,0,0.107,0,0.161,0c0.068,0,0.133,0,0.205,0
			c0.166,0,0.438,0,0.849,0V82.036c-4.3-0.549-7.625-4.22-7.625-8.67c0-4.828,3.913-8.743,8.742-8.743s8.743,3.915,8.743,8.743
			c0,4.451-3.325,8.122-7.627,8.67v23.416c0.412,0,0.686,0,0.85,0c0.071,0,0.139,0,0.207,0c0.054,0,0.107,0,0.16,0l0,0
			c0.008,0,0.071,0,0.205,0c0.271,0,0.829,0,1.815,0c0.115,0,0.236,0,0.365,0c-0.089-13.362,8.29-22.9,15.109-30.385L85.784,50.621z
			"/>
		<rect x="81.376" y="102.186" fill="#AA2658" width="24.604" height="3.241"/>
	</g>
	<g>
		<path fill="#A82557" d="M85.029,49.866H72.266H59.505l-7.067,24.446c6.82,7.484,15.2,17.023,15.11,30.385c0.129,0,0.248,0,0.367,0
			c0.985,0,1.542,0,1.813,0c0.135,0,0.199,0,0.206,0l0,0c0.053,0,0.107,0,0.161,0c0.068,0,0.133,0,0.205,0c0.166,0,0.438,0,0.849,0
			V81.28c-4.3-0.549-7.625-4.22-7.625-8.671c0-4.828,3.913-8.743,8.742-8.743c4.829,0,8.744,3.915,8.744,8.743
			c0,4.451-3.326,8.122-7.627,8.671v23.416c0.412,0,0.685,0,0.849,0c0.072,0,0.139,0,0.207,0c0.054,0,0.107,0,0.16,0l0,0
			c0.008,0,0.071,0,0.205,0c0.271,0,0.829,0,1.815,0c0.115,0,0.237,0,0.366,0c-0.089-13.362,8.291-22.9,15.109-30.385L85.029,49.866
			z"/>
		<rect x="80.62" y="101.43" fill="#A82557" width="24.605" height="3.241"/>
	</g>
	<g>
		<path fill="#A62456" d="M84.272,49.109H71.51H58.749l-7.067,24.446c6.819,7.485,15.199,17.023,15.111,30.386
			c0.128,0,0.248,0,0.366,0c0.986,0,1.543,0,1.813,0c0.135,0,0.199,0,0.206,0l0,0c0.053,0,0.107,0,0.161,0c0.068,0,0.133,0,0.205,0
			c0.166,0,0.438,0,0.849,0V80.524c-4.3-0.549-7.625-4.221-7.625-8.671c0-4.828,3.913-8.743,8.743-8.743
			c4.828,0,8.743,3.915,8.743,8.743c0,4.45-3.326,8.122-7.627,8.671v23.417c0.412,0,0.686,0,0.849,0c0.072,0,0.139,0,0.207,0
			c0.054,0,0.108,0,0.161,0l0,0c0.008,0,0.071,0,0.205,0c0.27,0,0.829,0,1.815,0c0.115,0,0.236,0,0.366,0
			c-0.09-13.363,8.29-22.901,15.109-30.386L84.272,49.109z"/>
		<rect x="79.864" y="100.674" fill="#A62456" width="24.604" height="3.241"/>
	</g>
	<g>
		<path fill="#A42355" d="M83.517,48.354H70.754H57.993L50.926,72.8c6.819,7.484,15.199,17.022,15.11,30.385
			c0.129,0,0.249,0,0.367,0c0.986,0,1.543,0,1.813,0c0.135,0,0.199,0,0.206,0l0,0c0.053,0,0.107,0,0.161,0c0.067,0,0.133,0,0.205,0
			c0.166,0,0.438,0,0.849,0V79.769c-4.3-0.549-7.625-4.221-7.625-8.671c0-4.828,3.913-8.743,8.742-8.743
			c4.828,0,8.743,3.915,8.743,8.743c0,4.45-3.326,8.122-7.627,8.671v23.416c0.412,0,0.686,0,0.849,0c0.072,0,0.139,0,0.207,0
			c0.054,0,0.108,0,0.161,0l0,0c0.008,0,0.071,0,0.205,0c0.27,0,0.829,0,1.815,0c0.115,0,0.236,0,0.366,0
			c-0.09-13.362,8.29-22.9,15.109-30.385L83.517,48.354z"/>
		<rect x="79.108" y="99.918" fill="#A42355" width="24.604" height="3.241"/>
	</g>
	<g>
		<path fill="#A12353" d="M82.76,47.597H69.998H57.237L50.17,72.043c6.82,7.484,15.2,17.023,15.111,30.385c0.129,0,0.248,0,0.366,0
			c0.986,0,1.543,0,1.813,0c0.135,0,0.198,0,0.206,0l0,0c0.052,0,0.107,0,0.161,0c0.068,0,0.133,0,0.205,0c0.166,0,0.438,0,0.85,0
			V79.012c-4.3-0.549-7.625-4.22-7.625-8.671c0-4.828,3.913-8.743,8.742-8.743c4.829,0,8.743,3.915,8.743,8.743
			c0,4.451-3.326,8.122-7.626,8.671v23.417c0.412,0,0.685,0,0.849,0c0.072,0,0.139,0,0.207,0c0.054,0,0.108,0,0.161,0l0,0
			c0.007,0,0.071,0,0.205,0c0.27,0,0.828,0,1.815,0c0.115,0,0.236,0,0.365,0c-0.089-13.362,8.29-22.901,15.109-30.385L82.76,47.597z
			"/>
		<rect x="78.352" y="99.162" fill="#A12353" width="24.604" height="3.241"/>
	</g>
	<g>
		<path fill="#9F2252" d="M82.005,46.842H69.242H56.481l-7.067,24.446c6.819,7.484,15.199,17.022,15.11,30.384
			c0.129,0,0.248,0,0.367,0c0.986,0,1.542,0,1.813,0c0.135,0,0.199,0,0.207,0l0,0c0.053,0,0.106,0,0.161,0c0.068,0,0.133,0,0.205,0
			c0.166,0,0.438,0,0.849,0V78.256c-4.299-0.548-7.625-4.22-7.625-8.67c0-4.829,3.913-8.744,8.742-8.744
			c4.829,0,8.744,3.915,8.744,8.744c0,4.45-3.326,8.122-7.627,8.67v23.416c0.411,0,0.686,0,0.849,0c0.072,0,0.138,0,0.207,0
			c0.054,0,0.107,0,0.16,0l0,0c0.008,0,0.071,0,0.205,0c0.271,0,0.829,0,1.815,0c0.116,0,0.236,0,0.366,0
			c-0.09-13.362,8.291-22.9,15.109-30.384L82.005,46.842z"/>
		<rect x="77.596" y="98.406" fill="#9F2252" width="24.604" height="3.242"/>
	</g>
	<g>
		<g>
			<path fill="#9D2151" d="M81.249,46.085H68.486H55.725l-7.067,24.446c6.819,7.484,15.199,17.022,15.11,30.385
				c0.129,0,0.248,0,0.366,0c0.986,0,1.543,0,1.813,0c0.135,0,0.199,0,0.206,0l0,0c0.053,0,0.107,0,0.161,0c0.068,0,0.133,0,0.205,0
				c0.166,0,0.438,0,0.849,0V77.5c-4.3-0.549-7.625-4.221-7.625-8.671c0-4.828,3.913-8.743,8.742-8.743
				c4.829,0,8.743,3.915,8.743,8.743c0,4.45-3.326,8.122-7.627,8.671v23.416c0.412,0,0.686,0,0.849,0c0.072,0,0.139,0,0.207,0
				c0.054,0,0.108,0,0.161,0l0,0c0.008,0,0.071,0,0.205,0c0.27,0,0.829,0,1.815,0c0.115,0,0.236,0,0.366,0
				c-0.09-13.362,8.29-22.9,15.109-30.385L81.249,46.085z"/>
			<rect x="76.84" y="97.65" fill="#9D2151" width="24.604" height="3.241"/>
		</g>
	</g>
</g>
<g>
	<g>
		<path fill="#FFFFFF" d="M81.498,46.085H68.735H55.974l-7.067,24.446c6.819,7.484,15.199,17.022,15.11,30.385
			c0.129,0,0.248,0,0.366,0c0.986,0,1.543,0,1.813,0c0.135,0,0.199,0,0.206,0l0,0c0.053,0,0.107,0,0.161,0c0.068,0,0.133,0,0.205,0
			c0.166,0,0.438,0,0.849,0V77.5c-4.3-0.549-7.625-4.221-7.625-8.671c0-4.828,3.913-8.743,8.742-8.743
			c4.829,0,8.743,3.915,8.743,8.743c0,4.45-3.326,8.122-7.627,8.671v23.416c0.412,0,0.686,0,0.849,0c0.072,0,0.139,0,0.207,0
			c0.054,0,0.108,0,0.161,0l0,0c0.008,0,0.071,0,0.205,0c0.27,0,0.829,0,1.815,0c0.115,0,0.236,0,0.366,0
			c-0.09-13.362,8.29-22.9,15.109-30.385L81.498,46.085z"/>
		<rect x="77.089" y="97.65" fill="#FFFFFF" width="24.604" height="3.241"/>
	</g>
</g>
</svg>
