<?xml version="1.0" encoding="utf-8"?>
<!-- Generator: Adobe Illustrator 16.0.3, SVG Export Plug-In . SVG Version: 6.00 Build 0)  -->
<!DOCTYPE svg PUBLIC "-//W3C//DTD SVG 1.1//EN" "http://www.w3.org/Graphics/SVG/1.1/DTD/svg11.dtd">
<svg version="1.1" id="Layer_1" xmlns="http://www.w3.org/2000/svg" xmlns:xlink="http://www.w3.org/1999/xlink" x="0px" y="0px"
	 width="147.333px" height="147px" viewBox="0 0 147.333 147" enable-background="new 0 0 147.333 147" xml:space="preserve">
<circle fill="#CC316B" cx="73.5" cy="73.833" r="72.5"/>
<g>
	<g>
		<path fill="#CC316B" d="M106.514,91.184c-2.999-1.725-6.188-2.639-8.902-3.154c-5.294-1.846-3.56-5.14-2.793-6.352
			c0.156-0.141,0.308-0.269,0.451-0.413c4.468-4.566,8.191-22.15-6.11-22.15c-14.313,0-10.581,17.584-6.121,22.15
			c0.139,0.145,0.299,0.272,0.443,0.404c0.787,1.221,2.518,4.533-2.814,6.376l0.024,0.008c-7.713,1.484-19.232,6.177-19.232,23.707
			h33.166c-0.614-1.667-0.968-3.459-0.968-5.336C93.658,98.785,99.226,92.436,106.514,91.184z"/>
		<path fill="#CC316B" d="M115.861,108.178h-4.972v4.971h-3.507v-4.971h-4.972v-3.509h4.972V99.7h3.507v4.97h4.972V108.178z
			 M109.136,94.893c-6.368,0-11.531,5.162-11.531,11.531c0,6.368,5.163,11.531,11.531,11.531c6.369,0,11.531-5.163,11.531-11.531
			C120.667,100.055,115.505,94.893,109.136,94.893z"/>
	</g>
	<g>
		<path fill="#CA306A" d="M105.758,90.428c-2.999-1.725-6.188-2.639-8.902-3.154c-5.294-1.846-3.56-5.14-2.793-6.352
			c0.156-0.141,0.309-0.268,0.451-0.413c4.485-4.55,8.191-22.15-6.11-22.15c-14.313,0-10.561,17.564-6.121,22.15
			c0.14,0.144,0.299,0.272,0.443,0.404c0.787,1.221,2.518,4.533-2.814,6.376l0.024,0.008c-7.713,1.484-19.232,6.177-19.232,23.707
			H93.87c-0.614-1.667-0.968-3.459-0.968-5.336C92.902,98.029,98.47,91.68,105.758,90.428z"/>
		<path fill="#CA306A" d="M115.105,107.422h-4.972v4.971h-3.507v-4.971h-4.972v-3.509h4.972v-4.97h3.507v4.97h4.972V107.422z
			 M108.38,94.137c-6.368,0-11.531,5.162-11.531,11.531c0,6.368,5.163,11.531,11.531,11.531c6.369,0,11.531-5.163,11.531-11.531
			C119.912,99.299,114.75,94.137,108.38,94.137z"/>
	</g>
	<g>
		<path fill="#C82F69" d="M105.002,89.672c-2.999-1.725-6.188-2.639-8.903-3.154c-5.293-1.846-3.559-5.14-2.792-6.352
			c0.156-0.141,0.309-0.268,0.451-0.413c4.485-4.55,8.191-22.151-6.11-22.151c-14.313,0-10.561,17.565-6.121,22.151
			c0.14,0.144,0.299,0.272,0.443,0.404c0.787,1.221,2.518,4.533-2.814,6.375l0.024,0.009c-7.714,1.484-19.232,6.177-19.232,23.707
			h33.166c-0.614-1.667-0.968-3.459-0.968-5.336C92.146,97.273,97.714,90.924,105.002,89.672z"/>
		<path fill="#C82F69" d="M114.349,106.667h-4.972v4.971h-3.507v-4.971h-4.973v-3.509h4.973v-4.97h3.507v4.97h4.972V106.667z
			 M107.625,93.381c-6.368,0-11.531,5.162-11.531,11.531c0,6.368,5.163,11.531,11.531,11.531c6.369,0,11.531-5.163,11.531-11.531
			C119.156,98.543,113.994,93.381,107.625,93.381z"/>
	</g>
	<g>
		<path fill="#C52F67" d="M104.246,88.917c-2.998-1.726-6.188-2.639-8.901-3.154c-5.294-1.846-3.561-5.141-2.793-6.352
			c0.155-0.142,0.309-0.268,0.451-0.413c4.485-4.55,8.19-22.151-6.11-22.151c-14.313,0-10.57,17.572-6.122,22.151
			c0.14,0.145,0.3,0.271,0.444,0.404c0.786,1.22,2.518,4.532-2.814,6.375l0.024,0.009c-7.714,1.484-19.233,6.177-19.233,23.707
			h33.166c-0.614-1.667-0.967-3.459-0.967-5.337C91.39,96.516,96.958,90.168,104.246,88.917z"/>
		<path fill="#C52F67" d="M113.593,105.911h-4.973v4.971h-3.507v-4.971h-4.971v-3.51h4.971v-4.97h3.507v4.97h4.973V105.911z
			 M106.868,92.625c-6.368,0-11.53,5.161-11.53,11.53s5.162,11.532,11.53,11.532c6.37,0,11.531-5.163,11.531-11.532
			S113.238,92.625,106.868,92.625z"/>
	</g>
	<g>
		<path fill="#C32E66" d="M103.49,88.16c-2.998-1.725-6.188-2.638-8.902-3.153c-5.294-1.846-3.559-5.141-2.793-6.352
			c0.157-0.141,0.309-0.269,0.451-0.414c4.484-4.549,8.191-22.15-6.11-22.15c-14.312,0-10.56,17.564-6.12,22.15
			c0.14,0.144,0.298,0.273,0.443,0.404c0.786,1.221,2.518,4.534-2.814,6.376l0.023,0.009c-7.713,1.484-19.232,6.176-19.232,23.706
			h33.166c-0.613-1.667-0.968-3.459-0.968-5.336C90.633,95.761,96.203,89.412,103.49,88.16z"/>
		<path fill="#C32E66" d="M112.836,105.154h-4.971v4.971h-3.507v-4.971h-4.973v-3.509h4.973v-4.969h3.507v4.969h4.971V105.154z
			 M106.112,91.87c-6.367,0-11.53,5.162-11.53,11.53s5.163,11.532,11.53,11.532c6.37,0,11.531-5.164,11.531-11.532
			S112.482,91.87,106.112,91.87z"/>
	</g>
	<g>
		<path fill="#C12D65" d="M102.734,87.404c-2.998-1.725-6.188-2.638-8.902-3.154c-5.293-1.846-3.56-5.14-2.793-6.352
			c0.156-0.141,0.309-0.268,0.451-0.413c4.485-4.549,8.191-22.15-6.11-22.15c-14.312,0-10.568,17.571-6.121,22.15
			c0.14,0.145,0.299,0.272,0.443,0.404c0.787,1.221,2.519,4.533-2.813,6.376l0.023,0.009C69.199,85.757,57.68,90.45,57.68,107.98
			h33.166c-0.614-1.667-0.968-3.459-0.968-5.336C89.877,95.004,95.447,88.657,102.734,87.404z"/>
		<path fill="#C12D65" d="M112.081,104.398h-4.972v4.971h-3.507v-4.971H98.63v-3.509h4.972v-4.97h3.507v4.97h4.972V104.398z
			 M105.356,91.114c-6.368,0-11.53,5.161-11.53,11.53c0,6.368,5.162,11.532,11.53,11.532c6.369,0,11.531-5.164,11.531-11.532
			C116.887,96.275,111.725,91.114,105.356,91.114z"/>
	</g>
	<g>
		<path fill="#BF2C64" d="M101.978,86.648c-2.999-1.725-6.188-2.638-8.902-3.154c-5.294-1.846-3.56-5.14-2.793-6.352
			c0.156-0.141,0.309-0.268,0.451-0.413c4.485-4.549,8.191-22.15-6.11-22.15c-14.313,0-10.568,17.572-6.121,22.15
			c0.14,0.145,0.299,0.272,0.443,0.404c0.787,1.221,2.518,4.533-2.814,6.376l0.024,0.009c-7.713,1.483-19.232,6.176-19.232,23.706
			h33.166c-0.614-1.667-0.968-3.459-0.968-5.336C89.122,94.249,94.691,87.9,101.978,86.648z"/>
		<path fill="#BF2C64" d="M111.325,103.642h-4.972v4.971h-3.507v-4.971h-4.972v-3.509h4.972v-4.97h3.507v4.97h4.972V103.642z
			 M104.6,90.357c-6.368,0-11.531,5.162-11.531,11.531c0,6.368,5.163,11.532,11.531,11.532c6.369,0,11.531-5.164,11.531-11.532
			C116.131,95.519,110.969,90.357,104.6,90.357z"/>
	</g>
	<g>
		<path fill="#BC2C62" d="M101.222,85.892c-2.998-1.725-6.188-2.639-8.902-3.154c-5.294-1.846-3.56-5.14-2.793-6.352
			c0.156-0.141,0.309-0.268,0.451-0.413c4.484-4.549,8.191-22.15-6.11-22.15c-14.313,0-10.561,17.564-6.121,22.15
			c0.14,0.144,0.299,0.272,0.443,0.404c0.787,1.221,2.518,4.533-2.814,6.376l0.024,0.008c-7.713,1.484-19.232,6.177-19.232,23.707
			h33.166c-0.614-1.667-0.968-3.459-0.968-5.337C88.366,93.493,93.935,87.144,101.222,85.892z"/>
		<path fill="#BC2C62" d="M110.569,102.886h-4.972v4.971h-3.507v-4.971h-4.972v-3.509h4.972v-4.97h3.507v4.97h4.972V102.886z
			 M103.843,89.601c-6.367,0-11.53,5.162-11.53,11.53c0,6.369,5.163,11.532,11.53,11.532c6.37,0,11.532-5.163,11.532-11.532
			C115.375,94.763,110.213,89.601,103.843,89.601z"/>
	</g>
	<g>
		<path fill="#BA2B61" d="M100.466,85.136c-2.999-1.726-6.188-2.639-8.902-3.154c-5.294-1.846-3.561-5.14-2.793-6.353
			c0.156-0.14,0.309-0.267,0.451-0.412c4.484-4.549,8.191-22.15-6.111-22.15c-14.312,0-10.56,17.564-6.12,22.15
			c0.14,0.144,0.299,0.272,0.443,0.404c0.787,1.221,2.518,4.533-2.814,6.376l0.024,0.008c-7.713,1.484-19.232,6.177-19.232,23.707
			h33.166c-0.615-1.667-0.968-3.459-0.968-5.336C87.61,92.737,93.178,86.388,100.466,85.136z"/>
		<path fill="#BA2B61" d="M109.812,102.129h-4.971v4.971h-3.508v-4.971h-4.971v-3.508h4.971v-4.971h3.508v4.971h4.971V102.129z
			 M103.088,88.845c-6.368,0-11.531,5.162-11.531,11.531c0,6.368,5.163,11.531,11.531,11.531c6.369,0,11.531-5.163,11.531-11.531
			C114.62,94.007,109.458,88.845,103.088,88.845z"/>
	</g>
	<g>
		<path fill="#B82A60" d="M99.71,84.38c-2.999-1.726-6.189-2.639-8.902-3.154c-5.294-1.846-3.561-5.14-2.793-6.353
			c0.156-0.141,0.309-0.267,0.451-0.412c4.484-4.549,8.191-22.151-6.11-22.151c-14.313,0-10.561,17.564-6.121,22.151
			c0.14,0.144,0.298,0.271,0.443,0.404c0.786,1.221,2.518,4.533-2.815,6.375l0.025,0.009c-7.714,1.484-19.232,6.177-19.232,23.706
			h33.166c-0.615-1.666-0.968-3.458-0.968-5.336C86.854,91.981,92.422,85.632,99.71,84.38z"/>
		<path fill="#B82A60" d="M109.056,101.374h-4.971v4.971h-3.508v-4.971h-4.971v-3.508h4.971v-4.971h3.508v4.971h4.971V101.374z
			 M102.332,88.089c-6.367,0-11.53,5.161-11.53,11.53s5.163,11.532,11.53,11.532c6.37,0,11.532-5.163,11.532-11.532
			S108.702,88.089,102.332,88.089z"/>
	</g>
	<g>
		<path fill="#B6295F" d="M98.954,83.624c-2.998-1.725-6.188-2.638-8.901-3.154c-5.295-1.846-3.561-5.139-2.793-6.351
			c0.156-0.141,0.308-0.267,0.451-0.413c4.492-4.542,8.191-22.151-6.111-22.151c-14.312,0-10.56,17.565-6.12,22.151
			c0.14,0.144,0.298,0.272,0.442,0.404c0.787,1.221,2.519,4.534-2.814,6.375l0.024,0.009C65.418,81.977,53.9,86.67,53.9,104.2
			h33.166c-0.615-1.666-0.968-3.458-0.968-5.336C86.098,91.225,91.667,84.875,98.954,83.624z"/>
		<path fill="#B6295F" d="M108.3,100.618h-4.971v4.971h-3.508v-4.971h-4.971V97.11h4.971v-4.971h3.508v4.971h4.971V100.618z
			 M101.576,87.333c-6.367,0-11.53,5.163-11.53,11.531c0,6.369,5.163,11.532,11.53,11.532c6.369,0,11.532-5.163,11.532-11.532
			C113.108,92.496,107.945,87.333,101.576,87.333z"/>
	</g>
	<g>
		<path fill="#B3295D" d="M98.198,82.868c-2.998-1.725-6.188-2.638-8.902-3.154c-5.294-1.846-3.56-5.139-2.792-6.352
			c0.156-0.141,0.308-0.268,0.451-0.413c4.492-4.542,8.19-22.15-6.111-22.15c-14.312,0-10.569,17.572-6.121,22.15
			c0.14,0.144,0.299,0.272,0.444,0.405c0.786,1.221,2.518,4.533-2.815,6.375l0.024,0.009c-7.713,1.483-19.232,6.177-19.232,23.706
			H86.31c-0.615-1.666-0.969-3.459-0.969-5.336C85.341,90.469,90.911,84.12,98.198,82.868z"/>
		<path fill="#B3295D" d="M107.544,99.862h-4.971v4.971h-3.508v-4.971h-4.972v-3.508h4.972v-4.971h3.508v4.971h4.971V99.862z
			 M100.82,86.577c-6.367,0-11.53,5.162-11.53,11.531s5.163,11.532,11.53,11.532c6.369,0,11.531-5.163,11.531-11.532
			S107.189,86.577,100.82,86.577z"/>
	</g>
	<g>
		<path fill="#B1285C" d="M97.442,82.112c-2.998-1.725-6.188-2.638-8.901-3.154c-5.295-1.846-3.561-5.14-2.794-6.352
			c0.156-0.141,0.309-0.268,0.451-0.413c4.485-4.549,8.191-22.15-6.11-22.15c-14.312,0-10.569,17.572-6.121,22.15
			c0.14,0.144,0.299,0.272,0.443,0.404c0.787,1.221,2.519,4.533-2.814,6.376l0.025,0.009c-7.713,1.483-19.233,6.177-19.233,23.706
			h33.166c-0.614-1.667-0.968-3.459-0.968-5.336C84.585,89.712,90.155,83.364,97.442,82.112z"/>
		<path fill="#B1285C" d="M106.789,99.106h-4.972v4.971H98.31v-4.971h-4.971v-3.509h4.971v-4.97h3.507v4.97h4.972V99.106z
			 M100.064,85.821c-6.368,0-11.53,5.162-11.53,11.531c0,6.368,5.162,11.532,11.53,11.532c6.369,0,11.531-5.164,11.531-11.532
			C111.595,90.983,106.433,85.821,100.064,85.821z"/>
	</g>
	<g>
		<path fill="#AF275B" d="M96.686,81.356c-2.998-1.725-6.188-2.638-8.902-3.154c-5.294-1.846-3.56-5.14-2.793-6.352
			c0.156-0.141,0.309-0.268,0.451-0.413c4.485-4.549,8.191-22.15-6.11-22.15c-14.312,0-10.564,17.568-6.121,22.15
			c0.14,0.144,0.298,0.272,0.443,0.404c0.787,1.221,2.518,4.533-2.815,6.376l0.024,0.009c-7.713,1.483-19.232,6.176-19.232,23.706
			h33.166c-0.614-1.667-0.968-3.459-0.968-5.336C83.83,88.957,89.399,82.608,96.686,81.356z"/>
		<path fill="#AF275B" d="M106.033,98.349h-4.972v4.972h-3.507v-4.972h-4.972v-3.508h4.972v-4.97h3.507v4.97h4.972V98.349z
			 M99.308,85.065c-6.368,0-11.53,5.162-11.53,11.531c0,6.368,5.162,11.532,11.53,11.532c6.369,0,11.531-5.164,11.531-11.532
			C110.839,90.227,105.677,85.065,99.308,85.065z"/>
	</g>
	<g>
		<path fill="#AD265A" d="M95.93,80.6c-2.998-1.725-6.188-2.639-8.902-3.154c-5.294-1.846-3.561-5.14-2.793-6.352
			c0.156-0.141,0.309-0.268,0.451-0.413c4.484-4.549,8.191-22.15-6.11-22.15c-14.313,0-10.561,17.564-6.121,22.15
			c0.139,0.144,0.299,0.272,0.443,0.404c0.787,1.221,2.518,4.533-2.814,6.376l0.024,0.008c-7.713,1.484-19.232,6.177-19.232,23.706
			h33.166c-0.615-1.666-0.968-3.458-0.968-5.336C83.074,88.201,88.643,81.852,95.93,80.6z"/>
		<path fill="#AD265A" d="M105.276,97.594h-4.971v4.97h-3.508v-4.97h-4.971v-3.509h4.971v-4.97h3.508v4.97h4.971V97.594z
			 M98.551,84.309c-6.367,0-11.529,5.162-11.529,11.53c0,6.369,5.162,11.533,11.529,11.533c6.37,0,11.532-5.164,11.532-11.533
			C110.083,89.471,104.921,84.309,98.551,84.309z"/>
	</g>
	<g>
		<path fill="#AA2658" d="M95.174,79.844c-2.999-1.725-6.189-2.639-8.902-3.154c-5.294-1.846-3.561-5.14-2.793-6.352
			c0.156-0.141,0.309-0.268,0.451-0.413c4.484-4.549,8.191-22.15-6.11-22.15c-14.313,0-10.561,17.564-6.121,22.15
			c0.139,0.144,0.298,0.271,0.443,0.404c0.787,1.221,2.518,4.533-2.814,6.375l0.024,0.009c-7.714,1.484-19.232,6.177-19.232,23.706
			h33.166c-0.615-1.666-0.968-3.458-0.968-5.336C82.318,87.445,87.886,81.096,95.174,79.844z"/>
		<path fill="#AA2658" d="M104.52,96.837h-4.971v4.971h-3.508v-4.971h-4.971V93.33h4.971v-4.971h3.508v4.971h4.971V96.837z
			 M97.795,83.553c-6.367,0-11.529,5.162-11.529,11.53c0,6.369,5.162,11.533,11.529,11.533c6.37,0,11.532-5.164,11.532-11.533
			C109.328,88.715,104.166,83.553,97.795,83.553z"/>
	</g>
	<g>
		<path fill="#A82557" d="M94.418,79.088c-2.998-1.725-6.189-2.639-8.902-3.154c-5.294-1.846-3.561-5.14-2.793-6.352
			c0.155-0.141,0.308-0.268,0.451-0.413c4.48-4.553,8.191-22.15-6.111-22.15c-14.312,0-10.556,17.561-6.12,22.15
			c0.14,0.144,0.298,0.272,0.443,0.405c0.786,1.221,2.518,4.533-2.814,6.375l0.024,0.009c-7.713,1.484-19.232,6.177-19.232,23.706
			H82.53c-0.615-1.666-0.968-3.458-0.968-5.336C81.562,86.688,87.13,80.34,94.418,79.088z"/>
		<path fill="#A82557" d="M103.764,96.082h-4.972v4.971h-3.507v-4.971h-4.971v-3.508h4.971v-4.971h3.507v4.971h4.972V96.082z
			 M97.04,82.797c-6.368,0-11.53,5.162-11.53,11.53c0,6.369,5.162,11.533,11.53,11.533c6.37,0,11.532-5.164,11.532-11.533
			C108.572,87.959,103.41,82.797,97.04,82.797z"/>
	</g>
	<g>
		<path fill="#A62456" d="M93.662,78.333c-2.998-1.726-6.188-2.639-8.902-3.154c-5.293-1.846-3.56-5.14-2.792-6.353
			c0.156-0.141,0.308-0.267,0.451-0.413c4.48-4.553,8.19-22.15-6.111-22.15c-14.312,0-10.556,17.56-6.12,22.15
			c0.14,0.144,0.298,0.272,0.443,0.404c0.786,1.221,2.518,4.533-2.815,6.375l0.024,0.009c-7.713,1.484-19.232,6.176-19.232,23.706
			h33.166c-0.614-1.667-0.967-3.459-0.967-5.336C80.806,85.933,86.375,79.584,93.662,78.333z"/>
		<path fill="#A62456" d="M103.008,95.326h-4.971v4.971H94.53v-4.971h-4.972v-3.509h4.972v-4.97h3.508v4.97h4.971V95.326z
			 M96.284,82.042c-6.367,0-11.53,5.162-11.53,11.53s5.163,11.532,11.53,11.532c6.37,0,11.532-5.164,11.532-11.532
			S102.654,82.042,96.284,82.042z"/>
	</g>
	<g>
		<path fill="#A42355" d="M92.906,77.577c-2.998-1.726-6.188-2.639-8.901-3.155c-5.295-1.846-3.562-5.14-2.793-6.352
			c0.155-0.141,0.309-0.268,0.451-0.413c4.488-4.545,8.19-22.151-6.111-22.151c-14.312,0-10.564,17.568-6.12,22.151
			c0.139,0.144,0.298,0.272,0.443,0.404c0.787,1.221,2.518,4.534-2.814,6.376l0.024,0.009c-7.713,1.483-19.232,6.177-19.232,23.706
			h33.166c-0.615-1.667-0.968-3.458-0.968-5.337C80.049,85.176,85.619,78.828,92.906,77.577z"/>
		<path fill="#A42355" d="M102.252,94.57h-4.972v4.971h-3.508V94.57h-4.97v-3.509h4.97v-4.97h3.508v4.97h4.972V94.57z
			 M95.527,81.286c-6.367,0-11.529,5.161-11.529,11.529c0,6.37,5.162,11.533,11.529,11.533c6.37,0,11.532-5.163,11.532-11.533
			C107.059,86.447,101.897,81.286,95.527,81.286z"/>
	</g>
	<g>
		<path fill="#A12353" d="M92.15,76.82c-2.998-1.725-6.189-2.638-8.902-3.154c-5.293-1.846-3.56-5.139-2.793-6.352
			c0.156-0.141,0.309-0.268,0.451-0.413c4.485-4.549,8.191-22.15-6.11-22.15c-14.312,0-10.561,17.563-6.121,22.15
			c0.139,0.144,0.298,0.272,0.444,0.405c0.786,1.221,2.518,4.533-2.815,6.375l0.024,0.008c-7.713,1.484-19.232,6.176-19.232,23.707
			h33.166c-0.614-1.667-0.968-3.459-0.968-5.337C79.293,84.42,84.863,78.073,92.15,76.82z"/>
		<path fill="#A12353" d="M101.496,93.813h-4.971v4.971h-3.507v-4.971h-4.972v-3.508h4.972v-4.971h3.507v4.971h4.971V93.813z
			 M94.771,80.529c-6.367,0-11.529,5.163-11.529,11.53c0,6.369,5.162,11.533,11.529,11.533c6.37,0,11.532-5.164,11.532-11.533
			C106.303,85.692,101.141,80.529,94.771,80.529z"/>
	</g>
	<g>
		<path fill="#9F2252" d="M91.394,76.064c-2.998-1.725-6.189-2.638-8.902-3.154c-5.294-1.846-3.561-5.14-2.793-6.353
			c0.156-0.14,0.309-0.268,0.451-0.413c4.484-4.549,8.191-22.15-6.11-22.15c-14.312,0-10.556,17.561-6.12,22.15
			c0.139,0.144,0.298,0.272,0.443,0.404c0.787,1.221,2.518,4.534-2.815,6.375l0.025,0.009c-7.714,1.484-19.233,6.176-19.233,23.706
			h33.166c-0.615-1.666-0.968-3.458-0.968-5.336C78.538,83.665,84.107,77.316,91.394,76.064z"/>
		<path fill="#9F2252" d="M100.74,93.057h-4.971v4.971h-3.508v-4.971h-4.971v-3.508h4.971v-4.971h3.508v4.971h4.971V93.057z
			 M94.015,79.773c-6.367,0-11.529,5.162-11.529,11.53c0,6.369,5.162,11.533,11.529,11.533c6.37,0,11.532-5.164,11.532-11.533
			C105.547,84.935,100.385,79.773,94.015,79.773z"/>
	</g>
	<g>
		<path fill="#9D2151" d="M90.638,75.308c-2.998-1.725-6.189-2.638-8.902-3.154c-5.294-1.846-3.561-5.14-2.793-6.352
			c0.156-0.141,0.308-0.268,0.451-0.413c4.467-4.566,8.191-22.15-6.111-22.15c-14.312,0-10.581,17.584-6.12,22.15
			c0.139,0.145,0.298,0.272,0.443,0.404c0.786,1.221,2.518,4.533-2.815,6.375l0.024,0.009c-7.713,1.484-19.232,6.176-19.232,23.706
			H78.75c-0.615-1.666-0.968-3.458-0.968-5.336C77.782,82.909,83.351,76.56,90.638,75.308z"/>
		<path fill="#9D2151" d="M99.984,92.301h-4.971v4.971h-3.508v-4.971h-4.971v-3.508h4.971v-4.971h3.508v4.971h4.971V92.301z
			 M93.259,79.017c-6.367,0-11.529,5.162-11.529,11.53c0,6.369,5.162,11.533,11.529,11.533c6.37,0,11.532-5.164,11.532-11.533
			C104.792,84.179,99.629,79.017,93.259,79.017z"/>
	</g>
</g>
<g>
	<path fill="#F5F5F5" d="M90.887,75.308c-2.999-1.725-6.188-2.638-8.902-3.154c-5.294-1.846-3.56-5.14-2.793-6.352
		c0.156-0.141,0.308-0.268,0.451-0.413c4.468-4.566,8.191-22.15-6.111-22.15c-14.312,0-10.581,17.584-6.12,22.15
		c0.139,0.145,0.298,0.272,0.443,0.404c0.786,1.221,2.518,4.533-2.815,6.375l0.024,0.009c-7.713,1.484-19.232,6.176-19.232,23.706
		h33.166c-0.614-1.666-0.968-3.458-0.968-5.336C78.031,82.909,83.599,76.56,90.887,75.308z"/>
	<path fill="#F5F5F5" d="M93.509,79.017c-6.368,0-11.531,5.162-11.531,11.53c0,6.369,5.163,11.533,11.531,11.533
		c6.369,0,11.531-5.164,11.531-11.533C105.041,84.179,99.878,79.017,93.509,79.017z M100.234,92.301h-4.972v4.971h-3.507v-4.971
		h-4.972v-3.508h4.972v-4.971h3.507v4.971h4.972V92.301z"/>
</g>
</svg>
