<?xml version="1.0" encoding="utf-8"?>
<!-- Generator: Adobe Illustrator 16.0.3, SVG Export Plug-In . SVG Version: 6.00 Build 0)  -->
<!DOCTYPE svg PUBLIC "-//W3C//DTD SVG 1.1//EN" "http://www.w3.org/Graphics/SVG/1.1/DTD/svg11.dtd">
<svg version="1.1" id="Layer_1" xmlns="http://www.w3.org/2000/svg" xmlns:xlink="http://www.w3.org/1999/xlink" x="0px" y="0px"
	 width="147.333px" height="147px" viewBox="0 0 147.333 147" enable-background="new 0 0 147.333 147" xml:space="preserve">
<circle fill="#CC316B" cx="73.833" cy="73.5" r="72.5"/>
<g>
	<g>
		<g>
			<path fill="#CC316B" d="M97.753,97.514l-1.662,0.704v3.184H84.831v-3.184l-1.661-0.704c-6.936-2.938-11.415-9.703-11.415-17.234
				c0-10.315,8.39-18.708,18.707-18.708c10.315,0,18.708,8.392,18.708,18.708C109.169,87.812,104.687,94.576,97.753,97.514z
				 M107.542,63.2c-4.562-4.563-10.629-7.076-17.081-7.076c-6.453,0-12.519,2.512-17.082,7.076
				c-4.562,4.562-7.076,10.628-7.076,17.081c0,4.838,1.427,9.507,4.124,13.501c2.215,3.278,5.165,5.938,8.618,7.789
				c-1.459,0.463-2.517,1.828-2.517,3.439v10.325c0,1.992,1.617,3.607,3.609,3.607h1.955l1.382,2.491
				c0.366,0.659,1.282,1.197,2.035,1.197h3.001h3.9h3.001c0.754,0,1.669-0.539,2.034-1.197l1.381-2.491h1.959
				c1.992,0,3.607-1.615,3.607-3.607v-10.325c0-1.611-1.057-2.976-2.516-3.439c3.453-1.851,6.403-4.511,8.617-7.789
				c2.696-3.995,4.123-8.664,4.123-13.501C114.619,73.828,112.105,67.762,107.542,63.2z"/>
			<path fill="#CC316B" d="M99.062,77.566c-0.619-0.62-1.625-0.62-2.248,0l-2.613,2.615l-2.615-2.615
				c-0.621-0.62-1.627-0.621-2.249,0l-2.613,2.615l-2.614-2.615c-0.621-0.62-1.627-0.62-2.248,0l-3.738,3.739
				c-0.621,0.621-0.621,1.627,0,2.248c0.62,0.62,1.625,0.62,2.248,0l2.613-2.615l2.614,2.615c0.3,0.297,0.703,0.465,1.125,0.465
				c0.421,0,0.825-0.168,1.124-0.465l2.614-2.615l2.615,2.615c0.62,0.62,1.626,0.62,2.247,0l2.614-2.615l2.615,2.615
				c0.312,0.31,0.718,0.465,1.123,0.465c0.407,0,0.813-0.155,1.123-0.465c0.623-0.621,0.623-1.627,0-2.248L99.062,77.566z"/>
		</g>
	</g>
	<g>
		<path fill="#CA306A" d="M96.998,96.758l-1.662,0.705v3.183H84.075v-3.183l-1.661-0.705c-6.936-2.938-11.416-9.702-11.416-17.233
			c0-10.315,8.39-18.708,18.708-18.708c10.315,0,18.708,8.393,18.708,18.708C108.413,87.056,103.931,93.82,96.998,96.758z
			 M106.787,62.444c-4.562-4.563-10.629-7.076-17.081-7.076c-6.454,0-12.519,2.512-17.082,7.076
			c-4.562,4.562-7.076,10.627-7.076,17.081c0,4.838,1.427,9.507,4.124,13.501c2.215,3.279,5.165,5.938,8.618,7.789
			c-1.459,0.463-2.516,1.827-2.516,3.438v10.325c0,1.993,1.617,3.607,3.609,3.607h1.955l1.381,2.491
			c0.366,0.658,1.283,1.197,2.036,1.197h3.001h3.9h3.001c0.753,0,1.669-0.539,2.034-1.197l1.381-2.491h1.959
			c1.992,0,3.607-1.615,3.607-3.607v-10.325c0-1.611-1.056-2.975-2.516-3.438c3.454-1.852,6.404-4.511,8.618-7.789
			c2.696-3.994,4.123-8.663,4.123-13.501C113.863,73.071,111.349,67.006,106.787,62.444z"/>
		<path fill="#CA306A" d="M98.306,76.811c-0.62-0.62-1.625-0.62-2.249,0l-2.613,2.615l-2.616-2.615c-0.621-0.62-1.626-0.621-2.249,0
			l-2.614,2.615l-2.614-2.615c-0.621-0.62-1.626-0.62-2.248,0l-3.739,3.739c-0.621,0.621-0.621,1.626,0,2.248
			c0.621,0.62,1.625,0.62,2.249,0l2.613-2.615l2.614,2.615c0.3,0.297,0.703,0.465,1.125,0.465c0.421,0,0.826-0.167,1.125-0.465
			l2.614-2.615l2.615,2.615c0.62,0.62,1.625,0.62,2.247,0l2.614-2.615l2.615,2.615c0.311,0.31,0.718,0.465,1.123,0.465
			c0.407,0,0.813-0.155,1.123-0.465c0.623-0.622,0.623-1.627,0-2.248L98.306,76.811z"/>
	</g>
	<g>
		<path fill="#C82F69" d="M96.241,96.002l-1.662,0.704v3.184H83.319v-3.184l-1.661-0.704c-6.936-2.938-11.416-9.702-11.416-17.233
			c0-10.315,8.39-18.708,18.708-18.708c10.315,0,18.708,8.392,18.708,18.708C107.658,86.3,103.175,93.064,96.241,96.002z
			 M106.03,61.688c-4.561-4.563-10.629-7.075-17.081-7.075c-6.454,0-12.519,2.512-17.083,7.075
			c-4.562,4.563-7.076,10.628-7.076,17.081c0,4.837,1.426,9.507,4.124,13.501c2.215,3.278,5.166,5.938,8.618,7.789
			c-1.458,0.463-2.517,1.828-2.517,3.439v10.325c0,1.992,1.618,3.606,3.609,3.606h1.955l1.382,2.491
			c0.367,0.659,1.282,1.198,2.035,1.198h3.001h3.9h3.001c0.754,0,1.668-0.539,2.034-1.198l1.381-2.491h1.959
			c1.992,0,3.607-1.615,3.607-3.606v-10.325c0-1.611-1.057-2.976-2.516-3.439c3.453-1.851,6.404-4.511,8.617-7.789
			c2.696-3.994,4.124-8.664,4.124-13.501C113.107,72.315,110.593,66.25,106.03,61.688z"/>
		<path fill="#C82F69" d="M97.55,76.054c-0.619-0.62-1.625-0.62-2.248,0l-2.614,2.615l-2.615-2.615c-0.621-0.62-1.626-0.621-2.249,0
			l-2.613,2.615l-2.614-2.615c-0.622-0.62-1.627-0.62-2.249,0l-3.738,3.739c-0.621,0.622-0.621,1.627,0,2.249
			c0.62,0.62,1.625,0.62,2.249,0l2.613-2.615l2.614,2.615c0.3,0.297,0.703,0.465,1.125,0.465c0.421,0,0.825-0.168,1.124-0.465
			l2.614-2.615l2.615,2.615c0.62,0.62,1.625,0.62,2.247,0l2.614-2.615l2.615,2.615c0.312,0.31,0.718,0.465,1.123,0.465
			c0.408,0,0.814-0.156,1.123-0.465c0.624-0.621,0.624-1.627,0-2.249L97.55,76.054z"/>
	</g>
	<g>
		<path fill="#C52F67" d="M95.485,95.246l-1.662,0.704v3.184H82.563V95.95l-1.661-0.704c-6.936-2.938-11.415-9.703-11.415-17.234
			c0-10.315,8.39-18.708,18.707-18.708c10.315,0,18.708,8.392,18.708,18.708C106.902,85.543,102.419,92.308,95.485,95.246z
			 M105.274,60.932c-4.561-4.563-10.628-7.076-17.081-7.076c-6.453,0-12.519,2.512-17.082,7.076
			c-4.562,4.562-7.076,10.628-7.076,17.081c0,4.838,1.427,9.507,4.125,13.501c2.214,3.279,5.165,5.938,8.618,7.789
			c-1.459,0.463-2.517,1.828-2.517,3.439v10.325c0,1.992,1.617,3.607,3.609,3.607h1.955l1.382,2.49
			c0.366,0.659,1.282,1.197,2.035,1.197h3.001h3.9h3.001c0.754,0,1.669-0.539,2.035-1.197l1.381-2.49h1.958
			c1.993,0,3.607-1.615,3.607-3.607v-10.325c0-1.611-1.057-2.976-2.516-3.439c3.453-1.851,6.404-4.51,8.617-7.789
			c2.696-3.995,4.124-8.664,4.124-13.501C112.351,71.56,109.837,65.494,105.274,60.932z"/>
		<path fill="#C52F67" d="M96.794,75.298c-0.62-0.62-1.625-0.62-2.248,0l-2.613,2.616l-2.615-2.616c-0.622-0.62-1.627-0.621-2.249,0
			l-2.614,2.616l-2.614-2.616c-0.621-0.62-1.627-0.62-2.248,0l-3.739,3.739c-0.621,0.621-0.621,1.627,0,2.248
			c0.621,0.62,1.625,0.62,2.249,0l2.613-2.615l2.614,2.615c0.3,0.297,0.704,0.465,1.125,0.465c0.421,0,0.826-0.168,1.124-0.465
			l2.614-2.615l2.615,2.615c0.62,0.62,1.626,0.62,2.247,0l2.614-2.615l2.615,2.615c0.312,0.311,0.718,0.465,1.123,0.465
			c0.407,0,0.813-0.155,1.124-0.465c0.623-0.621,0.623-1.627,0-2.248L96.794,75.298z"/>
	</g>
	<g>
		<path fill="#C32E66" d="M94.729,94.49l-1.662,0.704v3.184H81.807v-3.184l-1.661-0.704C73.21,91.552,68.73,84.788,68.73,77.256
			c0-10.315,8.39-18.708,18.707-18.708c10.315,0,18.708,8.392,18.708,18.708C106.146,84.788,101.663,91.552,94.729,94.49z
			 M104.519,60.176C99.957,55.612,93.89,53.1,87.437,53.1s-12.518,2.512-17.082,7.076c-4.562,4.562-7.077,10.628-7.077,17.081
			c0,4.837,1.428,9.507,4.125,13.501c2.214,3.278,5.165,5.938,8.618,7.789c-1.459,0.463-2.517,1.828-2.517,3.439v10.325
			c0,1.992,1.617,3.607,3.609,3.607h1.956l1.382,2.491c0.367,0.659,1.282,1.197,2.035,1.197h3.001h3.9h3.001
			c0.754,0,1.669-0.539,2.034-1.197l1.381-2.491h1.958c1.992,0,3.607-1.615,3.607-3.607v-10.325c0-1.611-1.057-2.976-2.515-3.439
			c3.453-1.851,6.403-4.511,8.617-7.789c2.696-3.995,4.124-8.664,4.124-13.501C111.595,70.804,109.081,64.738,104.519,60.176z"/>
		<path fill="#C32E66" d="M96.038,74.542c-0.619-0.62-1.625-0.62-2.248,0l-2.612,2.616l-2.616-2.616c-0.622-0.62-1.627-0.62-2.249,0
			l-2.613,2.616l-2.615-2.616c-0.621-0.62-1.627-0.62-2.248,0l-3.738,3.739c-0.621,0.621-0.621,1.627,0,2.248
			c0.62,0.62,1.625,0.62,2.248,0l2.613-2.615l2.614,2.615c0.3,0.297,0.704,0.465,1.125,0.465c0.42,0,0.825-0.167,1.124-0.465
			l2.614-2.615l2.616,2.615c0.62,0.62,1.626,0.62,2.247,0l2.614-2.615l2.615,2.615c0.311,0.31,0.718,0.465,1.123,0.465
			c0.408,0,0.814-0.155,1.123-0.465c0.623-0.621,0.623-1.627,0-2.248L96.038,74.542z"/>
	</g>
	<g>
		<path fill="#C12D65" d="M93.973,93.734l-1.662,0.704v3.183H81.051v-3.183l-1.661-0.704c-6.936-2.938-11.416-9.703-11.416-17.234
			c0-10.315,8.39-18.708,18.707-18.708c10.315,0,18.708,8.392,18.708,18.708C105.39,84.031,100.907,90.796,93.973,93.734z
			 M103.762,59.419c-4.562-4.563-10.628-7.075-17.081-7.075S74.163,54.856,69.6,59.419c-4.562,4.563-7.077,10.628-7.077,17.081
			c0,4.838,1.427,9.507,4.125,13.501c2.214,3.278,5.165,5.938,8.618,7.788c-1.459,0.463-2.517,1.828-2.517,3.439v10.325
			c0,1.993,1.617,3.607,3.609,3.607h1.955l1.382,2.491c0.366,0.658,1.282,1.197,2.035,1.197h3.001h3.9h3.001
			c0.753,0,1.669-0.539,2.034-1.197l1.381-2.491h1.958c1.993,0,3.607-1.615,3.607-3.607v-10.325c0-1.611-1.056-2.976-2.516-3.439
			c3.453-1.851,6.404-4.51,8.617-7.788c2.696-3.995,4.124-8.664,4.124-13.501C110.839,70.048,108.325,63.982,103.762,59.419z"/>
		<path fill="#C12D65" d="M95.282,73.787c-0.619-0.621-1.625-0.621-2.248,0l-2.613,2.615l-2.616-2.615
			c-0.621-0.621-1.627-0.621-2.249,0l-2.614,2.615l-2.614-2.615c-0.622-0.621-1.627-0.621-2.248,0l-3.739,3.739
			c-0.62,0.621-0.62,1.626,0,2.248c0.62,0.62,1.625,0.62,2.249,0l2.613-2.615l2.615,2.615c0.299,0.297,0.703,0.465,1.125,0.465
			s0.826-0.168,1.125-0.465l2.614-2.615l2.616,2.615c0.62,0.62,1.625,0.62,2.247,0l2.614-2.615l2.615,2.615
			c0.312,0.31,0.718,0.465,1.124,0.465c0.407,0,0.813-0.156,1.123-0.465c0.623-0.622,0.623-1.627,0-2.248L95.282,73.787z"/>
	</g>
	<g>
		<path fill="#BF2C64" d="M93.217,92.978l-1.662,0.704v3.184H80.294v-3.184l-1.661-0.704c-6.936-2.938-11.416-9.703-11.416-17.234
			c0-10.315,8.39-18.708,18.707-18.708c10.315,0,18.708,8.392,18.708,18.708C104.634,83.275,100.151,90.04,93.217,92.978z
			 M103.006,58.664c-4.562-4.563-10.629-7.076-17.081-7.076c-6.453,0-12.519,2.512-17.082,7.076
			c-4.562,4.562-7.076,10.628-7.076,17.081c0,4.838,1.427,9.507,4.125,13.501c2.214,3.279,5.165,5.938,8.618,7.789
			c-1.459,0.464-2.517,1.828-2.517,3.439v10.326c0,1.992,1.618,3.606,3.609,3.606h1.955l1.382,2.491
			c0.367,0.658,1.282,1.197,2.035,1.197h3.001h3.9h3.001c0.754,0,1.669-0.539,2.034-1.197l1.381-2.491h1.959
			c1.992,0,3.607-1.615,3.607-3.606v-10.326c0-1.611-1.057-2.975-2.516-3.439c3.453-1.851,6.403-4.511,8.617-7.789
			c2.696-3.995,4.123-8.664,4.123-13.501C110.083,69.292,107.569,63.226,103.006,58.664z"/>
		<path fill="#BF2C64" d="M94.526,73.03c-0.619-0.62-1.625-0.62-2.248,0l-2.613,2.615l-2.616-2.615c-0.621-0.62-1.627-0.62-2.249,0
			l-2.613,2.615l-2.614-2.615c-0.622-0.62-1.627-0.62-2.248,0l-3.738,3.739c-0.621,0.621-0.621,1.627,0,2.248
			c0.62,0.62,1.625,0.62,2.248,0l2.613-2.615l2.614,2.615c0.3,0.297,0.703,0.465,1.125,0.465c0.421,0,0.825-0.168,1.124-0.465
			l2.614-2.615l2.615,2.615c0.62,0.62,1.626,0.62,2.247,0l2.614-2.615l2.615,2.615c0.311,0.31,0.718,0.465,1.123,0.465
			c0.407,0,0.813-0.155,1.123-0.465c0.623-0.621,0.623-1.627,0-2.248L94.526,73.03z"/>
	</g>
	<g>
		<path fill="#BC2C62" d="M92.461,92.222l-1.662,0.705v3.183H79.539v-3.183l-1.661-0.705c-6.936-2.938-11.416-9.702-11.416-17.233
			c0-10.315,8.39-18.708,18.707-18.708c10.315,0,18.708,8.393,18.708,18.708C103.877,82.52,99.395,89.283,92.461,92.222z
			 M102.25,57.908c-4.562-4.564-10.629-7.076-17.081-7.076c-6.453,0-12.519,2.512-17.082,7.076
			c-4.562,4.562-7.076,10.627-7.076,17.08c0,4.838,1.427,9.507,4.124,13.501c2.215,3.278,5.165,5.938,8.618,7.789
			c-1.459,0.463-2.517,1.828-2.517,3.439v10.325c0,1.992,1.617,3.607,3.609,3.607h1.955l1.382,2.49
			c0.366,0.659,1.282,1.198,2.035,1.198h3.001h3.9h3.001c0.754,0,1.669-0.539,2.034-1.198l1.381-2.49h1.959
			c1.992,0,3.607-1.615,3.607-3.607V99.718c0-1.611-1.056-2.976-2.515-3.439c3.453-1.851,6.403-4.511,8.617-7.789
			c2.696-3.994,4.123-8.663,4.123-13.501C109.327,68.535,106.813,62.47,102.25,57.908z"/>
		<path fill="#BC2C62" d="M93.77,72.274c-0.619-0.62-1.625-0.62-2.248,0l-2.613,2.615l-2.615-2.615c-0.622-0.62-1.627-0.62-2.249,0
			l-2.613,2.615l-2.614-2.615c-0.622-0.62-1.627-0.62-2.248,0l-3.738,3.739c-0.621,0.621-0.621,1.626,0,2.248
			c0.62,0.621,1.625,0.621,2.248,0l2.613-2.616l2.614,2.616c0.3,0.297,0.703,0.465,1.125,0.465c0.421,0,0.825-0.168,1.124-0.465
			l2.614-2.616l2.615,2.616c0.62,0.621,1.625,0.621,2.247,0l2.614-2.616l2.615,2.616c0.312,0.31,0.717,0.465,1.123,0.465
			c0.407,0,0.813-0.155,1.123-0.465c0.623-0.621,0.623-1.626,0-2.248L93.77,72.274z"/>
	</g>
	<g>
		<path fill="#BA2B61" d="M91.705,91.466l-1.661,0.704v3.184H78.783V92.17l-1.661-0.704c-6.936-2.939-11.416-9.703-11.416-17.234
			c0-10.315,8.39-18.708,18.707-18.708c10.315,0,18.708,8.392,18.708,18.708C103.122,81.763,98.639,88.527,91.705,91.466z
			 M101.495,57.151c-4.562-4.563-10.628-7.075-17.081-7.075c-6.453,0-12.519,2.512-17.082,7.075
			c-4.562,4.563-7.076,10.628-7.076,17.081c0,4.838,1.427,9.507,4.124,13.501c2.215,3.278,5.165,5.937,8.618,7.789
			c-1.459,0.463-2.517,1.827-2.517,3.439v10.325c0,1.992,1.617,3.607,3.609,3.607h1.954l1.383,2.49
			c0.366,0.659,1.282,1.198,2.035,1.198h3.001h3.9h3.001c0.753,0,1.669-0.539,2.035-1.198l1.38-2.49h1.958
			c1.993,0,3.607-1.615,3.607-3.607V98.961c0-1.612-1.056-2.976-2.515-3.439c3.454-1.852,6.404-4.511,8.617-7.789
			c2.697-3.995,4.124-8.664,4.124-13.501C108.571,67.78,106.057,61.714,101.495,57.151z"/>
		<path fill="#BA2B61" d="M93.014,71.519c-0.62-0.62-1.625-0.62-2.249,0l-2.612,2.615l-2.615-2.615c-0.622-0.62-1.627-0.621-2.249,0
			l-2.613,2.615l-2.614-2.615c-0.622-0.62-1.627-0.62-2.248,0l-3.739,3.739c-0.621,0.621-0.621,1.626,0,2.248
			c0.621,0.62,1.625,0.62,2.249,0l2.613-2.616l2.614,2.616c0.299,0.297,0.703,0.465,1.125,0.465c0.421,0,0.825-0.168,1.124-0.465
			l2.614-2.616l2.615,2.616c0.62,0.62,1.626,0.62,2.247,0l2.614-2.616l2.615,2.616c0.311,0.31,0.717,0.465,1.123,0.465
			c0.407,0,0.813-0.155,1.123-0.465c0.623-0.622,0.623-1.627,0-2.248L93.014,71.519z"/>
	</g>
	<g>
		<path fill="#B82A60" d="M90.949,90.71l-1.661,0.704v3.184H78.027v-3.184l-1.661-0.704c-6.936-2.938-11.415-9.702-11.415-17.234
			c0-10.315,8.39-18.708,18.707-18.708c10.315,0,18.708,8.392,18.708,18.708C102.366,81.008,97.883,87.771,90.949,90.71z
			 M100.739,56.396c-4.562-4.563-10.629-7.076-17.082-7.076c-6.453,0-12.518,2.512-17.082,7.076
			c-4.562,4.563-7.076,10.628-7.076,17.081c0,4.838,1.427,9.507,4.125,13.501c2.215,3.278,5.165,5.938,8.618,7.789
			c-1.458,0.463-2.517,1.827-2.517,3.438v10.326c0,1.992,1.618,3.607,3.609,3.607h1.955l1.382,2.491
			c0.367,0.658,1.283,1.197,2.036,1.197h3.001h3.9h3.001c0.754,0,1.669-0.539,2.034-1.197l1.381-2.491h1.958
			c1.993,0,3.607-1.615,3.607-3.607V98.205c0-1.611-1.056-2.976-2.516-3.438c3.454-1.852,6.404-4.511,8.617-7.789
			c2.697-3.994,4.124-8.663,4.124-13.501C107.815,67.023,105.301,60.958,100.739,56.396z"/>
		<path fill="#B82A60" d="M92.258,70.762c-0.62-0.62-1.625-0.62-2.248,0l-2.613,2.616l-2.615-2.616c-0.622-0.62-1.627-0.621-2.249,0
			l-2.614,2.616l-2.614-2.616c-0.622-0.62-1.628-0.62-2.248,0l-3.739,3.739c-0.62,0.621-0.62,1.627,0,2.248
			c0.621,0.62,1.625,0.62,2.249,0l2.613-2.615l2.615,2.615c0.299,0.297,0.703,0.466,1.125,0.466s0.826-0.168,1.125-0.466
			l2.614-2.615l2.616,2.615c0.62,0.62,1.625,0.62,2.247,0l2.614-2.615l2.615,2.615c0.311,0.31,0.717,0.466,1.123,0.466
			c0.407,0,0.813-0.156,1.123-0.466c0.623-0.621,0.623-1.627,0-2.248L92.258,70.762z"/>
	</g>
	<g>
		<path fill="#B6295F" d="M90.193,89.954l-1.661,0.704v3.184H77.271v-3.184l-1.661-0.704c-6.936-2.938-11.416-9.702-11.416-17.234
			c0-10.315,8.39-18.708,18.707-18.708c10.315,0,18.708,8.392,18.708,18.708C101.61,80.252,97.127,87.016,90.193,89.954z
			 M99.982,55.64c-4.562-4.563-10.628-7.076-17.081-7.076c-6.453,0-12.519,2.512-17.082,7.076
			c-4.562,4.562-7.076,10.628-7.076,17.081c0,4.838,1.427,9.507,4.125,13.501c2.214,3.278,5.165,5.938,8.618,7.789
			c-1.458,0.463-2.517,1.828-2.517,3.439v10.325c0,1.992,1.617,3.607,3.609,3.607h1.955l1.382,2.49
			c0.367,0.659,1.282,1.197,2.035,1.197h3.001h3.9h3.001c0.754,0,1.669-0.538,2.035-1.197l1.381-2.49h1.958
			c1.993,0,3.607-1.615,3.607-3.607V97.449c0-1.611-1.056-2.976-2.516-3.439c3.454-1.851,6.404-4.51,8.617-7.789
			c2.697-3.995,4.124-8.664,4.124-13.501C107.059,66.268,104.545,60.202,99.982,55.64z"/>
		<path fill="#B6295F" d="M91.502,70.007c-0.62-0.621-1.625-0.621-2.249,0l-2.612,2.615l-2.616-2.615
			c-0.622-0.621-1.627-0.621-2.249,0l-2.613,2.615l-2.614-2.615c-0.622-0.621-1.628-0.621-2.248,0l-3.739,3.738
			c-0.62,0.621-0.62,1.627,0,2.248c0.621,0.62,1.625,0.62,2.249,0l2.613-2.615l2.614,2.615c0.299,0.297,0.704,0.466,1.125,0.466
			c0.421,0,0.825-0.168,1.124-0.466l2.614-2.615l2.615,2.615c0.621,0.62,1.625,0.62,2.247,0l2.614-2.615l2.615,2.615
			c0.311,0.311,0.717,0.466,1.123,0.466c0.408,0,0.813-0.155,1.123-0.466c0.623-0.621,0.623-1.627,0-2.248L91.502,70.007z"/>
	</g>
	<g>
		<path fill="#B3295D" d="M89.437,89.198l-1.661,0.704v3.184H76.515v-3.184l-1.661-0.704c-6.936-2.938-11.416-9.703-11.416-17.234
			c0-10.315,8.391-18.708,18.708-18.708c10.315,0,18.708,8.392,18.708,18.708C100.854,79.496,96.372,86.26,89.437,89.198z
			 M99.227,54.884c-4.562-4.563-10.628-7.076-17.081-7.076c-6.453,0-12.519,2.512-17.082,7.076
			c-4.562,4.562-7.076,10.628-7.076,17.081c0,4.838,1.427,9.507,4.125,13.501c2.214,3.278,5.165,5.938,8.618,7.789
			c-1.459,0.463-2.517,1.828-2.517,3.439v10.325c0,1.992,1.617,3.607,3.609,3.607h1.955l1.382,2.491
			c0.367,0.658,1.282,1.197,2.035,1.197h3.001h3.9h3.001c0.753,0,1.669-0.539,2.035-1.197l1.381-2.491h1.958
			c1.993,0,3.607-1.615,3.607-3.607V96.693c0-1.611-1.056-2.976-2.516-3.439c3.454-1.851,6.404-4.511,8.617-7.789
			c2.697-3.995,4.124-8.664,4.124-13.501C106.303,65.512,103.79,59.446,99.227,54.884z"/>
		<path fill="#B3295D" d="M90.746,69.25c-0.62-0.62-1.625-0.62-2.249,0l-2.612,2.615l-2.616-2.615c-0.621-0.62-1.626-0.621-2.249,0
			l-2.614,2.615l-2.614-2.615c-0.621-0.62-1.627-0.62-2.247,0l-3.739,3.739c-0.62,0.621-0.62,1.627,0,2.248
			c0.621,0.62,1.625,0.62,2.249,0l2.613-2.615l2.614,2.615c0.299,0.297,0.703,0.465,1.125,0.465c0.421,0,0.826-0.167,1.125-0.465
			l2.614-2.615l2.615,2.615c0.62,0.62,1.625,0.62,2.247,0l2.614-2.615l2.615,2.615c0.311,0.31,0.717,0.465,1.123,0.465
			c0.407,0,0.813-0.155,1.123-0.465c0.623-0.621,0.623-1.627,0-2.248L90.746,69.25z"/>
	</g>
	<g>
		<path fill="#B1285C" d="M88.681,88.442l-1.661,0.704v3.184H75.758v-3.184l-1.66-0.704c-6.936-2.939-11.416-9.703-11.416-17.234
			c0-10.315,8.391-18.708,18.707-18.708c10.315,0,18.709,8.392,18.709,18.708C100.098,78.739,95.616,85.503,88.681,88.442z
			 M98.471,54.128c-4.562-4.563-10.628-7.076-17.082-7.076s-12.518,2.513-17.082,7.076c-4.562,4.562-7.076,10.628-7.076,17.081
			c0,4.837,1.428,9.506,4.125,13.501c2.214,3.278,5.165,5.938,8.617,7.788c-1.459,0.463-2.517,1.828-2.517,3.439v10.325
			c0,1.992,1.617,3.606,3.609,3.606h1.955l1.382,2.491c0.367,0.658,1.282,1.197,2.036,1.197h3.001h3.9h3.001
			c0.754,0,1.67-0.539,2.035-1.197l1.381-2.491h1.958c1.993,0,3.607-1.614,3.607-3.606V95.938c0-1.611-1.057-2.976-2.516-3.439
			c3.453-1.851,6.404-4.511,8.617-7.788c2.697-3.995,4.124-8.664,4.124-13.501C105.547,64.756,103.034,58.689,98.471,54.128z"/>
		<path fill="#B1285C" d="M89.99,68.495c-0.62-0.621-1.625-0.621-2.248,0l-2.612,2.615l-2.616-2.615
			c-0.622-0.621-1.627-0.621-2.249,0l-2.613,2.615l-2.614-2.615c-0.622-0.621-1.628-0.621-2.248,0l-3.739,3.739
			c-0.62,0.621-0.62,1.627,0,2.248c0.621,0.62,1.625,0.62,2.249,0l2.613-2.616l2.614,2.616c0.3,0.297,0.703,0.465,1.125,0.465
			c0.421,0,0.826-0.168,1.124-0.465l2.614-2.616l2.615,2.616c0.62,0.62,1.626,0.62,2.247,0l2.615-2.616l2.615,2.616
			c0.312,0.31,0.718,0.465,1.123,0.465c0.407,0,0.813-0.155,1.124-0.465c0.623-0.621,0.623-1.627,0-2.248L89.99,68.495z"/>
	</g>
	<g>
		<path fill="#AF275B" d="M87.924,87.687l-1.66,0.704v3.184H75.002V88.39l-1.66-0.704c-6.936-2.939-11.416-9.703-11.416-17.234
			c0-10.315,8.391-18.707,18.707-18.707c10.315,0,18.709,8.392,18.709,18.707C99.342,77.983,94.859,84.748,87.924,87.687z
			 M97.714,53.372c-4.562-4.563-10.628-7.076-17.081-7.076s-12.519,2.513-17.082,7.076C58.99,57.934,56.475,64,56.475,70.452
			c0,4.838,1.428,9.507,4.125,13.502c2.214,3.278,5.165,5.937,8.618,7.788c-1.459,0.464-2.517,1.828-2.517,3.439v10.326
			c0,1.992,1.617,3.606,3.609,3.606h1.955l1.382,2.491c0.367,0.659,1.282,1.197,2.035,1.197h3.001h3.9h3.001
			c0.754,0,1.67-0.539,2.035-1.197L89,109.113h1.958c1.993,0,3.607-1.615,3.607-3.606V95.181c0-1.611-1.056-2.975-2.515-3.439
			c3.454-1.851,6.404-4.511,8.617-7.788c2.697-3.995,4.124-8.664,4.124-13.502C104.791,64,102.278,57.934,97.714,53.372z"/>
		<path fill="#AF275B" d="M89.234,67.738c-0.62-0.62-1.625-0.62-2.249,0l-2.611,2.615l-2.616-2.615c-0.622-0.62-1.627-0.62-2.249,0
			l-2.613,2.615l-2.614-2.615c-0.622-0.62-1.627-0.62-2.247,0l-3.74,3.739c-0.62,0.621-0.62,1.627,0,2.248
			c0.621,0.62,1.625,0.62,2.249,0l2.613-2.616l2.614,2.616c0.299,0.297,0.703,0.465,1.125,0.465c0.421,0,0.826-0.168,1.124-0.465
			l2.614-2.616l2.615,2.616c0.62,0.62,1.626,0.62,2.247,0l2.614-2.616l2.615,2.616c0.311,0.31,0.717,0.465,1.123,0.465
			c0.407,0,0.813-0.155,1.123-0.465c0.623-0.621,0.623-1.627,0-2.248L89.234,67.738z"/>
	</g>
	<g>
		<path fill="#AD265A" d="M87.168,86.93l-1.66,0.705v3.183H74.247v-3.183l-1.66-0.705c-6.936-2.938-11.416-9.702-11.416-17.233
			c0-10.315,8.39-18.708,18.707-18.708c10.314,0,18.709,8.393,18.709,18.708C98.586,77.228,94.104,83.991,87.168,86.93z
			 M96.958,52.616c-4.562-4.564-10.628-7.076-17.081-7.076c-6.453,0-12.519,2.512-17.082,7.076
			c-4.562,4.562-7.076,10.627-7.076,17.08c0,4.838,1.428,9.507,4.125,13.501c2.214,3.278,5.164,5.938,8.617,7.789
			c-1.459,0.463-2.517,1.828-2.517,3.439v10.325c0,1.992,1.617,3.607,3.609,3.607h1.955l1.383,2.49
			c0.367,0.659,1.282,1.198,2.035,1.198h3.001h3.899h3.002c0.754,0,1.67-0.539,2.035-1.198l1.381-2.49h1.958
			c1.993,0,3.607-1.615,3.607-3.607V94.426c0-1.611-1.056-2.976-2.516-3.439c3.454-1.851,6.404-4.511,8.618-7.789
			c2.697-3.994,4.124-8.663,4.124-13.501C104.035,63.243,101.522,57.178,96.958,52.616z"/>
		<path fill="#AD265A" d="M88.478,66.982c-0.62-0.62-1.625-0.62-2.249,0l-2.612,2.615l-2.616-2.615c-0.622-0.62-1.627-0.62-2.249,0
			l-2.613,2.615l-2.614-2.615c-0.622-0.62-1.627-0.62-2.248,0l-3.739,3.739c-0.62,0.621-0.62,1.626,0,2.248
			c0.621,0.621,1.625,0.621,2.249,0l2.613-2.616l2.614,2.616c0.299,0.297,0.703,0.465,1.125,0.465c0.421,0,0.825-0.168,1.124-0.465
			l2.614-2.616l2.615,2.616c0.62,0.621,1.625,0.621,2.247,0l2.614-2.616l2.615,2.616c0.311,0.31,0.717,0.465,1.123,0.465
			c0.407,0,0.813-0.155,1.123-0.465c0.623-0.621,0.623-1.626,0-2.248L88.478,66.982z"/>
	</g>
	<g>
		<path fill="#AA2658" d="M86.413,86.174l-1.66,0.704v3.183H73.491v-3.183l-1.66-0.704c-6.936-2.939-11.416-9.703-11.416-17.234
			c0-10.315,8.39-18.708,18.707-18.708c10.314,0,18.708,8.392,18.708,18.708C97.83,76.472,93.348,83.235,86.413,86.174z
			 M96.203,51.86c-4.562-4.564-10.628-7.076-17.081-7.076S66.603,47.296,62.04,51.86c-4.563,4.562-7.076,10.628-7.076,17.081
			c0,4.838,1.427,9.507,4.125,13.501c2.214,3.278,5.164,5.938,8.617,7.789c-1.459,0.463-2.518,1.827-2.518,3.438v10.325
			c0,1.993,1.617,3.607,3.609,3.607h1.955l1.383,2.49c0.367,0.659,1.282,1.198,2.035,1.198h3.001h3.899h3.002
			c0.754,0,1.669-0.539,2.035-1.198l1.381-2.49h1.957c1.993,0,3.607-1.615,3.607-3.607V93.669c0-1.611-1.056-2.976-2.516-3.438
			c3.454-1.851,6.404-4.511,8.617-7.789c2.697-3.995,4.124-8.664,4.124-13.501C103.279,62.488,100.765,56.422,96.203,51.86z"/>
		<path fill="#AA2658" d="M87.722,66.227c-0.62-0.62-1.625-0.62-2.249,0l-2.612,2.615l-2.616-2.615c-0.622-0.62-1.627-0.621-2.249,0
			l-2.613,2.615l-2.614-2.615c-0.622-0.62-1.628-0.62-2.247,0l-3.74,3.738c-0.62,0.621-0.62,1.627,0,2.248
			c0.621,0.62,1.625,0.62,2.249,0l2.613-2.615l2.614,2.615c0.299,0.298,0.703,0.466,1.125,0.466c0.421,0,0.825-0.168,1.124-0.466
			l2.614-2.615l2.615,2.615c0.62,0.62,1.625,0.62,2.247,0l2.614-2.615l2.615,2.615c0.311,0.311,0.717,0.466,1.123,0.466
			c0.407,0,0.813-0.155,1.123-0.466c0.623-0.621,0.623-1.627,0-2.248L87.722,66.227z"/>
	</g>
	<g>
		<path fill="#A82557" d="M85.657,85.418l-1.661,0.704v3.184H72.734v-3.184l-1.66-0.704c-6.936-2.938-11.416-9.702-11.416-17.233
			c0-10.315,8.391-18.708,18.707-18.708c10.315,0,18.709,8.393,18.709,18.708C97.074,75.716,92.592,82.479,85.657,85.418z
			 M95.446,51.104c-4.561-4.564-10.628-7.076-17.081-7.076s-12.518,2.512-17.082,7.076c-4.563,4.562-7.077,10.627-7.077,17.081
			c0,4.838,1.428,9.506,4.125,13.501c2.214,3.279,5.165,5.938,8.617,7.789c-1.458,0.463-2.517,1.827-2.517,3.439v10.325
			c0,1.992,1.617,3.607,3.609,3.607h1.955l1.382,2.491c0.367,0.658,1.283,1.197,2.036,1.197h3h3.9h3.001
			c0.754,0,1.67-0.539,2.035-1.197l1.38-2.491h1.958c1.993,0,3.607-1.615,3.607-3.607V92.914c0-1.612-1.056-2.976-2.516-3.439
			c3.454-1.852,6.404-4.511,8.617-7.789c2.697-3.995,4.124-8.663,4.124-13.501C102.523,61.731,100.01,55.666,95.446,51.104z"/>
		<path fill="#A82557" d="M86.966,65.47c-0.62-0.62-1.625-0.62-2.249,0l-2.612,2.616l-2.616-2.616c-0.622-0.62-1.626-0.621-2.249,0
			l-2.614,2.616l-2.614-2.616c-0.622-0.62-1.627-0.62-2.247,0l-3.74,3.739c-0.619,0.621-0.619,1.627,0,2.248
			c0.621,0.621,1.625,0.621,2.249,0l2.613-2.615l2.614,2.615c0.299,0.298,0.703,0.465,1.125,0.465c0.421,0,0.826-0.167,1.124-0.465
			l2.614-2.615l2.615,2.615c0.621,0.621,1.625,0.621,2.248,0l2.614-2.615l2.615,2.615c0.311,0.311,0.717,0.465,1.123,0.465
			c0.407,0,0.813-0.155,1.123-0.465c0.623-0.621,0.623-1.627,0-2.248L86.966,65.47z"/>
	</g>
	<g>
		<path fill="#A62456" d="M84.9,84.662l-1.66,0.704v3.184H71.979v-3.184l-1.66-0.704c-6.936-2.938-11.416-9.703-11.416-17.233
			c0-10.315,8.391-18.708,18.707-18.708c10.315,0,18.709,8.393,18.709,18.708C96.318,74.959,91.836,81.724,84.9,84.662z
			 M94.69,50.348c-4.561-4.563-10.628-7.076-17.081-7.076c-6.453,0-12.519,2.512-17.082,7.076
			c-4.562,4.562-7.076,10.628-7.076,17.081c0,4.838,1.427,9.506,4.125,13.501c2.215,3.278,5.165,5.938,8.618,7.789
			c-1.459,0.463-2.518,1.827-2.518,3.438v10.325c0,1.992,1.617,3.607,3.609,3.607h1.955l1.383,2.491
			c0.366,0.659,1.282,1.197,2.035,1.197h3.001h3.9h3.001c0.754,0,1.67-0.538,2.035-1.197l1.38-2.491h1.958
			c1.993,0,3.607-1.615,3.607-3.607V92.157c0-1.611-1.056-2.976-2.516-3.438c3.454-1.852,6.404-4.511,8.617-7.789
			c2.697-3.995,4.124-8.663,4.124-13.501C101.767,60.976,99.254,54.91,94.69,50.348z"/>
		<path fill="#A62456" d="M86.21,64.714c-0.62-0.62-1.625-0.62-2.249,0l-2.612,2.615l-2.616-2.615c-0.622-0.62-1.626-0.62-2.249,0
			l-2.613,2.615l-2.615-2.615c-0.622-0.62-1.627-0.62-2.247,0l-3.74,3.739c-0.62,0.621-0.62,1.627,0,2.248
			c0.621,0.62,1.625,0.62,2.249,0l2.613-2.615l2.615,2.615c0.299,0.297,0.703,0.465,1.125,0.465c0.42,0,0.825-0.168,1.124-0.465
			l2.614-2.615l2.615,2.615c0.62,0.62,1.625,0.62,2.248,0l2.614-2.615l2.616,2.615c0.31,0.31,0.717,0.465,1.123,0.465
			c0.407,0,0.813-0.155,1.123-0.465c0.623-0.621,0.623-1.627,0-2.248L86.21,64.714z"/>
	</g>
	<g>
		<path fill="#A42355" d="M84.145,83.906l-1.66,0.704v3.184H71.223V84.61l-1.661-0.704c-6.935-2.938-11.416-9.703-11.416-17.234
			c0-10.315,8.391-18.708,18.707-18.708c10.315,0,18.709,8.392,18.709,18.708C95.563,74.204,91.08,80.968,84.145,83.906z
			 M93.935,49.592c-4.562-4.563-10.628-7.076-17.082-7.076s-12.518,2.512-17.082,7.076c-4.563,4.562-7.077,10.628-7.077,17.081
			c0,4.838,1.428,9.507,4.125,13.501c2.214,3.278,5.165,5.938,8.617,7.789c-1.458,0.463-2.517,1.828-2.517,3.439v10.325
			c0,1.992,1.618,3.606,3.609,3.606h1.955l1.382,2.491c0.368,0.659,1.283,1.197,2.036,1.197h3.001h3.899h3.002
			c0.754,0,1.669-0.539,2.035-1.197l1.381-2.491h1.958c1.993,0,3.607-1.614,3.607-3.606V91.401c0-1.611-1.056-2.976-2.516-3.439
			c3.454-1.851,6.404-4.511,8.617-7.789c2.697-3.995,4.124-8.664,4.124-13.501C101.011,60.22,98.498,54.154,93.935,49.592z"/>
		<path fill="#A42355" d="M85.454,63.958c-0.62-0.62-1.625-0.62-2.249,0l-2.612,2.615l-2.616-2.615c-0.622-0.62-1.627-0.621-2.249,0
			l-2.613,2.615l-2.614-2.615c-0.622-0.62-1.628-0.62-2.248,0l-3.739,3.739c-0.62,0.621-0.62,1.627,0,2.248
			c0.621,0.62,1.625,0.62,2.249,0l2.613-2.615l2.614,2.615c0.299,0.297,0.703,0.465,1.125,0.465c0.421,0,0.825-0.168,1.124-0.465
			l2.614-2.615l2.616,2.615c0.62,0.62,1.625,0.62,2.247,0l2.614-2.615l2.615,2.615c0.311,0.31,0.717,0.465,1.123,0.465
			c0.407,0,0.813-0.156,1.123-0.465c0.623-0.621,0.623-1.627,0-2.248L85.454,63.958z"/>
	</g>
	<g>
		<path fill="#A12353" d="M83.389,83.15l-1.661,0.704v3.184H70.466v-3.184l-1.66-0.704c-6.936-2.938-11.416-9.703-11.416-17.234
			c0-10.315,8.39-18.708,18.707-18.708c10.314,0,18.709,8.392,18.709,18.708C94.806,73.447,90.324,80.212,83.389,83.15z
			 M93.179,48.836c-4.562-4.563-10.628-7.076-17.082-7.076c-6.453,0-12.518,2.512-17.082,7.076
			c-4.563,4.562-7.077,10.628-7.077,17.08c0,4.838,1.428,9.507,4.125,13.502c2.214,3.278,5.164,5.938,8.617,7.789
			c-1.459,0.463-2.518,1.827-2.518,3.439v10.325c0,1.993,1.617,3.607,3.609,3.607h1.955l1.383,2.491
			c0.367,0.658,1.282,1.197,2.035,1.197h3.001h3.899h3.001c0.754,0,1.67-0.539,2.036-1.197l1.38-2.491h1.957
			c1.994,0,3.608-1.615,3.608-3.607V90.646c0-1.612-1.056-2.976-2.516-3.439c3.454-1.851,6.404-4.511,8.617-7.789
			c2.697-3.995,4.124-8.664,4.124-13.502C100.254,59.464,97.742,53.397,93.179,48.836z"/>
		<path fill="#A12353" d="M84.698,63.203c-0.62-0.62-1.625-0.62-2.25,0l-2.611,2.615l-2.616-2.615c-0.623-0.62-1.627-0.621-2.249,0
			l-2.614,2.615l-2.614-2.615c-0.622-0.62-1.627-0.62-2.247,0l-3.74,3.738c-0.619,0.621-0.619,1.627,0,2.249
			c0.621,0.62,1.625,0.62,2.249,0l2.614-2.615l2.614,2.615c0.298,0.297,0.703,0.465,1.125,0.465c0.421,0,0.825-0.167,1.124-0.465
			l2.614-2.615l2.615,2.615c0.62,0.62,1.625,0.62,2.248,0l2.614-2.615l2.615,2.615c0.31,0.31,0.717,0.465,1.123,0.465
			c0.407,0,0.813-0.155,1.123-0.465c0.623-0.622,0.623-1.627,0-2.249L84.698,63.203z"/>
	</g>
	<g>
		<path fill="#9F2252" d="M82.632,82.394l-1.66,0.705v3.183H69.71v-3.183l-1.66-0.705c-6.935-2.938-11.416-9.702-11.416-17.234
			c0-10.315,8.391-18.707,18.707-18.707c10.314,0,18.709,8.392,18.709,18.707C94.051,72.692,89.568,79.456,82.632,82.394z
			 M92.422,48.08c-4.562-4.563-10.628-7.076-17.081-7.076s-12.519,2.512-17.082,7.076c-4.563,4.562-7.076,10.628-7.076,17.081
			c0,4.838,1.428,9.507,4.125,13.501c2.214,3.279,5.164,5.938,8.617,7.789c-1.458,0.464-2.518,1.828-2.518,3.439v10.325
			c0,1.992,1.617,3.606,3.609,3.606h1.955l1.383,2.491c0.368,0.659,1.282,1.197,2.035,1.197h3.001h3.899h3.002
			c0.754,0,1.67-0.538,2.035-1.197l1.381-2.491h1.957c1.993,0,3.607-1.615,3.607-3.606V89.89c0-1.611-1.056-2.976-2.515-3.439
			c3.454-1.851,6.404-4.511,8.617-7.789c2.697-3.995,4.124-8.664,4.124-13.501C99.499,58.708,96.986,52.642,92.422,48.08z"/>
		<path fill="#9F2252" d="M83.942,62.446c-0.62-0.62-1.625-0.62-2.249,0l-2.612,2.615l-2.616-2.615c-0.622-0.62-1.627-0.621-2.249,0
			l-2.613,2.615l-2.614-2.615c-0.623-0.62-1.628-0.62-2.248,0l-3.74,3.739c-0.62,0.622-0.62,1.627,0,2.248
			c0.621,0.621,1.625,0.621,2.249,0l2.613-2.615l2.614,2.615c0.299,0.297,0.703,0.466,1.125,0.466c0.421,0,0.825-0.168,1.124-0.466
			l2.614-2.615l2.615,2.615c0.621,0.621,1.625,0.621,2.247,0l2.614-2.615l2.615,2.615c0.311,0.31,0.717,0.466,1.123,0.466
			c0.408,0,0.813-0.156,1.123-0.466c0.623-0.621,0.623-1.626,0-2.248L83.942,62.446z"/>
	</g>
	<g>
		<g>
			<path fill="#9D2151" d="M81.876,81.638l-1.66,0.704v3.184H68.955v-3.184l-1.66-0.704c-6.936-2.938-11.416-9.703-11.416-17.234
				c0-10.315,8.391-18.708,18.707-18.708c10.314,0,18.709,8.392,18.709,18.708C93.294,71.936,88.812,78.7,81.876,81.638z
				 M91.667,47.324c-4.562-4.563-10.628-7.076-17.081-7.076s-12.519,2.512-17.082,7.076c-4.563,4.562-7.076,10.628-7.076,17.081
				c0,4.838,1.428,9.507,4.125,13.501c2.214,3.278,5.164,5.938,8.617,7.789c-1.459,0.463-2.518,1.828-2.518,3.439v10.325
				c0,1.992,1.617,3.607,3.609,3.607h1.955l1.383,2.491c0.367,0.659,1.282,1.197,2.035,1.197h3.001h3.899h3.002
				c0.754,0,1.67-0.539,2.035-1.197l1.381-2.491h1.957c1.993,0,3.607-1.615,3.607-3.607V89.133c0-1.611-1.056-2.976-2.516-3.439
				c3.454-1.851,6.404-4.511,8.617-7.789c2.697-3.995,4.124-8.664,4.124-13.501C98.743,57.952,96.23,51.886,91.667,47.324z"/>
			<path fill="#9D2151" d="M83.186,61.69c-0.62-0.62-1.625-0.62-2.249,0l-2.611,2.615l-2.616-2.615c-0.622-0.62-1.627-0.621-2.249,0
				l-2.613,2.615l-2.614-2.615c-0.622-0.62-1.628-0.62-2.247,0l-3.74,3.739c-0.619,0.621-0.619,1.627,0,2.248
				c0.621,0.62,1.625,0.62,2.249,0l2.613-2.615l2.614,2.615c0.299,0.297,0.703,0.465,1.125,0.465c0.421,0,0.825-0.168,1.124-0.465
				l2.614-2.615l2.615,2.615c0.62,0.62,1.625,0.62,2.247,0l2.614-2.615l2.615,2.615c0.311,0.31,0.717,0.465,1.123,0.465
				c0.407,0,0.813-0.155,1.123-0.465c0.623-0.621,0.623-1.627,0-2.248L83.186,61.69z"/>
		</g>
	</g>
</g>
<g>
	<g>
		<path fill="#FFFFFF" d="M91.916,47.324c-4.562-4.563-10.629-7.076-17.081-7.076c-6.453,0-12.519,2.512-17.082,7.076
			c-4.562,4.562-7.076,10.628-7.076,17.081c0,4.838,1.427,9.507,4.124,13.501c2.215,3.278,5.165,5.938,8.618,7.789
			c-1.459,0.463-2.517,1.828-2.517,3.439v10.325c0,1.992,1.617,3.607,3.609,3.607h1.955l1.382,2.491
			c0.366,0.659,1.282,1.197,2.035,1.197h3.001h3.9h3.001c0.754,0,1.669-0.539,2.034-1.197l1.381-2.491h1.959
			c1.992,0,3.607-1.615,3.607-3.607V89.133c0-1.611-1.057-2.976-2.516-3.439c3.453-1.851,6.403-4.511,8.617-7.789
			c2.696-3.995,4.123-8.664,4.123-13.501C98.992,57.952,96.478,51.886,91.916,47.324z M82.126,81.638l-1.662,0.704v3.184H69.204
			v-3.184l-1.661-0.704c-6.936-2.938-11.415-9.703-11.415-17.234c0-10.315,8.39-18.708,18.707-18.708
			c10.315,0,18.708,8.392,18.708,18.708C93.542,71.936,89.06,78.7,82.126,81.638z"/>
		<path fill="#FFFFFF" d="M83.435,61.69c-0.619-0.62-1.625-0.62-2.248,0l-2.613,2.615l-2.615-2.615c-0.621-0.62-1.627-0.621-2.249,0
			l-2.613,2.615l-2.614-2.615c-0.621-0.62-1.627-0.62-2.248,0l-3.738,3.739c-0.621,0.621-0.621,1.627,0,2.248
			c0.62,0.62,1.625,0.62,2.248,0l2.613-2.615l2.614,2.615c0.3,0.297,0.703,0.465,1.125,0.465c0.421,0,0.825-0.168,1.124-0.465
			l2.614-2.615l2.615,2.615c0.62,0.62,1.626,0.62,2.247,0l2.614-2.615l2.615,2.615c0.312,0.31,0.718,0.465,1.123,0.465
			c0.407,0,0.813-0.155,1.123-0.465c0.623-0.621,0.623-1.627,0-2.248L83.435,61.69z"/>
	</g>
</g>
</svg>
