<?xml version="1.0" encoding="utf-8"?>
<!-- Generator: Adobe Illustrator 16.0.3, SVG Export Plug-In . SVG Version: 6.00 Build 0)  -->
<!DOCTYPE svg PUBLIC "-//W3C//DTD SVG 1.1//EN" "http://www.w3.org/Graphics/SVG/1.1/DTD/svg11.dtd">
<svg version="1.1" id="Layer_1" xmlns="http://www.w3.org/2000/svg" xmlns:xlink="http://www.w3.org/1999/xlink" x="0px" y="0px"
	 width="147.333px" height="147px" viewBox="0 0 147.333 147" enable-background="new 0 0 147.333 147" xml:space="preserve">
<g>
	<circle fill="#CC316B" cx="73.833" cy="73.5" r="72.5"/>
	<g>
		<g>
			<g>
				<path fill="#CC316B" d="M103.043,84.729l4.452-10.868l6.793,10.868H103.043z M109.234,67.211h-39.28L57.855,86.59l31.739,31.6
					l31.737-31.601L109.234,67.211z M89.594,111.152l-0.13-0.128l-9.412-23.303h19.082l-9.412,23.303L89.594,111.152z
					 M89.809,72.199l8.714,12.53H80.664l8.715-12.53H89.809z M92.847,72.199h12.635l-4.684,11.433L92.847,72.199z M78.389,83.631
					l-4.683-11.433H86.34L78.389,83.631z M76.144,84.729H64.897l6.791-10.877L76.144,84.729z M77.363,87.721l7.603,18.822
					L66.061,87.721H77.363z M101.824,87.721h11.304L94.22,106.545L101.824,87.721z"/>
			</g>
		</g>
		<path fill="#CA306A" d="M102.288,83.973l4.452-10.868l6.792,10.868H102.288z M108.478,66.456H69.198L57.1,85.834l31.739,31.6
			l31.737-31.601L108.478,66.456z M88.838,110.396l-0.13-0.127l-9.412-23.303h19.082l-9.412,23.303L88.838,110.396z M89.053,71.442
			l8.714,12.53H79.908l8.715-12.53H89.053z M92.091,71.442h12.635l-4.684,11.433L92.091,71.442z M77.633,82.875L72.95,71.442h12.634
			L77.633,82.875z M75.387,83.973H64.141l6.791-10.876L75.387,83.973z M76.607,86.965l7.604,18.823L65.305,86.965H76.607z
			 M101.068,86.965h11.304L93.464,105.79L101.068,86.965z"/>
		<path fill="#C82F69" d="M101.532,83.217l4.452-10.868l6.793,10.868H101.532z M107.722,65.699H68.442L56.344,85.078l31.738,31.6
			l31.738-31.601L107.722,65.699z M88.082,109.64l-0.13-0.128L78.54,86.209h19.082l-9.412,23.302L88.082,109.64z M88.297,70.687
			l8.714,12.53h-17.86l8.715-12.53H88.297z M91.335,70.687h12.634l-4.683,11.433L91.335,70.687z M76.877,82.119l-4.684-11.433
			h12.635L76.877,82.119z M74.632,83.217H63.385l6.792-10.876L74.632,83.217z M75.852,86.209l7.603,18.822L64.548,86.209H75.852z
			 M100.312,86.209h11.303l-18.907,18.824L100.312,86.209z"/>
		<path fill="#C52F67" d="M100.776,82.461l4.452-10.868l6.793,10.868H100.776z M106.966,64.943h-39.28L55.587,84.322l31.739,31.6
			l31.737-31.601L106.966,64.943z M87.327,108.884l-0.13-0.128l-9.413-23.303h19.082l-9.412,23.303L87.327,108.884z M87.542,69.931
			l8.713,12.53H78.396l8.715-12.53H87.542z M90.579,69.931h12.635l-4.683,11.433L90.579,69.931z M76.121,81.363l-4.683-11.433
			h12.635L76.121,81.363z M73.875,82.461H62.629l6.791-10.876L73.875,82.461z M75.095,85.453l7.604,18.822L63.792,85.453H75.095z
			 M99.556,85.453h11.303l-18.907,18.824L99.556,85.453z"/>
		<path fill="#C32E66" d="M100.02,81.705l4.452-10.868l6.793,10.868H100.02z M106.21,64.188H66.93L54.832,83.566l31.739,31.6
			l31.737-31.601L106.21,64.188z M86.57,108.128L86.44,108l-9.413-23.303H96.11L86.698,108L86.57,108.128z M86.785,69.175
			l8.714,12.53H77.64l8.715-12.53H86.785z M89.823,69.175h12.635l-4.684,11.433L89.823,69.175z M75.365,80.607l-4.683-11.433h12.634
			L75.365,80.607z M73.12,81.705H61.873l6.791-10.876L73.12,81.705z M74.339,84.697l7.603,18.823L63.037,84.697H74.339z
			 M98.799,84.697h11.304l-18.907,18.824L98.799,84.697z"/>
		<path fill="#C12D65" d="M99.264,80.949l4.452-10.868l6.793,10.868H99.264z M105.454,63.431H66.174L54.076,82.811l31.739,31.6
			l31.737-31.601L105.454,63.431z M85.814,107.372l-0.13-0.128l-9.412-23.303h19.082l-9.412,23.303L85.814,107.372z M86.029,68.418
			l8.714,12.53h-17.86l8.715-12.53H86.029z M89.067,68.418h12.635l-4.684,11.433L89.067,68.418z M74.609,79.852l-4.683-11.433H82.56
			L74.609,79.852z M72.363,80.949H61.117l6.791-10.876L72.363,80.949z M73.583,83.941l7.603,18.823L62.281,83.941H73.583z
			 M98.043,83.941h11.304L90.44,102.765L98.043,83.941z"/>
		<path fill="#BF2C64" d="M98.507,80.192l4.452-10.867l6.793,10.867H98.507z M104.698,62.675h-39.28L53.32,82.054l31.738,31.6
			l31.737-31.601L104.698,62.675z M85.058,106.616l-0.13-0.128l-9.412-23.303h19.082l-9.412,23.304L85.058,106.616z M85.273,67.663
			l8.714,12.53h-17.86l8.715-12.53H85.273z M88.311,67.663h12.635l-4.684,11.433L88.311,67.663z M73.853,79.096L69.17,67.663h12.634
			L73.853,79.096z M71.608,80.192H60.361l6.791-10.876L71.608,80.192z M72.827,83.185l7.603,18.823L61.525,83.185H72.827z
			 M97.288,83.185h11.304L89.684,102.01L97.288,83.185z"/>
		<path fill="#BC2C62" d="M97.751,79.437l4.452-10.867l6.793,10.867H97.751z M103.942,61.919h-39.28l-12.098,19.38l31.738,31.6
			l31.737-31.602L103.942,61.919z M84.302,105.859l-0.13-0.127L74.76,82.429h19.082l-9.412,23.304L84.302,105.859z M84.517,66.906
			l8.714,12.53H75.372l8.715-12.53H84.517z M87.555,66.906h12.635L95.506,78.34L87.555,66.906z M73.097,78.34l-4.683-11.434h12.634
			L73.097,78.34z M70.852,79.437H59.605l6.791-10.876L70.852,79.437z M72.071,82.429l7.604,18.823L60.768,82.429H72.071z
			 M96.532,82.429h11.304l-18.907,18.825L96.532,82.429z"/>
		<path fill="#BA2B61" d="M96.996,78.681l4.452-10.868l6.793,10.868H96.996z M103.186,61.163h-39.28L51.808,80.542l31.739,31.601
			l31.737-31.602L103.186,61.163z M83.546,105.104l-0.13-0.128l-9.412-23.303h19.082l-9.412,23.303L83.546,105.104z M83.761,66.15
			l8.714,12.53H74.616l8.715-12.53H83.761z M86.799,66.15h12.635L94.75,77.583L86.799,66.15z M72.341,77.583L67.658,66.15h12.635
			L72.341,77.583z M70.095,78.681H58.849l6.791-10.876L70.095,78.681z M71.315,81.673l7.603,18.823L60.012,81.673H71.315z
			 M95.776,81.673h11.304l-18.907,18.824L95.776,81.673z"/>
		<path fill="#B82A60" d="M96.24,77.924l4.451-10.867l6.794,10.867H96.24z M102.43,60.407H63.15L51.051,79.786l31.739,31.6
			l31.737-31.601L102.43,60.407z M82.791,104.348l-0.13-0.128l-9.412-23.303H92.33l-9.412,23.303L82.791,104.348z M83.005,65.395
			l8.714,12.53h-17.86l8.715-12.53H83.005z M86.043,65.395h12.635l-4.684,11.433L86.043,65.395z M71.585,76.827l-4.684-11.433
			h12.635L71.585,76.827z M69.34,77.924H58.093l6.791-10.876L69.34,77.924z M70.559,80.917l7.604,18.823L59.257,80.917H70.559z
			 M95.02,80.917h11.303L87.417,99.741L95.02,80.917z"/>
		<path fill="#B6295F" d="M95.483,77.168l4.452-10.868l6.793,10.868H95.483z M101.674,59.651h-39.28L50.295,79.03l31.739,31.6
			l31.737-31.601L101.674,59.651z M82.035,103.592l-0.13-0.128l-9.413-23.303h19.082l-9.412,23.303L82.035,103.592z M82.249,64.639
			l8.714,12.53H73.104l8.715-12.53H82.249z M85.287,64.639h12.635l-4.684,11.433L85.287,64.639z M70.83,76.071l-4.684-11.433H78.78
			L70.83,76.071z M68.583,77.168H57.337l6.791-10.876L68.583,77.168z M69.803,80.161l7.603,18.823L58.5,80.161H69.803z
			 M94.264,80.161h11.304L86.661,98.985L94.264,80.161z"/>
		<path fill="#B3295D" d="M94.728,76.412l4.452-10.867l6.793,10.867H94.728z M100.917,58.895H61.638L49.54,78.274l31.739,31.6
			l31.737-31.601L100.917,58.895z M81.278,102.836l-0.129-0.128l-9.413-23.304h19.082l-9.412,23.304L81.278,102.836z M81.493,63.883
			l8.714,12.529h-17.86l8.715-12.529H81.493z M84.531,63.883h12.635l-4.684,11.433L84.531,63.883z M70.073,75.315L65.39,63.883
			h12.634L70.073,75.315z M67.828,76.412H56.581l6.791-10.876L67.828,76.412z M69.047,79.404l7.603,18.824L57.745,79.404H69.047z
			 M93.508,79.404h11.304L85.904,98.229L93.508,79.404z"/>
		<path fill="#B1285C" d="M93.972,75.656l4.452-10.867l6.793,10.867H93.972z M100.162,58.139H60.882l-12.099,19.38l31.738,31.6
			l31.737-31.601L100.162,58.139z M80.522,102.08l-0.129-0.128L70.98,78.649h19.082l-9.412,23.304L80.522,102.08z M80.737,63.127
			l8.714,12.529h-17.86l8.715-12.529H80.737z M83.775,63.127H96.41l-4.684,11.432L83.775,63.127z M69.317,74.559l-4.683-11.432
			h12.634L69.317,74.559z M67.072,75.656H55.825l6.791-10.876L67.072,75.656z M68.292,78.649l7.603,18.823L56.989,78.649H68.292z
			 M92.751,78.649h11.304L85.149,97.473L92.751,78.649z"/>
		<path fill="#AF275B" d="M93.216,74.9l4.452-10.867L104.46,74.9H93.216z M99.406,57.383H60.126L48.028,76.762l31.738,31.6
			l31.737-31.601L99.406,57.383z M79.766,101.324l-0.13-0.128l-9.412-23.304h19.082l-9.412,23.304L79.766,101.324z M79.981,62.371
			L88.696,74.9h-17.86l8.715-12.529H79.981z M83.019,62.371h12.635L90.97,73.804L83.019,62.371z M68.561,73.804l-4.683-11.433
			h12.634L68.561,73.804z M66.316,74.9H55.069l6.791-10.876L66.316,74.9z M67.536,77.893l7.603,18.823L56.232,77.893H67.536z
			 M91.996,77.893h11.304L84.393,96.718L91.996,77.893z"/>
		<path fill="#AD265A" d="M92.459,74.145l4.452-10.867l6.793,10.867H92.459z M98.65,56.627H59.37l-12.098,19.38l31.738,31.6
			l31.737-31.602L98.65,56.627z M79.01,100.567l-0.13-0.127l-9.412-23.304H88.55l-9.412,23.304L79.01,100.567z M79.225,61.614
			l8.715,12.53H70.08l8.715-12.53H79.225z M82.263,61.614h12.635l-4.684,11.434L82.263,61.614z M67.805,73.048l-4.683-11.434h12.634
			L67.805,73.048z M65.56,74.145H54.313l6.791-10.876L65.56,74.145z M66.779,77.137l7.604,18.823L55.476,77.137H66.779z
			 M91.24,77.137h11.304L83.636,95.961L91.24,77.137z"/>
		<path fill="#AA2658" d="M91.704,73.389l4.451-10.868l6.794,10.868H91.704z M97.894,55.871h-39.28L46.516,75.25l31.739,31.6
			l31.737-31.602L97.894,55.871z M78.254,99.812l-0.129-0.128l-9.413-23.303h19.081l-9.411,23.304L78.254,99.812z M78.469,60.858
			l8.715,12.53h-17.86l8.715-12.53H78.469z M81.507,60.858h12.635l-4.684,11.433L81.507,60.858z M67.049,72.291l-4.683-11.433H75
			L67.049,72.291z M64.803,73.389H53.557l6.791-10.876L64.803,73.389z M66.023,76.381l7.603,18.823L54.72,76.381H66.023z
			 M90.484,76.381h11.304L82.88,95.205L90.484,76.381z"/>
		<path fill="#A82557" d="M90.948,72.632l4.451-10.868l6.794,10.868H90.948z M97.138,55.115h-39.28L45.759,74.494l31.739,31.601
			l31.737-31.601L97.138,55.115z M77.499,99.056l-0.13-0.127l-9.412-23.304h19.081l-9.411,23.304L77.499,99.056z M77.713,60.103
			l8.715,12.529h-17.86l8.715-12.529H77.713z M80.75,60.103h12.636l-4.684,11.432L80.75,60.103z M66.293,71.535L61.61,60.103h12.635
			L66.293,71.535z M64.047,72.632H52.801l6.791-10.876L64.047,72.632z M65.267,75.625l7.604,18.824L53.965,75.625H65.267z
			 M89.728,75.625h11.304L82.125,94.45L89.728,75.625z"/>
		<path fill="#A62456" d="M90.192,71.876l4.451-10.868l6.794,10.868H90.192z M96.382,54.358h-39.28l-12.099,19.38l31.739,31.601
			l31.738-31.602L96.382,54.358z M76.742,98.3l-0.129-0.128l-9.412-23.304h19.081L76.87,98.172L76.742,98.3z M76.957,59.347
			l8.715,12.53h-17.86l8.715-12.53H76.957z M79.995,59.347H92.63L87.947,70.78L79.995,59.347z M65.537,70.78l-4.683-11.433h12.635
			L65.537,70.78z M63.292,71.876H52.045L58.836,61L63.292,71.876z M64.511,74.868l7.604,18.824L53.208,74.868H64.511z
			 M88.972,74.868h11.303L81.369,93.693L88.972,74.868z"/>
		<path fill="#A42355" d="M89.436,71.12l4.451-10.867l6.794,10.867H89.436z M95.625,53.603H56.346l-12.099,19.38l31.738,31.601
			l31.738-31.602L95.625,53.603z M75.986,97.544l-0.129-0.128l-9.413-23.304h19.082l-9.412,23.305L75.986,97.544z M76.201,58.591
			l8.715,12.529H67.055l8.715-12.529H76.201z M79.239,58.591h12.635L87.19,70.023L79.239,58.591z M64.781,70.023l-4.683-11.433
			h12.634L64.781,70.023z M62.536,71.12H51.289l6.791-10.876L62.536,71.12z M63.755,74.112l7.603,18.824L52.453,74.112H63.755z
			 M88.215,74.112h11.304L80.613,92.938L88.215,74.112z"/>
		<path fill="#A12353" d="M88.679,70.364l4.452-10.868l6.793,10.868H88.679z M94.87,52.847H55.59l-12.099,19.38l31.739,31.6
			l31.737-31.601L94.87,52.847z M75.23,96.788l-0.129-0.128l-9.413-23.304H84.77l-9.411,23.305L75.23,96.788z M75.445,57.835
			l8.714,12.529H66.3l8.715-12.529H75.445z M78.482,57.835h12.636l-4.684,11.433L78.482,57.835z M64.025,69.268l-4.683-11.433
			h12.634L64.025,69.268z M61.779,70.364H50.533l6.791-10.876L61.779,70.364z M62.999,73.356l7.603,18.824L51.697,73.356H62.999z
			 M87.459,73.356h11.304L79.856,92.181L87.459,73.356z"/>
		<path fill="#9F2252" d="M87.923,69.608l4.451-10.867l6.794,10.867H87.923z M94.114,52.091h-39.28l-12.099,19.38l31.739,31.6
			l31.738-31.602L94.114,52.091z M74.474,96.032l-0.129-0.128l-9.413-23.303h19.082l-9.412,23.304L74.474,96.032z M74.689,57.079
			l8.715,12.529h-17.86l8.715-12.529H74.689z M77.727,57.079h12.635l-4.684,11.433L77.727,57.079z M63.27,68.511l-4.684-11.433
			H71.22L63.27,68.511z M61.024,69.608H49.777l6.791-10.876L61.024,69.608z M62.244,72.601l7.603,18.824L50.94,72.601H62.244z
			 M86.704,72.601h11.304L79.101,91.426L86.704,72.601z"/>
		<g>
			<g>
				<path fill="#9D2151" d="M87.167,68.852l4.451-10.867l6.794,10.867H87.167z M93.358,51.334h-39.28l-12.099,19.38l31.739,31.601
					l31.737-31.602L93.358,51.334z M73.718,95.276l-0.129-0.128l-9.413-23.304h19.081l-9.411,23.305L73.718,95.276z M73.933,56.323
					l8.715,12.529h-17.86l8.715-12.529H73.933z M76.971,56.323h12.635l-4.684,11.433L76.971,56.323z M62.513,67.755L57.83,56.323
					h12.634L62.513,67.755z M60.268,68.852H49.021l6.791-10.876L60.268,68.852z M61.487,71.844l7.603,18.824L50.185,71.844H61.487z
					 M85.948,71.844h11.304L78.345,90.669L85.948,71.844z"/>
			</g>
		</g>
	</g>
	<g>
		<g>
			<path fill="#FFFFFF" d="M93.607,51.334h-39.28l-12.099,19.38l31.739,31.601l31.737-31.602L93.607,51.334z M73.967,95.276
				l-0.129-0.128l-9.413-23.304h19.082l-9.412,23.305L73.967,95.276z M74.182,56.323l8.714,12.529H65.037l8.715-12.529H74.182z
				 M77.22,56.323h12.635l-4.684,11.433L77.22,56.323z M62.762,67.755l-4.683-11.433h12.634L62.762,67.755z M60.517,68.852H49.27
				l6.791-10.876L60.517,68.852z M61.736,71.844l7.603,18.824L50.434,71.844H61.736z M86.197,71.844H97.5L78.594,90.669
				L86.197,71.844z M87.417,68.852l4.452-10.867l6.793,10.867H87.417z"/>
		</g>
	</g>
</g>
</svg>
