<?xml version="1.0" encoding="utf-8"?>
<!-- Generator: Adobe Illustrator 16.0.3, SVG Export Plug-In . SVG Version: 6.00 Build 0)  -->
<!DOCTYPE svg PUBLIC "-//W3C//DTD SVG 1.1//EN" "http://www.w3.org/Graphics/SVG/1.1/DTD/svg11.dtd">
<svg version="1.1" id="Layer_1" xmlns="http://www.w3.org/2000/svg" xmlns:xlink="http://www.w3.org/1999/xlink" x="0px" y="0px"
	 width="147.333px" height="147px" viewBox="0 0 147.333 147" enable-background="new 0 0 147.333 147" xml:space="preserve">
<circle fill="#CC316B" cx="74.011" cy="73.5" r="72.5"/>
<g>
	<g>
		<g>
			<polygon fill="#CC316B" points="89.488,89.095 98.91,95.53 110.189,77.288 111.561,82.458 117.821,80.794 113.675,65.198 
				98.078,69.341 99.74,75.602 104.376,74.37 96.965,86.358 87.639,79.988 73.736,101.64 79.186,105.141 			"/>
			<polygon fill="#CC316B" points="69.371,61.348 63.67,61.348 63.67,115.677 117.821,115.677 117.821,109.977 69.371,109.977 			
				"/>
		</g>
	</g>
	<g>
		<polygon fill="#CA306A" points="88.731,88.339 98.153,94.774 109.433,76.532 110.805,81.702 117.065,80.038 112.919,64.442 
			97.322,68.585 98.983,74.846 103.62,73.613 96.209,85.602 86.883,79.232 72.979,100.884 78.43,104.384 		"/>
		<polygon fill="#CA306A" points="68.615,60.591 62.915,60.591 62.915,114.921 117.065,114.921 117.065,109.221 68.615,109.221 		
			"/>
	</g>
	<g>
		<polygon fill="#C82F69" points="87.976,87.583 97.397,94.018 108.677,75.776 110.049,80.946 116.309,79.282 112.164,63.686 
			96.565,67.829 98.228,74.09 102.865,72.858 95.453,84.846 86.127,78.477 72.224,100.128 77.673,103.629 		"/>
		<polygon fill="#C82F69" points="67.859,59.836 62.158,59.836 62.158,114.166 116.309,114.166 116.309,108.465 67.859,108.465 		
			"/>
	</g>
	<g>
		<polygon fill="#C52F67" points="87.22,86.828 96.642,93.262 107.921,75.02 109.293,80.19 115.553,78.526 111.407,62.93 
			95.81,67.073 97.472,73.334 102.109,72.102 94.697,84.09 85.372,77.72 71.468,99.372 76.917,102.873 		"/>
		<polygon fill="#C52F67" points="67.103,59.08 61.402,59.08 61.402,113.41 115.553,113.41 115.553,107.708 67.103,107.708 		"/>
	</g>
	<g>
		<polygon fill="#C32E66" points="86.464,86.071 95.886,92.506 107.165,74.264 108.537,79.434 114.796,77.77 110.651,62.174 
			95.053,66.317 96.716,72.578 101.353,71.346 93.941,83.334 84.615,76.964 70.712,98.616 76.162,102.117 		"/>
		<polygon fill="#C32E66" points="66.347,58.324 60.646,58.324 60.646,112.653 114.796,112.653 114.796,106.953 66.347,106.953 		
			"/>
	</g>
	<g>
		<polygon fill="#C12D65" points="85.708,85.315 95.129,91.75 106.409,73.508 107.781,78.678 114.041,77.014 109.895,61.418 
			94.297,65.561 95.959,71.822 100.596,70.59 93.185,82.578 83.859,76.208 69.956,97.86 75.406,101.361 		"/>
		<polygon fill="#C12D65" points="65.591,57.567 59.89,57.567 59.89,111.897 114.041,111.897 114.041,106.197 65.591,106.197 		"/>
	</g>
	<g>
		<polygon fill="#BF2C64" points="84.952,84.559 94.374,90.995 105.653,72.752 107.025,77.922 113.285,76.258 109.139,60.662 
			93.542,64.805 95.204,71.066 99.84,69.833 92.429,81.822 83.103,75.452 69.2,97.104 74.65,100.604 		"/>
		<polygon fill="#BF2C64" points="64.835,56.812 59.134,56.812 59.134,111.141 113.285,111.141 113.285,105.441 64.835,105.441 		
			"/>
	</g>
	<g>
		<polygon fill="#BC2C62" points="84.196,83.803 93.618,90.238 104.897,71.997 106.269,77.166 112.529,75.501 108.383,59.906 
			92.786,64.049 94.448,70.31 99.084,69.078 91.673,81.066 82.347,74.696 68.444,96.348 73.894,99.849 		"/>
		<polygon fill="#BC2C62" points="64.08,56.056 58.378,56.056 58.378,110.385 112.529,110.385 112.529,104.684 64.08,104.684 		"/>
	</g>
	<g>
		<polygon fill="#BA2B61" points="83.44,83.047 92.861,89.482 104.141,71.24 105.513,76.41 111.773,74.746 107.627,59.15 
			92.029,63.293 93.691,69.554 98.329,68.322 90.917,80.31 81.591,73.94 67.688,95.592 73.138,99.092 		"/>
		<polygon fill="#BA2B61" points="63.323,55.299 57.623,55.299 57.623,109.629 111.773,109.629 111.773,103.928 63.323,103.928 		
			"/>
	</g>
	<g>
		<polygon fill="#B82A60" points="82.684,82.292 92.105,88.727 103.384,70.484 104.757,75.654 111.017,73.99 106.871,58.394 
			91.273,62.537 92.936,68.798 97.573,67.566 90.162,79.554 80.835,73.184 66.932,94.836 72.382,98.336 		"/>
		<polygon fill="#B82A60" points="62.567,54.543 56.866,54.543 56.866,108.873 111.017,108.873 111.017,103.172 62.567,103.172 		
			"/>
	</g>
	<g>
		<polygon fill="#B6295F" points="81.928,81.535 91.349,87.97 102.628,69.728 104.001,74.898 110.261,73.234 106.116,57.638 
			90.517,61.781 92.18,68.042 96.816,66.81 89.405,78.798 80.08,72.428 66.176,94.08 71.625,97.581 		"/>
		<polygon fill="#B6295F" points="61.811,53.788 56.11,53.788 56.11,108.117 110.261,108.117 110.261,102.417 61.811,102.417 		"/>
	</g>
	<g>
		<polygon fill="#B3295D" points="81.172,80.779 90.593,87.214 101.873,68.972 103.245,74.142 109.505,72.478 105.359,56.882 
			89.761,61.025 91.423,67.286 96.06,66.053 88.649,78.042 79.323,71.672 65.419,93.324 70.87,96.825 		"/>
		<polygon fill="#B3295D" points="61.055,53.032 55.354,53.032 55.354,107.361 109.505,107.361 109.505,101.661 61.055,101.661 		
			"/>
	</g>
	<g>
		<polygon fill="#B1285C" points="80.416,80.023 89.837,86.458 101.117,68.216 102.489,73.386 108.749,71.722 104.603,56.125 
			89.005,60.269 90.667,66.53 95.305,65.297 87.894,77.286 78.567,70.917 64.664,92.568 70.114,96.069 		"/>
		<polygon fill="#B1285C" points="60.299,52.276 54.598,52.276 54.598,106.605 108.749,106.605 108.749,100.904 60.299,100.904 		
			"/>
	</g>
	<g>
		<polygon fill="#AF275B" points="79.66,79.267 89.081,85.702 100.36,67.46 101.733,72.63 107.993,70.966 103.847,55.37 
			88.249,59.513 89.912,65.774 94.548,64.542 87.137,76.53 77.811,70.161 63.908,91.812 69.358,95.313 		"/>
		<polygon fill="#AF275B" points="59.543,51.52 53.842,51.52 53.842,105.849 107.993,105.849 107.993,100.148 59.543,100.148 		"/>
	</g>
	<g>
		<polygon fill="#AD265A" points="78.904,78.511 88.325,84.946 99.604,66.705 100.977,71.874 107.237,70.209 103.091,54.614 
			87.493,58.757 89.156,65.018 93.792,63.786 86.381,75.774 77.055,69.404 63.152,91.056 68.602,94.557 		"/>
		<polygon fill="#AD265A" points="58.788,50.764 53.086,50.764 53.086,105.093 107.237,105.093 107.237,99.392 58.788,99.392 		"/>
	</g>
	<g>
		<polygon fill="#AA2658" points="78.148,77.755 87.569,84.19 98.848,65.948 100.221,71.118 106.481,69.454 102.335,53.858 
			86.737,58 88.4,64.262 93.037,63.03 85.625,75.018 76.299,68.648 62.396,90.3 67.845,93.8 		"/>
		<polygon fill="#AA2658" points="58.031,50.007 52.331,50.007 52.331,104.337 106.481,104.337 106.481,98.636 58.031,98.636 		"/>
	</g>
	<g>
		<polygon fill="#A82557" points="77.392,76.999 86.813,83.435 98.092,65.192 99.465,70.362 105.725,68.698 101.579,53.102 
			85.981,57.245 87.644,63.506 92.281,62.274 84.869,74.262 75.543,67.892 61.64,89.544 67.089,93.044 		"/>
		<polygon fill="#A82557" points="57.275,49.252 51.575,49.252 51.575,103.581 105.725,103.581 105.725,97.88 57.275,97.88 		"/>
	</g>
	<g>
		<polygon fill="#A62456" points="76.636,76.243 86.057,82.678 97.336,64.436 98.709,69.606 104.969,67.942 100.824,52.346 
			85.225,56.489 86.888,62.75 91.524,61.518 84.113,73.506 74.787,67.136 60.884,88.788 66.333,92.289 		"/>
		<polygon fill="#A62456" points="56.52,48.496 50.818,48.496 50.818,102.825 104.969,102.825 104.969,97.125 56.52,97.125 		"/>
	</g>
	<g>
		<polygon fill="#A42355" points="75.88,75.487 85.301,81.922 96.58,63.68 97.953,68.85 104.213,67.186 100.067,51.59 
			84.469,55.733 86.132,61.994 90.769,60.762 83.357,72.75 74.031,66.38 60.128,88.032 65.578,91.533 		"/>
		<polygon fill="#A42355" points="55.763,47.74 50.063,47.74 50.063,102.069 104.213,102.069 104.213,96.369 55.763,96.369 		"/>
	</g>
	<g>
		<polygon fill="#A12353" points="75.125,74.731 84.545,81.167 95.824,62.924 97.197,68.094 103.457,66.43 99.311,50.833 
			83.713,54.977 85.375,61.238 90.012,60.005 82.602,71.994 73.275,65.624 59.372,87.276 64.821,90.776 		"/>
		<polygon fill="#A12353" points="55.007,46.984 49.307,46.984 49.307,101.313 103.457,101.313 103.457,95.613 55.007,95.613 		"/>
	</g>
	<g>
		<polygon fill="#9F2252" points="74.368,73.975 83.789,80.41 95.068,62.168 96.441,67.338 102.701,65.674 98.556,50.078 
			82.957,54.221 84.62,60.482 89.257,59.25 81.845,71.238 72.519,64.869 58.616,86.52 64.065,90.021 		"/>
		<polygon fill="#9F2252" points="54.251,46.228 48.55,46.228 48.55,100.557 102.701,100.557 102.701,94.856 54.251,94.856 		"/>
	</g>
	<g>
		<g>
			<polygon fill="#9D2151" points="73.612,73.219 83.033,79.654 94.312,61.412 95.685,66.582 101.945,64.918 97.799,49.322 
				82.201,53.465 83.864,59.726 88.5,58.494 81.089,70.482 71.763,64.112 57.86,85.764 63.31,89.265 			"/>
			<polygon fill="#9D2151" points="53.495,45.472 47.794,45.472 47.794,99.801 101.945,99.801 101.945,94.101 53.495,94.101 			"/>
		</g>
	</g>
</g>
<g>
	<g>
		<polygon fill="#FFFFFF" points="73.861,73.219 83.283,79.654 94.562,61.412 95.934,66.582 102.194,64.918 98.048,49.322 
			82.451,53.465 84.113,59.726 88.75,58.494 81.338,70.482 72.012,64.112 58.109,85.764 63.559,89.265 		"/>
		<polygon fill="#FFFFFF" points="53.744,45.472 48.043,45.472 48.043,99.801 102.194,99.801 102.194,94.101 53.744,94.101 		"/>
	</g>
</g>
</svg>
